<svg xmlns="http://www.w3.org/2000/svg" width="791.46" height="439.479" viewBox="0 0 791.46 439.479">
  <g id="Slash_Your_Fuel_Costs_Dramatically" data-name="Slash Your Fuel Costs Dramatically" transform="translate(-114 -303.921)">
    <g id="Group_921" data-name="Group 921" transform="translate(416.487 459.703)">
      <g id="Group_920" data-name="Group 920" transform="translate(0)">
        <rect id="Rectangle_327" data-name="Rectangle 327" width="93.853" height="189.845" transform="translate(85.574 89.574)" fill="#a8ddc6"/>
        <rect id="Rectangle_328" data-name="Rectangle 328" width="50.414" height="279.419" fill="#e1fff3"/>
        <rect id="Rectangle_329" data-name="Rectangle 329" width="93.853" height="189.845" transform="translate(50.414 89.574)" fill="#6cbc97"/>
        <rect id="Rectangle_330" data-name="Rectangle 330" width="13.766" height="89.574" transform="translate(50.414)" fill="#a8ddc6"/>
        <rect id="Rectangle_331" data-name="Rectangle 331" width="67.436" height="42.973" transform="translate(66.878 16.464)" fill="#a8ddc6"/>
        <rect id="Rectangle_332" data-name="Rectangle 332" width="67.436" height="42.973" transform="translate(48.926 16.464)" fill="#e1fff3"/>
        <rect id="Rectangle_333" data-name="Rectangle 333" width="32.462" height="6.604" transform="translate(75.436 22.138)" fill="#01ce80"/>
        <rect id="Rectangle_334" data-name="Rectangle 334" width="7.999" height="6.604" transform="translate(57.205 22.138)" fill="#01ce80"/>
        <rect id="Rectangle_335" data-name="Rectangle 335" width="7.999" height="6.604" transform="translate(57.205 33.672)" fill="#01ce80"/>
        <rect id="Rectangle_336" data-name="Rectangle 336" width="7.999" height="6.604" transform="translate(57.205 45.299)" fill="#01ce80"/>
        <rect id="Rectangle_337" data-name="Rectangle 337" width="32.462" height="6.604" transform="translate(75.436 33.672)" fill="#01ce80"/>
        <rect id="Rectangle_338" data-name="Rectangle 338" width="32.462" height="6.604" transform="translate(75.436 45.299)" fill="#01ce80"/>
        <rect id="Rectangle_339" data-name="Rectangle 339" width="17.208" height="86.504" transform="translate(17.022 45.299)" fill="#01ce80"/>
        <g id="Group_919" data-name="Group 919" transform="translate(6.976 7.441)">
          <path id="Path_2387" data-name="Path 2387" d="M484,743.657H446.7V479.4H484Zm-36.741-.651h36.183V479.958H447.258Z" transform="translate(-446.7 -479.4)" fill="#a8ddc6"/>
        </g>
      </g>
      <rect id="Rectangle_340" data-name="Rectangle 340" width="13.673" height="0.837" transform="translate(78.598 23.998)" fill="#e1fff3"/>
      <rect id="Rectangle_341" data-name="Rectangle 341" width="13.673" height="0.837" transform="translate(78.598 25.858)" fill="#e1fff3"/>
      <rect id="Rectangle_342" data-name="Rectangle 342" width="13.673" height="0.837" transform="translate(78.598 35.625)" fill="#e1fff3"/>
      <rect id="Rectangle_343" data-name="Rectangle 343" width="13.673" height="0.837" transform="translate(78.598 37.485)" fill="#e1fff3"/>
      <rect id="Rectangle_344" data-name="Rectangle 344" width="13.673" height="0.837" transform="translate(78.598 49.112)" fill="#e1fff3"/>
      <rect id="Rectangle_345" data-name="Rectangle 345" width="13.673" height="0.837" transform="translate(78.598 47.066)" fill="#e1fff3"/>
    </g>
    <g id="Group_926" data-name="Group 926" transform="translate(359.82 303.921)">
      <path id="Path_2388" data-name="Path 2388" d="M378.3,428.434c.465-10.6,20.742-36.834,20.742-36.834s4.651,13.3,4.744,13.58c4.186,8.371,10.7,19.347,10.418,24.835-.465,10.6-8.836,18.789-18.789,18.417C385.554,447.967,377.833,439.038,378.3,428.434Z" transform="translate(-378.279 -310.045)" fill="#01ce80"/>
      <g id="Group_925" data-name="Group 925" transform="translate(13.6)">
        <g id="Group_923" data-name="Group 923" transform="translate(0 24.04)">
          <g id="Group_922" data-name="Group 922">
            <path id="Path_2389" data-name="Path 2389" d="M404.806,400.769,392.9,366.353l97.015-33.579a53.844,53.844,0,0,1,29.207-1.767l104.829,22.417-7.627,35.625L511.495,366.632a18.919,18.919,0,0,0-9.674.558Z" transform="translate(-392.9 -329.766)" fill="#e1fff3"/>
          </g>
        </g>
        <g id="Group_924" data-name="Group 924" transform="translate(310.3 189.639)">
          <path id="Path_2390" data-name="Path 2390" d="M821,606.49l-36.648-71.343a25.244,25.244,0,0,0-22.231-13.766l-35.625-.558.186-13.022,35.625.558a38.254,38.254,0,0,1,33.579,20.835l36.648,71.343Z" transform="translate(-726.5 -507.8)" fill="#023735"/>
        </g>
        <path id="Path_2391" data-name="Path 2391" d="M898.978,573.395l-74.04,63.995a21.234,21.234,0,0,1-29.486-1.581L710.993,545.49c-17.58-18.789-15.906-63.53,4.651-78.877L752.85,454.8l-11.906,26.975A50.607,50.607,0,0,0,749.5,536l53.856,59.9a16.413,16.413,0,0,0,23.626.837L876,549.676Z" transform="translate(-414.274 -314.459)" fill="#e1fff3"/>
        <path id="Path_2392" data-name="Path 2392" d="M885.539,575.243a6.577,6.577,0,1,1,2.6,8.93A6.59,6.59,0,0,1,885.539,575.243Z" transform="translate(-427.251 -322.633)" fill="#023735"/>
        <path id="Path_2393" data-name="Path 2393" d="M937.851,522.588l-43.81,40.276L793.863,461.477a58.576,58.576,0,0,0-16.557-11.627l-1.953-.837h0a54.445,54.445,0,0,0-17.673-4.093,26.69,26.69,0,0,0-17.58,5.209l-54.693,50.042-15.161-9.581a16.87,16.87,0,0,1-7.627-12.371l-6.232-65.669-21.021-5.767a9.738,9.738,0,0,1-6.79-12l13.208-47.9a12.518,12.518,0,0,1,13.58-9.023l4.372.558a63.069,63.069,0,0,0,7.162.465,53.56,53.56,0,0,0,47.066-27.9A13.308,13.308,0,0,1,729.4,304.56l79.435,23.626c27.44,9.3,27.254,5.953,51.624,30.974l42.88,43.252a35.843,35.843,0,0,1,9.3,34.509l-9.115,35.253,34.6,34.788A10.715,10.715,0,0,1,937.851,522.588Z" transform="translate(-409.337 -303.928)" fill="#01ce80"/>
        <path id="Path_2394" data-name="Path 2394" d="M906.18,471.516l-.186.558.558.558-85.76-79.342a65.239,65.239,0,0,0-26.509-14.882L662.2,338.317a63.071,63.071,0,0,0,7.162.465,53.56,53.56,0,0,0,47.066-27.9,13.308,13.308,0,0,1,15.441-6.418L811.3,328.086c27.44,9.3,27.254,5.953,51.624,30.974l42.88,43.252a35.843,35.843,0,0,1,9.3,34.509Z" transform="translate(-411.709 -303.921)" fill="#023735"/>
        <path id="Path_2395" data-name="Path 2395" d="M617.481,346.8l22.417,4.93-10.976,41.206L607.9,386.983Z" transform="translate(-407.917 -306.916)" fill="#023735"/>
        <rect id="Rectangle_346" data-name="Rectangle 346" width="2.79" height="38.508" transform="matrix(0.976, 0.216, -0.216, 0.976, 186.389, 36.966)" fill="#023735"/>
        <rect id="Rectangle_347" data-name="Rectangle 347" width="2.79" height="38.508" transform="matrix(0.976, 0.216, -0.216, 0.976, 167.906, 33.037)" fill="#023735"/>
        <rect id="Rectangle_348" data-name="Rectangle 348" width="2.79" height="38.508" transform="matrix(0.976, 0.216, -0.216, 0.976, 149.399, 28.943)" fill="#023735"/>
        <rect id="Rectangle_349" data-name="Rectangle 349" width="2.79" height="38.508" transform="matrix(0.976, 0.216, -0.216, 0.976, 130.766, 25.25)" fill="#023735"/>
        <path id="Path_2396" data-name="Path 2396" d="M777.467,457.169a54.445,54.445,0,0,0-17.673-4.093,26.69,26.69,0,0,0-17.58,5.209l-48.461,54.507a7.226,7.226,0,0,1-10.511.186l-12.185-12.743a23.323,23.323,0,0,1-6.325-13.766L658.5,420.8C658.593,420.614,758.957,444.7,777.467,457.169Z" transform="translate(-411.451 -312.084)" fill="#023735"/>
      </g>
    </g>
    <g id="Group_939" data-name="Group 939" transform="translate(343.283 471.702)">
      <g id="Group_930" data-name="Group 930" transform="translate(1.023)">
        <g id="Group_929" data-name="Group 929">
          <path id="Path_2397" data-name="Path 2397" d="M361.6,506.252A21.952,21.952,0,1,1,383.552,528.2,21.933,21.933,0,0,1,361.6,506.252Z" transform="translate(-361.6 -484.3)" fill="#01e193"/>
          <g id="Group_927" data-name="Group 927" transform="translate(2.604 2.697)">
            <path id="Path_2398" data-name="Path 2398" d="M383.654,525.708a19.254,19.254,0,1,1,19.254-19.254A19.293,19.293,0,0,1,383.654,525.708Zm0-38.043a18.789,18.789,0,1,0,18.789,18.789A18.856,18.856,0,0,0,383.654,487.665Z" transform="translate(-364.4 -487.2)" fill="#e0ece8"/>
          </g>
          <g id="Group_928" data-name="Group 928" transform="translate(12.557 6.139)">
            <path id="Path_2399" data-name="Path 2399" d="M387.006,511.922a4.712,4.712,0,0,0-.186-1.209,1.573,1.573,0,0,0-.651-.93,3.344,3.344,0,0,0-1.116-.744,14.754,14.754,0,0,0-1.674-.744,23.427,23.427,0,0,1-3.07-1.3,11.122,11.122,0,0,1-2.325-1.488,5.546,5.546,0,0,1-1.488-2.046,5.02,5.02,0,0,1-.465-2.7,5.538,5.538,0,0,1,.558-2.511,7.449,7.449,0,0,1,1.4-1.953,6.3,6.3,0,0,1,2.139-1.3,8.768,8.768,0,0,1,2.79-.651l.093-3.442h2.79l-.093,3.442a8.322,8.322,0,0,1,2.7.837,5.768,5.768,0,0,1,2.046,1.581,8.8,8.8,0,0,1,1.3,2.232,7.238,7.238,0,0,1,.372,2.883l-5.023-.093a4.269,4.269,0,0,0-.837-2.883,3.156,3.156,0,0,0-2.232-1.023,4.848,4.848,0,0,0-1.3.186,3.1,3.1,0,0,0-.93.558,2.2,2.2,0,0,0-.558.837,4.668,4.668,0,0,0-.186,1.116,2.359,2.359,0,0,0,.186,1.116,2.479,2.479,0,0,0,.558.93,3.345,3.345,0,0,0,1.116.744,11.232,11.232,0,0,0,1.767.744,31.369,31.369,0,0,1,2.977,1.3,8.53,8.53,0,0,1,2.325,1.581,5.546,5.546,0,0,1,1.488,2.046,5.019,5.019,0,0,1,.465,2.7,5.538,5.538,0,0,1-.558,2.511,7.447,7.447,0,0,1-1.4,1.953,8.225,8.225,0,0,1-2.139,1.3,8.753,8.753,0,0,1-2.79.558v3.163h-2.7v-3.163a15.144,15.144,0,0,1-2.79-.651,8.133,8.133,0,0,1-2.325-1.4,6.87,6.87,0,0,1-1.581-2.325,9.012,9.012,0,0,1-.558-3.349l5.023.093a5.227,5.227,0,0,0,.279,1.86,2.833,2.833,0,0,0,.837,1.209,3.064,3.064,0,0,0,1.209.651,7.185,7.185,0,0,0,1.4.186,5.629,5.629,0,0,0,1.4-.186,2.217,2.217,0,0,0,1.023-.558,5.11,5.11,0,0,0,.651-.837C387.006,512.759,387.006,512.387,387.006,511.922Z" transform="translate(-375.1 -490.9)" fill="#e0ece8"/>
          </g>
        </g>
      </g>
      <g id="Group_934" data-name="Group 934" transform="translate(24.37 55.251)">
        <g id="Group_933" data-name="Group 933">
          <path id="Path_2400" data-name="Path 2400" d="M386.7,558.675a14.976,14.976,0,1,1,14.976,14.976A14.966,14.966,0,0,1,386.7,558.675Z" transform="translate(-386.7 -543.7)" fill="#01e193"/>
          <g id="Group_931" data-name="Group 931" transform="translate(1.767 1.767)">
            <path id="Path_2401" data-name="Path 2401" d="M401.808,572.016a13.208,13.208,0,1,1,13.208-13.208A13.259,13.259,0,0,1,401.808,572.016Zm0-26.044a12.836,12.836,0,1,0,12.836,12.836A12.862,12.862,0,0,0,401.808,545.972Z" transform="translate(-388.6 -545.6)" fill="#e0ece8"/>
          </g>
          <g id="Group_932" data-name="Group 932" transform="translate(8.65 4.186)">
            <path id="Path_2402" data-name="Path 2402" d="M404.092,562.524a2.575,2.575,0,0,0-.093-.837,1.5,1.5,0,0,0-.372-.651,5.163,5.163,0,0,0-.744-.558,3.1,3.1,0,0,0-1.116-.465c-.744-.279-1.488-.558-2.046-.837a6.621,6.621,0,0,1-1.581-1.023,4.2,4.2,0,0,1-1.4-3.256,3.185,3.185,0,0,1,.372-1.674,4.193,4.193,0,0,1,.93-1.3,5.805,5.805,0,0,1,1.488-.93,10.046,10.046,0,0,1,1.953-.465V548.2h1.86v2.418a6.174,6.174,0,0,1,1.86.558,4.118,4.118,0,0,1,1.4,1.116,4.286,4.286,0,0,1,.837,1.581,6.183,6.183,0,0,1,.279,1.953l-3.442-.093a2.881,2.881,0,0,0-.558-1.953,1.916,1.916,0,0,0-1.581-.651,2.869,2.869,0,0,0-.93.093,1.5,1.5,0,0,0-.651.372,1.947,1.947,0,0,0-.372.558,2.048,2.048,0,0,0-.093.744,1.813,1.813,0,0,0,.093.744,2.332,2.332,0,0,0,.372.651,5.157,5.157,0,0,0,.744.558,7.524,7.524,0,0,0,1.209.558,10.426,10.426,0,0,1,2.046.93,6.622,6.622,0,0,1,1.581,1.023,4.2,4.2,0,0,1,1.4,3.256,3.775,3.775,0,0,1-.372,1.767,4.193,4.193,0,0,1-.93,1.3,3.88,3.88,0,0,1-1.488.837,6.08,6.08,0,0,1-1.953.372v2.139h-1.86V566.9a6.075,6.075,0,0,1-1.86-.465,4.45,4.45,0,0,1-1.581-.93,4.864,4.864,0,0,1-1.116-1.581,5.629,5.629,0,0,1-.372-2.232l3.442.093a4.848,4.848,0,0,0,.186,1.3,1.891,1.891,0,0,0,.558.837,3.768,3.768,0,0,0,.837.465c.279.093.651.093.93.186a2.869,2.869,0,0,0,.93-.093,1.869,1.869,0,0,0,.744-.372,2.468,2.468,0,0,0,.465-.558C404.092,563.083,404.092,562.8,404.092,562.524Z" transform="translate(-396 -548.2)" fill="#e0ece8"/>
          </g>
        </g>
      </g>
      <g id="Group_938" data-name="Group 938" transform="translate(0 99.341)">
        <g id="Group_937" data-name="Group 937">
          <path id="Path_2403" data-name="Path 2403" d="M360.5,601.239a10.139,10.139,0,1,1,10.139,10.139A10.163,10.163,0,0,1,360.5,601.239Z" transform="translate(-360.5 -591.1)" fill="#ffb600"/>
          <g id="Group_935" data-name="Group 935" transform="translate(1.302 1.302)">
            <path id="Path_2404" data-name="Path 2404" d="M370.736,610.173a8.836,8.836,0,1,1,8.836-8.836A8.832,8.832,0,0,1,370.736,610.173Zm0-17.58a8.65,8.65,0,1,0,8.65,8.65A8.694,8.694,0,0,0,370.736,592.593Z" transform="translate(-361.9 -592.5)" fill="#ff9f00"/>
          </g>
          <g id="Group_936" data-name="Group 936" transform="translate(5.674 2.697)">
            <path id="Path_2405" data-name="Path 2405" d="M372.274,603.767a1.18,1.18,0,0,0-.093-.558c-.093-.186-.186-.279-.279-.465a2.031,2.031,0,0,0-.465-.372,5.475,5.475,0,0,1-.744-.372,10.834,10.834,0,0,1-1.4-.558,4.674,4.674,0,0,1-1.116-.744,2.127,2.127,0,0,1-.651-.93,1.774,1.774,0,0,1-.186-1.209,2.21,2.21,0,0,1,.279-1.116,3.339,3.339,0,0,1,.651-.93,3.841,3.841,0,0,1,1.023-.651,2.97,2.97,0,0,1,1.3-.279V594h1.3v1.581a4.6,4.6,0,0,1,1.209.372,3.642,3.642,0,0,1,.93.744,2.217,2.217,0,0,1,.558,1.023,5.49,5.49,0,0,1,.186,1.3H372.46a1.819,1.819,0,0,0-.372-1.3,1.494,1.494,0,0,0-1.023-.465,1.379,1.379,0,0,0-.651.093c-.186.093-.279.186-.465.279-.093.093-.186.279-.279.372a1.011,1.011,0,0,0-.093.465.7.7,0,0,0,.093.465,1.286,1.286,0,0,0,.279.372,2.032,2.032,0,0,0,.465.372c.186.093.465.186.837.372a9.387,9.387,0,0,1,1.4.651,7.761,7.761,0,0,1,1.116.744,2.126,2.126,0,0,1,.651.93,1.774,1.774,0,0,1,.186,1.209,2.575,2.575,0,0,1-.279,1.209,3.34,3.34,0,0,1-.651.93,2.217,2.217,0,0,1-1.023.558,2.971,2.971,0,0,1-1.3.279v1.488h-1.3v-1.488c-.465-.093-.837-.186-1.3-.279a6.939,6.939,0,0,1-1.116-.651,4.131,4.131,0,0,1-.744-1.023,3.856,3.856,0,0,1-.279-1.488h2.325a2.065,2.065,0,0,0,.093.837.854.854,0,0,0,.372.558.8.8,0,0,0,.558.279,1.583,1.583,0,0,0,.651.093,1.379,1.379,0,0,0,.651-.093,2.033,2.033,0,0,0,.465-.279c.093-.093.186-.279.279-.372C372.181,604.139,372.181,603.953,372.274,603.767Z" transform="translate(-366.6 -594)" fill="#ff9f00"/>
          </g>
        </g>
      </g>
    </g>
    <path id="Path_2406" data-name="Path 2406" d="M719.7,663.5a6.6,6.6,0,1,1,6.6,6.6A6.63,6.63,0,0,1,719.7,663.5Z" transform="translate(-42.305 -24.654)" fill="#1b294b" opacity="0.5"/>
    <g id="Group_940" data-name="Group 940" transform="translate(715.625 619.41)">
      <path id="Path_2407" data-name="Path 2407" d="M798.936,759.835c-8.278,0-15.441-1.86-19.719-5.3-8.557-6.883-7.255-21.859-6.046-36.462.651-7.069,1.209-13.859.465-18.789A30.9,30.9,0,0,0,760.8,678.353l1.86-3.163a34.012,34.012,0,0,1,14.6,23.533c.744,5.395.186,12.278-.465,19.626-1.116,12.929-2.418,27.626,4.651,33.3,5.209,4.186,16.185,5.581,27.812,3.535,12.557-2.232,23.719-8,29.765-15.441,9.674-11.813,14.045-29.021,12.557-48.554-1.4-17.58-7.534-34.695-16.464-45.764l2.79-2.325c9.395,11.534,15.813,29.393,17.3,47.717,1.581,20.463-3.07,38.6-13.3,51.159-6.7,8.278-18.417,14.324-32,16.743A57.8,57.8,0,0,1,798.936,759.835Z" transform="translate(-760.8 -643.1)" fill="#1b294b"/>
    </g>
    <g id="Group_945" data-name="Group 945" transform="translate(690.325 629.642)">
      <path id="Path_2408" data-name="Path 2408" d="M750.9,662.844v.744a8.781,8.781,0,0,1-2.139,5.023l-.186.186a8.6,8.6,0,0,1-4.186,2.418c-.279.093-.558.093-.837.186a.839.839,0,0,0-.465.093h-.837a4.532,4.532,0,0,1-1.116-.093h-.186a8.623,8.623,0,0,1-7.348-8.557,10.243,10.243,0,0,1,.186-1.674,9.5,9.5,0,0,1,1.023-2.7,8.642,8.642,0,0,1,7.534-4.372,8.877,8.877,0,0,1,7.627,4.465A11.033,11.033,0,0,1,750.9,662.844Z" transform="translate(-733.6 -654.1)" fill="#1b294b"/>
      <g id="Group_944" data-name="Group 944" transform="translate(0.186 3.369)">
        <g id="Group_943" data-name="Group 943">
          <g id="Group_941" data-name="Group 941" transform="translate(0 1.096)">
            <path id="Path_2409" data-name="Path 2409" d="M740.218,660.76l-.093.279h0v.093h0l-.837,2.325h-.093l-1.581-.558-1.488-.465-.186-.093-1.209-.372-.186-.093-.744-.279a9.5,9.5,0,0,1,1.023-2.7l.651.186.186.093,1.209.372.186.093,1.488.558Z" transform="translate(-733.8 -658.9)" fill="#bad7fd"/>
          </g>
          <g id="Group_942" data-name="Group 942" transform="translate(11.069 14.583)">
            <path id="Path_2410" data-name="Path 2410" d="M752.118,681.957l-2.139-5.86a2.062,2.062,0,0,0-1.581-1.3l-2.7-.372.186-1.023,2.7.372A3.089,3.089,0,0,1,751,675.725l2.139,5.86Z" transform="translate(-745.7 -673.4)" fill="#25468f"/>
          </g>
          <path id="Path_2411" data-name="Path 2411" d="M758.383,680.2l-6.325,4.186a1.7,1.7,0,0,1-2.232-.372l-5.674-7.813c-1.209-1.581-.651-5.023,1.116-6.046l2.977-.558-1.209,1.953a3.793,3.793,0,0,0,.186,4.279l3.535,5.116a1.221,1.221,0,0,0,1.767.279l4.186-3.163Z" transform="translate(-734.478 -658.551)" fill="#99aef9"/>
          <path id="Path_2412" data-name="Path 2412" d="M757.392,680.185a.53.53,0,1,1,.093.744A.563.563,0,0,1,757.392,680.185Z" transform="translate(-735.441 -659.277)" fill="#ff912b"/>
          <path id="Path_2413" data-name="Path 2413" d="M761.9,676.684l-3.721,2.7-6.79-8.743a3.238,3.238,0,0,0-1.209-1.023.325.325,0,0,0-.186-.093h0a5.376,5.376,0,0,0-1.3-.465,2.439,2.439,0,0,0-1.4.186l-4.651,3.349-1.116-.93a1.494,1.494,0,0,1-.465-1.023l.186-5.116-1.581-.651a.753.753,0,0,1-.372-1.023l1.488-3.535a.949.949,0,0,1,1.116-.558l.372.093a1.18,1.18,0,0,0,.558.093,4.29,4.29,0,0,0,3.907-1.674,1.055,1.055,0,0,1,1.209-.372l5.86,2.6c2.046.93,2.046.744,3.721,2.883l2.883,3.721a2.738,2.738,0,0,1,.372,2.79l-1.023,2.6,2.325,2.977A.882.882,0,0,1,761.9,676.684Z" transform="translate(-734.179 -657.729)" fill="#ff912b"/>
          <path id="Path_2414" data-name="Path 2414" d="M759.987,672.4h0l-5.86-6.883a5.154,5.154,0,0,0-1.86-1.4l-9.767-4.372a1.18,1.18,0,0,0,.558.093,4.29,4.29,0,0,0,3.907-1.674,1.055,1.055,0,0,1,1.209-.372l5.86,2.6c2.046.93,2.046.744,3.721,2.883L760.638,667a2.738,2.738,0,0,1,.372,2.79Z" transform="translate(-734.408 -657.721)" fill="#f67b0e"/>
          <path id="Path_2415" data-name="Path 2415" d="M738.916,660l1.674.651-1.209,3.069-1.581-.651Z" transform="translate(-734.079 -657.881)" fill="#7ea8e6"/>
          <rect id="Rectangle_350" data-name="Rectangle 350" width="0.186" height="2.976" transform="translate(3.068 1.712) rotate(19.64)" fill="#7ea8e6"/>
          <rect id="Rectangle_351" data-name="Rectangle 351" width="0.186" height="2.976" transform="translate(1.736 1.236) rotate(19.542)" fill="#7ea8e6"/>
          <path id="Path_2416" data-name="Path 2416" d="M750.223,670.1a5.377,5.377,0,0,0-1.3-.465,2.439,2.439,0,0,0-1.4.186l-4.279,3.721a.589.589,0,0,1-.837-.093l-.837-1.116a1.624,1.624,0,0,1-.372-1.116l.186-5.116S748.92,668.89,750.223,670.1Z" transform="translate(-734.317 -658.307)" fill="#f67b0e"/>
        </g>
      </g>
    </g>
    <path id="Path_2417" data-name="Path 2417" d="M894.773,776.072H115.86a1.866,1.866,0,0,1-1.86-1.86v-.651a1.866,1.866,0,0,1,1.86-1.86H894.866a1.866,1.866,0,0,1,1.86,1.86v.651A2.014,2.014,0,0,1,894.773,776.072Z" transform="translate(0 -32.672)" fill="#2d3554"/>
    <g id="Group_973" data-name="Group 973" transform="translate(202.458 542.951)">
      <rect id="Rectangle_352" data-name="Rectangle 352" width="368.993" height="32.183" transform="translate(141.849 134.315)" fill="#c2ffe6"/>
      <g id="Group_946" data-name="Group 946" transform="translate(285.558 147.43)">
        <path id="Path_2418" data-name="Path 2418" d="M537.122,726.376a4.466,4.466,0,0,1-4.465,4.465H520.565a4.466,4.466,0,0,1-4.465-4.465v-2.511a4.466,4.466,0,0,1,4.465-4.465h12.092a4.466,4.466,0,0,1,4.465,4.465Z" transform="translate(-516.1 -719.4)" fill="#3a525e"/>
        <path id="Path_2419" data-name="Path 2419" d="M528.274,745.97a.834.834,0,0,1-.837.837h0a.834.834,0,0,1-.837-.837V726.437a.834.834,0,0,1,.837-.837h0a.834.834,0,0,1,.837.837Z" transform="translate(-516.833 -719.833)" fill="#3a525e"/>
        <rect id="Rectangle_353" data-name="Rectangle 353" width="7.348" height="3.256" transform="translate(6.883 25.393)" fill="#3a525e"/>
        <path id="Path_2420" data-name="Path 2420" d="M532.657,719.5H520.565a4.466,4.466,0,0,0-4.465,4.465V726.1h20.929v-2.139A4.276,4.276,0,0,0,532.657,719.5Z" transform="translate(-516.1 -719.407)" fill="#0b0d19" opacity="0.5"/>
      </g>
      <path id="Path_2421" data-name="Path 2421" d="M740.985,704.489a4.8,4.8,0,0,1-4.837,4.837H339.437a4.863,4.863,0,0,1-4.837-4.837V577.244a4.784,4.784,0,0,1,4.837-4.744H736.148a4.845,4.845,0,0,1,4.837,4.744Z" transform="translate(-217.865 -561.71)" fill="#e1fff3" stroke="#024846" stroke-miterlimit="10" stroke-width="1"/>
      <path id="Path_2422" data-name="Path 2422" d="M345.53,701.716c0,.837-.186,1.581-.465,1.581h0c-.279,0-.465-.744-.465-1.581V580.981c0-.837.186-1.581.465-1.581h0c.279,0,.465.744.465,1.581Z" transform="translate(-218.564 -562.192)" fill="#a8ddc6"/>
      <path id="Path_2423" data-name="Path 2423" d="M355.73,701.716c0,.837-.186,1.581-.465,1.581h0c-.279,0-.465-.744-.465-1.581V580.981c0-.837.186-1.581.465-1.581h0c.279,0,.465.744.465,1.581Z" transform="translate(-219.276 -562.192)" fill="#a8ddc6"/>
      <path id="Path_2424" data-name="Path 2424" d="M365.93,701.716c0,.837-.186,1.581-.465,1.581h0c-.279,0-.465-.744-.465-1.581V580.981c0-.837.186-1.581.465-1.581h0c.279,0,.465.744.465,1.581Z" transform="translate(-219.989 -562.192)" fill="#a8ddc6"/>
      <path id="Path_2425" data-name="Path 2425" d="M376.13,701.716c0,.837-.186,1.581-.465,1.581h0c-.279,0-.465-.744-.465-1.581V580.981c0-.837.186-1.581.465-1.581h0c.279,0,.465.744.465,1.581Z" transform="translate(-220.701 -562.192)" fill="#a8ddc6"/>
      <path id="Path_2426" data-name="Path 2426" d="M386.33,701.716c0,.837-.186,1.581-.465,1.581h0c-.279,0-.465-.744-.465-1.581V580.981c0-.837.186-1.581.465-1.581h0c.279,0,.465.744.465,1.581Z" transform="translate(-221.414 -562.192)" fill="#a8ddc6"/>
      <path id="Path_2427" data-name="Path 2427" d="M396.63,701.716c0,.837-.186,1.581-.465,1.581h0c-.279,0-.465-.744-.465-1.581V580.981c0-.837.186-1.581.465-1.581h0c.279,0,.465.744.465,1.581Z" transform="translate(-222.133 -562.192)" fill="#a8ddc6"/>
      <path id="Path_2428" data-name="Path 2428" d="M406.83,701.716c0,.837-.186,1.581-.465,1.581h0c-.279,0-.465-.744-.465-1.581V580.981c0-.837.186-1.581.465-1.581h0c.279,0,.465.744.465,1.581Z" transform="translate(-222.845 -562.192)" fill="#a8ddc6"/>
      <path id="Path_2429" data-name="Path 2429" d="M417.03,701.716c0,.837-.186,1.581-.465,1.581h0c-.279,0-.465-.744-.465-1.581V580.981c0-.837.186-1.581.465-1.581h0c.279,0,.465.744.465,1.581Z" transform="translate(-223.558 -562.192)" fill="#a8ddc6"/>
      <path id="Path_2430" data-name="Path 2430" d="M427.23,701.716c0,.837-.186,1.581-.465,1.581h0c-.279,0-.465-.744-.465-1.581V580.981c0-.837.186-1.581.465-1.581h0c.279,0,.465.744.465,1.581Z" transform="translate(-224.27 -562.192)" fill="#a8ddc6"/>
      <path id="Path_2431" data-name="Path 2431" d="M437.43,701.716c0,.837-.186,1.581-.465,1.581h0c-.279,0-.465-.744-.465-1.581V580.981c0-.837.186-1.581.465-1.581h0c.279,0,.465.744.465,1.581Z" transform="translate(-224.983 -562.192)" fill="#a8ddc6"/>
      <path id="Path_2432" data-name="Path 2432" d="M447.73,701.716c0,.837-.186,1.581-.465,1.581h0c-.279,0-.465-.744-.465-1.581V580.981c0-.837.186-1.581.465-1.581h0c.279,0,.465.744.465,1.581Z" transform="translate(-225.702 -562.192)" fill="#a8ddc6"/>
      <path id="Path_2433" data-name="Path 2433" d="M457.93,701.716c0,.837-.186,1.581-.465,1.581h0c-.279,0-.465-.744-.465-1.581V580.981c0-.837.186-1.581.465-1.581h0c.279,0,.465.744.465,1.581Z" transform="translate(-226.414 -562.192)" fill="#a8ddc6"/>
      <path id="Path_2434" data-name="Path 2434" d="M468.13,701.716c0,.837-.186,1.581-.465,1.581h0c-.279,0-.465-.744-.465-1.581V580.981c0-.837.186-1.581.465-1.581h0c.279,0,.465.744.465,1.581Z" transform="translate(-227.127 -562.192)" fill="#a8ddc6"/>
      <path id="Path_2435" data-name="Path 2435" d="M478.33,701.716c0,.837-.186,1.581-.465,1.581h0c-.279,0-.465-.744-.465-1.581V580.981c0-.837.186-1.581.465-1.581h0c.279,0,.465.744.465,1.581Z" transform="translate(-227.839 -562.192)" fill="#a8ddc6"/>
      <path id="Path_2436" data-name="Path 2436" d="M488.53,701.716c0,.837-.186,1.581-.465,1.581h0c-.279,0-.465-.744-.465-1.581V580.981c0-.837.186-1.581.465-1.581h0c.279,0,.465.744.465,1.581Z" transform="translate(-228.552 -562.192)" fill="#a8ddc6"/>
      <path id="Path_2437" data-name="Path 2437" d="M498.83,701.716c0,.837-.186,1.581-.465,1.581h0c-.279,0-.465-.744-.465-1.581V580.981c0-.837.186-1.581.465-1.581h0c.279,0,.465.744.465,1.581Z" transform="translate(-229.271 -562.192)" fill="#a8ddc6"/>
      <path id="Path_2438" data-name="Path 2438" d="M509.03,701.716c0,.837-.186,1.581-.465,1.581h0c-.279,0-.465-.744-.465-1.581V580.981c0-.837.186-1.581.465-1.581h0c.279,0,.465.744.465,1.581Z" transform="translate(-229.983 -562.192)" fill="#a8ddc6"/>
      <path id="Path_2439" data-name="Path 2439" d="M519.23,701.716c0,.837-.186,1.581-.465,1.581h0c-.279,0-.465-.744-.465-1.581V580.981c0-.837.186-1.581.465-1.581h0c.279,0,.465.744.465,1.581Z" transform="translate(-230.696 -562.192)" fill="#a8ddc6"/>
      <path id="Path_2440" data-name="Path 2440" d="M529.43,701.716c0,.837-.186,1.581-.465,1.581h0c-.279,0-.465-.744-.465-1.581V580.981c0-.837.186-1.581.465-1.581h0c.279,0,.465.744.465,1.581Z" transform="translate(-231.408 -562.192)" fill="#a8ddc6"/>
      <path id="Path_2441" data-name="Path 2441" d="M539.63,701.716c0,.837-.186,1.581-.465,1.581h0c-.279,0-.465-.744-.465-1.581V580.981c0-.837.186-1.581.465-1.581h0c.279,0,.465.744.465,1.581Z" transform="translate(-232.121 -562.192)" fill="#a8ddc6"/>
      <path id="Path_2442" data-name="Path 2442" d="M549.83,701.716c0,.837-.186,1.581-.465,1.581h0c-.279,0-.465-.744-.465-1.581V580.981c0-.837.186-1.581.465-1.581h0c.279,0,.465.744.465,1.581Z" transform="translate(-232.833 -562.192)" fill="#a8ddc6"/>
      <path id="Path_2443" data-name="Path 2443" d="M560.13,701.716c0,.837-.186,1.581-.465,1.581h0c-.279,0-.465-.744-.465-1.581V580.981c0-.837.186-1.581.465-1.581h0c.279,0,.465.744.465,1.581Z" transform="translate(-233.552 -562.192)" fill="#a8ddc6"/>
      <path id="Path_2444" data-name="Path 2444" d="M570.33,701.716c0,.837-.186,1.581-.465,1.581h0c-.279,0-.465-.744-.465-1.581V580.981c0-.837.186-1.581.465-1.581h0c.279,0,.465.744.465,1.581Z" transform="translate(-234.265 -562.192)" fill="#a8ddc6"/>
      <path id="Path_2445" data-name="Path 2445" d="M580.53,701.716c0,.837-.186,1.581-.465,1.581h0c-.279,0-.465-.744-.465-1.581V580.981c0-.837.186-1.581.465-1.581h0c.279,0,.465.744.465,1.581Z" transform="translate(-234.977 -562.192)" fill="#a8ddc6"/>
      <path id="Path_2446" data-name="Path 2446" d="M590.73,701.716c0,.837-.186,1.581-.465,1.581h0c-.279,0-.465-.744-.465-1.581V580.981c0-.837.186-1.581.465-1.581h0c.279,0,.465.744.465,1.581Z" transform="translate(-235.69 -562.192)" fill="#a8ddc6"/>
      <path id="Path_2447" data-name="Path 2447" d="M600.93,701.716c0,.837-.186,1.581-.465,1.581h0c-.279,0-.465-.744-.465-1.581V580.981c0-.837.186-1.581.465-1.581h0c.279,0,.465.744.465,1.581Z" transform="translate(-236.402 -562.192)" fill="#a8ddc6"/>
      <path id="Path_2448" data-name="Path 2448" d="M611.23,701.716c0,.837-.186,1.581-.465,1.581h0c-.279,0-.465-.744-.465-1.581V580.981c0-.837.186-1.581.465-1.581h0c.279,0,.465.744.465,1.581Z" transform="translate(-237.121 -562.192)" fill="#a8ddc6"/>
      <path id="Path_2449" data-name="Path 2449" d="M621.43,701.716c0,.837-.186,1.581-.465,1.581h0c-.279,0-.465-.744-.465-1.581V580.981c0-.837.186-1.581.465-1.581h0c.279,0,.465.744.465,1.581Z" transform="translate(-237.834 -562.192)" fill="#a8ddc6"/>
      <path id="Path_2450" data-name="Path 2450" d="M631.63,701.716c0,.837-.186,1.581-.465,1.581h0c-.279,0-.465-.744-.465-1.581V580.981c0-.837.186-1.581.465-1.581h0c.279,0,.465.744.465,1.581Z" transform="translate(-238.546 -562.192)" fill="#a8ddc6"/>
      <path id="Path_2451" data-name="Path 2451" d="M641.83,701.716c0,.837-.186,1.581-.465,1.581h0c-.279,0-.465-.744-.465-1.581V580.981c0-.837.186-1.581.465-1.581h0c.279,0,.465.744.465,1.581Z" transform="translate(-239.259 -562.192)" fill="#a8ddc6"/>
      <path id="Path_2452" data-name="Path 2452" d="M652.03,701.716c0,.837-.186,1.581-.465,1.581h0c-.279,0-.465-.744-.465-1.581V580.981c0-.837.186-1.581.465-1.581h0c.279,0,.465.744.465,1.581Z" transform="translate(-239.971 -562.192)" fill="#a8ddc6"/>
      <path id="Path_2453" data-name="Path 2453" d="M662.33,701.716c0,.837-.186,1.581-.465,1.581h0c-.279,0-.465-.744-.465-1.581V580.981c0-.837.186-1.581.465-1.581h0c.279,0,.465.744.465,1.581Z" transform="translate(-240.69 -562.192)" fill="#a8ddc6"/>
      <path id="Path_2454" data-name="Path 2454" d="M672.53,701.716c0,.837-.186,1.581-.465,1.581h0c-.279,0-.465-.744-.465-1.581V580.981c0-.837.186-1.581.465-1.581h0c.279,0,.465.744.465,1.581Z" transform="translate(-241.403 -562.192)" fill="#a8ddc6"/>
      <path id="Path_2455" data-name="Path 2455" d="M682.73,701.716c0,.837-.186,1.581-.465,1.581h0c-.279,0-.465-.744-.465-1.581V580.981c0-.837.186-1.581.465-1.581h0c.279,0,.465.744.465,1.581Z" transform="translate(-242.115 -562.192)" fill="#a8ddc6"/>
      <path id="Path_2456" data-name="Path 2456" d="M692.93,701.716c0,.837-.186,1.581-.465,1.581h0c-.279,0-.465-.744-.465-1.581V580.981c0-.837.186-1.581.465-1.581h0c.279,0,.465.744.465,1.581Z" transform="translate(-242.828 -562.192)" fill="#a8ddc6"/>
      <path id="Path_2457" data-name="Path 2457" d="M703.13,701.716c0,.837-.186,1.581-.465,1.581h0c-.279,0-.465-.744-.465-1.581V580.981c0-.837.186-1.581.465-1.581h0c.279,0,.465.744.465,1.581Z" transform="translate(-243.54 -562.192)" fill="#a8ddc6"/>
      <path id="Path_2458" data-name="Path 2458" d="M713.43,701.716c0,.837-.186,1.581-.465,1.581h0c-.279,0-.465-.744-.465-1.581V580.981c0-.837.186-1.581.465-1.581h0c.279,0,.465.744.465,1.581Z" transform="translate(-244.26 -562.192)" fill="#a8ddc6"/>
      <path id="Path_2459" data-name="Path 2459" d="M723.63,701.716c0,.837-.186,1.581-.465,1.581h0c-.279,0-.465-.744-.465-1.581V580.981c0-.837.186-1.581.465-1.581h0c.279,0,.465.744.465,1.581Z" transform="translate(-244.972 -562.192)" fill="#a8ddc6"/>
      <path id="Path_2460" data-name="Path 2460" d="M733.83,701.716c0,.837-.186,1.581-.465,1.581h0c-.279,0-.465-.744-.465-1.581V580.981c0-.837.186-1.581.465-1.581h0c.279,0,.465.744.465,1.581Z" transform="translate(-245.684 -562.192)" fill="#a8ddc6"/>
      <path id="Path_2461" data-name="Path 2461" d="M744.03,701.716c0,.837-.186,1.581-.465,1.581h0c-.279,0-.465-.744-.465-1.581V580.981c0-.837.186-1.581.465-1.581h0c.279,0,.465.744.465,1.581Z" transform="translate(-246.397 -562.192)" fill="#a8ddc6"/>
      <path id="Path_2462" data-name="Path 2462" d="M754.23,701.716c0,.837-.186,1.581-.465,1.581h0c-.279,0-.465-.744-.465-1.581V580.981c0-.837.186-1.581.465-1.581h0c.279,0,.465.744.465,1.581Z" transform="translate(-247.109 -562.192)" fill="#a8ddc6"/>
      <rect id="Rectangle_354" data-name="Rectangle 354" width="75.25" height="41.02" transform="translate(21.952 134.315)" fill="#01ce80"/>
      <path id="Path_2463" data-name="Path 2463" d="M227.6,627.737S243.227,601.6,314.849,601.6v26.137Z" transform="translate(-210.392 -563.743)" fill="#f7fbfa" stroke="#024846" stroke-miterlimit="10" stroke-width="1"/>
      <path id="Path_2464" data-name="Path 2464" d="M227.6,629.3h87.249V624H232.53A23.646,23.646,0,0,0,227.6,629.3Z" transform="translate(-210.392 -565.307)" fill="#01ce80" opacity="0.4"/>
      <g id="Group_947" data-name="Group 947" transform="translate(2.604 62.786)">
        <path id="Path_2465" data-name="Path 2465" d="M225.108,628.4c-2.046,2.046-10.6,26.509-12.743,83.807h5.209a2.1,2.1,0,0,1,2.139,2.139v2.325a2.1,2.1,0,0,1-2.139,2.139h-5.395c-.186,7.255-.279,14.883-.279,23.161h28.277c-.093-1.3-.186-2.511-.186-3.814a34.735,34.735,0,0,1,34.788-34.788h39.16V628.4Z" transform="translate(-211.9 -628.4)" fill="#f7fbfa" stroke="#024846" stroke-miterlimit="10" stroke-width="1"/>
        <path id="Path_2466" data-name="Path 2466" d="M243.9,628.4H225.108c-2.046,2.046-10.6,26.509-12.743,83.807h5.209a2.1,2.1,0,0,1,2.139,2.139v2.325a2.1,2.1,0,0,1-2.139,2.139h-5.395c-.186,7.255-.279,14.883-.279,23.161h16.557c1.209-14.789,3.535-44.927,5.3-75.715A89.245,89.245,0,0,1,243.9,628.4Z" transform="translate(-211.9 -628.4)" fill="#c2ffe6"/>
        <path id="Path_2467" data-name="Path 2467" d="M298.591,647.7h-78.6c0,.186-.093.372-.093.558h50.507v56.833c.186,0,.372-.093.558-.093v-56.74h27.719a1.866,1.866,0,0,1,1.86,1.86v54.6h.558v-54.6A2.546,2.546,0,0,0,298.591,647.7Z" transform="translate(-212.459 -629.748)" fill="#023735" opacity="0.4"/>
      </g>
      <g id="Group_948" data-name="Group 948" transform="translate(6.046 147.616)">
        <path id="Path_2468" data-name="Path 2468" d="M247.5,723.693H217.646a2.065,2.065,0,0,1-2.046-2.046h0a2.065,2.065,0,0,1,2.046-2.046H250.2Z" transform="translate(-215.6 -719.6)" fill="#373945"/>
        <path id="Path_2469" data-name="Path 2469" d="M217.646,721.181h31.532L250.2,719.6H217.646a2.065,2.065,0,0,0-2.046,2.046,2.716,2.716,0,0,0,.186.837A1.751,1.751,0,0,1,217.646,721.181Z" transform="translate(-215.6 -719.6)" fill="#8a979d" opacity="0.6"/>
      </g>
      <g id="Group_952" data-name="Group 952" transform="translate(4.186 82.505)">
        <g id="Group_949" data-name="Group 949" transform="translate(0.093)">
          <path id="Path_2470" data-name="Path 2470" d="M281.1,652.3a2.7,2.7,0,0,1,2.7-2.7H296.82a2.7,2.7,0,0,1,2.7,2.7v21.487c0,.465,0,1.674-17.766,4.465l-.651.093V652.3Z" transform="translate(-218.407 -649.6)" fill="#373945"/>
          <path id="Path_2471" data-name="Path 2471" d="M298.994,673.826c0,1.209-17.394,3.907-17.394,3.907V652.339a2.1,2.1,0,0,1,2.139-2.139h13.115a2.1,2.1,0,0,1,2.139,2.139Z" transform="translate(-218.442 -649.642)" fill="#6d8492"/>
          <path id="Path_2472" data-name="Path 2472" d="M213.793,691.085c3.907-15.162,5.767-28.835,5.3-40.927l.093-.558h43.159a2.7,2.7,0,0,1,2.7,2.7v27.9c0,.651,0,1.488-51.159,11.441H213.7Z" transform="translate(-213.7 -649.6)" fill="#373945"/>
          <path id="Path_2473" data-name="Path 2473" d="M264.493,652.339a2.1,2.1,0,0,0-2.139-2.139H219.1a354.87,354.87,0,0,0-5.3,40.927c13.487-2.6,50.786-9.953,50.786-10.883v-27.9Z" transform="translate(-213.707 -649.642)" fill="#6d8492"/>
        </g>
        <g id="Group_950" data-name="Group 950" transform="translate(0.558 0.558)">
          <path id="Path_2474" data-name="Path 2474" d="M228.227,650.2,217.9,657.548c-.465,2.7-.93,5.674-1.3,8.836L239.3,650.2Z" transform="translate(-214.368 -650.2)" fill="#88a6b5"/>
          <path id="Path_2475" data-name="Path 2475" d="M262.382,650.2h-6.325l-41.3,29.486c-.186,1.86-.372,3.721-.558,5.674l48.926-34.881C263.033,650.293,262.754,650.2,262.382,650.2Z" transform="translate(-214.2 -650.2)" fill="#88a6b5"/>
          <path id="Path_2476" data-name="Path 2476" d="M296.117,650.2H292.49l-10.79,7.72v2.6Z" transform="translate(-218.914 -650.2)" fill="#88a6b5"/>
          <path id="Path_2477" data-name="Path 2477" d="M266.212,668,238.4,687.905c1.767-.372,3.442-.744,5.116-1.023l22.7-16.185Z" transform="translate(-215.89 -651.443)" fill="#88a6b5"/>
          <path id="Path_2478" data-name="Path 2478" d="M281.7,667.471v5.209L299,660.309V655.1Z" transform="translate(-218.914 -650.542)" fill="#88a6b5"/>
          <path id="Path_2479" data-name="Path 2479" d="M267.581,682.179V677.9L258,684.783C263.767,683.481,267.581,682.551,267.581,682.179Z" transform="translate(-217.259 -652.135)" fill="#88a6b5"/>
        </g>
        <g id="Group_951" data-name="Group 951" transform="translate(0 0.558)">
          <path id="Path_2480" data-name="Path 2480" d="M296.862,650.2h-1.116a1.875,1.875,0,0,1,.279,1.023V672.71c0,.837-9.395,2.6-14.324,3.442v1.674s17.394-2.7,17.394-3.907V652.432A2.262,2.262,0,0,0,296.862,650.2Z" transform="translate(-218.356 -650.2)" fill="#373945"/>
          <path id="Path_2481" data-name="Path 2481" d="M262.34,650.2h-.93v27.254c0,.558-14.231,3.628-28.277,6.418l9.86-33.672h-9.3l-10.7,35.718c-3.349.651-6.418,1.3-9.116,1.767-.093,1.116-.186,2.232-.279,3.442,13.487-2.6,50.787-9.953,50.787-10.883v-27.9A1.977,1.977,0,0,0,262.34,650.2Z" transform="translate(-213.6 -650.2)" fill="#373945"/>
        </g>
      </g>
      <g id="Group_954" data-name="Group 954" transform="translate(103.526)">
        <g id="Group_953" data-name="Group 953" transform="translate(5.767)">
          <path id="Path_2482" data-name="Path 2482" d="M328.181,654.288a1.63,1.63,0,0,1-1.581-1.581V566.76a5.836,5.836,0,0,1,5.86-5.86h13.3a1.581,1.581,0,0,1,0,3.163h-13.3a2.7,2.7,0,0,0-2.7,2.7v85.946A1.63,1.63,0,0,1,328.181,654.288Z" transform="translate(-326.6 -560.9)" fill="#8a979d"/>
        </g>
        <path id="Path_2483" data-name="Path 2483" d="M335,708.415a4.267,4.267,0,0,1-4.279,4.279h-6.046a4.328,4.328,0,0,1-4.279-4.279V640.979a4.267,4.267,0,0,1,4.279-4.279h6.046A4.267,4.267,0,0,1,335,640.979Z" transform="translate(-320.4 -566.194)" fill="#3e4750"/>
        <path id="Path_2484" data-name="Path 2484" d="M326.074,700.416V636.7h-1.4a4.267,4.267,0,0,0-4.279,4.279v67.436a4.267,4.267,0,0,0,4.279,4.279h6.046A4.328,4.328,0,0,0,335,708.415v-3.721h-4.651A4.267,4.267,0,0,1,326.074,700.416Z" transform="translate(-320.4 -566.194)" fill="#0b0d19" opacity="0.5"/>
      </g>
      <g id="Group_955" data-name="Group 955" transform="translate(102.503 150.592)">
        <path id="Path_2485" data-name="Path 2485" d="M477.706,735.922a4.466,4.466,0,0,1-4.465,4.465H323.765a4.466,4.466,0,0,1-4.465-4.465v-8.557a4.466,4.466,0,0,1,4.465-4.465H473.241a4.466,4.466,0,0,1,4.465,4.465v8.557Z" transform="translate(-319.3 -722.807)" fill="#3a525e"/>
        <path id="Path_2486" data-name="Path 2486" d="M473.241,722.8H323.765a4.466,4.466,0,0,0-4.465,4.465v3.814H477.706v-3.814A4.466,4.466,0,0,0,473.241,722.8Z" transform="translate(-319.3 -722.8)" fill="#788b99"/>
      </g>
      <g id="Group_956" data-name="Group 956" transform="translate(95.155 136.919)">
        <path id="Path_2487" data-name="Path 2487" d="M740.574,717.409a4.466,4.466,0,0,1-4.465,4.465H315.865a4.466,4.466,0,0,1-4.465-4.465v-4.744a4.466,4.466,0,0,1,4.465-4.465H736.109a4.466,4.466,0,0,1,4.465,4.465Z" transform="translate(-311.4 -708.107)" fill="#c2ffe6"/>
        <path id="Path_2488" data-name="Path 2488" d="M319.213,710.518V708.1h-3.349a4.466,4.466,0,0,0-4.465,4.465v4.744a4.466,4.466,0,0,0,4.465,4.465H736.109a4.466,4.466,0,0,0,4.465-4.465V714.89h-416.9A4.276,4.276,0,0,1,319.213,710.518Z" transform="translate(-311.4 -708.1)" fill="#023735"/>
      </g>
      <g id="Group_957" data-name="Group 957" transform="translate(394.665 137.012)">
        <path id="Path_2489" data-name="Path 2489" d="M736.275,734.9a4.466,4.466,0,0,1-4.465,4.465H637.865A4.466,4.466,0,0,1,633.4,734.9V712.665a4.466,4.466,0,0,1,4.465-4.465H731.81a4.466,4.466,0,0,1,4.465,4.465Z" transform="translate(-633.4 -708.2)" fill="#3a525e"/>
        <path id="Path_2490" data-name="Path 2490" d="M731.911,708.2H637.965a4.466,4.466,0,0,0-4.465,4.465v2.418h88.83a4.466,4.466,0,0,1,4.465,4.465V739.36h5.116a4.466,4.466,0,0,0,4.465-4.465V712.665A4.526,4.526,0,0,0,731.911,708.2Z" transform="translate(-633.407 -708.2)" fill="#788b99"/>
      </g>
      <path id="Path_2491" data-name="Path 2491" d="M435.6,714.1a30.725,30.725,0,0,0-30.7,30.7c0,.744.093,1.4.093,2.139h61.2a16.466,16.466,0,0,0,.093-2.139A30.725,30.725,0,0,0,435.6,714.1Z" transform="translate(-222.775 -571.6)" fill="#023735"/>
      <g id="Group_959" data-name="Group 959" transform="translate(188.357 146.593)">
        <path id="Path_2492" data-name="Path 2492" d="M460.526,742.963A24.463,24.463,0,1,1,436.063,718.5,24.493,24.493,0,0,1,460.526,742.963Z" transform="translate(-411.6 -718.5)" fill="#3e4750"/>
        <circle id="Ellipse_57" data-name="Ellipse 57" cx="15.999" cy="15.999" r="15.999" transform="translate(8.244 8.676) rotate(-0.774)" fill="#a9b6bc"/>
        <g id="Group_958" data-name="Group 958" transform="translate(13.394 13.394)">
          <path id="Path_2493" data-name="Path 2493" d="M437.069,755.038a11.069,11.069,0,1,1,11.069-11.069A11.036,11.036,0,0,1,437.069,755.038Zm0-21.022a10.046,10.046,0,1,0,10.046,10.046A10.063,10.063,0,0,0,437.069,734.016Z" transform="translate(-426 -732.9)" fill="#c0cfd4"/>
        </g>
      </g>
      <path id="Path_2494" data-name="Path 2494" d="M588.6,714.1a30.725,30.725,0,0,0-30.7,30.7c0,.744.093,1.4.093,2.139h61.2a16.466,16.466,0,0,0,.093-2.139A30.607,30.607,0,0,0,588.6,714.1Z" transform="translate(-233.462 -571.6)" fill="#023735"/>
      <g id="Group_961" data-name="Group 961" transform="translate(330.67 146.593)">
        <path id="Path_2495" data-name="Path 2495" d="M613.526,742.963A24.463,24.463,0,1,1,589.063,718.5,24.493,24.493,0,0,1,613.526,742.963Z" transform="translate(-564.6 -718.5)" fill="#3e4750"/>
        <path id="Path_2496" data-name="Path 2496" d="M605.7,743.6a16,16,0,1,1-16-16A16,16,0,0,1,605.7,743.6Z" transform="translate(-565.236 -719.136)" fill="#a9b6bc"/>
        <g id="Group_960" data-name="Group 960" transform="translate(13.394 13.394)">
          <path id="Path_2497" data-name="Path 2497" d="M590.069,755.038a11.069,11.069,0,1,1,11.069-11.069A11.036,11.036,0,0,1,590.069,755.038Zm0-21.022a10.046,10.046,0,1,0,10.046,10.046A10.063,10.063,0,0,0,590.069,734.016Z" transform="translate(-579 -732.9)" fill="#c0cfd4"/>
        </g>
      </g>
      <path id="Path_2498" data-name="Path 2498" d="M660.8,714.1a30.725,30.725,0,0,0-30.7,30.7c0,.744.093,1.4.093,2.139h61.2a16.466,16.466,0,0,0,.093-2.139A30.607,30.607,0,0,0,660.8,714.1Z" transform="translate(-238.504 -571.6)" fill="#023735"/>
      <g id="Group_963" data-name="Group 963" transform="translate(397.828 146.593)">
        <path id="Path_2499" data-name="Path 2499" d="M685.726,742.963A24.463,24.463,0,1,1,661.263,718.5,24.493,24.493,0,0,1,685.726,742.963Z" transform="translate(-636.8 -718.5)" fill="#3e4750"/>
        <path id="Path_2500" data-name="Path 2500" d="M677.9,743.6a16,16,0,1,1-16-16A16,16,0,0,1,677.9,743.6Z" transform="translate(-637.436 -719.136)" fill="#a9b6bc"/>
        <g id="Group_962" data-name="Group 962" transform="translate(13.394 13.394)">
          <path id="Path_2501" data-name="Path 2501" d="M662.269,755.038a11.069,11.069,0,1,1,11.069-11.069A11.036,11.036,0,0,1,662.269,755.038Zm0-21.022a10.046,10.046,0,1,0,10.046,10.046A10.063,10.063,0,0,0,662.269,734.016Z" transform="translate(-651.2 -732.9)" fill="#c0cfd4"/>
        </g>
      </g>
      <path id="Path_2502" data-name="Path 2502" d="M733.3,714.1a30.725,30.725,0,0,0-30.7,30.7c0,.744.093,1.4.093,2.139h61.2a16.466,16.466,0,0,0,.093-2.139A30.666,30.666,0,0,0,733.3,714.1Z" transform="translate(-243.568 -571.6)" fill="#023735"/>
      <g id="Group_965" data-name="Group 965" transform="translate(465.264 146.593)">
        <path id="Path_2503" data-name="Path 2503" d="M758.226,742.963A24.463,24.463,0,1,1,733.763,718.5,24.493,24.493,0,0,1,758.226,742.963Z" transform="translate(-709.3 -718.5)" fill="#3e4750"/>
        <path id="Path_2504" data-name="Path 2504" d="M750.4,743.6a16,16,0,1,1-16-16A16,16,0,0,1,750.4,743.6Z" transform="translate(-709.936 -719.136)" fill="#a9b6bc"/>
        <g id="Group_964" data-name="Group 964" transform="translate(13.394 13.394)">
          <path id="Path_2505" data-name="Path 2505" d="M734.769,755.038a11.069,11.069,0,1,1,11.069-11.069A11.036,11.036,0,0,1,734.769,755.038Zm0-21.022a10.046,10.046,0,1,0,10.046,10.046A10.063,10.063,0,0,0,734.769,734.016Z" transform="translate(-723.7 -732.9)" fill="#c0cfd4"/>
        </g>
      </g>
      <path id="Path_2506" data-name="Path 2506" d="M276.1,714.1a30.725,30.725,0,0,0-30.7,30.7c0,.744.093,1.4.093,2.139h61.2a16.466,16.466,0,0,0,.093-2.139A30.725,30.725,0,0,0,276.1,714.1Z" transform="translate(-211.635 -571.6)" fill="#023735"/>
      <g id="Group_967" data-name="Group 967" transform="translate(28.37 135.617)">
        <g id="Group_966" data-name="Group 966">
          <path id="Path_2507" data-name="Path 2507" d="M241.739,745.767a2.1,2.1,0,0,1-2.139-2.139A36.958,36.958,0,0,1,276.527,706.7h39.16a2.139,2.139,0,0,1,0,4.279h-39.16a32.631,32.631,0,0,0-32.648,32.648A2.1,2.1,0,0,1,241.739,745.767Z" transform="translate(-239.6 -706.7)" fill="#3e4750"/>
        </g>
        <path id="Path_2508" data-name="Path 2508" d="M241.9,743.788a16.466,16.466,0,0,0,.093,2.139,2.086,2.086,0,0,0,2.046-2.139,32.631,32.631,0,0,1,32.648-32.648h39.16A2.1,2.1,0,0,0,317.987,709h-41.3A34.854,34.854,0,0,0,241.9,743.788Z" transform="translate(-239.761 -706.861)" fill="#0b0d19" opacity="0.5"/>
      </g>
      <g id="Group_969" data-name="Group 969" transform="translate(39.997 146.593)">
        <path id="Path_2509" data-name="Path 2509" d="M301.026,742.963A24.463,24.463,0,1,1,276.563,718.5,24.493,24.493,0,0,1,301.026,742.963Z" transform="translate(-252.1 -718.5)" fill="#3e4750"/>
        <circle id="Ellipse_58" data-name="Ellipse 58" cx="15.999" cy="15.999" r="15.999" transform="translate(8.333 8.632) rotate(-0.502)" fill="#a9b6bc"/>
        <g id="Group_968" data-name="Group 968" transform="translate(13.394 13.394)">
          <path id="Path_2510" data-name="Path 2510" d="M277.569,755.038a11.069,11.069,0,1,1,11.069-11.069A11.036,11.036,0,0,1,277.569,755.038Zm0-21.022a10.046,10.046,0,1,0,10.046,10.046A10.063,10.063,0,0,0,277.569,734.016Z" transform="translate(-266.5 -732.9)" fill="#c0cfd4"/>
        </g>
      </g>
      <g id="Group_970" data-name="Group 970" transform="translate(93.109 145.104)">
        <path id="Path_2511" data-name="Path 2511" d="M371.427,739.6a4.764,4.764,0,0,1-4.744,4.744h-52.74A4.764,4.764,0,0,1,309.2,739.6V721.744A4.764,4.764,0,0,1,313.944,717h52.74a4.764,4.764,0,0,1,4.744,4.744Z" transform="translate(-309.2 -716.907)" fill="#cbd0d4"/>
        <path id="Path_2512" data-name="Path 2512" d="M366.684,716.9h-52.74a4.764,4.764,0,0,0-4.744,4.744v2.511h47.252A4.764,4.764,0,0,1,361.2,728.9v15.348h5.488a4.764,4.764,0,0,0,4.744-4.744V721.644A4.764,4.764,0,0,0,366.684,716.9Z" transform="translate(-309.2 -716.9)" fill="#e3e7ea"/>
      </g>
      <g id="Group_971" data-name="Group 971" transform="translate(1.302 173.381)">
        <path id="Path_2513" data-name="Path 2513" d="M210.5,749.439a2.1,2.1,0,0,1,2.139-2.139h25.486a2.1,2.1,0,0,1,2.139,2.139v.093a2.1,2.1,0,0,1-2.139,2.139H212.639a2.128,2.128,0,0,1-2.139-2.232Z" transform="translate(-210.5 -747.3)" fill="#cbd0d4"/>
        <path id="Path_2514" data-name="Path 2514" d="M212.646,751.9h25.486a2.011,2.011,0,0,0,1.953-1.4H210.6A2.221,2.221,0,0,0,212.646,751.9Z" transform="translate(-210.507 -747.523)" fill="#e3e7ea"/>
      </g>
      <g id="Group_972" data-name="Group 972" transform="translate(0 145.104)">
        <path id="Path_2515" data-name="Path 2515" d="M221.936,723.69a2.1,2.1,0,0,1-2.139,2.139h-8.557a2.1,2.1,0,0,1-2.139-2.139v-4.651a2.1,2.1,0,0,1,2.139-2.139H219.8a2.1,2.1,0,0,1,2.139,2.139Z" transform="translate(-209.1 -716.9)" fill="#75e0b1"/>
      </g>
    </g>
  </g>
</svg>
