<svg xmlns="http://www.w3.org/2000/svg" width="841.017" height="586.898" viewBox="0 0 841.017 586.898">
  <g id="Ensure_Peak_Freshness_For_Your_Cargo" data-name="Ensure Peak Freshness For Your Cargo" transform="translate(-124.6 -259.6)">
    <circle id="XMLID_00000180324201153210282470000003087820685011872644_" cx="56.797" cy="56.797" r="56.797" transform="translate(610.742 590.939) rotate(-9.218)" fill="#01ce80"/>
    <path id="XMLID_00000117672603246671296340000010389355375585048758_" d="M254.963,630.709c-.338-.338-.451.563-.451.563-5.973,6.987-39.1,47.443.113,54.092v.113a.414.414,0,0,0,.338-.113.852.852,0,0,1,.451.113v-.113c38.653-8,5.973-47.33,0-54.092C255.414,631.16,255.3,630.371,254.963,630.709Z" transform="translate(14.108 47.089)" fill="#01ce80"/>
    <path id="XMLID_00000162337577719920691880000003528615293461695148_" d="M861.286,457.1c1.69-4.17-2.817-9.353-4.846-12.734-2.254-3.606-4.4-7.325-6.649-10.931-1.578-2.7-5.86-.225-4.17,2.479,1.916,3.043,3.719,6.2,5.635,9.241,1.24,2.028,2.367,3.944,3.606,5.973.563,1.014,1.69,2.367,1.916,3.606.451,4.057-8,2.592-10.142,2.592-3.719,0-7.55-.113-11.269-.113-3.155,0-3.155,4.846,0,4.846,4.4,0,8.79.113,13.185.113C853.622,462.281,858.919,462.957,861.286,457.1Z" transform="translate(89.907 21.914)" fill="#01ce80"/>
    <path id="XMLID_00000094607542043183458770000009041723938558952872_" d="M817.521,432.051c1.916-3.043,3.719-5.973,5.635-9.015,1.24-1.916,2.367-3.831,3.606-5.747.676-1.127,1.352-2.817,2.93-2.93s2.366,1.465,3.043,2.592c1.24,1.8,2.479,3.493,3.719,5.3,2.141,3.043,4.17,6.085,6.311,9.015,1.8,2.592,6.085.113,4.17-2.479-2.366-3.381-4.733-6.762-7.1-10.255-2.592-3.719-5.071-9.015-10.255-9.128-4.958-.113-7.325,5.635-9.466,9.128-2.254,3.606-4.62,7.325-6.874,10.931C811.661,432.277,815.943,434.643,817.521,432.051Z" transform="translate(87.355 19.012)" fill="#01ce80"/>
    <path id="XMLID_00000168835059518849730380000010708602682329733000_" d="M811.461,462.155c4.395,0,8.79-.113,13.185-.113,3.155,0,3.155-4.958,0-4.846-3.719,0-7.55.113-11.269.113-2.141,0-4.282,0-6.423.113-1.8,0-3.606-.225-3.719-2.592,0-1.014,1.24-2.479,1.69-3.268,1.24-2.141,2.479-4.17,3.832-6.311,1.916-3.043,3.719-6.2,5.635-9.241,1.69-2.7-2.592-5.184-4.17-2.479-2.254,3.606-4.395,7.325-6.649,10.931-2.254,3.719-6.085,8.114-4.846,12.734C800.192,463.057,806.728,462.268,811.461,462.155Z" transform="translate(85.527 21.926)" fill="#01ce80"/>
    <circle id="XMLID_00000014619045933295122300000004626278714309394340_" cx="29.412" cy="29.412" r="29.412" transform="translate(791.36 294.578) rotate(-13.286)" fill="#01ce80"/>
    <path id="XMLID_00000086677071603132957100000004608803390158558637_" d="M797.513,725.576a11.11,11.11,0,0,0,11.156,11.156H825.46A11.062,11.062,0,0,0,836.5,725.688V688.5H797.4v37.075Z" transform="translate(85.389 54.434)" fill="#01ce80"/>
    <path id="XMLID_00000173160872168532985050000018328838134000009917_" d="M700.86,453.1,672.8,495.81h17.467l-13.748,34.145,30.765-41.47H689.253Z" transform="translate(69.575 24.558)" fill="#01ce80"/>
    <path id="XMLID_00000144297780933439655780000001126937812506119822_" d="M601.717,345.4h-50.26L547.4,384.842h58.374Z" transform="translate(53.66 10.889)" fill="#01ce80"/>
    <g id="XMLID_00000055691916639648594820000001664546116632527287_" transform="translate(344.01 709.577)">
      <path id="XMLID_00000133492378315552190380000015586510900068401536_" d="M384.1,740.038H345.9c-8.452,0-9.691-5.522-9.691-10.931V667.239c0-3.606-1.916-3.606-2.7-3.606H321.667a2.366,2.366,0,1,1,0-4.733h11.945c4.508,0,7.438,3.268,7.438,8.339v61.868c0,5.635,1.352,6.2,4.846,6.2h38.2a2.366,2.366,0,1,1,0,4.733Z" transform="translate(-319.3 -658.9)" fill="#b7f7da"/>
    </g>
    <g id="XMLID_00000155840106992748747000000012401516431365539228_" transform="translate(326.656 697.97)">
      <path id="XMLID_00000101089575815461527260000013778313975794854546_" d="M306.266,676.547a2.311,2.311,0,0,1-2.367-2.367V650.966a2.311,2.311,0,0,1,2.367-2.367,13.974,13.974,0,0,1,0,27.948Zm2.367-22.764v17.693a9.193,9.193,0,0,0,6.762-8.79A9.328,9.328,0,0,0,308.633,653.784Z" transform="translate(-303.9 -648.6)" fill="#b7f7da"/>
    </g>
    <g id="XMLID_00000081605818785926702640000008705397976428187044_" transform="translate(314.711 702.027)">
      <path id="XMLID_00000143613694640296543370000011034168978781875360_" d="M301.752,656.933h-6.085a2.366,2.366,0,1,1,0-4.733h6.085a2.366,2.366,0,1,1,0,4.733Z" transform="translate(-293.3 -652.2)" fill="#b7f7da"/>
    </g>
    <g id="XMLID_00000016784292951525660290000017268549576908340927_" transform="translate(314.711 717.241)">
      <path id="XMLID_00000170270381988363721480000004994240936127211401_" d="M301.752,670.433h-6.085a2.366,2.366,0,1,1,0-4.733h6.085a2.366,2.366,0,1,1,0,4.733Z" transform="translate(-293.3 -665.7)" fill="#b7f7da"/>
    </g>
    <g id="XMLID_00000075158087276295358440000013032920679220071065_" transform="translate(876.591 737.525)">
      <path id="XMLID_00000055682554610201308300000015034373204077858466_" d="M822.214,736.665H805.423A13.563,13.563,0,0,1,791.9,723.142V686.066a2.311,2.311,0,0,1,2.366-2.367h39.1a2.311,2.311,0,0,1,2.367,2.367v37.188A13.613,13.613,0,0,1,822.214,736.665ZM796.52,688.433v34.6a8.8,8.8,0,0,0,8.79,8.79H822.1a8.681,8.681,0,0,0,8.677-8.677V688.32H796.52Z" transform="translate(-791.9 -683.7)" fill="#b7f7da"/>
    </g>
    <g id="XMLID_00000015330694549364659350000012791778430477771666_" transform="translate(885.155 744.85)">
      <path id="XMLID_00000180347112315472150030000015230140751812453274_" d="M802.881,728.064a3.39,3.39,0,0,1-3.381-3.381v-31.1a3.381,3.381,0,1,1,6.761,0v31.1A3.466,3.466,0,0,1,802.881,728.064Zm0-35.047a.649.649,0,0,0-.676.676v31.1a.676.676,0,1,0,1.352,0v-31.1Q803.388,693.017,802.881,693.017Z" transform="translate(-799.5 -690.2)" fill="#b7f7da"/>
    </g>
    <g id="XMLID_00000106826610105519779080000004148446008140097459_" transform="translate(895.185 744.85)">
      <path id="XMLID_00000114756206816573283040000004217345660134160268_" d="M811.781,728.064a3.39,3.39,0,0,1-3.381-3.381v-31.1a3.381,3.381,0,1,1,6.761,0v31.1A3.466,3.466,0,0,1,811.781,728.064Zm0-35.047a.65.65,0,0,0-.676.676v31.1a.676.676,0,1,0,1.352,0v-31.1A.649.649,0,0,0,811.781,693.017Z" transform="translate(-808.4 -690.2)" fill="#b7f7da"/>
    </g>
    <g id="XMLID_00000113327064550088816400000012242889170480105605_" transform="translate(905.214 744.85)">
      <path id="XMLID_00000078012849466902110580000012989661137943587218_" d="M820.681,728.064a3.39,3.39,0,0,1-3.381-3.381v-31.1a3.39,3.39,0,0,1,3.381-3.381,3.32,3.32,0,0,1,3.381,3.381v31.1A3.39,3.39,0,0,1,820.681,728.064Zm0-35.047a.65.65,0,0,0-.676.676v31.1a.676.676,0,1,0,1.352,0v-31.1A.65.65,0,0,0,820.681,693.017Z" transform="translate(-817.3 -690.2)" fill="#b7f7da"/>
    </g>
    <g id="XMLID_00000098939896394563931220000008609843225213275825_" transform="translate(874.562 730.313)">
      <g id="Group_889" data-name="Group 889">
        <path id="XMLID_00000069394777179796699740000007675564987340668544_" d="M831.683,689.245h-35.61a5.973,5.973,0,0,1,0-11.945h35.61a6.012,6.012,0,0,1,5.973,5.973A5.871,5.871,0,0,1,831.683,689.245Zm-35.61-7.1a1.129,1.129,0,0,0-1.127,1.127,1.234,1.234,0,0,0,1.127,1.24h35.61a1.158,1.158,0,0,0,1.127-1.24,1.129,1.129,0,0,0-1.127-1.127Z" transform="translate(-790.1 -677.3)" fill="#b7f7da"/>
      </g>
    </g>
    <g id="XMLID_00000111906592311200090710000001459873286478311322_" transform="translate(889.776 725.242)">
      <g id="Group_890" data-name="Group 890">
        <path id="XMLID_00000041988384385922468680000008544433568228465851_" d="M819.151,681.7a1.733,1.733,0,0,1-1.69-1.69V677.42c0-.676-.451-1.127-.676-1.127h-9.241c-.225,0-.563.451-.563,1.014v2.7a1.69,1.69,0,0,1-3.381,0v-2.7a4.286,4.286,0,0,1,3.944-4.508h9.241c2.254,0,4.057,2.028,4.057,4.62v2.592A1.66,1.66,0,0,1,819.151,681.7Z" transform="translate(-803.6 -672.8)" fill="#b7f7da"/>
      </g>
    </g>
    <g id="XMLID_00000180344421379811685850000010821803762723842230_" transform="translate(717.132 687.377)">
      <path id="XMLID_00000053533511755101967020000000925555708851481750_" d="M797.237,653.4H652.766a2.311,2.311,0,0,1-2.366-2.367v-9.466a2.311,2.311,0,0,1,2.366-2.366H797.237a2.311,2.311,0,0,1,2.366,2.366v9.466A2.38,2.38,0,0,1,797.237,653.4Zm-142.1-4.846H794.87V643.82H655.133Z" transform="translate(-650.4 -639.2)" fill="#b7f7da"/>
    </g>
    <g id="XMLID_00000043426672322566277030000001799565855587980972_" transform="translate(717.132 702.816)">
      <path id="XMLID_00000142886247155894146330000012391093510234508464_" d="M797.237,667.1H652.766a2.311,2.311,0,0,1-2.366-2.367v-9.466a2.311,2.311,0,0,1,2.366-2.367H797.237a2.311,2.311,0,0,1,2.366,2.367v9.466A2.311,2.311,0,0,1,797.237,667.1Zm-142.1-4.733H794.87v-4.733H655.133Z" transform="translate(-650.4 -652.9)" fill="#b7f7da"/>
    </g>
    <g id="XMLID_00000129192027267488367440000000670673839566729382_" transform="translate(717.132 718.367)">
      <path id="XMLID_00000070800333740497427540000005926196139584361115_" d="M797.237,680.9H652.766a2.311,2.311,0,0,1-2.366-2.366v-9.466a2.311,2.311,0,0,1,2.366-2.367H797.237a2.311,2.311,0,0,1,2.366,2.367v9.466A2.311,2.311,0,0,1,797.237,680.9Zm-142.1-4.733H794.87v-4.733H655.133Z" transform="translate(-650.4 -666.7)" fill="#b7f7da"/>
    </g>
    <g id="XMLID_00000101808095561323063200000004657976720964175776_" transform="translate(712.737 740.68)">
      <path id="XMLID_00000095310988974816327990000017051435420779338922_" d="M802.127,706.334H648.866a2.311,2.311,0,0,1-2.367-2.367v-15.1a2.311,2.311,0,0,1,2.367-2.366h153.26a2.311,2.311,0,0,1,2.367,2.366v15.1A2.311,2.311,0,0,1,802.127,706.334ZM651.233,701.6H799.76V691.233H651.233Z" transform="translate(-646.5 -686.5)" fill="#b7f7da"/>
    </g>
    <g id="XMLID_00000042712286006189846830000006487667942614544538_" transform="translate(741.924 755.781)">
      <path id="XMLID_00000054957019478932688990000014207795565853369242_" d="M684.12,731.228h-9.353a2.311,2.311,0,0,1-2.367-2.366v-26.6a2.311,2.311,0,0,1,2.367-2.367h9.353a2.311,2.311,0,0,1,2.367,2.367v26.6A2.38,2.38,0,0,1,684.12,731.228Zm-6.987-4.733h4.508V704.746h-4.508Z" transform="translate(-672.4 -699.9)" fill="#aed3c3"/>
    </g>
    <g id="XMLID_00000181066814108536861070000007505472001196089745_" transform="translate(827.457 755.781)">
      <path id="XMLID_00000071548105076498603370000012312295560021196717_" d="M760.02,731.228h-9.353a2.311,2.311,0,0,1-2.366-2.366v-26.6a2.311,2.311,0,0,1,2.366-2.367h9.353a2.311,2.311,0,0,1,2.367,2.367v26.6A2.247,2.247,0,0,1,760.02,731.228Zm-6.874-4.733h4.508V704.746h-4.508Z" transform="translate(-748.3 -699.9)" fill="#aed3c3"/>
    </g>
    <g id="XMLID_00000127756158715278252330000009164647900664458150_" transform="translate(752.179 697.745)">
      <path id="XMLID_00000127757648674656905290000009439687453144540290_" d="M689.839,657.19h-6.987a1.3,1.3,0,0,1-1.352-1.352v-6.085a1.3,1.3,0,0,1,1.352-1.352h6.987a1.3,1.3,0,0,1,1.352,1.352v6.085A1.244,1.244,0,0,1,689.839,657.19Zm-5.522-2.7H688.6v-3.268h-4.282Z" transform="translate(-681.5 -648.4)" fill="#fff"/>
    </g>
    <g id="XMLID_00000052809567627559509090000008434952552058581411_" transform="translate(821.597 697.745)">
      <path id="XMLID_00000065033428901141163370000015459836494924931004_" d="M751.439,657.19h-6.987a1.3,1.3,0,0,1-1.352-1.352v-6.085a1.3,1.3,0,0,1,1.352-1.352h6.987a1.3,1.3,0,0,1,1.352,1.352v6.085A1.37,1.37,0,0,1,751.439,657.19Zm-5.635-2.7h4.282v-3.268H745.8Z" transform="translate(-743.1 -648.4)" fill="#fff"/>
    </g>
    <g id="XMLID_00000041295627497680420860000017833950334528597661_" transform="translate(752.179 714.31)">
      <path id="XMLID_00000139995763470124866230000013175883803914816134_" d="M689.839,670.876h-6.987a1.3,1.3,0,0,1-1.352-1.352v-5.071a1.3,1.3,0,0,1,1.352-1.352h6.987a1.3,1.3,0,0,1,1.352,1.352v5.071A1.3,1.3,0,0,1,689.839,670.876Zm-5.522-2.7H688.6V665.8h-4.282Z" transform="translate(-681.5 -663.1)" fill="#fff"/>
    </g>
    <g id="XMLID_00000015352821869064183150000015643714762511838881_" transform="translate(821.597 714.31)">
      <path id="XMLID_00000056402786438642060880000012734672425078056104_" d="M751.439,670.876h-6.987a1.3,1.3,0,0,1-1.352-1.352v-5.071a1.3,1.3,0,0,1,1.352-1.352h6.987a1.3,1.3,0,0,1,1.352,1.352v5.071A1.454,1.454,0,0,1,751.439,670.876Zm-5.635-2.7h4.282V665.8H745.8Z" transform="translate(-743.1 -663.1)" fill="#fff"/>
    </g>
    <g id="XMLID_00000009560202086223465680000009083913789366909884_" transform="translate(752.179 728.848)">
      <path id="XMLID_00000174574677380855303320000008870239131801121160_" d="M689.839,691.551h-6.987A1.3,1.3,0,0,1,681.5,690.2V677.352A1.3,1.3,0,0,1,682.852,676h6.987a1.3,1.3,0,0,1,1.352,1.352V690.2A1.3,1.3,0,0,1,689.839,691.551Zm-5.522-2.7H688.6V678.7h-4.282Z" transform="translate(-681.5 -676)" fill="#fff"/>
    </g>
    <g id="XMLID_00000135670615468901058640000008016893277311498152_" transform="translate(821.597 728.848)">
      <path id="XMLID_00000158010656128896343040000015615308392262994819_" d="M751.439,691.551h-6.987A1.3,1.3,0,0,1,743.1,690.2V677.352A1.3,1.3,0,0,1,744.452,676h6.987a1.3,1.3,0,0,1,1.352,1.352V690.2A1.454,1.454,0,0,1,751.439,691.551Zm-5.635-2.7h4.282V678.7H745.8Z" transform="translate(-743.1 -676)" fill="#aed3c3"/>
    </g>
    <g id="XMLID_00000157292715561320338230000002783430612037890183_" transform="translate(124.6 800.181)">
      <path id="XMLID_00000018943132681696631370000009978398774999767688_" d="M387.171,739.3h-260.2a2.366,2.366,0,1,0,0,4.733h260.2a2.366,2.366,0,1,0,0-4.733Z" transform="translate(-124.6 -739.3)" fill="#b7f7da"/>
      <path id="XMLID_00000101784919036195008640000005795715476686167186_" d="M894.526,739.3H668.466a2.366,2.366,0,1,0,0,4.733H894.526a2.366,2.366,0,1,0,0-4.733Z" transform="translate(-55.875 -739.3)" fill="#b7f7da"/>
    </g>
    <g id="XMLID_00000062891298639907822050000011957226737725176219_" transform="translate(379.621 451.401)">
      <path id="XMLID_00000034082170247141713340000000007078656894005667_" d="M358,758.747c-1.916,0-7.1,0-7.1-4.62V440.168c0-5.747,3.155-10.368,7.1-10.368s7.1,4.508,7.1,10.368V754.126C365.212,758.747,360.479,758.747,358,758.747Zm-2.367-4.846a10.49,10.49,0,0,0,2.367.113,15.873,15.873,0,0,0,2.367-.113V440.168c0-3.381-1.578-5.522-2.367-5.522s-2.367,2.141-2.367,5.522Z" transform="translate(-350.9 -429.8)" fill="#b7f7da"/>
    </g>
    <g id="XMLID_00000101074201353155725040000013937114529349950655_" transform="translate(317.122 338.171)">
      <path id="XMLID_00000063615128515292839720000008738944906753648258_" d="M353.656,422.042c-4.958,0-10.368-4.17-16-12.621l-.113-.113L296.635,338.2c-1.916-2.817-1.465-6.536.9-8.114h0a4.97,4.97,0,0,1,4.395-.451,7.159,7.159,0,0,1,3.493,2.592l50.26,64.91.113.113c11.382,16.678,4.17,22.426,3.268,22.989A9.412,9.412,0,0,1,353.656,422.042ZM341.6,406.829c5.071,7.438,8.79,9.691,10.931,10.255a4.332,4.332,0,0,0,3.719-.676c.338-.338,3.832-4.17-4.395-16.34l-50.26-64.91-.113-.113c-.451-.563-.9-.9-1.24-.9a2.158,2.158,0,0,0,.451,1.465l.113.113Z" transform="translate(-295.44 -329.322)" fill="#b7f7da"/>
    </g>
    <g id="XMLID_00000137838181393302078000000000739882499334693552_" transform="translate(399.374 421.172)">
      <path id="XMLID_00000052785879032632188420000009124001333101243287_" d="M384.286,428.133c-14.312,0-15.664-7.212-15.777-8.114-.9-7.663,5.747-12.283,19.5-13.974h.225L470.157,403a7.048,7.048,0,0,1,4.282.9,5.164,5.164,0,0,1,2.592,3.606h0c.338,2.817-2.254,5.522-5.635,5.973L390.484,427.8h-.113Q386.99,428.133,384.286,428.133Zm-11.156-8.79c.113.451,1.916,5.409,16.453,3.719l80.8-14.312h.113a2.123,2.123,0,0,0,1.352-.676,1.778,1.778,0,0,0-1.465-.338h-.225l-81.927,3.043c-9.015,1.014-12.734,3.155-14.2,4.846A5.754,5.754,0,0,0,373.129,419.343Z" transform="translate(-368.428 -402.976)" fill="#b7f7da"/>
    </g>
    <g id="XMLID_00000142857809892153408620000008636514613295067022_" transform="translate(320.348 447.286)">
      <path id="XMLID_00000143576115362207505400000008081382095269247658_" d="M302.92,523.121a4.661,4.661,0,0,1-2.141-.563h0c-2.479-1.352-3.268-5.071-1.578-8l35.047-74.264a.11.11,0,0,1,.113-.113c9.691-17.693,18.031-13.861,18.932-13.3,6.762,3.719,6.762,11.72.113,24l-.113.113-44.739,68.629A7.285,7.285,0,0,1,302.92,523.121Zm35.5-80.8-35.047,74.264a.11.11,0,0,1-.113.113,2.087,2.087,0,0,0-.225,1.578,2.3,2.3,0,0,0,1.127-1.014l.113-.113,44.739-68.629c4.395-8,4.733-12.171,4.282-14.312a4.335,4.335,0,0,0-2.367-3.043C350.589,430.94,345.517,429.475,338.418,442.321Z" transform="translate(-298.303 -426.148)" fill="#b7f7da"/>
    </g>
    <g id="XMLID_00000096770835622282277430000000257170794255163797_" transform="translate(376.24 428.75)">
      <path id="XMLID_00000127006486746697338660000011170140426403926961_" d="M358.38,430.661a10.48,10.48,0,1,1,10.48-10.48A10.389,10.389,0,0,1,358.38,430.661Zm0-16.34a5.747,5.747,0,1,0,5.747,5.747A5.771,5.771,0,0,0,358.38,414.32Z" transform="translate(-347.9 -409.7)" fill="#b7f7da"/>
    </g>
    <g id="XMLID_00000124134681890914506860000016090628908579686020_" transform="translate(476.423 541.892)">
      <path id="XMLID_00000075140752488206147610000001093953165156171416_" d="M439.167,654.345a2.311,2.311,0,0,1-2.367-2.366V518.552c0-4.62,3.155-8.452,7.1-8.452s7.1,3.832,7.1,8.452V647.471a2.367,2.367,0,0,1-4.733,0V518.552c0-2.141-1.24-3.719-2.254-3.719-1.127,0-2.254,1.578-2.254,3.719V651.979A2.867,2.867,0,0,1,439.167,654.345Z" transform="translate(-436.8 -510.1)" fill="#b7f7da"/>
    </g>
    <g id="XMLID_00000135685727199293736390000016725312702312011418_" transform="translate(456.731 444.532)">
      <path id="XMLID_00000013897060468727149750000013522989211264893883_" d="M441.046,503.147c-4.733,0-8.339-4.508-10.706-13.523V489.4L419.522,430.01a5.626,5.626,0,0,1,.225-3.606,4.277,4.277,0,0,1,2.817-2.592h0c2.367-.563,4.958,1.127,5.747,3.944l18.82,57.36v.113c3.944,14.875-3.043,17.242-3.832,17.467A5.73,5.73,0,0,1,441.046,503.147Zm-6.085-14.65c1.69,6.536,3.719,8.79,4.733,9.466a2.433,2.433,0,0,0,2.254.338c.9-.451,2.7-3.381.563-11.607l-17.693-53.867Z" transform="translate(-419.326 -423.704)" fill="#b7f7da"/>
    </g>
    <g id="XMLID_00000038394841933142280390000005432636400236221579_" transform="translate(490.56 527.628)">
      <path id="XMLID_00000019658389511318825850000015930573237313970345_" d="M524.121,525.455a4.226,4.226,0,0,1-1.24-.113l-59.614-10.03h-.113c-14.988-3.493-13.861-10.706-13.748-11.495,1.352-5.973,7.325-7.776,17.805-5.3h.225l57.585,18.031c2.817.676,4.62,3.155,4.057,5.522A4.86,4.86,0,0,1,526.6,525,10.514,10.514,0,0,1,524.121,525.455Zm-60.065-14.875,55.9,9.353-54.092-16.9c-6.649-1.578-9.466-.789-10.593-.225a2.416,2.416,0,0,0-1.352,1.8C454.027,505.621,455.83,508.664,464.057,510.579Z" transform="translate(-449.345 -497.442)" fill="#b7f7da"/>
    </g>
    <g id="XMLID_00000159461980364645736710000009709739767046883257_" transform="translate(419.401 535.325)">
      <path id="XMLID_00000023254517745719351120000006943713272827917753_" d="M390.257,568.425a4.038,4.038,0,0,1-2.7-1.014h0c-1.8-1.578-1.8-4.733,0-6.874l36.625-48.119.113-.113c10.03-11.72,16-7.325,16.566-6.761a7.155,7.155,0,0,1,2.7,5.747c0,3.493-2.028,7.55-6.311,12.509l-.113.113-42.823,42.6A5.353,5.353,0,0,1,390.257,568.425ZM427.9,515.46l-34.371,45.077,40.118-39.893c4.395-5.184,5.071-8,5.071-9.241a2.252,2.252,0,0,0-1.014-2.028C436.911,508.811,433.53,508.924,427.9,515.46Z" transform="translate(-386.2 -504.272)" fill="#b7f7da"/>
    </g>
    <g id="XMLID_00000005255443412881152300000009170516232617248171_" transform="translate(473.831 523.862)">
      <path id="XMLID_00000070800315762638067270000011985531996604498874_" d="M442.839,510.778a8.339,8.339,0,1,1,8.339-8.339A8.32,8.32,0,0,1,442.839,510.778Zm0-11.945a3.606,3.606,0,1,0,3.606,3.606A3.56,3.56,0,0,0,442.839,498.833Z" transform="translate(-434.5 -494.1)" fill="#b7f7da"/>
    </g>
    <g id="XMLID_00000031170994066128372750000011596046295654770334_" transform="translate(877.856 427.959)">
      <g id="XMLID_00000065778775188394636730000014080990994649280145_" transform="translate(0 25.073)">
        <path id="Path_2270" data-name="Path 2270" d="M823.762,455.423h-25.13c-3.155,0-3.268-3.493-1.8-5.409,1.24-1.8,2.479-3.493,3.832-5.3,2.141-3.043,4.282-5.973,6.423-9.015.225,1.24.563,2.592.789,3.831.338,1.69,2.93,1.014,2.592-.676-.451-2.254-.9-4.395-1.352-6.649a1.352,1.352,0,0,0-1.69-.9c-2.479.563-4.958,1.24-7.438,1.8-1.69.451-.9,2.93.676,2.592,1.24-.338,2.479-.676,3.719-.9-2.479,3.381-4.846,6.874-7.325,10.255-1.014,1.352-2.028,2.817-3.043,4.17a5.9,5.9,0,0,0,2.366,8.565c1.352.676,3.268.338,4.733.338h22.538A1.354,1.354,0,1,0,823.762,455.423Z" transform="translate(-793.022 -431.248)" fill="#b7f7da"/>
      </g>
      <g id="XMLID_00000047780848733685769710000000222851767429856683_" transform="translate(17.42)">
        <path id="Path_2271" data-name="Path 2271" d="M833.858,420.044c2.028,2.7,3.944,5.3,5.973,8-1.352-.225-2.817-.451-4.17-.676-1.69-.225-2.367,2.254-.676,2.592,2.367.338,4.733.789,7.1,1.127a1.4,1.4,0,0,0,1.69-.9c.338-2.141.789-4.395,1.127-6.536.338-1.69-2.254-2.367-2.592-.676-.225,1.127-.338,2.254-.563,3.381-2.141-2.93-4.282-5.86-6.536-8.79-2.479-3.381-5.071-8.677-9.917-8.565-4.395.113-7.1,6.085-9.128,9.128l-7.438,10.818c-1.014,1.465,1.352,2.7,2.254,1.352,2.028-2.93,3.944-5.86,5.973-8.677,1.352-1.916,2.7-3.944,4.057-5.86.9-1.352,1.69-2.93,3.155-3.719C827.885,409.676,832.168,417.9,833.858,420.044Z" transform="translate(-808.48 -408.998)" fill="#b7f7da"/>
      </g>
      <g id="XMLID_00000057125331240792267870000007093129665360604819_" transform="translate(37.345 25.135)">
        <path id="Path_2272" data-name="Path 2272" d="M854.378,444.259c-3.043-4.17-6.085-8.339-9.128-12.4-1.014-1.352-3.268,0-2.254,1.352,2.592,3.493,5.071,6.987,7.663,10.48,1.352,1.916,2.817,3.832,4.17,5.635s2.592,6.085-1.014,6.085H830.825l2.7-2.7c1.24-1.24-.676-3.043-1.916-1.916l-5.071,5.071a1.4,1.4,0,0,0,0,1.916c1.578,1.578,3.043,3.268,4.62,4.846,1.24,1.24,3.043-.676,1.916-1.916-.789-.9-1.69-1.8-2.479-2.7h20.848c1.916,0,3.606.225,5.3-.9C862.041,453.5,856.857,447.64,854.378,444.259Z" transform="translate(-826.161 -431.303)" fill="#b7f7da"/>
      </g>
    </g>
    <g id="XMLID_00000136383743991757658090000011459720734299900315_" transform="translate(666.308 609.733)">
      <path id="XMLID_00000088841837122018345320000004976991462824811911_" d="M607.667,699.557a2.311,2.311,0,0,1-2.366-2.367V572.667a2.366,2.366,0,1,1,4.733,0V697.191A2.311,2.311,0,0,1,607.667,699.557Z" transform="translate(-605.3 -570.3)" fill="#fff"/>
    </g>
    <g id="XMLID_00000077286168943892099930000006010169019820078256_" transform="translate(650.644 623.368)">
      <path id="XMLID_00000153688405155622865440000001713075786293120384_" d="M609.431,602.8a2.485,2.485,0,0,1-1.69-.676l-15.664-15.664a2.391,2.391,0,0,1,3.381-3.381l15.664,15.551a2.451,2.451,0,0,1,0,3.381A2.177,2.177,0,0,1,609.431,602.8Z" transform="translate(-591.4 -582.4)" fill="#fff"/>
    </g>
    <g id="XMLID_00000139288066141043826570000008046166116962259615_" transform="translate(666.266 638.99)">
      <path id="XMLID_00000150781903429666644630000018320659297625432236_" d="M607.671,628.873a2.166,2.166,0,0,1-1.352-.451,2.388,2.388,0,0,1-.676-3.268l18.707-27.835a2.36,2.36,0,0,1,3.944,2.592l-18.707,27.835A2.092,2.092,0,0,1,607.671,628.873Z" transform="translate(-605.263 -596.262)" fill="#fff"/>
    </g>
    <g id="XMLID_00000183231766311022810560000002731476556823557289_" transform="translate(609.512 574.348)">
      <path id="XMLID_00000116220997725118978390000004496400206266954930_" d="M614.063,657.226a59.163,59.163,0,1,1,59.163-59.163A59.3,59.3,0,0,1,614.063,657.226Zm0-113.48a54.43,54.43,0,1,0,54.43,54.43A54.467,54.467,0,0,0,614.063,543.746Z" transform="translate(-554.9 -538.9)" fill="#aed3c3"/>
    </g>
    <g id="XMLID_00000117651830403748828750000002313418444783380363_" transform="translate(244.165 677.681)">
      <path id="Path_2273" data-name="Path 2273" d="M267.1,653.251a67.5,67.5,0,0,0-13.861-22.313c-.9-1.014-2.367.451-1.465,1.465a65.408,65.408,0,0,1,7.888,10.48l-.113.113-8.565,8.565V631.727a1.072,1.072,0,0,0-2.141,0v19.834l-8.452-8.452a.11.11,0,0,1-.113-.113,82.173,82.173,0,0,1,7.888-10.48c.9-1.014-.563-2.479-1.465-1.465a70.821,70.821,0,0,0-13.748,21.975c-2.141,5.747-3.155,12.171-1.24,18.143,2.367,7.212,8.79,11.607,15.439,14.424,1.24.563,1.8-1.465.563-2.028-6.423-2.7-12.283-7.1-14.312-14.086a21.169,21.169,0,0,1-.225-9.579l15.551,15.551v9.015a1.072,1.072,0,0,0,2.141,0v-8.9L266.536,659.9a23.2,23.2,0,0,1-.113,9.241c-1.69,7.212-7.888,11.72-14.312,14.424-1.24.563-.676,2.479.563,2.028,6.649-2.817,12.734-7.1,15.326-14.086C270.255,665.535,269.128,659,267.1,653.251Zm-33.019,4.17-.113-.113a36.683,36.683,0,0,1,1.69-4.958,53.267,53.267,0,0,1,3.719-7.663l9.691,9.691v18.031C244,667.451,239.039,662.379,234.081,657.421Zm32,0L251.1,672.409V654.378l9.691-9.691a61.49,61.49,0,0,1,3.606,7.212,38.041,38.041,0,0,1,1.8,5.409Z" transform="translate(-230.7 -630.596)" fill="#8fdbb6"/>
    </g>
    <g id="XMLID_00000041292858971197810540000003565228898808729477_" transform="translate(211.26 577.052)">
      <path id="XMLID_00000146491768760002492070000016756137925784302526_" d="M291.991,733.439H215.474c-10.368,0-13.974-3.606-13.974-13.636V559.894A18.612,18.612,0,0,1,220.094,541.3h67.39a18.612,18.612,0,0,1,18.594,18.594V720.7C306.078,731.523,301.57,733.439,291.991,733.439Zm-71.9-187.293a13.8,13.8,0,0,0-13.748,13.748V719.8c0,7.438,1.465,8.79,9.241,8.79H292.1c8.226,0,9.241-.9,9.241-7.888V559.894A13.8,13.8,0,0,0,287.6,546.146Z" transform="translate(-201.5 -541.3)" fill="#8fdbb6"/>
    </g>
    <g id="XMLID_00000128445243552665439840000009567285272337906828_" transform="translate(224.895 592.604)">
      <path id="XMLID_00000170994249977101929220000016255457373423541652_" d="M281.44,610.094H223.517a9.931,9.931,0,0,1-9.917-9.917v-35.16a9.931,9.931,0,0,1,9.917-9.917H281.44a9.931,9.931,0,0,1,9.917,9.917v35.16A9.931,9.931,0,0,1,281.44,610.094Zm-57.923-50.26a5.243,5.243,0,0,0-5.184,5.184v35.16a5.243,5.243,0,0,0,5.184,5.184H281.44a5.243,5.243,0,0,0,5.184-5.184v-35.16a5.243,5.243,0,0,0-5.184-5.184Z" transform="translate(-213.6 -555.1)" fill="#8fdbb6"/>
    </g>
    <g id="XMLID_00000165198034046758429640000004858202231793520288_" transform="translate(199.54 764.458)">
      <path id="XMLID_00000129203365946018555730000002397521587829563552_" d="M314.723,733.294h-118.1a5.531,5.531,0,0,1-5.522-5.522v-14.65a5.531,5.531,0,0,1,5.522-5.522h118.1a5.531,5.531,0,0,1,5.522,5.522v14.65A5.531,5.531,0,0,1,314.723,733.294Zm-118.1-20.961a.77.77,0,0,0-.789.789v14.65a.77.77,0,0,0,.789.789h118.1a.77.77,0,0,0,.789-.789v-14.65a.77.77,0,0,0-.789-.789Z" transform="translate(-191.1 -707.6)" fill="#b7f7da"/>
    </g>
    <g id="XMLID_00000155122702535658860340000004490350621687764877_" transform="translate(768.535 259.6)">
      <g id="XMLID_00000101783757422123691440000013237105463916496265_" transform="translate(21.224 22.535)">
        <g id="XMLID_00000133502498980957100260000006552580772693869483_">
          <path id="Path_2274" data-name="Path 2274" d="M775.985,311.943a29.2,29.2,0,0,1-28.849,28.849c-15.89.225-28.624-13.3-28.849-28.849-.225-15.89,13.3-28.624,28.849-28.849,15.889-.225,28.624,13.3,28.849,28.849,0,2.254,3.493,2.254,3.381,0a32.871,32.871,0,0,0-24.454-31.328c-14.312-3.831-29.525,3.493-36.4,16.34-7.1,13.072-3.493,29.638,7.438,39.329,11.044,9.917,27.948,10.368,40.005,1.916,8.565-5.973,13.3-15.89,13.523-26.257C779.366,309.689,775.985,309.689,775.985,311.943Z" transform="translate(-714.848 -279.597)" fill="#b7f7da"/>
        </g>
      </g>
      <g id="XMLID_00000150073067966914212720000001104170186123595440_">
        <g id="XMLID_00000011030592741800247240000006983746079971430039_" transform="translate(10.124 20.106)">
          <g id="XMLID_00000137117936782322148710000012313908930212180390_">
            <path id="Path_2275" data-name="Path 2275" d="M705.564,280.212l13.861,11.156c1.69,1.352,4.17-1.014,2.367-2.367L707.93,277.845c-1.578-1.352-4.057,1.014-2.367,2.367Z" transform="translate(-704.997 -277.442)" fill="#b7f7da"/>
          </g>
        </g>
        <g id="XMLID_00000090260491207970324660000000320103990845319335_" transform="translate(28.736 5.13)">
          <g id="XMLID_00000005262275158152585220000017388823244972108981_">
            <path id="Path_2276" data-name="Path 2276" d="M732.655,280.772c-2.7-5.3-5.3-10.48-8-15.777-1.014-1.916-3.944-.225-2.93,1.69,2.7,5.3,5.3,10.48,8,15.777,1.014,2.028,3.944.338,2.93-1.69Z" transform="translate(-721.513 -264.152)" fill="#b7f7da"/>
          </g>
        </g>
        <g id="XMLID_00000045600353992304724520000008367408760539874235_" transform="translate(0 60.903)">
          <g id="XMLID_00000095326355632029631450000011056939840127571128_">
            <path id="Path_2277" data-name="Path 2277" d="M698.139,321.032l17.58-4.057c2.141-.451,1.24-3.831-.9-3.268l-17.58,4.057c-2.141.451-1.24,3.719.9,3.268Z" transform="translate(-696.014 -313.644)" fill="#b7f7da"/>
          </g>
        </g>
        <g id="XMLID_00000098930176361431564580000017239278759296319135_" transform="translate(0 41.315)">
          <g id="XMLID_00000005959048853648845090000016906457548628442032_">
            <path id="Path_2278" data-name="Path 2278" d="M715.607,300.249c-5.86-1.352-11.72-2.7-17.467-3.944-2.141-.451-3.043,2.817-.9,3.268,5.86,1.352,11.72,2.7,17.467,3.944,2.141.564,3.043-2.817.9-3.268Z" transform="translate(-696.014 -296.262)" fill="#b7f7da"/>
          </g>
        </g>
        <g id="XMLID_00000036233683330339817090000016362775536830867085_" transform="translate(51.823)">
          <g id="XMLID_00000150811445528054276620000006467300568101979300_">
            <path id="Path_2279" data-name="Path 2279" d="M742,261.29v18.481a1.69,1.69,0,0,0,3.381,0V261.29a1.69,1.69,0,0,0-3.381,0Z" transform="translate(-742 -259.6)" fill="#b7f7da"/>
          </g>
        </g>
        <g id="XMLID_00000134220981956434581620000018174685379454574739_" transform="translate(67.317 5.17)">
          <g id="XMLID_00000134251861127855038280000011955515832313508772_">
            <path id="Path_2280" data-name="Path 2280" d="M758.849,282.57c2.479-5.3,5.071-10.48,7.55-15.777.9-2.028-2.028-3.719-2.93-1.69-2.479,5.3-5.071,10.48-7.55,15.777-.9,1.916,2.028,3.606,2.93,1.69Z" transform="translate(-755.749 -264.187)" fill="#b7f7da"/>
          </g>
        </g>
        <g id="XMLID_00000055698059288253643950000010160687350351581618_" transform="translate(10.174 75.325)">
          <g id="XMLID_00000160187941872773123090000015456023376058181519_">
            <path id="Path_2281" data-name="Path 2281" d="M708.037,340.256c4.62-3.719,9.241-7.325,13.861-11.044,1.69-1.352-.676-3.719-2.366-2.367-4.62,3.719-9.241,7.325-13.861,11.044-1.8,1.24.676,3.719,2.367,2.367Z" transform="translate(-705.042 -326.442)" fill="#b7f7da"/>
          </g>
        </g>
        <g id="XMLID_00000053539663548051650790000005507078148510788745_" transform="translate(85.984 60.811)">
          <g id="XMLID_00000047760968683463624700000002627253537495619215_">
            <path id="Path_2282" data-name="Path 2282" d="M792.019,317.662l-17.58-4.057c-2.141-.451-3.043,2.817-.9,3.268l17.58,4.057a1.7,1.7,0,0,0,.9-3.268Z" transform="translate(-772.314 -313.562)" fill="#b7f7da"/>
          </g>
        </g>
        <g id="XMLID_00000165212713892301457010000012392730458412209814_" transform="translate(78.578 74.649)">
          <g id="XMLID_00000058562994116706125290000009110051569096371073_">
            <path id="Path_2283" data-name="Path 2283" d="M766.371,328.612c4.846,3.832,9.691,7.776,14.65,11.607,1.69,1.352,4.17-1.014,2.366-2.367-4.846-3.832-9.691-7.776-14.65-11.607-1.69-1.352-4.169,1.014-2.366,2.367Z" transform="translate(-765.742 -325.842)" fill="#b7f7da"/>
          </g>
        </g>
        <g id="XMLID_00000072996773678934609340000018184047644189740168_" transform="translate(85.984 41.182)">
          <g id="XMLID_00000027571265638187982630000001427870231007631747_">
            <path id="Path_2284" data-name="Path 2284" d="M774.439,303.532l17.58-4.057c2.141-.451,1.24-3.832-.9-3.268l-17.58,4.057a1.7,1.7,0,0,0,.9,3.268Z" transform="translate(-772.314 -296.144)" fill="#b7f7da"/>
          </g>
        </g>
        <g id="XMLID_00000020369462085654517670000007482339067845057959_" transform="translate(79.189 20.106)">
          <g id="XMLID_00000113333005968617762890000003858878605038994318_">
            <path id="Path_2285" data-name="Path 2285" d="M780.839,277.845c-4.62,3.719-9.353,7.438-13.974,11.156-1.69,1.352.676,3.719,2.367,2.367,4.62-3.719,9.353-7.438,13.974-11.156,1.8-1.352-.563-3.719-2.366-2.367Z" transform="translate(-766.284 -277.442)" fill="#b7f7da"/>
          </g>
        </g>
        <g id="XMLID_00000082345760652528108800000016274479930576820644_" transform="translate(66.832 84.302)">
          <g id="XMLID_00000039097437023112979970000010403317200975123873_">
            <path id="Path_2286" data-name="Path 2286" d="M766.454,351.866c-2.7-5.522-5.3-11.044-8-16.566-.9-2.028-3.944-.225-2.93,1.69,2.7,5.522,5.3,11.044,8,16.566,1.014,2.028,3.944.338,2.93-1.69Z" transform="translate(-755.319 -334.408)" fill="#b7f7da"/>
          </g>
        </g>
        <g id="XMLID_00000105414992744369511340000000149347842018311308_" transform="translate(51.823 87.984)">
          <g id="XMLID_00000165204184326449001760000013961421354674343079_">
            <path id="Path_2287" data-name="Path 2287" d="M742,339.281v18.256a1.69,1.69,0,0,0,3.381,0V339.281a1.693,1.693,0,0,0-3.381,0Z" transform="translate(-742 -337.675)" fill="#b7f7da"/>
          </g>
        </g>
        <g id="XMLID_00000022557367204903856800000018432427277555003525_" transform="translate(28.736 85.204)">
          <g id="XMLID_00000129889655764554052900000000023509431858047641_">
            <path id="Path_2288" data-name="Path 2288" d="M724.654,353.568c2.7-5.3,5.3-10.593,8-15.777,1.014-1.916-1.916-3.719-2.93-1.69-2.7,5.3-5.3,10.593-8,15.777-1.014,1.916,1.916,3.606,2.93,1.69Z" transform="translate(-721.513 -335.208)" fill="#b7f7da"/>
          </g>
        </g>
      </g>
    </g>
    <g id="XMLID_00000016046904458642426660000012961247678923708347_" transform="translate(278.311 307.494)">
      <path id="XMLID_00000125602453297006401730000002909741936480333970_" d="M261.338,548.331h0a.3.3,0,0,1-.338-.338v-8.226a.338.338,0,0,1,.676,0v8.226A.3.3,0,0,1,261.338,548.331Zm.113-16.34h0a.3.3,0,0,1-.338-.338v-8.226a.338.338,0,1,1,.676,0v8.226A.36.36,0,0,1,261.451,531.991Zm.113-16.34h0a.3.3,0,0,1-.338-.338v-8.226a.338.338,0,1,1,.676,0v8.226A.508.508,0,0,1,261.563,515.651Zm0-16.453h0a.3.3,0,0,1-.338-.338v-8.227a.338.338,0,1,1,.676,0v8.227A.3.3,0,0,1,261.563,499.2Zm.113-16.34h0a.3.3,0,0,1-.338-.338v-8.227a.338.338,0,1,1,.676,0v8.227A.36.36,0,0,1,261.676,482.857Zm.113-16.453h0a.3.3,0,0,1-.338-.338V457.84a.338.338,0,0,1,.676,0v8.226A.3.3,0,0,1,261.789,466.4Zm.113-16.34h0a.3.3,0,0,1-.338-.338V441.5a.3.3,0,0,1,.338-.338h0a.3.3,0,0,1,.338.338v8.226A.3.3,0,0,1,261.9,450.064Zm.113-16.34h0a.3.3,0,0,1-.338-.338v-8.226a.3.3,0,0,1,.338-.338h0a.3.3,0,0,1,.338.338v8.226A.36.36,0,0,1,262.014,433.724Zm.113-16.453h0a.3.3,0,0,1-.338-.338v-8.226a.36.36,0,0,1,.338-.338.3.3,0,0,1,.338.338v8.226A.36.36,0,0,1,262.127,417.271Zm.113-16.34h0a.3.3,0,0,1-.338-.338v-8.226a.36.36,0,0,1,.338-.338.3.3,0,0,1,.338.338v8.226A.508.508,0,0,1,262.24,400.93Zm.113-16.453h0a.3.3,0,0,1-.338-.338v-8.226a.36.36,0,0,1,.338-.338.3.3,0,0,1,.338.338v8.226A.36.36,0,0,1,262.352,384.478Zm0-16.34h0a.3.3,0,0,1-.338-.338v-8.226a.36.36,0,0,1,.338-.338.3.3,0,0,1,.338.338V367.8A.3.3,0,0,1,262.352,368.137Zm.113-16.453h0a.3.3,0,0,1-.338-.338V343.12a.36.36,0,0,1,.338-.338.3.3,0,0,1,.338.338v8.226A.3.3,0,0,1,262.465,351.684Zm.113-16.34h0a.3.3,0,0,1-.338-.338v-8.226a.36.36,0,0,1,.338-.338.3.3,0,0,1,.338.338v8.226A.3.3,0,0,1,262.578,335.344ZM262.69,319h0a.3.3,0,0,1-.338-.338v-8.226a.3.3,0,0,1,.338-.338h0a.3.3,0,0,1,.338.338v8.226A.36.36,0,0,1,262.69,319Zm467.332-15.777H721.8a.338.338,0,1,1,0-.676h8.226a.3.3,0,0,1,.338.338A.36.36,0,0,1,730.022,303.227Zm-16.453,0h-8.226a.338.338,0,1,1,0-.676h8.226a.3.3,0,0,1,.338.338A.36.36,0,0,1,713.569,303.227Zm-16.34,0H689a.338.338,0,1,1,0-.676h8.226a.3.3,0,0,1,.338.338A.36.36,0,0,1,697.229,303.227Zm-16.34-.113h-8.226a.338.338,0,1,1,0-.676h8.226a.3.3,0,0,1,.338.338A.36.36,0,0,1,680.889,303.114Zm-16.453,0h-8.226a.338.338,0,1,1,0-.676h8.226a.338.338,0,1,1,0,.676Zm-16.34,0h-8.226a.338.338,0,1,1,0-.676H648.1a.3.3,0,0,1,.338.338A.36.36,0,0,1,648.1,303.114Zm-16.453,0h-8.226a.338.338,0,1,1,0-.676h8.226a.338.338,0,1,1,0,.676Zm-16.34,0h-8.226a.338.338,0,1,1,0-.676H615.3a.338.338,0,1,1,0,.676Zm-16.453,0h-8.227a.338.338,0,0,1,0-.676h8.227a.3.3,0,0,1,.338.338A.36.36,0,0,1,598.849,303.114Zm-16.34,0h-8.227a.338.338,0,0,1,0-.676h8.227a.3.3,0,0,1,.338.338A.36.36,0,0,1,582.509,303.114ZM566.169,303h-8.227a.338.338,0,0,1,0-.676h8.227a.3.3,0,0,1,.338.338A.36.36,0,0,1,566.169,303Zm-16.453,0h-8.227a.338.338,0,0,1,0-.676h8.227a.338.338,0,1,1,0,.676Zm-16.34,0h-8.227a.338.338,0,1,1,0-.676h8.227a.3.3,0,0,1,.338.338A.36.36,0,0,1,533.375,303Zm-16.453,0H508.7a.338.338,0,1,1,0-.676h8.226a.338.338,0,1,1,0,.676Zm-16.34,0h-8.226a.338.338,0,1,1,0-.676h8.226a.338.338,0,1,1,0,.676Zm-16.34,0h-8.226a.338.338,0,0,1,0-.676h8.226a.3.3,0,0,1,.338.338A.508.508,0,0,1,484.242,303Zm-16.453,0h-8.226a.338.338,0,0,1,0-.676h8.226a.3.3,0,0,1,.338.338A.36.36,0,0,1,467.789,303Zm-16.34-.113h-8.226a.338.338,0,1,1,0-.676h8.226a.3.3,0,0,1,.338.338A.36.36,0,0,1,451.449,302.889Zm-16.453,0h-8.226a.338.338,0,1,1,0-.676H435a.338.338,0,0,1,0,.676Zm-16.34,0h-8.226a.338.338,0,1,1,0-.676h8.226a.338.338,0,0,1,0,.676Zm-16.453,0h-8.226a.338.338,0,1,1,0-.676H402.2a.3.3,0,0,1,.338.338C402.653,302.776,402.428,302.889,402.2,302.889Zm-16.34,0h-8.226a.338.338,0,0,1,0-.676h8.226a.338.338,0,1,1,0,.676Zm-16.34,0H361.3a.338.338,0,0,1,0-.676h8.226a.3.3,0,0,1,.338.338A.508.508,0,0,1,369.522,302.889Zm-16.453,0h-8.226a.338.338,0,0,1,0-.676h8.226a.3.3,0,0,1,.338.338A.36.36,0,0,1,353.069,302.889Zm-16.34-.113H328.5a.338.338,0,0,1,0-.676h8.226a.3.3,0,0,1,.338.338A.36.36,0,0,1,336.729,302.776Zm-16.453,0h-8.226a.338.338,0,0,1,0-.676h8.226a.338.338,0,0,1,0,.676Zm-16.34,0h-8.226a.338.338,0,0,1,0-.676h8.226a.338.338,0,0,1,0,.676Zm-16.34,0h-8.226a.338.338,0,0,1,0-.676H287.6a.3.3,0,0,1,.338.338A.36.36,0,0,1,287.6,302.776Zm-16.453,0h-8.226a.338.338,0,0,1,0-.676h8.226a.338.338,0,0,1,0,.676Z" transform="translate(-261 -302.1)" fill="#b7f7da"/>
    </g>
    <g id="XMLID_00000101094087701456811000000004216507571025975711_" transform="translate(738.227 472.382)">
      <path id="XMLID_00000055674167463017493740000012407139352140012454_" d="M674.507,528.747a1.628,1.628,0,0,1-.789-.225,1.824,1.824,0,0,1-.789-2.141L685.663,494.6H670.788a1.51,1.51,0,0,1-1.465-.9,1.738,1.738,0,0,1,.113-1.8l28.06-42.71a1.61,1.61,0,0,1,2.141-.563,1.688,1.688,0,0,1,.9,2.028L689.72,483.783h15.664a1.8,1.8,0,0,1,1.578.9,1.738,1.738,0,0,1-.113,1.8l-30.765,41.47A1.968,1.968,0,0,1,674.507,528.747Zm-.451-37.639h14.2a1.642,1.642,0,0,1,1.465.789,1.918,1.918,0,0,1,.225,1.578l-8.79,21.862L702,487.164h-14.65a1.607,1.607,0,0,1-1.352-.676,1.583,1.583,0,0,1-.225-1.578l7.55-23.214Z" transform="translate(-669.119 -448.418)" fill="#b7f7da"/>
    </g>
    <g id="XMLID_00000159441003139547046500000002358885775685940890_" transform="translate(914.455 491.632)">
      <path id="XMLID_00000182491905463673559540000017288839503389934516_" d="M825.838,687.39a.3.3,0,0,1-.338-.338v-8.227a.338.338,0,0,1,.676,0v8.227A.36.36,0,0,1,825.838,687.39Zm0-16.34a.3.3,0,0,1-.338-.338v-8.227a.338.338,0,0,1,.676,0v8.227A.508.508,0,0,1,825.838,671.049Zm0-16.453a.3.3,0,0,1-.338-.338v-8.227a.338.338,0,0,1,.676,0v8.227A.36.36,0,0,1,825.838,654.6Zm0-16.34a.3.3,0,0,1-.338-.338v-8.226a.338.338,0,0,1,.676,0v8.226A.36.36,0,0,1,825.838,638.256Zm0-16.34a.3.3,0,0,1-.338-.338v-8.226a.338.338,0,0,1,.676,0v8.226A.508.508,0,0,1,825.838,621.916Zm0-16.453a.3.3,0,0,1-.338-.338V596.9a.338.338,0,0,1,.676,0v8.226A.36.36,0,0,1,825.838,605.463Zm0-16.34a.3.3,0,0,1-.338-.338v-8.226a.338.338,0,0,1,.676,0v8.226A.508.508,0,0,1,825.838,589.123Zm0-16.453a.3.3,0,0,1-.338-.338v-8.226a.338.338,0,0,1,.676,0v8.226A.36.36,0,0,1,825.838,572.67Zm0-16.34a.3.3,0,0,1-.338-.338v-8.226a.338.338,0,0,1,.676,0v8.226A.36.36,0,0,1,825.838,556.329Zm0-16.453a.3.3,0,0,1-.338-.338v-8.114a.338.338,0,0,1,.676,0v8.226C826.176,539.764,825.951,539.876,825.838,539.876Zm0-16.34a.3.3,0,0,1-.338-.338v-8.226a.338.338,0,0,1,.676,0V523.2A.36.36,0,0,1,825.838,523.536Zm0-16.34a.3.3,0,0,1-.338-.338v-8.226a.338.338,0,0,1,.676,0v8.226A.508.508,0,0,1,825.838,507.2Zm0-16.453a.3.3,0,0,1-.338-.338v-8.227a.338.338,0,1,1,.676,0V490.4A.36.36,0,0,1,825.838,490.743Zm0-16.34a.3.3,0,0,1-.338-.338v-8.226a.338.338,0,0,1,.676,0v8.226A.508.508,0,0,1,825.838,474.4Z" transform="translate(-825.5 -465.5)" fill="#fff"/>
    </g>
    <g id="XMLID_00000016037709649810702310000004812913635379815851_" transform="translate(613.333 350.982)">
      <path id="XMLID_00000168101312265280903270000011879291409511316888_" d="M559.992,383.524h0a1.747,1.747,0,0,1-1.69-1.8l2.367-39.442a1.694,1.694,0,0,1,3.381.225l-2.366,39.442A1.637,1.637,0,0,1,559.992,383.524Z" transform="translate(-558.29 -340.69)" fill="#b7f7da"/>
    </g>
    <g id="XMLID_00000122710430629538559140000001824277167221879712_" transform="translate(632.614 350.993)">
      <path id="XMLID_00000129198412737840732410000014297886067445572529_" d="M579.457,383.523a1.637,1.637,0,0,1-1.69-1.578L575.4,342.5a1.694,1.694,0,0,1,3.381-.225l2.367,39.442a1.684,1.684,0,0,1-1.69,1.8Z" transform="translate(-575.4 -340.7)" fill="#b7f7da"/>
    </g>
    <g id="XMLID_00000016758250922785431000000010689442182246490047_" transform="translate(598.017 364.516)">
      <path id="XMLID_00000007400629614225776940000008961683919932688571_" d="M599.355,356.081H546.39a1.69,1.69,0,0,1,0-3.381h52.965a1.69,1.69,0,0,1,0,3.381Z" transform="translate(-544.7 -352.7)" fill="#b7f7da"/>
    </g>
    <g id="XMLID_00000013893593026744531290000008139193814204612799_" transform="translate(596.552 378.152)">
      <path id="XMLID_00000060018088631139020020000012816324921260498095_" d="M600.985,368.181H545.09a1.69,1.69,0,0,1,0-3.381h55.895a1.69,1.69,0,0,1,0,3.381Z" transform="translate(-543.4 -364.8)" fill="#b7f7da"/>
    </g>
    <g id="XMLID_00000048483486232231143640000007906663231219516844_" transform="translate(621.57 390.548)">
      <path id="XMLID_00000028304444706728063160000014842339929143912074_" d="M572.361,388.534H567.29a1.733,1.733,0,0,1-1.69-1.69V377.49a1.733,1.733,0,0,1,1.69-1.69h5.071a1.733,1.733,0,0,1,1.69,1.69v9.353A1.66,1.66,0,0,1,572.361,388.534Zm-3.381-3.493h1.69v-5.973h-1.69Z" transform="translate(-565.6 -375.8)" fill="#b7f7da"/>
    </g>
    <g id="XMLID_00000013911966608338040180000002202068837031394718_" transform="translate(595.313 350.88)">
      <path id="XMLID_00000080186080297383150490000009453967204450251944_" d="M602.365,383.535H543.99a1.743,1.743,0,0,1-1.69-1.916l4.17-39.442a1.713,1.713,0,0,1,1.69-1.578h50.148a1.713,1.713,0,0,1,1.69,1.578l4.17,39.442a1.967,1.967,0,0,1-.451,1.352A2.342,2.342,0,0,1,602.365,383.535Zm-56.571-3.381h54.655l-3.719-36.061H549.625Z" transform="translate(-542.3 -340.6)" fill="#b7f7da"/>
    </g>
    <g id="XMLID_00000124848467225926023840000013930489827200714891_" transform="translate(611.089 399.901)">
      <path id="XMLID_00000044175892621546600070000001217274371057723548_" d="M584.135,393.566H557.99a1.733,1.733,0,0,1-1.69-1.69,7.791,7.791,0,0,1,7.776-7.776h13.974a7.791,7.791,0,0,1,7.776,7.776A1.733,1.733,0,0,1,584.135,393.566Zm-24.116-3.493h22.088a4.452,4.452,0,0,0-4.057-2.7H564.076A4.386,4.386,0,0,0,560.019,390.073Z" transform="translate(-556.3 -384.1)" fill="#b7f7da"/>
    </g>
    <g id="XMLID_00000099660462450458137690000003567869418035869101_" transform="translate(532.994 524.2)">
      <path id="XMLID_00000085222028476023767120000010415401554201813155_" d="M675.871,495.076h-8.226a.338.338,0,1,1,0-.676h8.226a.3.3,0,0,1,.338.338A.36.36,0,0,1,675.871,495.076Zm-16.453,0h-8.226a.338.338,0,1,1,0-.676h8.226a.338.338,0,1,1,0,.676Zm-16.34,0h-8.226a.338.338,0,1,1,0-.676h8.226a.3.3,0,0,1,.338.338A.36.36,0,0,1,643.078,495.076Zm-16.453,0H618.4a.338.338,0,1,1,0-.676h8.226a.338.338,0,1,1,0,.676Zm-16.34,0h-8.226a.338.338,0,1,1,0-.676h8.226a.338.338,0,1,1,0,.676Zm-16.34,0h-8.226a.338.338,0,1,1,0-.676h8.226a.3.3,0,0,1,.338.338A.36.36,0,0,1,593.944,495.076Zm-16.453,0h-8.227a.338.338,0,0,1,0-.676h8.227a.338.338,0,1,1,0,.676Zm-16.34,0h-8.227a.338.338,0,0,1,0-.676h8.227a.3.3,0,0,1,.338.338A.36.36,0,0,1,561.151,495.076Zm-16.453,0h-8.114a.338.338,0,0,1,0-.676h8.227a.3.3,0,0,1,.338.338C545.149,494.963,544.923,495.076,544.7,495.076Zm-16.34,0h-8.227a.338.338,0,0,1,0-.676h8.227a.338.338,0,1,1,0,.676Zm-16.453,0h-8.226a.338.338,0,1,1,0-.676H511.9a.338.338,0,1,1,0,.676Zm-16.34,0h-8.226a.338.338,0,1,1,0-.676h8.226a.338.338,0,1,1,0,.676Z" transform="translate(-487 -494.4)" fill="#fff"/>
    </g>
    <g id="XMLID_00000160869500675023321460000007564700841852994722_" transform="translate(589.002 384.124)">
      <path id="XMLID_00000124884096152384943210000004094706679080476293_" d="M537.038,646.645a.3.3,0,0,1-.338-.338v-8.114a.338.338,0,1,1,.676,0v8.226C537.376,646.532,537.151,646.645,537.038,646.645Zm0-16.34a.3.3,0,0,1-.338-.338V621.74a.338.338,0,1,1,.676,0v8.226A.36.36,0,0,1,537.038,630.3Zm0-16.34a.3.3,0,0,1-.338-.338V605.4a.338.338,0,1,1,.676,0v8.226A.508.508,0,0,1,537.038,613.964Zm0-16.453a.3.3,0,0,1-.338-.338v-8.226a.338.338,0,1,1,.676,0v8.226A.36.36,0,0,1,537.038,597.512Zm0-16.34a.3.3,0,0,1-.338-.338v-8.226a.338.338,0,1,1,.676,0v8.226A.508.508,0,0,1,537.038,581.171Zm0-16.453a.3.3,0,0,1-.338-.338v-8.226a.338.338,0,1,1,.676,0v8.226A.36.36,0,0,1,537.038,564.718Zm0-16.34a.3.3,0,0,1-.338-.338v-8.226a.338.338,0,1,1,.676,0v8.226A.36.36,0,0,1,537.038,548.378Zm0-16.34a.3.3,0,0,1-.338-.338v-8.226a.338.338,0,1,1,.676,0V531.7A.508.508,0,0,1,537.038,532.038Zm0-16.453a.3.3,0,0,1-.338-.338V507.02a.338.338,0,1,1,.676,0v8.226A.36.36,0,0,1,537.038,515.585Zm0-16.34a.3.3,0,0,1-.338-.338V490.68a.338.338,0,1,1,.676,0v8.226A.508.508,0,0,1,537.038,499.245Zm0-16.453a.3.3,0,0,1-.338-.338v-8.227a.338.338,0,1,1,.676,0v8.227A.36.36,0,0,1,537.038,482.792Zm0-16.34a.3.3,0,0,1-.338-.338v-8.226a.338.338,0,1,1,.676,0v8.226A.36.36,0,0,1,537.038,466.451Zm0-16.453a.3.3,0,0,1-.338-.338v-8.226a.338.338,0,1,1,.676,0v8.226A.36.36,0,0,1,537.038,450Zm0-16.34a.3.3,0,0,1-.338-.338v-8.226a.338.338,0,1,1,.676,0v8.226A.36.36,0,0,1,537.038,433.658Zm0-16.34a.3.3,0,0,1-.338-.338v-8.226a.338.338,0,1,1,.676,0v8.226A.508.508,0,0,1,537.038,417.318ZM760.956,407.4h-4.508a.338.338,0,1,1,0-.676h4.17v-3.381a.338.338,0,1,1,.676,0v3.719A.36.36,0,0,1,760.956,407.4Zm-12.621,0h-8.226a.338.338,0,1,1,0-.676h8.226a.3.3,0,0,1,.338.338A.36.36,0,0,1,748.335,407.4Zm-16.453,0h-8.226a.338.338,0,1,1,0-.676h8.226a.338.338,0,1,1,0,.676Zm-16.34,0h-8.226a.338.338,0,1,1,0-.676h8.226a.3.3,0,0,1,.338.338A.36.36,0,0,1,715.542,407.4Zm-16.453,0h-8.226a.338.338,0,1,1,0-.676h8.226a.338.338,0,1,1,0,.676Zm-16.34,0h-8.226a.338.338,0,1,1,0-.676h8.226a.338.338,0,1,1,0,.676Zm-16.34,0h-8.227a.338.338,0,0,1,0-.676h8.227a.3.3,0,0,1,.338.338A.36.36,0,0,1,666.408,407.4Zm-16.453,0h-8.226a.338.338,0,1,1,0-.676h8.226a.338.338,0,1,1,0,.676Zm-16.34,0h-8.227a.338.338,0,0,1,0-.676h8.227a.3.3,0,0,1,.338.338A.36.36,0,0,1,633.615,407.4Zm-16.453,0h-8.227a.338.338,0,0,1,0-.676h8.227a.338.338,0,1,1,0,.676Zm-16.34,0h-8.227a.338.338,0,1,1,0-.676h8.227a.338.338,0,1,1,0,.676Zm-16.453,0h-8.227a.338.338,0,0,1,0-.676h8.227a.338.338,0,1,1,0,.676Zm-16.34,0H559.8a.338.338,0,1,1,0-.676h8.227a.338.338,0,0,1,0,.676Zm-16.34,0h-8.227a.338.338,0,1,1,0-.676h8.227a.3.3,0,0,1,.338.338A.36.36,0,0,1,551.688,407.4Zm209.268-11.945a.3.3,0,0,1-.338-.338v-8.227a.338.338,0,1,1,.676,0v8.226A.36.36,0,0,1,760.956,395.456Zm0-16.453a.3.3,0,0,1-.338-.338v-8.226a.338.338,0,1,1,.676,0v8.226A.3.3,0,0,1,760.956,379Z" transform="translate(-536.7 -370.1)" fill="#b7f7da"/>
    </g>
    <g id="Group_918" data-name="Group 918" transform="translate(333.756 654.697)">
      <rect id="Rectangle_324" data-name="Rectangle 324" width="361.74" height="31.554" transform="translate(139.061 131.736)" fill="#c2ffe6"/>
      <g id="Group_891" data-name="Group 891" transform="translate(279.926 144.583)">
        <path id="Path_2289" data-name="Path 2289" d="M579.223,745.374a4.4,4.4,0,0,1-4.4,4.395H562.995a4.4,4.4,0,0,1-4.4-4.395v-2.479a4.4,4.4,0,0,1,4.4-4.395h11.833a4.4,4.4,0,0,1,4.4,4.395Z" transform="translate(-558.6 -738.5)" fill="#3a525e"/>
        <path id="Path_2290" data-name="Path 2290" d="M568.7,763.459a.889.889,0,0,1-.9.9h0a.889.889,0,0,1-.9-.9V744.3a.889.889,0,0,1,.9-.9h0a.889.889,0,0,1,.9.9Z" transform="translate(-557.547 -737.878)" fill="#3a525e"/>
        <rect id="Rectangle_325" data-name="Rectangle 325" width="7.212" height="3.155" transform="translate(6.761 24.792)" fill="#3a525e"/>
        <path id="Path_2291" data-name="Path 2291" d="M574.828,738.5H562.995a4.4,4.4,0,0,0-4.4,4.395v2.028h20.51v-2.028A4.235,4.235,0,0,0,574.828,738.5Z" transform="translate(-558.6 -738.5)" fill="#0b0d19" opacity="0.5"/>
      </g>
      <path id="Path_2292" data-name="Path 2292" d="M810.052,748.97a4.762,4.762,0,0,1-4.733,4.733H416.533a4.762,4.762,0,0,1-4.733-4.733V624.333a4.762,4.762,0,0,1,4.733-4.733H805.319a4.762,4.762,0,0,1,4.733,4.733Z" transform="translate(-297.305 -609.007)" fill="#e1fff3" stroke="#024846" stroke-miterlimit="10" stroke-width="1"/>
      <path id="Path_2293" data-name="Path 2293" d="M420.7,745.1c0,.9-.225,1.578-.451,1.578h0c-.225,0-.451-.676-.451-1.578V626.778c0-.9.225-1.578.451-1.578h0c.225,0,.451.676.451,1.578Z" transform="translate(-296.29 -608.296)" fill="#a8ddc6"/>
      <path id="Path_2294" data-name="Path 2294" d="M429,745.1c0,.9-.225,1.578-.451,1.578h0c-.225,0-.451-.676-.451-1.578V626.778c0-.9.225-1.578.451-1.578h0c.225,0,.451.676.451,1.578Z" transform="translate(-295.237 -608.296)" fill="#a8ddc6"/>
      <path id="Path_2295" data-name="Path 2295" d="M437.3,745.1c0,.9-.225,1.578-.451,1.578h0c-.225,0-.451-.676-.451-1.578V626.778c0-.9.225-1.578.451-1.578h0c.225,0,.451.676.451,1.578Z" transform="translate(-294.183 -608.296)" fill="#a8ddc6"/>
      <path id="Path_2296" data-name="Path 2296" d="M445.5,745.1c0,.9-.225,1.578-.451,1.578h0c-.225,0-.451-.676-.451-1.578V626.778c0-.9.225-1.578.451-1.578h0c.225,0,.451.676.451,1.578Z" transform="translate(-293.143 -608.296)" fill="#a8ddc6"/>
      <path id="Path_2297" data-name="Path 2297" d="M453.8,745.1c0,.9-.225,1.578-.451,1.578h0c-.225,0-.451-.676-.451-1.578V626.778c0-.9.225-1.578.451-1.578h0c.225,0,.451.676.451,1.578Z" transform="translate(-292.089 -608.296)" fill="#a8ddc6"/>
      <path id="Path_2298" data-name="Path 2298" d="M462.1,745.1c0,.9-.225,1.578-.451,1.578h0c-.225,0-.451-.676-.451-1.578V626.778c0-.9.225-1.578.451-1.578h0c.225,0,.451.676.451,1.578Z" transform="translate(-291.036 -608.296)" fill="#a8ddc6"/>
      <path id="Path_2299" data-name="Path 2299" d="M470.3,745.1c0,.9-.225,1.578-.451,1.578h0c-.225,0-.451-.676-.451-1.578V626.778c0-.9.225-1.578.451-1.578h0c.225,0,.451.676.451,1.578Z" transform="translate(-289.995 -608.296)" fill="#a8ddc6"/>
      <path id="Path_2300" data-name="Path 2300" d="M478.6,745.1c0,.9-.225,1.578-.451,1.578h0c-.225,0-.451-.676-.451-1.578V626.778c0-.9.225-1.578.451-1.578h0c.225,0,.451.676.451,1.578Z" transform="translate(-288.942 -608.296)" fill="#a8ddc6"/>
      <path id="Path_2301" data-name="Path 2301" d="M486.9,745.1c0,.9-.225,1.578-.451,1.578h0c-.225,0-.451-.676-.451-1.578V626.778c0-.9.225-1.578.451-1.578h0c.225,0,.451.676.451,1.578Z" transform="translate(-287.888 -608.296)" fill="#a8ddc6"/>
      <path id="Path_2302" data-name="Path 2302" d="M495.1,745.1c0,.9-.225,1.578-.451,1.578h0c-.225,0-.451-.676-.451-1.578V626.778c0-.9.225-1.578.451-1.578h0c.225,0,.451.676.451,1.578Z" transform="translate(-286.848 -608.296)" fill="#a8ddc6"/>
      <path id="Path_2303" data-name="Path 2303" d="M503.4,745.1c0,.9-.225,1.578-.451,1.578h0c-.225,0-.451-.676-.451-1.578V626.778c0-.9.225-1.578.451-1.578h0c.225,0,.451.676.451,1.578Z" transform="translate(-285.794 -608.296)" fill="#a8ddc6"/>
      <path id="Path_2304" data-name="Path 2304" d="M511.7,745.1c0,.9-.225,1.578-.451,1.578h0c-.225,0-.451-.676-.451-1.578V626.778c0-.9.225-1.578.451-1.578h0c.225,0,.451.676.451,1.578Z" transform="translate(-284.741 -608.296)" fill="#a8ddc6"/>
      <path id="Path_2305" data-name="Path 2305" d="M519.9,745.1c0,.9-.225,1.578-.451,1.578h0c-.225,0-.451-.676-.451-1.578V626.778c0-.9.225-1.578.451-1.578h0c.225,0,.451.676.451,1.578Z" transform="translate(-283.7 -608.296)" fill="#a8ddc6"/>
      <path id="Path_2306" data-name="Path 2306" d="M528.2,745.1c0,.9-.225,1.578-.451,1.578h0c-.225,0-.451-.676-.451-1.578V626.778c0-.9.225-1.578.451-1.578h0c.225,0,.451.676.451,1.578Z" transform="translate(-282.647 -608.296)" fill="#a8ddc6"/>
      <path id="Path_2307" data-name="Path 2307" d="M536.5,745.1c0,.9-.225,1.578-.451,1.578h0c-.225,0-.451-.676-.451-1.578V626.778c0-.9.225-1.578.451-1.578h0c.225,0,.451.676.451,1.578Z" transform="translate(-281.593 -608.296)" fill="#a8ddc6"/>
      <path id="Path_2308" data-name="Path 2308" d="M544.7,745.1c0,.9-.225,1.578-.451,1.578h0c-.225,0-.451-.676-.451-1.578V626.778c0-.9.225-1.578.451-1.578h0c.225,0,.451.676.451,1.578Z" transform="translate(-280.552 -608.296)" fill="#a8ddc6"/>
      <path id="Path_2309" data-name="Path 2309" d="M553,745.1c0,.9-.225,1.578-.451,1.578h0c-.225,0-.451-.676-.451-1.578V626.778c0-.9.225-1.578.451-1.578h0c.225,0,.451.676.451,1.578Z" transform="translate(-279.499 -608.296)" fill="#a8ddc6"/>
      <path id="Path_2310" data-name="Path 2310" d="M561.3,745.1c0,.9-.225,1.578-.451,1.578h0c-.225,0-.451-.676-.451-1.578V626.778c0-.9.225-1.578.451-1.578h0c.225,0,.451.676.451,1.578Z" transform="translate(-278.446 -608.296)" fill="#a8ddc6"/>
      <path id="Path_2311" data-name="Path 2311" d="M569.5,745.1c0,.9-.225,1.578-.451,1.578h0c-.225,0-.451-.676-.451-1.578V626.778c0-.9.225-1.578.451-1.578h0c.225,0,.451.676.451,1.578Z" transform="translate(-277.405 -608.296)" fill="#a8ddc6"/>
      <path id="Path_2312" data-name="Path 2312" d="M577.8,745.1c0,.9-.225,1.578-.451,1.578h0c-.225,0-.451-.676-.451-1.578V626.778c0-.9.225-1.578.451-1.578h0c.225,0,.451.676.451,1.578Z" transform="translate(-276.352 -608.296)" fill="#a8ddc6"/>
      <path id="Path_2313" data-name="Path 2313" d="M586.1,745.1c0,.9-.225,1.578-.451,1.578h0c-.225,0-.451-.676-.451-1.578V626.778c0-.9.225-1.578.451-1.578h0c.225,0,.451.676.451,1.578Z" transform="translate(-275.298 -608.296)" fill="#a8ddc6"/>
      <path id="Path_2314" data-name="Path 2314" d="M594.3,745.1c0,.9-.225,1.578-.451,1.578h0c-.225,0-.451-.676-.451-1.578V626.778c0-.9.225-1.578.451-1.578h0c.225,0,.451.676.451,1.578Z" transform="translate(-274.258 -608.296)" fill="#a8ddc6"/>
      <path id="Path_2315" data-name="Path 2315" d="M602.6,745.1c0,.9-.225,1.578-.451,1.578h0c-.225,0-.451-.676-.451-1.578V626.778c0-.9.225-1.578.451-1.578h0c.225,0,.451.676.451,1.578Z" transform="translate(-273.204 -608.296)" fill="#a8ddc6"/>
      <path id="Path_2316" data-name="Path 2316" d="M610.9,745.1c0,.9-.225,1.578-.451,1.578h0c-.225,0-.451-.676-.451-1.578V626.778c0-.9.225-1.578.451-1.578h0c.225,0,.451.676.451,1.578Z" transform="translate(-272.151 -608.296)" fill="#a8ddc6"/>
      <path id="Path_2317" data-name="Path 2317" d="M619.1,745.1c0,.9-.225,1.578-.451,1.578h0c-.225,0-.451-.676-.451-1.578V626.778c0-.9.225-1.578.451-1.578h0c.225,0,.451.676.451,1.578Z" transform="translate(-271.11 -608.296)" fill="#a8ddc6"/>
      <path id="Path_2318" data-name="Path 2318" d="M627.4,745.1c0,.9-.225,1.578-.451,1.578h0c-.225,0-.451-.676-.451-1.578V626.778c0-.9.225-1.578.451-1.578h0c.225,0,.451.676.451,1.578Z" transform="translate(-270.057 -608.296)" fill="#a8ddc6"/>
      <path id="Path_2319" data-name="Path 2319" d="M635.7,745.1c0,.9-.225,1.578-.451,1.578h0c-.225,0-.451-.676-.451-1.578V626.778c0-.9.225-1.578.451-1.578h0c.225,0,.451.676.451,1.578Z" transform="translate(-269.003 -608.296)" fill="#a8ddc6"/>
      <path id="Path_2320" data-name="Path 2320" d="M643.9,745.1c0,.9-.225,1.578-.451,1.578h0c-.225,0-.451-.676-.451-1.578V626.778c0-.9.225-1.578.451-1.578h0c.225,0,.451.676.451,1.578Z" transform="translate(-267.962 -608.296)" fill="#a8ddc6"/>
      <path id="Path_2321" data-name="Path 2321" d="M652.2,745.1c0,.9-.225,1.578-.451,1.578h0c-.225,0-.451-.676-.451-1.578V626.778c0-.9.225-1.578.451-1.578h0c.225,0,.451.676.451,1.578Z" transform="translate(-266.909 -608.296)" fill="#a8ddc6"/>
      <path id="Path_2322" data-name="Path 2322" d="M660.5,745.1c0,.9-.225,1.578-.451,1.578h0c-.225,0-.451-.676-.451-1.578V626.778c0-.9.225-1.578.451-1.578h0c.225,0,.451.676.451,1.578Z" transform="translate(-265.856 -608.296)" fill="#a8ddc6"/>
      <path id="Path_2323" data-name="Path 2323" d="M668.7,745.1c0,.9-.225,1.578-.451,1.578h0c-.225,0-.451-.676-.451-1.578V626.778c0-.9.225-1.578.451-1.578h0c.225,0,.451.676.451,1.578Z" transform="translate(-264.815 -608.296)" fill="#a8ddc6"/>
      <path id="Path_2324" data-name="Path 2324" d="M677,745.1c0,.9-.225,1.578-.451,1.578h0c-.225,0-.451-.676-.451-1.578V626.778c0-.9.225-1.578.451-1.578h0c.225,0,.451.676.451,1.578Z" transform="translate(-263.762 -608.296)" fill="#a8ddc6"/>
      <path id="Path_2325" data-name="Path 2325" d="M685.3,745.1c0,.9-.225,1.578-.451,1.578h0c-.225,0-.451-.676-.451-1.578V626.778c0-.9.225-1.578.451-1.578h0c.225,0,.451.676.451,1.578Z" transform="translate(-262.708 -608.296)" fill="#a8ddc6"/>
      <path id="Path_2326" data-name="Path 2326" d="M693.6,745.1c0,.9-.225,1.578-.451,1.578h0c-.225,0-.451-.676-.451-1.578V626.778c0-.9.225-1.578.451-1.578h0c.225,0,.451.676.451,1.578Z" transform="translate(-261.655 -608.296)" fill="#a8ddc6"/>
      <path id="Path_2327" data-name="Path 2327" d="M701.8,745.1c0,.9-.225,1.578-.451,1.578h0c-.225,0-.451-.676-.451-1.578V626.778c0-.9.225-1.578.451-1.578h0c.225,0,.451.676.451,1.578Z" transform="translate(-260.614 -608.296)" fill="#a8ddc6"/>
      <path id="Path_2328" data-name="Path 2328" d="M710.1,745.1c0,.9-.225,1.578-.451,1.578h0c-.225,0-.451-.676-.451-1.578V626.778c0-.9.225-1.578.451-1.578h0c.225,0,.451.676.451,1.578Z" transform="translate(-259.561 -608.296)" fill="#a8ddc6"/>
      <path id="Path_2329" data-name="Path 2329" d="M718.4,745.1c0,.9-.225,1.578-.451,1.578h0c-.225,0-.451-.676-.451-1.578V626.778c0-.9.225-1.578.451-1.578h0c.225,0,.451.676.451,1.578Z" transform="translate(-258.507 -608.296)" fill="#a8ddc6"/>
      <path id="Path_2330" data-name="Path 2330" d="M726.6,745.1c0,.9-.225,1.578-.451,1.578h0c-.225,0-.451-.676-.451-1.578V626.778c0-.9.225-1.578.451-1.578h0c.225,0,.451.676.451,1.578Z" transform="translate(-257.467 -608.296)" fill="#a8ddc6"/>
      <path id="Path_2331" data-name="Path 2331" d="M734.9,745.1c0,.9-.225,1.578-.451,1.578h0c-.225,0-.451-.676-.451-1.578V626.778c0-.9.225-1.578.451-1.578h0c.225,0,.451.676.451,1.578Z" transform="translate(-256.413 -608.296)" fill="#a8ddc6"/>
      <path id="Path_2332" data-name="Path 2332" d="M743.2,745.1c0,.9-.225,1.578-.451,1.578h0c-.225,0-.451-.676-.451-1.578V626.778c0-.9.225-1.578.451-1.578h0c.225,0,.451.676.451,1.578Z" transform="translate(-255.36 -608.296)" fill="#a8ddc6"/>
      <path id="Path_2333" data-name="Path 2333" d="M751.4,745.1c0,.9-.225,1.578-.451,1.578h0c-.225,0-.451-.676-.451-1.578V626.778c0-.9.225-1.578.451-1.578h0c.225,0,.451.676.451,1.578Z" transform="translate(-254.319 -608.296)" fill="#a8ddc6"/>
      <rect id="Rectangle_326" data-name="Rectangle 326" width="73.7" height="40.231" transform="translate(21.524 131.736)" fill="#01ce80"/>
      <path id="Path_2334" data-name="Path 2334" d="M325.2,668.781S340.526,643.2,410.733,643.2v25.581Z" transform="translate(-308.296 -606.012)" fill="#f7fbfa" stroke="#024846" stroke-miterlimit="10" stroke-width="1"/>
      <path id="Path_2335" data-name="Path 2335" d="M325.2,666.484h85.533V661.3H330.046A27.134,27.134,0,0,0,325.2,666.484Z" transform="translate(-308.296 -603.715)" fill="#01ce80" opacity="0.4"/>
      <g id="Group_892" data-name="Group 892" transform="translate(2.479 61.642)">
        <path id="Path_2336" data-name="Path 2336" d="M325.472,664.9c-2.028,2.028-10.368,26.032-12.509,82.152h5.071a2.14,2.14,0,0,1,2.141,2.141v2.254a2.14,2.14,0,0,1-2.141,2.141h-5.3q-.338,10.649-.338,22.651h27.722c-.113-1.24-.225-2.479-.225-3.719a34,34,0,0,1,34.033-34.033h38.315V665.013H325.472Z" transform="translate(-312.4 -664.9)" fill="#f7fbfa" stroke="#024846" stroke-miterlimit="10" stroke-width="1"/>
        <path id="Path_2337" data-name="Path 2337" d="M343.841,664.9H325.472c-2.028,2.028-10.368,26.032-12.509,82.152h5.071a2.14,2.14,0,0,1,2.141,2.141v2.254a2.14,2.14,0,0,1-2.141,2.141h-5.3q-.338,10.649-.338,22.651h16.228c1.127-14.537,3.493-44.062,5.184-74.264A90.6,90.6,0,0,1,343.841,664.9Z" transform="translate(-312.4 -664.9)" fill="#c2ffe6"/>
        <path id="Path_2338" data-name="Path 2338" d="M396.094,680.5H319.013c0,.225-.113.338-.113.563h49.472v55.67c.225,0,.338-.113.563-.113V681.063h27.159a1.78,1.78,0,0,1,1.8,1.8v53.529h.563V682.866A2.311,2.311,0,0,0,396.094,680.5Z" transform="translate(-311.575 -662.92)" fill="#023735" opacity="0.4"/>
      </g>
      <g id="Group_893" data-name="Group 893" transform="translate(5.86 144.696)">
        <path id="Path_2339" data-name="Path 2339" d="M346.728,742.757h-29.3a2.02,2.02,0,0,1-2.028-2.028h0a2.02,2.02,0,0,1,2.028-2.028H349.32Z" transform="translate(-315.4 -738.587)" fill="#373945"/>
        <path id="Path_2340" data-name="Path 2340" d="M317.428,740.178h30.877l1.014-1.578H317.428a2.02,2.02,0,0,0-2.028,2.028c0,.225.113.563.113.789A2.288,2.288,0,0,1,317.428,740.178Z" transform="translate(-315.4 -738.6)" fill="#8a979d" opacity="0.6"/>
      </g>
      <g id="Group_897" data-name="Group 897" transform="translate(4.17 80.913)">
        <g id="Group_894" data-name="Group 894" transform="translate(0.113)">
          <path id="Path_2341" data-name="Path 2341" d="M368.5,684.692a2.55,2.55,0,0,1,2.592-2.592h12.847a2.55,2.55,0,0,1,2.592,2.592v21.073c0,.451,0,1.578-17.467,4.395l-.563.113V684.692Z" transform="translate(-307.083 -681.987)" fill="#373945"/>
          <path id="Path_2342" data-name="Path 2342" d="M385.916,705.714c0,1.127-17.016,3.832-17.016,3.832v-24.9a2.14,2.14,0,0,1,2.141-2.141h12.847a2.14,2.14,0,0,1,2.141,2.141v21.073Z" transform="translate(-307.032 -681.936)" fill="#6d8492"/>
          <path id="Path_2343" data-name="Path 2343" d="M314,722.682c3.831-14.875,5.635-28.286,5.184-40.118L319.3,682h42.372a2.55,2.55,0,0,1,2.592,2.592v27.384c0,.676,0,1.465-50.148,11.156H314Z" transform="translate(-314 -682)" fill="#373945"/>
          <path id="Path_2344" data-name="Path 2344" d="M363.81,684.641a2.14,2.14,0,0,0-2.141-2.141H319.184A343.978,343.978,0,0,0,314,722.618c13.3-2.592,49.7-9.691,49.7-10.706V684.641Z" transform="translate(-314 -681.936)" fill="#6d8492"/>
        </g>
        <g id="Group_895" data-name="Group 895" transform="translate(0.563 0.563)">
          <path id="Path_2345" data-name="Path 2345" d="M327.682,682.5l-10.03,7.212c-.451,2.7-.9,5.522-1.352,8.677l22.2-15.89H327.682Z" transform="translate(-314.159 -682.5)" fill="#88a6b5"/>
          <path id="Path_2346" data-name="Path 2346" d="M361.618,682.5h-6.2l-40.456,28.849c-.225,1.8-.338,3.606-.563,5.522l48.007-34.258C362.181,682.613,361.956,682.5,361.618,682.5Z" transform="translate(-314.4 -682.5)" fill="#88a6b5"/>
          <path id="Path_2347" data-name="Path 2347" d="M383.1,682.5h-3.606L368.9,690.05v2.592Z" transform="translate(-307.483 -682.5)" fill="#88a6b5"/>
          <path id="Path_2348" data-name="Path 2348" d="M361.271,696.9,334,716.4l5.071-1.014,22.2-15.889Z" transform="translate(-311.912 -680.672)" fill="#88a6b5"/>
          <path id="Path_2349" data-name="Path 2349" d="M368.9,698.558v5.184l17.016-12.171V686.5Z" transform="translate(-307.483 -681.992)" fill="#88a6b5"/>
          <path id="Path_2350" data-name="Path 2350" d="M359.253,709.17V705l-9.353,6.762C355.422,710.409,359.253,709.395,359.253,709.17Z" transform="translate(-309.894 -679.644)" fill="#88a6b5"/>
        </g>
        <g id="Group_896" data-name="Group 896" transform="translate(0 0.563)">
          <path id="Path_2351" data-name="Path 2351" d="M383.888,682.5h-1.127a2.691,2.691,0,0,1,.225,1.014v21.073c0,.9-9.128,2.479-14.086,3.381v1.578s17.016-2.7,17.016-3.831V684.641A2.119,2.119,0,0,0,383.888,682.5Z" transform="translate(-306.92 -682.5)" fill="#373945"/>
          <path id="Path_2352" data-name="Path 2352" d="M361.681,682.5h-.9v26.708c0,.563-13.861,3.493-27.722,6.311l9.691-33.019h-9.128l-10.48,35.047c-3.268.676-6.311,1.24-8.9,1.8l-.338,3.381c13.3-2.592,49.7-9.691,49.7-10.706V684.641A1.894,1.894,0,0,0,361.681,682.5Z" transform="translate(-313.9 -682.5)" fill="#373945"/>
        </g>
      </g>
      <g id="Group_899" data-name="Group 899" transform="translate(101.535 0)">
        <g id="Group_898" data-name="Group 898" transform="translate(5.522)">
          <path id="Path_2353" data-name="Path 2353" d="M406.778,701.818a1.541,1.541,0,0,1-1.578-1.578V615.947a5.771,5.771,0,0,1,5.747-5.747H424.02a1.578,1.578,0,0,1,0,3.155H410.947a2.55,2.55,0,0,0-2.592,2.592v84.293A1.541,1.541,0,0,1,406.778,701.818Z" transform="translate(-405.2 -610.2)" fill="#8a979d"/>
        </g>
        <path id="Path_2354" data-name="Path 2354" d="M414.612,741.919a4.234,4.234,0,0,1-4.17,4.17H404.47a4.234,4.234,0,0,1-4.17-4.17V675.77a4.234,4.234,0,0,1,4.17-4.17h5.86a4.16,4.16,0,0,1,4.17,4.17v66.15Z" transform="translate(-400.3 -602.407)" fill="#3e4750"/>
        <path id="Path_2355" data-name="Path 2355" d="M405.822,734.031V671.6H404.47a4.234,4.234,0,0,0-4.17,4.17v66.15a4.234,4.234,0,0,0,4.17,4.17h5.86a4.16,4.16,0,0,0,4.17-4.17v-3.606h-4.508A4.334,4.334,0,0,1,405.822,734.031Z" transform="translate(-400.3 -602.407)" fill="#0b0d19" opacity="0.5"/>
      </g>
      <g id="Group_900" data-name="Group 900" transform="translate(100.408 147.626)">
        <path id="Path_2356" data-name="Path 2356" d="M554.589,754.047a4.4,4.4,0,0,1-4.4,4.4h-146.5a4.4,4.4,0,0,1-4.395-4.4v-8.452a4.4,4.4,0,0,1,4.395-4.4h146.5a4.4,4.4,0,0,1,4.4,4.4Z" transform="translate(-399.3 -741.2)" fill="#3a525e"/>
        <path id="Path_2357" data-name="Path 2357" d="M550.294,741.3h-146.5a4.4,4.4,0,0,0-4.395,4.4v3.719H554.576v-3.719A4.306,4.306,0,0,0,550.294,741.3Z" transform="translate(-399.287 -741.187)" fill="#788b99"/>
      </g>
      <g id="Group_901" data-name="Group 901" transform="translate(93.309 134.328)">
        <path id="Path_2358" data-name="Path 2358" d="M813.565,738.415a4.4,4.4,0,0,1-4.4,4.4H397.395a4.4,4.4,0,0,1-4.395-4.4v-4.62a4.4,4.4,0,0,1,4.395-4.4H809.283a4.4,4.4,0,0,1,4.4,4.4v4.62Z" transform="translate(-393 -729.4)" fill="#c2ffe6"/>
        <path id="Path_2359" data-name="Path 2359" d="M400.663,731.766V729.4h-3.268a4.4,4.4,0,0,0-4.395,4.4v4.62a4.4,4.4,0,0,0,4.395,4.4H809.283a4.4,4.4,0,0,0,4.4-4.4v-2.366H404.945A4.28,4.28,0,0,1,400.663,731.766Z" transform="translate(-393 -729.4)" fill="#023735"/>
      </g>
      <g id="Group_902" data-name="Group 902" transform="translate(386.87 134.328)">
        <path id="Path_2360" data-name="Path 2360" d="M754.359,755.544a4.4,4.4,0,0,1-4.4,4.4H657.895a4.4,4.4,0,0,1-4.395-4.4V733.795a4.4,4.4,0,0,1,4.395-4.4h92.069a4.4,4.4,0,0,1,4.4,4.4Z" transform="translate(-653.5 -729.4)" fill="#3a525e"/>
        <path id="Path_2361" data-name="Path 2361" d="M749.964,729.4H657.895a4.4,4.4,0,0,0-4.395,4.4v2.367h87a4.4,4.4,0,0,1,4.4,4.395v19.5h4.958a4.4,4.4,0,0,0,4.4-4.4V733.908A4.2,4.2,0,0,0,749.964,729.4Z" transform="translate(-653.5 -729.4)" fill="#788b99"/>
      </g>
      <path id="Path_2362" data-name="Path 2362" d="M498.689,734.2A30.083,30.083,0,0,0,468.6,764.289c0,.676.113,1.352.113,2.141h60.065c0-.676.113-1.352.113-2.141A30.252,30.252,0,0,0,498.689,734.2Z" transform="translate(-290.097 -594.462)" fill="#023735"/>
      <g id="Group_904" data-name="Group 904" transform="translate(184.589 143.794)">
        <path id="Path_2363" data-name="Path 2363" d="M522.007,761.8a24,24,0,1,1-24-24A24.023,24.023,0,0,1,522.007,761.8Z" transform="translate(-474 -737.8)" fill="#3e4750"/>
        <circle id="Ellipse_55" data-name="Ellipse 55" cx="15.664" cy="15.664" r="15.664" transform="translate(8.123 8.546) rotate(-0.774)" fill="#a9b6bc"/>
        <g id="Group_903" data-name="Group 903" transform="translate(13.185 13.185)">
          <path id="Path_2364" data-name="Path 2364" d="M496.518,771.137a10.818,10.818,0,1,1,10.818-10.818A10.821,10.821,0,0,1,496.518,771.137Zm0-20.735a9.8,9.8,0,1,0,9.8,9.8A9.811,9.811,0,0,0,496.518,750.4Z" transform="translate(-485.7 -749.5)" fill="#c0cfd4"/>
        </g>
      </g>
      <path id="Path_2365" data-name="Path 2365" d="M622.489,734.2A30.083,30.083,0,0,0,592.4,764.289c0,.676.113,1.352.113,2.141h60.065c0-.676.113-1.352.113-2.141A30.252,30.252,0,0,0,622.489,734.2Z" transform="translate(-274.384 -594.462)" fill="#023735"/>
      <g id="Group_906" data-name="Group 906" transform="translate(324.101 143.794)">
        <path id="Path_2366" data-name="Path 2366" d="M645.807,761.8a24,24,0,1,1-24-24A24.023,24.023,0,0,1,645.807,761.8Z" transform="translate(-597.8 -737.8)" fill="#3e4750"/>
        <path id="Path_2367" data-name="Path 2367" d="M636.528,760.864A15.664,15.664,0,1,1,620.864,745.2,15.631,15.631,0,0,1,636.528,760.864Z" transform="translate(-596.861 -736.861)" fill="#a9b6bc"/>
        <g id="Group_905" data-name="Group 905" transform="translate(13.185 13.185)">
          <path id="Path_2368" data-name="Path 2368" d="M620.318,771.137a10.818,10.818,0,1,1,10.818-10.818A10.821,10.821,0,0,1,620.318,771.137Zm0-20.735a9.8,9.8,0,1,0,9.8,9.8A9.811,9.811,0,0,0,620.318,750.4Z" transform="translate(-609.5 -749.5)" fill="#c0cfd4"/>
        </g>
      </g>
      <path id="Path_2369" data-name="Path 2369" d="M680.889,734.2A30.083,30.083,0,0,0,650.8,764.289c0,.676.113,1.352.113,2.141h60.065c0-.676.113-1.352.113-2.141A30.252,30.252,0,0,0,680.889,734.2Z" transform="translate(-266.973 -594.462)" fill="#023735"/>
      <g id="Group_908" data-name="Group 908" transform="translate(389.913 143.794)">
        <path id="Path_2370" data-name="Path 2370" d="M704.207,761.8a24,24,0,1,1-24-24A24.023,24.023,0,0,1,704.207,761.8Z" transform="translate(-656.2 -737.8)" fill="#3e4750"/>
        <path id="Path_2371" data-name="Path 2371" d="M694.928,760.864A15.664,15.664,0,1,1,679.264,745.2,15.631,15.631,0,0,1,694.928,760.864Z" transform="translate(-655.261 -736.861)" fill="#a9b6bc"/>
        <g id="Group_907" data-name="Group 907" transform="translate(13.185 13.185)">
          <path id="Path_2372" data-name="Path 2372" d="M678.718,771.137a10.818,10.818,0,1,1,10.818-10.818A10.821,10.821,0,0,1,678.718,771.137Zm0-20.735a9.8,9.8,0,1,0,9.8,9.8A9.811,9.811,0,0,0,678.718,750.4Z" transform="translate(-667.9 -749.5)" fill="#c0cfd4"/>
        </g>
      </g>
      <path id="Path_2373" data-name="Path 2373" d="M739.589,734.2A30.083,30.083,0,0,0,709.5,764.289a14.373,14.373,0,0,0,.113,2.141h60.065c0-.676.113-1.352.113-2.141A30.325,30.325,0,0,0,739.589,734.2Z" transform="translate(-259.523 -594.462)" fill="#023735"/>
      <g id="Group_910" data-name="Group 910" transform="translate(455.95 143.794)">
        <path id="Path_2374" data-name="Path 2374" d="M762.807,761.8a24,24,0,1,1-24-24A24.023,24.023,0,0,1,762.807,761.8Z" transform="translate(-714.8 -737.8)" fill="#3e4750"/>
        <path id="Path_2375" data-name="Path 2375" d="M753.528,760.864A15.664,15.664,0,1,1,737.864,745.2,15.631,15.631,0,0,1,753.528,760.864Z" transform="translate(-713.861 -736.861)" fill="#a9b6bc"/>
        <g id="Group_909" data-name="Group 909" transform="translate(13.298 13.185)">
          <path id="Path_2376" data-name="Path 2376" d="M737.418,771.137a10.818,10.818,0,1,1,10.818-10.818A10.821,10.821,0,0,1,737.418,771.137Zm0-20.735a9.8,9.8,0,1,0,9.8,9.8A9.811,9.811,0,0,0,737.418,750.4Z" transform="translate(-726.6 -749.5)" fill="#c0cfd4"/>
        </g>
      </g>
      <path id="Path_2377" data-name="Path 2377" d="M369.689,734.2A30.083,30.083,0,0,0,339.6,764.289c0,.676.113,1.352.113,2.141h60.065c0-.676.113-1.352.113-2.141A30.252,30.252,0,0,0,369.689,734.2Z" transform="translate(-306.469 -594.462)" fill="#023735"/>
      <g id="Group_912" data-name="Group 912" transform="translate(27.835 132.976)">
        <g id="Group_911" data-name="Group 911">
          <path id="Path_2378" data-name="Path 2378" d="M337.041,766.515a2.14,2.14,0,0,1-2.141-2.141A36.215,36.215,0,0,1,371.074,728.2h38.315a2.141,2.141,0,0,1,0,4.282H371.074a31.983,31.983,0,0,0-32,32A1.952,1.952,0,0,1,337.041,766.515Z" transform="translate(-334.9 -728.2)" fill="#3e4750"/>
        </g>
        <path id="Path_2379" data-name="Path 2379" d="M336.8,764.246a12.25,12.25,0,0,0,.113,2.028,2.02,2.02,0,0,0,2.028-2.028,31.983,31.983,0,0,1,32-32h38.315A2.14,2.14,0,0,0,411.4,730.1H370.833A34.027,34.027,0,0,0,336.8,764.246Z" transform="translate(-334.659 -727.959)" fill="#0b0d19" opacity="0.5"/>
      </g>
      <g id="Group_914" data-name="Group 914" transform="translate(39.217 143.794)">
        <path id="Path_2380" data-name="Path 2380" d="M393.007,761.8a24,24,0,1,1-24-24A24.023,24.023,0,0,1,393.007,761.8Z" transform="translate(-345 -737.8)" fill="#3e4750"/>
        <circle id="Ellipse_56" data-name="Ellipse 56" cx="15.664" cy="15.664" r="15.664" transform="translate(8.217 8.51) rotate(-0.502)" fill="#a9b6bc"/>
        <g id="Group_913" data-name="Group 913" transform="translate(13.185 13.185)">
          <path id="Path_2381" data-name="Path 2381" d="M367.518,771.137a10.818,10.818,0,1,1,10.818-10.818A10.821,10.821,0,0,1,367.518,771.137Zm0-20.735a9.8,9.8,0,1,0,9.8,9.8A9.811,9.811,0,0,0,367.518,750.4Z" transform="translate(-356.7 -749.5)" fill="#c0cfd4"/>
        </g>
      </g>
      <g id="Group_915" data-name="Group 915" transform="translate(91.28 142.329)">
        <path id="Path_2382" data-name="Path 2382" d="M452.266,758.688a4.641,4.641,0,0,1-4.62,4.62H395.92a4.641,4.641,0,0,1-4.62-4.62V741.22a4.641,4.641,0,0,1,4.62-4.62h51.725a4.641,4.641,0,0,1,4.62,4.62Z" transform="translate(-391.187 -736.487)" fill="#cbd0d4"/>
        <path id="Path_2383" data-name="Path 2383" d="M447.546,736.5H395.82a4.641,4.641,0,0,0-4.62,4.62V743.6h46.316a4.641,4.641,0,0,1,4.62,4.62v14.988h5.409a4.641,4.641,0,0,0,4.62-4.62V741.12A4.569,4.569,0,0,0,447.546,736.5Z" transform="translate(-391.2 -736.5)" fill="#e3e7ea"/>
      </g>
      <g id="Group_916" data-name="Group 916" transform="translate(1.352 170.052)">
        <path id="Path_2384" data-name="Path 2384" d="M311.4,763.241a2.14,2.14,0,0,1,2.141-2.141h25.018a2.14,2.14,0,0,1,2.141,2.141v.113a2.14,2.14,0,0,1-2.141,2.141H313.541a2.237,2.237,0,0,1-2.141-2.254Z" transform="translate(-311.4 -761.1)" fill="#cbd0d4"/>
        <path id="Path_2385" data-name="Path 2385" d="M313.416,765.052h25.018a1.965,1.965,0,0,0,1.916-1.352H311.5A2.072,2.072,0,0,0,313.416,765.052Z" transform="translate(-311.387 -760.77)" fill="#e3e7ea"/>
      </g>
      <g id="Group_917" data-name="Group 917" transform="translate(0 142.329)">
        <path id="Path_2386" data-name="Path 2386" d="M322.821,743.149a2.14,2.14,0,0,1-2.141,2.141h-8.339a2.14,2.14,0,0,1-2.141-2.141v-4.508a2.14,2.14,0,0,1,2.141-2.141h8.339a2.14,2.14,0,0,1,2.141,2.141Z" transform="translate(-310.2 -736.5)" fill="#75e0b1"/>
      </g>
    </g>
  </g>
</svg>
