<svg xmlns="http://www.w3.org/2000/svg" width="628.775" height="656.38" viewBox="0 0 628.775 656.38">
  <g id="Go_Green_And_Reduce_Your_Carbon_Footprint" data-name="Go Green And Reduce Your Carbon Footprint" transform="translate(-257.235 -231.25)">
    <g id="Group_828" data-name="Group 828" transform="translate(257.235 231.251)">
      <g id="path3924_00000107572164545927814190000013815142139190363283_" transform="translate(0 17.123)">
        <g id="Group_823" data-name="Group 823">
          <g id="Group_822" data-name="Group 822">
            <circle id="Ellipse_53" data-name="Ellipse 53" cx="222.303" cy="222.303" r="222.303" transform="translate(0 314.381) rotate(-45)" fill="#f2f2f2"/>
          </g>
        </g>
      </g>
      <g id="path3924_00000153677590061095328180000009834327294938828948_" transform="translate(0.012)">
        <g id="Group_824" data-name="Group 824">
          <circle id="Ellipse_54" data-name="Ellipse 54" cx="222.303" cy="222.303" r="222.303" transform="translate(0 314.381) rotate(-45)" fill="#e1fff3"/>
        </g>
      </g>
      <g id="path3089_00000026164911842877017630000000001545647624068779_" transform="translate(91.292 91.612)">
        <g id="Group_827" data-name="Group 827">
          <g id="Group_826" data-name="Group 826">
            <g id="Group_825" data-name="Group 825">
              <path id="Path_2247" data-name="Path 2247" d="M561.054,312.6a227.244,227.244,0,0,0-26.465,1.577l2.478.338s5.18,2.252,6.081,3.153.676,3.491.338,4.955-1.126,1.689-2.252,3.491c-1.126,1.689,2.252.788,2.252.788l4.054,2.027a17.612,17.612,0,0,0-2.928.338c-1.689.338-4.054.788-4.054.788l-.225,3.153,5.743-1.126-.563,2.027-4.054.9-4.054,4.842-.225,9.234.9,7.77,2.252,6.306,3.716.563,4.279,2.59,5.743-.225,5.743-7.771,6.081-5.743,1.689-3.153,2.928-1.689,6.306-1.464,8-1.689s7.433-4.842,8.334-5.518c.9-.563,21.622-6.87,21.622-6.87l4.617.225s1.239-5.743.338-6.306,3.378-4.054,3.378-4.054a5.488,5.488,0,0,1,.788-.338,218.543,218.543,0,0,0-62.839-9.122ZM494.5,322.735A227.679,227.679,0,0,0,463.3,335.123l-.338.788-3.153,1.689-3.829,2.928-3.266,1.239-.225-.9A226.716,226.716,0,0,0,421.3,362.038c4.955-2.478,13.4-6.87,13.4-6.87l2.027-2.14,3.266-.338,7.207-3.266,5.518-3.716.563.225-4.167,3.829-1.126,1.464-3.266,1.577,3.041.45-.45,1.689,3.266-.563,3.266-2.7,2.59.9,1.126,1.239,3.6-.113-.113-2.7-5.631-4.054-1.351-1.239-.563-1.464,2.478.225,2.027,1.689,2.14-2.14,4.392-.563,4.279-3.041L468.6,338.5l3.266-3.153-2.14-2.252,5.743-.113,4.955.113s2.478-1.126,2.928-.45a42.632,42.632,0,0,0,4.167,3.491l-1.464,1.239-5.856.788-1.464,2.815,4.392.563,3.266-3.491,3.6-.225.563,3.378s-4.054,2.365-4.617,2.478a32.7,32.7,0,0,0-3.041,1.239l-.225,2.59-3.829.45-4.054-.676-1.914.113-3.041,2.478,2.478,2.14a39.724,39.724,0,0,0,4.167-1.914c.563-.45,2.478-1.239,2.928-.563a28.291,28.291,0,0,0,2.815,2.7l2.027,3.942,1.914.563,5.743,1.914s4.054,1.014,4.054,1.351-.45-2.478-.45-2.478l-3.041-3.6s-.113-1.014.788-.676a19.069,19.069,0,0,1,3.491,2.478,36.3,36.3,0,0,1,3.266,1.914l1.126-3.153,2.59-1.577L502.719,351l-1.464-1.577-1.577-1.914.113-2.14s.45-.338.788-.563c.45-.338,1.8-1.239,2.027-.676s3.153,4.279,3.153,4.279l2.7.563,1.239-2.14s3.6-.45,3.6-.225c0,.113.225-1.689.225-1.689l3.266-.788-4.73-4.167-2.59-1.239-2.027.563-1.914-2.14,2.027-1.914.9-2.59-2.252-2.252-3.6-.676-.9-1.914s-3.041-.45-3.491-.113-2.59-2.59-2.59-2.59l-1.126-2.365Zm118.247,21.4-5.18,2.928s2.59,1.126,3.491,1.689,2.59-.563,2.59-.563v2.59s4.617,2.59,4.054,3.378c-.563.9,7.545-.788,7.545-.788l8-2.59,1.689-3.153-3.153-2.59-14.64,1.689Zm77.592,9.8-2.7.9-3.829,3.6a20.62,20.62,0,0,0-1.126,2.252c-.225.45.225,5.518.225,5.518s2.365,0,1.689.676-.563,3.716-.563,3.716l2.7,1.8s3.6,1.126,4.054,1.126a17.928,17.928,0,0,0,2.478-1.464c.225-.225,2.365-2.252,3.041-2.14s2.365-1.8,2.59-1.126a33.711,33.711,0,0,0,.9,3.6c.338.563,1.8,1.577,2.365,2.928s1.351,2.7,1.126,3.041a20.463,20.463,0,0,1-1.577,1.577,16.71,16.71,0,0,0-3.266.788c-.338.338-.9.563-1.126.338-.338-.225,1.014-1.577,1.239-1.914.338-.338-.676-1.914-1.126-1.8-.338.113-.788-.788-.338-1.126.338-.338.225-2.14.225-2.14s-.563-.338-.788-.225c-.338.113-3.6,1.464-3.6,1.464a21.773,21.773,0,0,0-1.914,2.252c-.113.45-.9,2.365-.451,3.829a30.272,30.272,0,0,0,1.689,3.829s1.239.788.788,1.239a12.769,12.769,0,0,0-1.464,1.8l-2.252.113s-4.167.563-4.5.676c-.338.225-4.392,1.464-4.167,1.8s-.9,4.5-.9,4.5c-.225.113-4.167,3.041-4.617,3.041s-3.491.788-3.491.788-1.351,3.6-1.464,3.378-4.5,2.14-4.5,2.14-3.378-1.014-3.491-1.351-1.239-1.239-1.351-.9,1.126,3.266,1.126,3.829.225,1.689-.225,1.351a13.775,13.775,0,0,0-2.7-1.126,20.13,20.13,0,0,0-3.6-.113h-1.351s-1.577,1.464-1.689,1.126a7.355,7.355,0,0,0-.225,1.239l1.014,1.014,3.491,1.464,3.266,2.027,1.239,3.041,1.464,2.928s-.9,5.969-1.126,6.194a19.371,19.371,0,0,1-2.252,1.689l-6.194-.113s-3.041-.676-3.378-.788-4.617.563-4.73.225-1.464-.225-1.464-.225l-.676-.788h-1.689l-1.464,1.689-2.14.113v1.689s.9,3.942.788,3.6-.451,4.617-.451,4.617-2.027,4.167-2.252,4.5c0,.113-.113,2.815-.113,2.815l1.239,2.027.225,2.365s-.9,2.252-.563,2.027,3.378.113,3.491-.225,1.914-1.239,2.252-.563,1.351,0,1.689,1.126a12.7,12.7,0,0,0,1.464,3.041c.113.338.788.563.788.563l.225.788-.563.45-2.365,5.406-5.293,3.716-3.153,2.027-.9,2.365-1.351,1.577-.451,3.041s.338,3.716.225,3.942c-.225.225-7.095,6.87-7.095,6.87l-3.829.788-2.14,3.6a42.228,42.228,0,0,0-3.041,3.153c-.225.45-1.689,2.252-1.689,2.252a31.081,31.081,0,0,1,0,3.266c-.113-.563-4.167,3.153-4.167,3.153s-.788,4.392-.9,4.617c-.225.225-2.14,3.6-2.365,3.491-.338-.113-.563,2.365-.563,2.7s1.014,1.464,1.014,1.464,1.351,2.59,1.464,2.365c0,.113.113.788.113.788l-1.351,1.351a16,16,0,0,1,1.464,2.478v5.969l-1.577,3.266L607,534l-2.252,1.8.113,1.126,2.027,1.689.338,1.8-.563,2.027v2.027l1.464,3.378s1.464,1.126,1.689.9c.338-.338,3.153,1.8,3.6,2.478.338.676,3.942,4.842,3.942,5.068a5.189,5.189,0,0,0,.563,1.126l1.689,5.856s8.334,6.87,8.559,6.532c.225-.225,8.9,6.306,8.9,6.306s6.982-3.491,6.87-3.153c-.113.225,5.969-.225,5.969-.225l3.6.563,2.7,1.239,9.8-4.5,1.914-1.464,7.545-.225,3.6,1.464s2.365,3.491,2.365,4.167c0,.563,1.464,3.153,1.689,2.815s8.559-.788,8.784-.676,3.942,3.6,3.942,3.6l-.225,3.378-.563,5.969-1.126,2.815-1.126,2.59-.338,1.8s8.671,12.613,8.671,12.726,2.14,5.293,2.14,5.293l2.59,6.532,1.577,3.716-1.577,2.14,2.478,6.419-.788,6.306-3.716,8.221-1.689,6.081.451,8.108,4.5,9.347,4.73,10.7.451,11.712,2.14,4.054A222.765,222.765,0,0,0,781.555,504.5l-3.153-5.743s-3.6-9.009-4.054-9.46c-.338-.45-1.8-2.928-1.351-2.815a34.411,34.411,0,0,0,3.942-.338s1.014,1.239,1.689,1.914c-1.239-5.631-2.59-11.149-4.279-16.667a2.249,2.249,0,0,1-.9,1.126c-1.126.676-2.815,1.689-3.829,1.014s-5.068-.563-5.518-.45-5.293-.113-5.856.788c-.563,1.014-4.279.338-4.842,0s-7.658-3.153-8.221-3.266a29.231,29.231,0,0,1-4.73-2.14c-.563-.45-4.167-.9-4.279-1.351s.338-1.014-.225-.9a33.289,33.289,0,0,0-5.293,1.914c-.563.45-1.914,1.577-1.914,1.577s-1.689,1.689-1.577,3.041,1.689,2.365,1.126,3.041a10.377,10.377,0,0,1-2.59,1.577,14.76,14.76,0,0,0-2.928-2.252c-.676-.338-7.433-1.351-7.433-1.351l-2.7-3.153s-4.279-2.928-4.73-3.041-5.18,0-5.969-.563c-.676-.563-3.041-3.6-4.167-3.491s-.676-1.689-.225-2.027a7.575,7.575,0,0,0,1.577-3.153c-.113-.45.788-2.928-.676-3.6-1.464-.788-.45-3.153-.45-3.153s1.464-.225.9-.225-2.7.113-3.266-.563-.788-1.014-1.351-.788a17.27,17.27,0,0,1-4.617.788c-.451-.113-3.942.225-4.5.225s.113.113-.563,0-3.6,1.126-3.716,1.689-3.041-.113-3.491,0-4.617.113-4.617.113l-6.87,1.126s-4.617,2.365-4.73,3.041-1.577,1.914-2.027,2.14c-.451.338-3.041,0-3.153-.45s-4.73.225-4.73.225-1.8-1.014-2.478-.563c-.563.45-.563-1.914-.563-1.914l.676-1.689,2.59-1.689,6.194-1.126,3.041-2.027,1.914-.788,1.126-3.041s2.14-.45,2.027-.9-.676-2.478-.676-2.478l4.167-6.532,5.969-2.815,1.014-2.027s-.563-2.59-.113-3.041,4.279-1.351,4.279-1.351l4.955,1.577s2.59-1.689,3.153-2.027,3.266-1.914,3.266-1.914.225-1.351.788-1.126c.563.113,3.041-.45,3.266.788a41.486,41.486,0,0,0,2.478,4.73l3.266,3.491,3.153,2.478,3.829,1.351a20.564,20.564,0,0,0,2.7,2.14,18.642,18.642,0,0,1,2.59,2.59L715,443.009a12.332,12.332,0,0,1-1.239,2.252c-.563.676-2.365,2.59-2.7,2.478-.451-.113-3.716-.676-3.716-.676l-3.6.45a1.134,1.134,0,0,0,.45,1.577c1.014.676,2.14.563,3.153,1.126s3.6,1.689,3.6,1.689,1.689.225,1.689.676.563-1.126.45-2.14-.225-2.252.788-2.59,2.59,0,2.59-.45a2.108,2.108,0,0,1,.451-1.014l1.239-1.577-.113-1.014,1.351-1.014a17.3,17.3,0,0,0-1.351-1.577c-.563-.676-1.126-1.126-.788-1.914.451-.676,1.914-1.689,2.59-1.126s2.928.9,2.7,1.577c-.113.676,0,1.689.225,1.126a13.8,13.8,0,0,0,.113-2.928s-1.126-1.577-2.14-1.689-3.6-1.464-4.392-1.689l-2.027-1.014s.563-1.577-.225-1.464c-.9.113-3.491-.225-3.491-.676s-2.59-2.478-2.7-2.928a39.058,39.058,0,0,0-2.478-3.6,12.524,12.524,0,0,1-1.351-1.689c-.113-.45-.338-1.126-.563-2.252-.338-1.126,2.928-4.054,2.7-3.6-.113.45.676,1.014,1.351,2.252.563,1.351,2.815,3.491,3.153,4.392s3.491,3.266,4.167,3.6a12.748,12.748,0,0,0,2.59,1.689c1.464.563,1.351.9,3.153,1.689,1.914.9,2.14,1.126,2.478,1.577s1.464.338,1.914,1.014,1.014.9,1.014,1.577.563.676.225,2.14-.676,1.914-.563,2.14c.113.338,2.7,5.631,3.716,5.631s3.942,1.126,3.6,2.928c-.451,1.689,1.914,4.054,1.914,4.054s1.914.113,3.266.338c0-1.014-.113-2.59.9-3.266,1.239-.676,3.153-1.464,2.815-2.14s-.563-2.027-1.689-2.815c-1.126-.9-2.252-1.351-2.59-2.7-.338-1.464-.788-3.378.563-2.7,1.239.563,2.478,3.378,3.041,1.464s2.027-3.153,3.041-2.7,2.928,1.126,2.7,1.689c-.113.563,1.351,5.18,1.351,5.18s.563.45.788,2.59c.338,2.14,2.14,2.7,1.914,3.491-.338.676-1.126,1.126,1.126,1.464s4.392.676,4.392,1.239,1.914.9,2.14,1.351,2.027,1.239,2.252.45c.338-.9.9-2.59,1.351-2.252s4.054.338,4.279,1.464c.225.9,1.689,1.126,2.365,1.239-2.59-6.644-5.406-13.063-8.559-19.257l-5.068-1.239-3.153-1.577-1.689-1.914h1.577l-.563-2.252.225-1.577,1.351-.788.676-2.7a227.094,227.094,0,0,0-28.83-38.852c-.676.338-1.8,1.126-2.252,1.351s-1.914.788-2.14.113c-.338-.676-.9-1.689-.9-1.689s-.451-.9-.676-.676a3.417,3.417,0,0,1-1.239.338l-2.478.9a14.445,14.445,0,0,1-1.689,1.126c-.338.225-1.689.225-2.252.45-.563.338-2.365,1.8-2.815,1.126s-.788.45-1.351-.563-.338-2.252-1.014-2.027-2.252.563-2.365,1.014c-.225.338-.451.338-.788.788a13.289,13.289,0,0,1-3.153.676v-.225l3.153-2.7.676-2.59s2.928.45,3.041.9c.113.338.788-.9,1.577-.225s1.689.563,1.8,1.126.676,1.239.788.788a10.4,10.4,0,0,0,.113-1.689s-.788-.45-1.351-.788a.968.968,0,0,1,.113-1.464c.451-.338,1.8-1.126,2.14-.788.338.225,2.14-.338,2.14-.338a3.086,3.086,0,0,1,.451-.788c.225-.338,1.126-2.928,1.126-2.928a1.931,1.931,0,0,1-.9-1.126v-.676a182.37,182.37,0,0,0-24.325-20.721Zm-214.871,2.815-1.351,1.351-9.46-.9-3.266,5.743-.676,3.041s-5.18,5.18-5.856,5.631c.338-.113,2.815,2.252,2.815,2.252l-2.14,5.18-8.221,4.73-4.054.563s-2.478,8.9-2.252,9.46c.113.563-3.266,2.14-3.266,2.14l-2.478,1.689-1.014-3.153a27.155,27.155,0,0,0-1.577-3.041c.676.225,3.041.563,3.041.563l.45-2.027-2.252.113,1.014-3.266,2.14-3.6-7.545-.563-1.689-2.027L424,380.057l-.225-1.577-2.59-1.577-3.153-1.464-3.491.45-.113-3.041.788-2.928-3.041-.563A222.15,222.15,0,0,0,338.3,531.187l3.491.788,5.631-1.689,3.6,1.689,5.518,6.306,5.631,1.464,5.743,2.027h2.7l.788,3.266s2.59,3.266,3.153,3.716.113,4.167.113,4.167l2.478,1.351,2.815,3.041L381.882,559l2.027,2.252,1.239-.9,2.59.788,3.716,3.491,2.478-1.464-.676-2.7,2.252-2.252h2.027l2.14,1.689-.113,2.027,2.59,4.167.113,11.712-2.365,3.716-3.153,2.14-.113,3.491-3.266,1.351-1.351,4.617-2.027,4.054.45,3.491,2.928,2.59-2.59,2.7-1.914,2.7,1.689,5.518s.788,2.7.788,2.478c0-.338,2.7,1.914,2.7,1.914l5.068,10.023,4.842,7.095s7.095,14.3,7.32,14.415c2.14,1.577,17.793,12.838,17.793,12.838l2.7,13.964.788,29.505,2.252,8.446-.225,3.829a223.29,223.29,0,0,0,38.74,21.4c1.126,0,3.266.225,3.266.225l6.532-1.689s2.478-4.392,2.252-5.18a20.284,20.284,0,0,1-.225-3.266,1.92,1.92,0,0,0-1.577-1.914c-1.577-.225-1.577-.788-1.914-2.252a10.381,10.381,0,0,0-1.577-3.266l-1.914.338,1.689-1.689,3.829,2.815,5.743,1.014,4.392-4.392,3.041-7.433,1.351-5.518h2.928l3.041-5.518,1.126-5.18-1.014-6.306,1.351-2.252,10.023-6.644L523.1,679.5l2.478-1.914s3.829-5.18,3.829-5.743,1.577-8,1.577-8,1.689-8.784,1.577-9.347c-.225-.563.338-8.221,0-8.446s.225-2.252.225-2.252l7.32-10.361,3.491-7.883s2.478-4.054,2.14-4.842-2.478-7.32-2.478-7.32-4.617-1.014-4.842-1.577a80.066,80.066,0,0,0-8.221-7.32c-.225.225-3.266-3.041-3.6-2.14-.338,1.014-6.307,1.014-6.307,1.014l-6.306-1.577s-2.7,1.914-2.14,1.126.225-5.406,0-4.617-9.572-4.054-9.572-4.054L499,597.067v-3.6l-4.955-3.041.563-4.054-2.252-1.914s-.338.563-.563.225-1.577-8-1.577-8l-7.32-5.969-8.784-.451-8.108-4.392-1.689-4.054s-4.617-2.14-4.617-2.7-1.351-.225-1.689-.338c-.338-.225-.225-2.14-.225-2.14l-2.14-1.689-.788-.563-1.914-.563-1.126-1.689s4.167-1.8,3.716-1.689-9.347,1.351-9.347,1.351l-.9,1.689-4.167-2.14-7.095-.451s-5.068-2.027-4.955-2.59-1.577-2.7-1.577-2.7-1.126,2.7-1.351,3.041c-.338.338-3.829,3.266-3.829,3.266l.225,4.617-2.478-2.59,1.689-2.478v-3.491c0-.451,2.14-1.351,2.14-1.351l-.9-1.914s-2.59.676-2.59,1.126-3.491,2.478-3.491,2.478l-4.167,1.577h-1.8s-1.914,3.041-2.365,3.153-.225,2.928-.225,2.928-4.617,5.18-4.955,4.617-5.18-4.617-5.18-4.617l-5.743.676-3.266,1.689-4.054-2.7-3.153-4.955.225-5.743,1.689-6.306.676-4.167-4.279-3.153s-8.784.676-8.784.225-4.73.113-4.617-.225c.113-.45,1.689-3.153,1.689-3.6a38.231,38.231,0,0,1,1.126-3.716l1.914-3.716,2.478-7.095,1.464-2.478-7.207-.451-4.279,1.689-2.478,7.207L349.336,522.4l-3.041-2.252s-.338,1.351-.113.563c.113-.676-3.716-5.743-3.716-5.743l-1.914-6.982s4.955-14.527,4.73-14.3c-.113.225.113-5.293.113-5.293l15.316-10.135,5.856.9,1.464,1.351,3.6-.563,3.6-3.6,4.617.563,4.392-.788,2.7,3.041L391,477.582l2.14,2.252L394.5,481.3v2.478l-1.014,2.365,1.014,5.18,2.815,4.054,1.914.676,2.252-6.307-.45-5.969-1.014-4.73v-3.491l5.856-7.207,7.658-5.518,6.081-3.491,5.293-5.743-.225-5.518,2.365-.45,2.252-4.955,2.365.225,4.392-5.631,7.433-2.59,4.617-.9,1.464-1.577-1.689-1.464,3.6-5.293,11.374-4.5,6.87-2.027-5.631,3.6,1.126,2.7,4.167-1.126,3.041-1.914,8-2.14A27.366,27.366,0,0,1,482,417.558c-.225.676,4.054-.676,4.054-.676l-.9-1.689.338-2.252-2.365.788-3.491,3.716L474,417.22l-2.59-3.829,2.478-3.266s2.478-4.842,2.252-4.617c-.113.225-3.829-1.126-3.829-1.126l-5.631,2.027c-.563,0-5.856,3.153-5.743,2.7s-2.7,1.577-2.7,1.577l7.32-5.856,3.041-.45,3.491-3.153h16.555l5.631-1.126,7.433-4.054.563.676-3.153,3.041-3.829,4.054-3.716,4.054-1.914,2.478,5.856.225s4.617.113,5.068,0c.563-.113.676,2.027.676,2.027l2.478-1.689,1.351,3.266,4.392-3.266-1.351-3.716,1.126-3.491-5.068.225v-1.914s-1.914-2.14-2.027-1.914c-.113.338,2.815-2.478,2.7-2.14s-1.351-1.464-1.351-1.464L507,392.107l-1.689-4.842-.563-2.478-4.392-2.14-1.577-2.14-2.027-1.577,1.577-3.716-.676-2.7s-1.351-8.9-1.464-8.671c-.113.338-6.081,4.955-6.081,4.955l-6.081,3.041-3.153-2.7.225-3.6,2.7-2.59-4.5-1.351-.225-1.126c.788,0-3.266-3.942-3.6-3.716Zm186.492,11.712-1.351.563-1.239,1.914a2.711,2.711,0,0,1-1.689,0c-.451-.338-1.464,0-1.8-.113s-1.239,1.126-1.239,1.126-1.239,1.464-1.689,1.577a11.857,11.857,0,0,0-1.689,1.689,6.743,6.743,0,0,1,.225,1.351,1.17,1.17,0,0,1-.788.563c-.451.113.338,1.689.338,1.689l1.126.563s-.676.676-1.126.563c-.338-.113-1.239.9-.563,1.239.676.225,1.014.676.9,1.014s1.464.45,1.464.45l1.239-.225-.788,1.351a9.233,9.233,0,0,0,.45,1.239c.338.338,1.239,0,1.239,0a15.818,15.818,0,0,1,2.59-.225c.225.113-.113,1.014-.113,1.014l.9,1.351s.451,1.914.563,2.478-.788.338-.788.338-1.8.225-2.252.225c-.338-.113-1.126.676-1.8,1.464s.113.45.113.45h1.351a10.847,10.847,0,0,0,.225,1.351c.113.338-1.126.788-1.464.676a7.768,7.768,0,0,0-2.14.788l.113,1.351,2.14.225,2.14.225.338.676s-1.351.338-1.689,0-1.577,1.577-1.577,1.577L652.61,400.1l-2.252,1.689,1.239.563.788-1.014,1.914.113,2.027-.225s1.351-1.577,1.577-1.577,3.266-.113,3.266-.113,2.478-.45,2.7-.225a20.247,20.247,0,0,0,2.478.676,35.5,35.5,0,0,0,4.054-1.014s.788-1.239,1.014-1.689c.225-.338-1.014-.788-1.351-1.014-.338-.338,1.014-.676,1.577-1.014s.788-1.351,1.126-1.8c.225-.45-.451-1.464-.563-1.689-.113-.338-1.464-.225-1.8-.225a10.34,10.34,0,0,0-2.027.113l.113-1.914s-4.5-6.194-4.392-6.419-1.014-2.14-1.577-2.14a3.483,3.483,0,0,1-1.689-1.239c-.563-.788.788-1.689.788-1.689a21.758,21.758,0,0,0,1.8-2.14c.225-.338-.225-1.577-.451-1.689a35.051,35.051,0,0,0-3.6.113s-.9-.788-.788-1.014c.113-.338,1.014-.338,1.351-.338.225,0,2.027-3.378,2.365-3.491.338-.338-.338-1.239-.338-1.239Zm-15.541,13.964-1.577.45-.788,1.239s-1.464,1.464-1.126,1.239,1.014-.225.9.225a3.1,3.1,0,0,1-1.014.9h-1.126l-1.014-.563-1.464.225-.451.788.563,1.351-.9,1.014,1.126.9,1.126.225-.225,1.351-1.239.563-1.689,1.126-.451,1.8,1.464.788,2.252.563,2.365-.563,2.027-1.126.563-.563,3.378-.225.338-1.351.788-1.464v-4.167l1.8-1.014-.563-2.7-2.7-.563-2.365-.45ZM389.09,504.159c0-.338-4.955,3.829-4.955,3.829v.451s.45,2.027.563,2.478,3.266-2.365,3.6-3.491,2.59-1.464,3.153-1.689.9,1.126,1.464,1.126a22.849,22.849,0,0,1,3.153.9l5.18,1.689,2.027,1.914s.788,4.617.788,5.18,3.942.225,3.942.225l7.658-.676s2.478-1.464,2.252-1.914c-.113-.451-2.365-1.126-3.491-1.126S409.135,509,408.8,508.1s-9.572-3.153-9.572-3.153-10.135-.451-10.135-.788Zm32.771,11.712c-1.126,0,0,1.351,0,1.351l-.45,4.167h-4.73l-.113.45s-1.351.451-1.351,1.351,1.8.563,2.478.788c.676.338,1.8-.113,2.478-.113a20.435,20.435,0,0,0,2.478-.45,9.734,9.734,0,0,1,.563,1.689c0,.45,3.041-.113,3.041-.563a5.03,5.03,0,0,1,.788-1.577l3.6-.788s4.842.113,5.293.113.676-.9-.113-2.478c-.9-1.577-3.378-1.914-3.942-3.041s-3.266-.45-4.054,0-4.843-.9-5.969-.9Z" transform="translate(-338.3 -312.6)" fill="#01e193"/>
            </g>
          </g>
        </g>
      </g>
    </g>
    <g id="Group_830" data-name="Group 830" transform="translate(673.311 548.77)">
      <g id="Group_829" data-name="Group 829">
        <path id="Path_2248" data-name="Path 2248" d="M815.782,523.561H788.416a5.18,5.18,0,1,1,0-10.361h27.366a5.166,5.166,0,0,1,5.18,5.18A5.1,5.1,0,0,1,815.782,523.561Zm-47.974,0a5.18,5.18,0,1,1,5.18-5.18A5.1,5.1,0,0,1,767.807,523.561Zm-20.5,0h-75.34a5.18,5.18,0,1,1,0-10.361h75.34a5.18,5.18,0,1,1,0,10.361Zm-95.949,0H631.88a5.166,5.166,0,0,1-5.18-5.18,5.1,5.1,0,0,1,5.18-5.18h19.483a5.18,5.18,0,1,1,0,10.361Z" transform="translate(-626.7 -513.2)" fill="#e1fff3"/>
      </g>
    </g>
    <g id="Group_832" data-name="Group 832" transform="translate(288.615 568.14)">
      <g id="Group_831" data-name="Group 831">
        <path id="Path_2249" data-name="Path 2249" d="M437.92,540.761H420.8a5.18,5.18,0,1,1,0-10.361H437.92a5.167,5.167,0,0,1,5.18,5.18A5.239,5.239,0,0,1,437.92,540.761Zm-37.726,0H290.28a5.18,5.18,0,1,1,0-10.361H400.193a5.18,5.18,0,1,1,0,10.361Z" transform="translate(-285.1 -530.4)" fill="#e1fff3"/>
      </g>
    </g>
    <g id="Group_834" data-name="Group 834" transform="translate(757.998 514.535)">
      <g id="Group_833" data-name="Group 833" transform="translate(0)">
        <path id="Path_2250" data-name="Path 2250" d="M755.055,493.161H727.689a5.18,5.18,0,0,1,0-10.361h27.366a5.166,5.166,0,0,1,5.18,5.18A5.24,5.24,0,0,1,755.055,493.161Zm-47.974,0a5.18,5.18,0,1,1,5.18-5.18A5.24,5.24,0,0,1,707.08,493.161Z" transform="translate(-701.9 -482.8)" fill="#e1fff3"/>
      </g>
    </g>
    <g id="Group_836" data-name="Group 836" transform="translate(633.895 607.105)">
      <g id="Group_835" data-name="Group 835" transform="translate(0)">
        <path id="Path_2251" data-name="Path 2251" d="M728.415,575.361H711.3a5.18,5.18,0,0,1,0-10.361h17.118a5.166,5.166,0,0,1,5.18,5.18A5.316,5.316,0,0,1,728.415,575.361Zm-37.726,0H596.88a5.18,5.18,0,0,1,0-10.361h93.809a5.166,5.166,0,0,1,5.18,5.18A5.316,5.316,0,0,1,690.689,575.361Z" transform="translate(-591.7 -565)" fill="#e1fff3"/>
      </g>
    </g>
    <g id="Group_838" data-name="Group 838" transform="translate(334 616.903)">
      <g id="Group_837" data-name="Group 837">
        <path id="Path_2252" data-name="Path 2252" d="M378.555,584.061H351.189a5.18,5.18,0,1,1,0-10.361h27.366a5.166,5.166,0,0,1,5.18,5.18A5.24,5.24,0,0,1,378.555,584.061Zm-47.974,0a5.18,5.18,0,1,1,0-10.361,5.072,5.072,0,0,1,5.068,5.18A5.143,5.143,0,0,1,330.58,584.061Z" transform="translate(-325.4 -573.7)" fill="#e1fff3"/>
      </g>
    </g>
    <g id="Group_840" data-name="Group 840" transform="translate(328.707 515.436)">
      <g id="Group_839" data-name="Group 839">
        <path id="Path_2253" data-name="Path 2253" d="M457.415,493.961H430.05a5.18,5.18,0,1,1,0-10.361h27.366a5.24,5.24,0,0,1,5.18,5.18A5.166,5.166,0,0,1,457.415,493.961Zm-47.974,0a5.18,5.18,0,1,1,0-10.361,5.24,5.24,0,0,1,5.18,5.18A5.166,5.166,0,0,1,409.441,493.961Zm-20.609,0H325.88a5.18,5.18,0,1,1,0-10.361h62.952a5.24,5.24,0,0,1,5.18,5.18A5.167,5.167,0,0,1,388.833,493.961Z" transform="translate(-320.7 -483.6)" fill="#e1fff3"/>
      </g>
    </g>
    <g id="Group_861" data-name="Group 861" transform="translate(311.927 674.801)">
      <g id="Group_858" data-name="Group 858" transform="translate(13.401 0.031)">
        <g id="Group_850" data-name="Group 850" transform="translate(277.936)">
          <g id="Group_847" data-name="Group 847" transform="translate(147.752 11.616)">
            <g id="Group_843" data-name="Group 843" transform="translate(0 11.647)">
              <g id="Group_842" data-name="Group 842">
                <g id="Group_841" data-name="Group 841">
                  <path id="Path_2254" data-name="Path 2254" d="M721.827,659.765,695.7,722.6l30.519-18.019,24.1-57.659C743.449,644.111,727.683,645.913,721.827,659.765Z" transform="translate(-695.7 -645.797)" fill="#e3e3e3"/>
                </g>
              </g>
            </g>
            <g id="Group_846" data-name="Group 846" transform="translate(12.05)">
              <g id="Group_845" data-name="Group 845">
                <g id="Group_844" data-name="Group 844">
                  <path id="Path_2255" data-name="Path 2255" d="M733.991,649.47,706.4,715.576l30.519-18.018,25.451-60.925C755.613,633.7,739.734,635.618,733.991,649.47Z" transform="translate(-706.4 -635.454)" fill="#ededed"/>
                </g>
              </g>
            </g>
          </g>
          <g id="Group_849" data-name="Group 849">
            <g id="Group_848" data-name="Group 848">
              <path id="Path_2256" data-name="Path 2256" d="M765.294,639.172l-25,60.024L628.128,765.527a8.532,8.532,0,0,1-11.6-2.928l-.451-.676a8.532,8.532,0,0,1,2.928-11.6l32.884-19.482,11.937-7.095c12.951-7.658,12.613-23.537,8.9-29.843L641.079,712.6l-69.822,41.217a13.133,13.133,0,0,0-6.419,12.838l-.113.113-.225,71.06a340.625,340.625,0,0,0,97.75-23.875l-7.771-28.942,93.133-55.069a14.013,14.013,0,0,0,5.969-7.545h0l40.091-96.061C786.916,623.406,771.15,625.208,765.294,639.172Z" transform="translate(-564.5 -625.14)" fill="#bef4dd"/>
            </g>
          </g>
        </g>
        <g id="Group_857" data-name="Group 857" transform="translate(0 11.616)">
          <g id="Group_853" data-name="Group 853" transform="translate(13.514 11.647)">
            <g id="Group_852" data-name="Group 852">
              <g id="Group_851" data-name="Group 851">
                <path id="Path_2257" data-name="Path 2257" d="M358.079,659.765l26.239,62.84L353.8,704.586l-24.1-57.659C336.457,644.111,352.223,645.913,358.079,659.765Z" transform="translate(-329.7 -645.797)" fill="#e3e3e3"/>
              </g>
            </g>
          </g>
          <g id="Group_856" data-name="Group 856">
            <g id="Group_855" data-name="Group 855">
              <g id="Group_854" data-name="Group 854">
                <path id="Path_2258" data-name="Path 2258" d="M346.079,649.47l27.591,66.105-30.519-18.018L317.7,636.632C324.57,633.7,340.336,635.618,346.079,649.47Z" transform="translate(-317.7 -635.454)" fill="#ededed"/>
              </g>
            </g>
          </g>
        </g>
      </g>
      <g id="Group_860" data-name="Group 860">
        <g id="Group_859" data-name="Group 859">
          <path id="Path_2259" data-name="Path 2259" d="M534.973,837.942l-.225-71.286-.113-.113a13.328,13.328,0,0,0-6.419-12.838l-69.822-41.217-31.645-18.694c-3.716,6.306-4.054,22.185,8.9,29.843l11.937,7.095,32.884,19.482a8.36,8.36,0,0,1,2.928,11.6l-.45.676a8.36,8.36,0,0,1-11.6,2.928L359.18,699.087l-25-59.911c-5.743-13.852-21.622-15.766-28.379-12.951l40.091,96.061h0a13.06,13.06,0,0,0,5.969,7.545L444.993,784.9l-8,29.618A342.515,342.515,0,0,0,534.973,837.942Z" transform="translate(-305.8 -625.112)" fill="#bef4dd"/>
        </g>
      </g>
    </g>
    <g id="Group_864" data-name="Group 864" transform="translate(593.128 334.462)">
      <g id="Group_863" data-name="Group 863" transform="translate(0)">
        <g id="Group_862" data-name="Group 862">
          <path id="Path_2260" data-name="Path 2260" d="M603.812,322.9a47.839,47.839,0,0,0-13.964,33.9A34.34,34.34,0,0,0,555.5,391.145a33.334,33.334,0,0,0,1.351,9.572H712.036A222.886,222.886,0,0,0,603.812,322.9Z" transform="translate(-555.5 -322.9)" fill="#bddbcc"/>
        </g>
      </g>
    </g>
    <g id="Group_867" data-name="Group 867" transform="translate(604.502 308.786)">
      <g id="Group_866" data-name="Group 866" transform="translate(0)">
        <g id="Group_865" data-name="Group 865">
          <path id="Path_2261" data-name="Path 2261" d="M766.281,392.22a25.206,25.206,0,0,0-25.226-24.212,27.932,27.932,0,0,0-8.221,1.351,34.476,34.476,0,0,0-31.758-21.172,23.868,23.868,0,0,0-4.955.45v-.45a48.087,48.087,0,0,0-96.174,0A34.34,34.34,0,0,0,565.6,382.535a33.334,33.334,0,0,0,1.351,9.572h199.33Z" transform="translate(-565.6 -300.1)" fill="#e1fff3"/>
        </g>
      </g>
    </g>
    <g id="Group_870" data-name="Group 870" transform="translate(373.865 375.792)">
      <g id="Group_869" data-name="Group 869">
        <g id="Group_868" data-name="Group 868">
          <path id="Path_2262" data-name="Path 2262" d="M360.8,427.733H469.136c0-.338.113-.788.113-1.126a25.029,25.029,0,0,0-23.424-25,38.9,38.9,0,0,0,.563-6.419A35.884,35.884,0,0,0,415.081,359.6,225.116,225.116,0,0,0,360.8,427.733Z" transform="translate(-360.8 -359.6)" fill="#bddbcc"/>
        </g>
      </g>
    </g>
    <g id="Group_873" data-name="Group 873" transform="translate(338.729 366.67)">
      <g id="Group_872" data-name="Group 872">
        <g id="Group_871" data-name="Group 871">
          <path id="Path_2263" data-name="Path 2263" d="M464.4,420.083c0-.338.113-.788.113-1.126a25.029,25.029,0,0,0-23.424-25,38.9,38.9,0,0,0,.563-6.419,36.02,36.02,0,0,0-71.849-3.716,33.948,33.948,0,0,0-7.658-.9A32.49,32.49,0,0,0,329.6,415.466a31.849,31.849,0,0,0,.338,4.617Z" transform="translate(-329.6 -351.5)" fill="#e1fff3"/>
        </g>
      </g>
    </g>
    <g id="Group_878" data-name="Group 878" transform="translate(805.859 605.528)">
      <g id="Group_875" data-name="Group 875" transform="translate(9.798)">
        <g id="Group_874" data-name="Group 874">
          <path id="Path_2264" data-name="Path 2264" d="M756.478,589.839a3.388,3.388,0,0,1-3.378-3.378V566.979a3.388,3.388,0,0,1,3.378-3.378,3.464,3.464,0,0,1,3.378,3.378v19.482A3.388,3.388,0,0,1,756.478,589.839Z" transform="translate(-753.1 -563.6)" fill="#e1fff3"/>
        </g>
      </g>
      <g id="Group_877" data-name="Group 877" transform="translate(0 9.798)">
        <g id="Group_876" data-name="Group 876">
          <path id="Path_2265" data-name="Path 2265" d="M767.261,579.057H747.778a3.378,3.378,0,1,1,0-6.757h19.483a3.378,3.378,0,0,1,0,6.757Z" transform="translate(-744.4 -572.3)" fill="#e1fff3"/>
        </g>
      </g>
    </g>
    <g id="Group_883" data-name="Group 883" transform="translate(580.177 270.384)">
      <g id="Group_880" data-name="Group 880" transform="translate(14.865)">
        <g id="Group_879" data-name="Group 879">
          <path id="Path_2266" data-name="Path 2266" d="M560.578,302.375A3.388,3.388,0,0,1,557.2,299V269.378A3.388,3.388,0,0,1,560.578,266a3.464,3.464,0,0,1,3.378,3.378V299A3.318,3.318,0,0,1,560.578,302.375Z" transform="translate(-557.2 -266)" fill="#e1fff3"/>
        </g>
      </g>
      <g id="Group_882" data-name="Group 882" transform="translate(0 14.865)">
        <g id="Group_881" data-name="Group 881">
          <path id="Path_2267" data-name="Path 2267" d="M577,285.957H547.378a3.378,3.378,0,1,1,0-6.757H577a3.388,3.388,0,0,1,3.378,3.378A3.317,3.317,0,0,1,577,285.957Z" transform="translate(-544 -279.2)" fill="#e1fff3"/>
        </g>
      </g>
    </g>
    <g id="Group_888" data-name="Group 888" transform="translate(283.66 448.542)">
      <g id="Group_885" data-name="Group 885" transform="translate(18.919)">
        <g id="Group_884" data-name="Group 884">
          <path id="Path_2268" data-name="Path 2268" d="M302.68,472.287a5.167,5.167,0,0,1-5.18-5.18V429.38a5.166,5.166,0,0,1,5.18-5.18,5.1,5.1,0,0,1,5.18,5.18v37.726A5.24,5.24,0,0,1,302.68,472.287Z" transform="translate(-297.5 -424.2)" fill="#e1fff3"/>
        </g>
      </g>
      <g id="Group_887" data-name="Group 887" transform="translate(0 18.807)">
        <g id="Group_886" data-name="Group 886">
          <path id="Path_2269" data-name="Path 2269" d="M323.607,451.261H285.88a5.18,5.18,0,0,1,0-10.361h37.726a5.166,5.166,0,0,1,5.18,5.18A5.1,5.1,0,0,1,323.607,451.261Z" transform="translate(-280.7 -440.9)" fill="#e1fff3"/>
        </g>
      </g>
    </g>
  </g>
</svg>
