<svg id="logoipsum-317" xmlns="http://www.w3.org/2000/svg" width="194.353" height="44.171" viewBox="0 0 194.353 44.171">
  <path id="Path_2157" data-name="Path 2157" d="M16.564,30.92A5.521,5.521,0,0,1,11.043,25.4V0H0V25.4A16.565,16.565,0,0,0,16.564,41.963H28.711V30.92ZM49.693,11.043a9.939,9.939,0,1,0,9.939,9.939A9.939,9.939,0,0,0,49.693,11.043ZM28.711,20.981A20.981,20.981,0,1,1,49.693,41.963,20.982,20.982,0,0,1,28.711,20.981Zm140.244-9.939a9.939,9.939,0,1,0,9.939,9.939A9.939,9.939,0,0,0,168.955,11.043Zm-20.981,9.939a20.981,20.981,0,1,1,20.981,20.981A20.982,20.982,0,0,1,147.974,20.981ZM93.864,0a20.981,20.981,0,0,0,0,41.963h30.92a20.973,20.973,0,0,0,6.244-.945l5.9,3.154L143.3,32.241a20.989,20.989,0,0,0,2.465-9.867V20.981A20.982,20.982,0,0,0,124.784,0Zm40.858,20.981a9.939,9.939,0,0,0-9.939-9.939H93.864a9.939,9.939,0,0,0,0,19.877h30.92a9.939,9.939,0,0,0,9.939-9.862Z" transform="translate(0)" fill="#e0ece8" fill-rule="evenodd"/>
  <path id="Path_2158" data-name="Path 2158" d="M176.521,2.761A2.761,2.761,0,1,1,173.761,0,2.761,2.761,0,0,1,176.521,2.761Z" transform="translate(17.832 0)" fill="#e0ece8"/>
</svg>
