<svg id="logoipsum-290" xmlns="http://www.w3.org/2000/svg" width="145.765" height="69.412" viewBox="0 0 145.765 69.412">
  <path id="Path_2153" data-name="Path 2153" d="M131.99,67.582v.165a1.7,1.7,0,0,1-.146.267h0l-.209.247-.209.185a2.619,2.619,0,0,1-.731.431h-.1a2.392,2.392,0,0,1-.815.165h-8.356a1.571,1.571,0,0,1-.65-.118,1.548,1.548,0,0,1-.54-.375L111.1,59.26l-6,8.959-.125.164-.209.247h-.355a1.929,1.929,0,0,1-.564.329l-.209.1a2.877,2.877,0,0,1-.815.164H94.47a1.567,1.567,0,0,1-.65-.118,1.544,1.544,0,0,1-.541-.375l-3.113-3.513L79.219,69.061a1.927,1.927,0,0,1-.815.164,1.6,1.6,0,0,1-1.044-.349l-.167-.164L71.97,62.835c-.209.7-.376,1.4-.606,2.055l-.125.288a1.108,1.108,0,0,1-.146.267l-.125.164-.23.247-.292.267a2.694,2.694,0,0,1-.522.308l-.606.74a2.669,2.669,0,0,1-.9.165H61.566a1.549,1.549,0,0,1-.648-.107,1.525,1.525,0,0,1-.542-.366l-2.256-2.548-.982,3.205a.955.955,0,0,1-.125.308l-.125.267-.125.164-.209.247a1.788,1.788,0,0,1-.293.267,4.6,4.6,0,0,1-.543.308l-.272.144a2.69,2.69,0,0,1-.878.185H42.158A1.57,1.57,0,0,1,41.5,69.3a1.546,1.546,0,0,1-.55-.379l-1.818-2.055H32.549l-.146.493a1.791,1.791,0,0,1-.1.308,1.706,1.706,0,0,0-.146.267l-.125.165-.209.247a1.788,1.788,0,0,1-.292.267,4.613,4.613,0,0,1-.543.308l-.272.144a2.693,2.693,0,0,1-.877.185H22.082a1.571,1.571,0,0,1-.65-.118,1.547,1.547,0,0,1-.54-.375l-2.4-2.692H11.323a1.548,1.548,0,0,1-.648-.107,1.529,1.529,0,0,1-.542-.366L.376,55.192a.9.9,0,0,0,.272.185,1.245,1.245,0,0,1-.439-.432,1.842,1.842,0,0,1,0-1.705A211.9,211.9,0,0,0,13.726,18.576v-.144l-.689-.781s.1,0,.167.144a1.556,1.556,0,0,1-.469-.78,1.537,1.537,0,0,1,.051-.9l2.277-7.52a3,3,0,0,1,1.028-1.432,3.08,3.08,0,0,1,1.667-.622h8.357l1.358-4.479A3.023,3.023,0,0,1,28.5.627,3.1,3.1,0,0,1,30.167,0H37.98a1.483,1.483,0,0,1,.674.133,1.458,1.458,0,0,1,.538.422l2.674,3.02.209-.555A2.98,2.98,0,0,1,43.109,1.58,3.061,3.061,0,0,1,44.791.967h27.6a1.547,1.547,0,0,1,.671.14,1.523,1.523,0,0,1,.541.415l8.356,9.472L81.81,3.1a2.516,2.516,0,0,1,.246-1,2.552,2.552,0,0,1,.631-.825A2.82,2.82,0,0,1,84.609.433h8.356a1.525,1.525,0,0,1,.768.181,1.494,1.494,0,0,1,.569.538h0a.842.842,0,0,0-.146-.226l6.267,7.007,1.065-3.514a2.959,2.959,0,0,1,1.023-1.439,3.038,3.038,0,0,1,1.672-.616h30.5a1.548,1.548,0,0,1,.68.126,1.525,1.525,0,0,1,.553.408h0l9.526,10.746.125.144a1.181,1.181,0,0,1,.188.514v.1a3.267,3.267,0,0,1,0,.452,2.785,2.785,0,0,1,0,.349l-9.589,31.417-.125.308-.146.267a.2.2,0,0,1-.125.164l-.209.247-.313.267c-.167.123-.355.205-.522.308a.878.878,0,0,1-.272.144,2.268,2.268,0,0,1-.9.185h-4.178l1.65,1.849v.144a1.523,1.523,0,0,1,.188.616l.919,15.493v.7C132.136,67.458,131.99,67.52,131.99,67.582Z" transform="translate(0 0)" fill="#fff"/>
  <path id="Path_2154" data-name="Path 2154" d="M1.3,52.724A215.627,215.627,0,0,0,14.984,17.67h6.5A226.03,226.03,0,0,1,8.236,52.724ZM43.291,2.075,41.014,9.513H68.57l2.277-7.438ZM22.15,53.443h7.771A115.664,115.664,0,0,0,41.432,27.759H34.517A98.584,98.584,0,0,1,22.108,53.341ZM35.708,16.951l-2.3,7.561H46.592L39.3,48.45H34.538l-2.3,7.5H44.649l9.568-31.438H67.024l2.319-7.561Zm-5.85,5.979,2.34-7.664h4.826l2.3-7.52H34.538l2.089-6.514H28.668L26.579,7.746H16.237l-2.3,7.52H24.385L12.059,55.991H19.81l7.27-23.876,2.737,2.651L32.6,25.643Zm25.487,5.075a80.564,80.564,0,0,1-3.593,25.7h6.873a92.813,92.813,0,0,0,4.178-25.7ZM91.55,1.52H83.089l.23,13.13H91.8ZM73.855,18.759l-2.444,8.055h5.829L68.361,55.991l14.979-5.26,2.737-9.02L80.1,43.765l7.625-25.027ZM92.845,55.95l10.341-15.472H94.83L84.384,55.95Zm9.9-52.478L93.117,35.033h30.5l9.61-31.561Zm15.292,23.691H103.52l4.805-15.842h14.624l-4.826,15.842m-7.98,13.253.919,15.472h8.356l-.94-15.472Z" transform="translate(0.956 0.906)" fill="#033735"/>
</svg>
