<svg id="logoipsum-280_1_" data-name="logoipsum-280 (1)" xmlns="http://www.w3.org/2000/svg" width="121.471" height="46.719" viewBox="0 0 121.471 46.719">
  <path id="Path_2155" data-name="Path 2155" d="M28.833,0A17.886,17.886,0,0,0,16.186,5.239L5.239,16.186A17.886,17.886,0,1,0,30.534,41.481l7.572-7.572s0,0,0,0L60.169,11.846a8.545,8.545,0,0,1,14.164,3.391L81.3,8.274A17.889,17.889,0,0,0,53.561,5.239L23.927,34.874A8.542,8.542,0,0,1,11.846,22.793L22.793,11.846a8.544,8.544,0,0,1,14.164,3.391L43.92,8.274A17.873,17.873,0,0,0,28.833,0Z" transform="translate(0 0)" fill="#e0ece8"/>
  <path id="Path_2156" data-name="Path 2156" d="M46.924,34.874a8.544,8.544,0,0,1-14.163-3.39L25.8,38.447a17.889,17.889,0,0,0,27.733,3.034L83.166,11.846A8.542,8.542,0,0,1,95.247,23.927L84.3,34.874a8.545,8.545,0,0,1-14.164-3.391l-6.963,6.963a17.889,17.889,0,0,0,27.734,3.035l10.947-10.947A17.886,17.886,0,1,0,76.559,5.239Z" transform="translate(14.378 0)" fill="#e0ece8"/>
</svg>
