<svg xmlns="http://www.w3.org/2000/svg" width="471.942" height="97.078" viewBox="0 0 471.942 97.078">
  <g id="Group_2576" data-name="Group 2576" transform="translate(-360 -2879)">
    <g id="_8867.Microsoft_5F00_Logo_2D00_for_2D00_screen-1920x706" data-name="8867.Microsoft_5F00_Logo_2D00_for_2D00_screen-1920x706" transform="translate(475.772 2893.326)">
      <path id="Path_3549" data-name="Path 3549" d="M1561.858-461.212a15.356,15.356,0,0,0-10.954,11.807,39.877,39.877,0,0,0-.361,5.8c0,4.821.3,4.526-4.559,4.362l-2.984-.1v8.363h7.543v36.732h10.495v-36.732l8.133.066,8.1.1.164,14.3.164,14.267,1.246,2.525a10.1,10.1,0,0,0,6.035,5.575c2.591.951,8.822.984,11.577.033l1.8-.623.1-4.2a41.159,41.159,0,0,0-.033-4.165,13.141,13.141,0,0,0-1.246.558,7.636,7.636,0,0,1-3.443.59c-2,0-2.46-.131-3.477-.885-2.361-1.8-2.394-1.9-2.493-15.775l-.131-12.364h10.888v-8.2l-5.313-.066-5.346-.1-.1-6.658a37.2,37.2,0,0,0-.361-6.625,7.356,7.356,0,0,0-1.214.3c-.525.2-2.689.853-4.788,1.509l-3.87,1.181v5.051c0,4.985,0,5.083-.722,5.247-.426.1-4.067.131-8.134.1l-7.379-.1-.1-3.608c-.164-5.543.853-8.3,3.542-9.675a9.707,9.707,0,0,1,6.559-.164c.754.262,1.443.492,1.509.492a38.758,38.758,0,0,0,.131-4.395c0-3.87-.066-4.428-.557-4.624a29.6,29.6,0,0,0-4.526-.361A16.823,16.823,0,0,0,1561.858-461.212Z" transform="translate(-1242.256 461.706)" fill="#fff"/>
      <path id="Path_3550" data-name="Path 3550" d="M866.223-451.309a6.076,6.076,0,0,0-3.116,4.395c-.328,2.788.131,3.837,2.493,5.8,1.082.853,2,1.049,4.3.886,6.264-.459,7.674-8.3,2-11.249A7.568,7.568,0,0,0,866.223-451.309Z" transform="translate(-785.281 455.148)" fill="#fff"/>
      <path id="Path_3551" data-name="Path 3551" d="M626-416.515V-385l4.919-.1,4.952-.1-.033-24.171c0-23.876.1-26.237,1.017-23.581.2.59.525.918.721.787.2-.1.23-.033.1.164-.131.23,2,5.969,4.756,12.758,2.755,6.822,6.953,17.251,9.347,23.22l4.329,10.823,3.772.1,3.739.1.558-1.574c.328-.853.787-2.033,1.017-2.558.82-1.869,6.789-17.021,6.854-17.349a1.768,1.768,0,0,1,.262-.689c.1-.2,1.771-4.329,3.706-9.183,4.854-12.3,6.756-16.989,7.019-17.382.1-.2.262,10.659.361,24.105l.164,24.433h10.495v-62.641l-7.445-.1L679.163-448l-.23.722c-.131.426-1.9,4.887-3.968,9.937-7.281,17.743-12.3,30.173-12.364,30.5a7.491,7.491,0,0,1-.394.984c-.2.361-.689,1.509-1.115,2.525a5.592,5.592,0,0,1-.951,1.9c-.131,0-2.46-5.641-5.215-12.561-2.722-6.887-5.871-14.824-6.986-17.612-1.082-2.788-2.985-7.609-4.2-10.659l-2.165-5.575-7.806-.1L626-448Z" transform="translate(-626 452.495)" fill="#fff"/>
      <path id="Path_3552" data-name="Path 3552" d="M940.963-396.47c-6.92,1.049-12.463,4.46-15.939,9.773-3.05,4.624-4.067,8.921-3.8,15.808a30.274,30.274,0,0,0,.689,6c.853,2.657,2.493,5.838,2.886,5.608.2-.131.262-.1.164.1-.3.459.754,1.8,2.853,3.8,4.887,4.69,12.036,6.625,19.973,5.444a20.958,20.958,0,0,0,6.559-1.837l1.869-.853v-4.755c0-4.493-.033-4.723-.557-4.264a25.478,25.478,0,0,1-6.986,3.083,13.814,13.814,0,0,1-12.955-3.312c-5.411-5.379-5.28-17.054.23-22.564a14,14,0,0,1,11.872-3.575,19.419,19.419,0,0,1,7.117,2.722,5.392,5.392,0,0,0,1.082.623,31.86,31.86,0,0,0,.2-4.854V-394.4L955-394.929C951.621-396.4,945.128-397.094,940.963-396.47Z" transform="translate(-824.371 418.02)" fill="#fff"/>
      <path id="Path_3553" data-name="Path 3553" d="M1154.71-396.581c-10.725,1.607-17.284,8.134-19.055,18.989a32.611,32.611,0,0,0,.2,10.856c1.377,6.756,5.182,11.807,10.987,14.595,3.706,1.8,5.936,2.263,11.151,2.263,5.28,0,7.871-.525,11.479-2.263,3.542-1.705,9.216-7.281,8.494-8.4-.131-.23-.1-.328.1-.2.459.262,1.837-2.624,1.607-3.28-.1-.262-.066-.394.1-.3.131.1.426-.361.623-1.049a34.932,34.932,0,0,0,.1-16.365c-.82-2.919-3.247-7.543-3.936-7.379-.229.033-.328-.033-.229-.2s-.262-.787-.787-1.41-.951-1.017-.984-.918c0,.131-.525-.262-1.148-.886C1169.9-395.793,1161.63-397.6,1154.71-396.581Zm7.215,8.691c4.231,1.115,6.92,4,8.2,8.855a36.621,36.621,0,0,1,.131,11.052,18.244,18.244,0,0,1-2.984,6.527c-3.017,3.214-9.708,4.2-14.234,2.066-4.887-2.329-7.379-7.871-6.92-15.447a20.1,20.1,0,0,1,2.1-7.937A12.238,12.238,0,0,1,1161.926-387.889Z" transform="translate(-968.262 418.13)" fill="#fff"/>
      <path id="Path_3554" data-name="Path 3554" d="M1304.756-396.234a18.1,18.1,0,0,0-9.052,4.624,12.005,12.005,0,0,0-3.476,10.593c.623,4.985,3.05,7.838,9.15,10.724,2.1,1.017,4.755,2.263,5.871,2.788,2.82,1.345,4.034,2.82,4.034,4.887,0,1.9-.394,2.886-1.476,3.706-1.148.82-4.231,1.312-6.854,1.082-2.066-.2-6.789-1.509-7.576-2.132a20.5,20.5,0,0,0-1.9-1.148l-1.574-.853.1,4.985.1,5.018,2.3.787a31.077,31.077,0,0,0,13.939,1.345c2.427-.394,5.9-1.574,5.9-2.033,0-.164.131-.23.3-.131.361.23,3.083-1.869,4.69-3.673,2.689-2.984,3.378-9.38,1.443-13.348-1.673-3.411-3.8-4.887-13.25-9.216-3.148-1.443-4.46-2.722-4.788-4.69a4.3,4.3,0,0,1,2.033-4.46c2.591-1.705,8.068-1.312,12.627.918l2.2,1.082v-9.314l-.885-.328A29.012,29.012,0,0,0,1304.756-396.234Z" transform="translate(-1073.508 417.947)" fill="#fff"/>
      <path id="Path_3555" data-name="Path 3555" d="M1418.532-396.655c-11.184,1.181-18.628,8.658-20.039,20.1-.853,7.018,1.115,15.218,4.526,18.956a5.011,5.011,0,0,1,1.082,1.509c0,.164.066.23.164.131a4.693,4.693,0,0,1,1.607,1.246,21.776,21.776,0,0,0,8.4,4.264c3.247.853,14.168.722,13.643-.131-.066-.131.328-.23.885-.262,1.377-.033,5.674-2.165,7.609-3.772a11.583,11.583,0,0,0,1.41-1.279,10.586,10.586,0,0,1,1.345-1.607,19.767,19.767,0,0,0,3.739-6.461,11.927,11.927,0,0,1,.459-1.443c1.213-2.919,1.344-11.577.295-15.906-.557-2.23-2.689-6.723-3.181-6.723-.2,0-.262-.131-.164-.3.131-.164-.23-.656-.754-1.115-.558-.459-.918-.885-.82-.951.2-.23-2.23-2.165-4.3-3.444C1430.6-396.2,1424.469-397.279,1418.532-396.655Zm7.9,9.249c3.28,1.246,6.035,4.985,6.855,9.216a39.559,39.559,0,0,1-.033,10.233c-.885,4.2-3.214,7.412-6.526,8.855a15.659,15.659,0,0,1-8.724.459c-5.51-1.607-8.429-5.9-8.888-13.151-.394-6.723,1.738-12.168,5.9-14.824C1417.844-388.424,1422.829-388.751,1426.436-387.407Z" transform="translate(-1145.009 418.106)" fill="#fff"/>
      <path id="Path_3556" data-name="Path 3556" d="M1071.858-395.347a12.447,12.447,0,0,0-7.379,6.461,5.3,5.3,0,0,1-.984,1.64c-.1,0-.164-.623-.1-1.41a32.6,32.6,0,0,0-.1-3.837l-.2-2.46-5.051.1-5.051.1v44.931l5.182-.1,5.149-.1.033-12.955c.066-13.02.131-14.135,1.312-17.218,2-5.149,6.822-7.281,12.364-5.444l1.869.59v-5.018c0-3.509-.131-5.083-.394-5.247C1077.794-395.773,1073.2-395.773,1071.858-395.347Z" transform="translate(-912.959 417.323)" fill="#fff"/>
      <path id="Path_3557" data-name="Path 3557" d="M866-370.534v22.466h10.167V-393H866Z" transform="translate(-787.288 415.533)" fill="#fff"/>
    </g>
    <g id="microsoft" transform="translate(360 2879)">
      <g id="Group_2569" data-name="Group 2569" transform="translate(51.573)">
        <g id="Group_2568" data-name="Group 2568">
          <path id="Path_3558" data-name="Path 3558" d="M314.472,0H272V45.505h45.505V3.034A3.035,3.035,0,0,0,314.472,0Z" transform="translate(-272)" fill="#fff"/>
        </g>
      </g>
      <g id="Group_2571" data-name="Group 2571">
        <g id="Group_2570" data-name="Group 2570">
          <path id="Path_3559" data-name="Path 3559" d="M3.034,0A3.035,3.035,0,0,0,0,3.034V45.505H45.505V0Z" fill="#fff"/>
        </g>
      </g>
      <g id="Group_2573" data-name="Group 2573" transform="translate(0 51.573)">
        <g id="Group_2572" data-name="Group 2572">
          <path id="Path_3560" data-name="Path 3560" d="M0,272v42.472a3.035,3.035,0,0,0,3.034,3.034H45.505V272Z" transform="translate(0 -272)" fill="#fff"/>
        </g>
      </g>
      <g id="Group_2575" data-name="Group 2575" transform="translate(51.573 51.573)">
        <g id="Group_2574" data-name="Group 2574">
          <path id="Path_3561" data-name="Path 3561" d="M272,272v45.505h42.472a3.035,3.035,0,0,0,3.034-3.034V272Z" transform="translate(-272 -272)" fill="#fff"/>
        </g>
      </g>
    </g>
  </g>
</svg>
