<svg xmlns="http://www.w3.org/2000/svg" width="632.341" height="103" viewBox="0 0 632.341 103">
  <g id="Group_2579" data-name="Group 2579" transform="translate(-804 -2926)">
    <g id="Group_2577" data-name="Group 2577" transform="translate(804 2939.874)">
      <path id="Path_3606" data-name="Path 3606" d="M139.481,287.766c0-3.823-.049-7.464.023-11.1.029-1.471-.44-2.187-1.975-2.012-.481.055-.974,0-1.453.066-3.151.411-3.15.417-3.151-2.839,0-4.872,0-4.872,4.915-4.872q4.642,0,9.284,0c2.458,0,2.455.008,2.561,2.492.015.344.089.686.148,1.116,7.856-5.13,15.519-7.768,23.066.851l2.172-1.619c4.749-3.542,9.908-4.984,15.716-3.04a9.269,9.269,0,0,1,6.576,8.518c.223,7.571.273,15.147.393,22.721.008.486,0,.971,0,1.457,0,2.847,0,2.847,2.912,2.509,2.626-.305,2.912-.048,2.915,2.64,0,1.274-.03,2.549,0,3.822.026,1.089-.478,1.517-1.541,1.512-4.429-.02-8.859-.027-13.288,0-1.208.008-1.571-.564-1.567-1.679.023-6.917-.012-13.834.033-20.751.014-2.114.274-4.225.327-6.34.15-6.038-3.924-7.221-8.675-5.08a16.235,16.235,0,0,0-2.87,1.911,5.469,5.469,0,0,0-2.342,4.965c.168,5.759.048,11.527.063,17.291.005,2,.247,2.177,2.266,1.824.239-.042.476-.1.716-.123,2.981-.322,3.2-.122,3.2,2.9,0,5.074,0,5.074-5.078,5.074q-4.368,0-8.737,0c-2.568,0-2.573-.008-2.574-2.66q0-13.2,0-26.395c0-4.662-3.651-7.156-7.893-5.139a26.383,26.383,0,0,0-5.325,3.988,2.629,2.629,0,0,0-.591,1.811c-.042,6.31,0,12.621-.046,18.931-.012,1.64.677,1.945,2.146,1.67,3.867-.723,4.062-.53,4.063,3.3,0,4.5,0,4.5-4.562,4.5-5.4,0-10.8-.049-16.2.029-1.64.024-2.4-.476-2.192-2.173a13.549,13.549,0,0,0,.009-1.455c.072-4.96-.631-3.686,4.252-4.325,1.8-.236,2.394-.654,2.339-2.462C139.4,295.717,139.481,291.831,139.481,287.766Z" transform="translate(-132.883 -244.38)" fill="#fff"/>
      <path id="Path_3608" data-name="Path 3608" d="M1446.99,259.237c1.788,6.867,1.6,13.513-1.282,19.872-4.9,10.8-16.528,14-25.2,8.175a41.76,41.76,0,0,1-3.7-3.228c0,4.047-.022,7.709.044,11.369.007.3.583.636.947.875.175.114.474.028.714.054,1.41.153,2.819.313,4.225.471.047,2.112.146,4.226.073,6.333-.011.294-.878.8-1.351.8-6.672.053-13.345.031-20.018.04-.983,0-1.449-.43-1.439-1.423.018-1.577.029-3.155,0-4.731-.022-1.1.514-1.521,1.563-1.49.969.029,1.945-.071,2.91.016,1.577.142,2.131-.474,2.112-2.076-.076-5.7-.029-11.4-.029-17.107q0-10.556,0-21.111c0-2.345-.27-2.566-2.51-2.161-.24.043-.473.113-.714.143-2.644.33-2.961.056-2.965-2.582,0-1.274.029-2.548,0-3.821-.026-1.048.386-1.591,1.49-1.559,4.538.135,9.08.216,13.615.437.444.021,1.115.813,1.22,1.338a15.379,15.379,0,0,1,.055,3.006,50.191,50.191,0,0,1,5.977-4.063c8.286-4.068,17.144-1.133,21.97,7.135a45.1,45.1,0,0,1,2.3,5.286m-12.453,18.279a17.3,17.3,0,0,0,1.777-16.488c-1.209-3.249-3.4-5.819-7.044-6.473a9.081,9.081,0,0,0-9.99,4.386,16.161,16.161,0,0,0-.575,17.112C1422,282.079,1429.719,282.777,1434.538,277.515Z" transform="translate(-938.49 -231.116)" fill="#fff"/>
      <path id="Path_3609" data-name="Path 3609" d="M891.461,265.521c0,3.7.046,7.222-.019,10.74-.03,1.6.454,2.194,2.141,1.87,3.876-.745,4.1-.54,4.063,3.281-.051,5.227.728,4.489-4.547,4.483-3.449,0-6.9-.25-10.346-.336-1.1-.027-1.52-.517-1.491-1.566.031-1.129.007-2.259.007-3.676a44.119,44.119,0,0,1-4.062,3.768c-6.555,4.671-17.443,2.749-22.44-3.83a23.391,23.391,0,0,1-4.861-14.535c-.011-4.218.1-8.373,1.934-12.275,3.558-7.566,9-11.357,16.644-11.476,4.08-.064,8.05,1.118,10.967,4.429.42.476.924.877,1.78,1.679,0-4.126.035-7.735-.053-11.341-.009-.362-.72-.941-1.169-1.012a12.073,12.073,0,0,0-3.085-.048c-1.8.184-2.38-.609-2.238-2.314.11-1.326-.089-2.685.094-3.995.07-.5.814-1.278,1.265-1.287,4.67-.1,9.344-.051,14.016-.069,1.321-.005,1.4.84,1.4,1.83q-.013,7.919,0,15.838c0,6.553,0,13.107,0,19.843m-30.328,4.943c.255.614.469,1.249.771,1.839,1.653,3.229,4.136,5.319,7.883,5.59,4.127.3,7.431-1.246,9.456-4.849a17.028,17.028,0,0,0,.456-16.226c-1.926-4.07-5.921-6.618-10.936-5.459a10,10,0,0,0-7.147,6.392A19.29,19.29,0,0,0,861.133,270.464Z" transform="translate(-588.751 -220.314)" fill="#fff"/>
      <path id="Path_3610" data-name="Path 3610" d="M1647.3,256.041c.222,7.537.419,14.924.561,22.312.08,3.974-.368,3.586,3.639,3.609.772,0,1.548,0,2.539,0,0,2.259.058,4.367-.051,6.466a1.569,1.569,0,0,1-1.071,1.105q-7,.118-14.012,0c-.411-.007-.98-.715-1.173-1.213a8.706,8.706,0,0,1-.16-2.291c-.6.37-.991.57-1.333.825-5.077,3.756-10.588,4.915-16.63,2.735-5.573-2.01-9.094-8.777-8.384-14.666,1.133-9.38,10.173-13.2,17.869-12,2.783.437,5.489,1.364,8.253,2.072,1.461-3.834-.04-8.823-3.271-10.509-4.2-2.191-10.3-.823-12.689,3.021a2.165,2.165,0,0,1-2.779,1.174c-2.382-.57-4.8-.965-7.4-1.472a17.061,17.061,0,0,1,6.884-8.351c6.429-4.088,18.2-4.012,24.508.189a10.191,10.191,0,0,1,4.706,6.986M1630.966,270.2a24.316,24.316,0,0,0-3.784-.19,6.529,6.529,0,0,0-5.35,9c1.184,2.881,3.792,4.222,7.466,3.664a12.053,12.053,0,0,0,7.732-4.359c.75-.941.463-2.722.637-4.121a1.892,1.892,0,0,0-1.431-2.213C1634.579,271.413,1632.922,270.837,1630.966,270.2Z" transform="translate(-1072.724 -231.657)" fill="#fff"/>
      <path id="Path_3611" data-name="Path 3611" d="M669.486,268.59a11.37,11.37,0,0,1,6.995,11.07c.027,6.965.221,13.93.332,20.895.037,2.323.154,2.436,2.378,2.055.3-.051.6-.1.9-.118,2.756-.195,2.911-.053,2.915,2.662,0,1.274-.03,2.548,0,3.821.026,1.086-.474,1.541-1.539,1.509-4.538-.137-9.079-.224-13.613-.435-.425-.02-.993-.711-1.176-1.208a4.776,4.776,0,0,1-.047-1.694c-2.773,1.3-5.262,2.9-7.985,3.656-5.692,1.583-12.2.336-16.013-5.125-5.295-7.584-2.511-19.484,8.746-21.752a22.22,22.22,0,0,1,13.161,1.471,10.116,10.116,0,0,0,1.2.4,1.916,1.916,0,0,0,.506.008c1.4-4.321-.081-9.249-3.411-10.638s-9.625-1.6-12.549,3.109a2.44,2.44,0,0,1-3.028,1.161c-2.334-.5-4.673-.969-7.167-1.483,3.124-7.078,8.59-10.421,15.69-11.1,4.584-.437,9.224-.276,13.7,1.735m-17.44,24.242c-1.8,2.19-2.457,4.6-1.152,7.243a6.087,6.087,0,0,0,6.4,3.494,13.519,13.519,0,0,0,8.713-4.372,2.384,2.384,0,0,0,.563-1.287c.573-3.9.007-4.814-3.771-6.1a28.418,28.418,0,0,0-2.963-.856C657.053,290.334,654.433,290.569,652.046,292.832Z" transform="translate(-455.327 -244.885)" fill="#fff"/>
      <path id="Path_3612" data-name="Path 3612" d="M372.621,303.622c-3.195,3.6-6.87,6.073-11.6,6.861-12.614,2.1-22.911-5.119-24.754-17.54-1.086-7.323-.015-14.142,4.71-20.094a18.1,18.1,0,0,1,12.4-6.869c5.693-.689,11.122.084,15.861,3.735a20.542,20.542,0,0,1,8.125,15.262c.3,3.836.606,7.819-.985,11.5-1.047,2.425-2.433,4.7-3.757,7.142m-20.5-28.017c-1.169,1.277-2.664,2.382-3.45,3.863a18.923,18.923,0,0,0-.541,16.815,9.016,9.016,0,0,0,8.4,5.943,8.56,8.56,0,0,0,8.419-5.245,20.227,20.227,0,0,0,.6-16.037C363.516,275.172,357.644,272.806,352.122,275.6Z" transform="translate(-261.941 -244.31)" fill="#fff"/>
      <path id="Path_3613" data-name="Path 3613" d="M487.577,301.672c2.619-2.863,2.016-6.107-1.533-7.242a136.918,136.918,0,0,0-13.695-3.608c-10.613-2.215-12.363-14.516-6.119-20.8,3.748-3.772,8.664-4.807,13.819-3.811a64.206,64.206,0,0,1,7.835,2.555c-.079.072.168-.051.166-.168-.055-2.568,1.675-2.4,3.44-2.339,5.488.175,4.772-1.056,4.748,5.025-.011,2.722-.263,5.442-.315,8.164-.023,1.2-.382,1.838-1.678,1.762-1.029-.06-2.066.012-3.093-.057-1.715-.115-2.866-.58-3.411-2.662-.767-2.937-3.556-4.164-6.229-4.689a16.472,16.472,0,0,0-6.447.289,3.875,3.875,0,0,0-3.186,4.1,4.052,4.052,0,0,0,3.359,3.8c3.865,1.03,7.774,1.9,11.65,2.889a53.238,53.238,0,0,1,5.39,1.619c4,1.49,6.018,4.619,6.484,8.688.939,8.216-5.311,15.148-13.612,15.579a23.047,23.047,0,0,1-8.929-.906,44.028,44.028,0,0,1-4.834-2.343c-.687,3.192-.687,3.192-4.085,3.192h-.728c-3.606,0-3.584,0-3.447-3.428.146-3.631.321-7.263.327-10.895,0-1.595.531-2.268,2.114-2.071.239.03.486,0,.728,0,1.392.035,3.061-.379,4.093.25.871.531.954,2.295,1.469,3.476,1.609,3.69,4.843,4.928,8.48,5.335A10.57,10.57,0,0,0,487.577,301.672Z" transform="translate(-342.525 -244.375)" fill="#fff"/>
      <path id="Path_3614" data-name="Path 3614" d="M763.413,303.026c1.545-.13,2.929-.314,4.316-.355,1.107-.033,1.485-.538,1.483-1.58q-.022-12.108,0-24.216c0-1.072-.441-1.595-1.521-1.522-1.205.082-2.418.117-3.612.284-1.39.193-2.257-.056-2.166-1.731a39.11,39.11,0,0,0,0-4.368c-.084-1.473.589-1.879,1.955-1.861q6.281.082,12.563,0c1.421-.02,1.953.5,1.906,1.914a45.16,45.16,0,0,0,.276,7.037c.488-.763.983-1.522,1.464-2.288a15.279,15.279,0,0,1,12.1-7.364c1.49-.145,2.265.261,2.2,1.965-.107,2.712-.029,5.432-.029,8.062a49.041,49.041,0,0,0-5.2.787c-5.7,1.5-8.854,5.5-9.62,11.1-.571,4.177-.337,8.462-.474,12.7-.042,1.3.761,1.5,1.785,1.431,1.689-.111,3.377-.236,5.067-.347,1.08-.071,1.541.452,1.521,1.523-.03,1.577-.059,3.159.012,4.733.062,1.385-.581,1.8-1.865,1.757-4.116-.152-8.233-.331-12.35-.347-3.024-.012-6.053.153-9.071.361-1.8.124-2.39-.6-2.243-2.313.108-1.265.039-2.547.023-3.822C761.917,303.639,762.2,303.011,763.413,303.026Z" transform="translate(-532.79 -245.069)" fill="#fff"/>
      <path id="Path_3615" data-name="Path 3615" d="M1557.38,247.716c0,2.731.029,5.279-.007,7.827-.015,1.141.415,1.689,1.6,1.647,1.151-.041,2.306.015,3.456,0,.943-.014,1.508.327,1.5,1.361q-.022,2.457,0,4.914c.007,1.03-.543,1.369-1.493,1.368q-10.009-.015-20.021,0c-1,0-1.431-.461-1.42-1.442.018-1.577.029-3.156,0-4.733-.022-1.118.55-1.5,1.584-1.47.969.028,1.945-.073,2.91.016,1.606.149,2.105-.523,2.087-2.1-.062-6.674-.026-13.349-.026-20.023,0-6.128-.051-12.257.033-18.384.026-1.723-.619-2.324-2.236-2.125-.3.037-.6,0-.907.032-3.446.32-3.475.321-3.438-3.238.047-5.128-.7-4.382,4.429-4.434,3.216-.033,6.436.094,9.645-.044,1.9-.082,2.353.636,2.342,2.422C1557.351,222.05,1557.38,234.792,1557.38,247.716Z" transform="translate(-1028.126 -206.88)" fill="#fff"/>
      <path id="Path_3616" data-name="Path 3616" d="M1825.141,238.106c-1.741-.1-3.311-.175-4.877-.315-1.06-.095-1.6.268-1.6,1.394.015,7.344-.066,14.69.058,22.032.051,2.936,2.076,4.185,5.034,3.478,3.282-.783,3.282-.783,3.282,2.592v.728c0,4.46-.31,5.032-4.673,5.628-4.094.558-8.122.3-11.48-2.682-1.963-1.74-2.4-4.013-2.408-6.423-.033-8.133-.011-16.267-.015-24.4,0-2.284-.011-2.284-2.276-2.06-3,.3-3.183.124-3.187-2.928v-.728c0-3.975,0-4.009,4.01-4.312,1.118-.084,1.475-.588,1.453-1.61a40.092,40.092,0,0,1,.044-4.185c.047-.575.39-1.466.809-1.613,2.9-1.015,5.864-1.871,9.076-2.862.109.923.248,1.6.259,2.283.033,2.063.062,4.129,0,6.19-.044,1.351.513,1.849,1.832,1.8,1.635-.064,3.278.021,4.913-.02,1.144-.028,1.683.412,1.65,1.6-.044,1.577-.051,3.157.007,4.734C1827.093,237.688,1826.536,238.211,1825.141,238.106Z" transform="translate(-1194.71 -215.118)" fill="#fff"/>
      <path id="Path_3617" data-name="Path 3617" d="M591.493,293.97c-4.568,1.614-8.89,1.637-13.111-.711-3.547-1.973-3.845-5.412-3.9-8.81-.124-7.578-.038-15.159-.04-22.739,0-2.672-.36-2.983-2.923-2.571-2.479.4-2.53.356-2.538-2.206,0-1.274.044-2.549-.01-3.82-.052-1.24.459-1.7,1.707-1.736,3.766-.119,3.765-.161,3.765-3.995,0-3.391.006-3.371,3.274-4.292,1.748-.492,3.484-1.037,5.2-1.619,1.194-.4,1.725-.045,1.718,1.212-.013,2.3.047,4.61-.013,6.912-.035,1.33.475,1.874,1.811,1.815,1.513-.067,3.037.071,4.546-.035,1.636-.116,2.167.582,2.054,2.131-.093,1.267-.007,2.546-.021,3.819-.022,1.99-.393,2.255-2.41,2.029-1.5-.168-3.011-.212-4.518-.3-.98-.055-1.443.415-1.441,1.41.013,7.095-.091,14.191.059,21.283.078,3.674,2.186,4.993,5.791,4.041.743-.2,1.484-.4,2.466-.668,0,2.646.07,5.056-.06,7.457C592.875,293.05,592.075,293.479,591.493,293.97Z" transform="translate(-410.136 -228.772)" fill="#fff"/>
      <path id="Path_3618" data-name="Path 3618" d="M1740.244,222.479l8.166-2.529a20.91,20.91,0,0,1,.24,2.085c.029,2,.105,4.009-.018,6-.1,1.725.608,2.256,2.229,2.149,1.511-.1,3.034.015,4.549-.027,1.155-.032,1.665.44,1.632,1.612-.044,1.637-.033,3.276,0,4.913.022,1.1-.51,1.548-1.559,1.486-1.566-.091-3.143-.111-4.7-.3-1.428-.171-2.149.142-2.138,1.776.058,6.552.007,13.1.047,19.656a15.458,15.458,0,0,0,.441,3.233,3.4,3.4,0,0,0,3.966,2.375c1.177-.2,2.338-.49,3.846-.812,0,2.683.022,5.188-.033,7.691,0,.267-.39.6-.677.775-3.351,2.075-10.956,1.647-14.132-.683a7.7,7.7,0,0,1-3.285-6.7c.04-8.311.018-16.623.015-24.934,0-2.34-.011-2.339-2.229-2.111-.244.024-.484.025-.728.032-2.837.086-2.866.059-2.87-2.724v-.546c0-4.406,0-4.435,4.32-4.726,1.078-.073,1.53-.492,1.508-1.555a25.766,25.766,0,0,1,.062-4.178C1738.988,223.762,1739.68,223.162,1740.244,222.479Z" transform="translate(-1150.206 -215.19)" fill="#fff"/>
      <path id="Path_3619" data-name="Path 3619" d="M995.429,268.919c1.879,0,3.588.1,5.274-.027,1.81-.139,2.429.471,2.411,2.345-.08,9.886-.036,19.774-.036,29.661,0,2.733,0,2.733,2.79,3.017,3.4.346,3.424.346,3.395,3.762-.04,4.835.626,4.216-4.283,4.2-3.205-.011-6.407-.3-9.612-.317-2.539-.01-5.076.192-7.611.345-1.336.08-1.87-.477-1.809-1.808a42.355,42.355,0,0,0,0-4.366c-.084-1.467.579-1.989,1.949-1.845,1.021.107,2.045.186,3.063.318,1.251.161,1.943-.171,1.936-1.618q-.049-12.192,0-24.384c0-1.146-.43-1.722-1.606-1.625-1.143.094-2.288.174-3.426.316-1.28.16-1.963-.234-1.906-1.653.063-1.575.049-3.155.006-4.73-.032-1.185.511-1.611,1.65-1.6C990.152,268.948,992.7,268.921,995.429,268.919Z" transform="translate(-675.237 -246.294)" fill="#fff"/>
      <path id="Path_3622" data-name="Path 3622" d="M1008.209,224.323c4.68.849,6.152,2.536,6.17,6.7a5.382,5.382,0,0,1-3.285,5.2,6.13,6.13,0,0,1-7-.74,5.793,5.793,0,0,1-1.927-6.1C1002.888,226.3,1004.92,224.64,1008.209,224.323Z" transform="translate(-685.431 -217.97)" fill="#fff"/>
    </g>
    <circle id="Ellipse_84" data-name="Ellipse 84" cx="51.5" cy="51.5" r="51.5" transform="translate(1148 2926)" fill="#fff"/>
    <g id="Group_2578" data-name="Group 2578">
      <path id="Path_3604" data-name="Path 3604" d="M1184.941,319.08a46.9,46.9,0,0,1-8.913,24.714,49.584,49.584,0,0,1-38.141,20.917,50.255,50.255,0,0,1-20.793-3.2,49.079,49.079,0,0,1-19.974-14.065,51.9,51.9,0,0,1-9.133-15.922,10.053,10.053,0,0,1-.6-2.75c5.146-1.072,10.151-1.844,15.185-2.531,11.039-1.508,22.086-2.988,33.162-4.18,8.668-.933,17.377-1.546,26.078-2.059C1169.487,319.552,1177.256,319.344,1184.941,319.08Z" transform="translate(64.248 2661.601)" fill="#fff"/>
      <path id="Path_3605" data-name="Path 3605" d="M1082.171,212.266c1.187-4.179,2.163-8.585,3.623-12.668a43.573,43.573,0,0,1,7.616-12.542,48.2,48.2,0,0,1,15.523-12.389,43.417,43.417,0,0,1,15.672-4.867,49.565,49.565,0,0,1,7.157-.664c5.747.264,11.462.888,16.911,2.979a53.089,53.089,0,0,1,16.19,9.509,44.789,44.789,0,0,1,8.884,10.77c-5.7.671-11.306.835-16.824,1.579a345.93,345.93,0,0,0-47.429,9.989C1100.344,206.536,1091.276,209.538,1082.171,212.266Z" transform="translate(67.579 2757)" fill="#fff"/>
      <path id="Path_3607" data-name="Path 3607" d="M1176.528,249.59a48.335,48.335,0,0,1,4.323,21.893,5.646,5.646,0,0,1-1.651-.1c-17.956-.348-35.867-.166-53.735,1.705-14.576,1.526-29.092,3.762-43.639,5.56-.288-1.635-.708-3.482-.828-5.129a42.17,42.17,0,0,1,.154-6.047c8.6-2.908,16.968-5.689,25.53-8.013a275.693,275.693,0,0,1,51.122-8.6C1164.083,250.382,1170.245,249.982,1176.528,249.59Z" transform="translate(68.363 2705.785)" fill="#fff"/>
      <path id="Path_3620" data-name="Path 3620" d="M1083.22,316.109c14.6-1.931,29.119-3.945,43.7-5.471a434.957,434.957,0,0,1,53.777-1.774c.484.009.969.067,1.617.1a13.741,13.741,0,0,1,.029,3.485c-7.82.346-15.516.461-23.193.913-8.7.512-17.41,1.126-26.078,2.059-11.076,1.192-22.123,2.672-33.162,4.18-5.034.687-10.012,1.738-15.159,2.666A59.466,59.466,0,0,1,1083.22,316.109Z" transform="translate(66.912 2668.24)" fill="#e0ece8"/>
      <path id="Path_3621" data-name="Path 3621" d="M1176.971,238.906c-6.21.488-12.5.8-18.779,1.286a275.694,275.694,0,0,0-51.122,8.6c-8.563,2.324-16.936,5.342-25.517,8.076a39.2,39.2,0,0,1,.2-4.055c9.127-2.881,18.2-5.734,27.346-8.308a345.928,345.928,0,0,1,47.429-9.989c5.518-.744,11.09-1.082,16.805-1.627C1174.629,234.847,1175.766,236.829,1176.971,238.906Z" transform="translate(67.974 2716.459)" fill="#e0ece8"/>
    </g>
  </g>
</svg>
