<svg xmlns="http://www.w3.org/2000/svg" width="109.989" height="135.723" viewBox="0 0 109.989 135.723">
  <g id="gallon_2_" data-name="gallon (2)" transform="translate(-47.895 2.5)">
    <path id="Path_2182" data-name="Path 2182" d="M154.263,17.368,138.016,1.122a3.83,3.83,0,0,0-5.416,0l-8.154,8.154A36.109,36.109,0,0,0,100.182,0,49.843,49.843,0,0,0,50.395,49.787v69.446a11.5,11.5,0,0,0,11.489,11.489h76.6a11.5,11.5,0,0,0,11.489-11.489V36.306a3.829,3.829,0,0,0-1.122-2.708l-2.7-2.7,8.115-8.115a3.829,3.829,0,0,0,0-5.416ZM142.309,119.233a3.834,3.834,0,0,1-3.83,3.83h-76.6a3.834,3.834,0,0,1-3.83-3.83V49.787A42.175,42.175,0,0,1,100.182,7.66a28.527,28.527,0,0,1,20.305,8.411l21.822,21.822ZM129.9,14.652l5.407-5.407,10.831,10.83-5.407,5.407Z" transform="translate(0)" fill="#01e193" stroke="#fff" stroke-width="5"/>
    <path id="Path_2183" data-name="Path 2183" d="M144.863,60A34.507,34.507,0,0,0,110.4,94.468a11.193,11.193,0,0,0,20.3,6.506l20.49-28.685A7.771,7.771,0,0,0,144.863,60Zm.091,7.837L124.464,96.522a3.534,3.534,0,0,1-6.41-2.054A26.839,26.839,0,0,1,144.863,67.66a.185.185,0,0,1,.056.006.182.182,0,0,1,.063.123A.171.171,0,0,1,144.954,67.837Z" transform="translate(-44.681 -44.681)" fill="#01e193" stroke="#fff" stroke-width="5"/>
  </g>
</svg>
