<svg xmlns="http://www.w3.org/2000/svg" width="157" height="50.31" viewBox="0 0 157 50.31">
    <g data-name="Group 108">
        <text transform="translate(61 32.317)" style="font-size:20px;font-family:EasyGroteskDemo-Bold,Easy Grotesk Demo;font-weight:700;fill:#3b3b3b"><tspan x="0" y="0">INFRIGHT</tspan></text>
        <path data-name="Path 1606" d="M44.763 21.5h-9.011A14.252 14.252 0 0 0 21.5 35.752v9.011A25.23 25.23 0 0 0 44.763 21.5z" transform="translate(5.546 5.547)" style="fill:#3b3b3b"/>
        <path data-name="Path 1607" d="M23.319 44.763v-9.011A14.252 14.252 0 0 0 9.067 21.5H.056a25.23 25.23 0 0 0 23.263 23.263z" transform="translate(-.056 5.547)" style="fill:#3b3b3b"/>
        <path data-name="Path 1608" d="M44.763 23.318A25.23 25.23 0 0 0 21.5.055v9.011a14.252 14.252 0 0 0 14.252 14.252z" transform="translate(5.546 -.055)" style="fill:#3b3b3b"/>
        <path data-name="Path 1609" d="M23.319.055A25.229 25.229 0 0 0 .056 23.318h9.011A14.252 14.252 0 0 0 23.319 9.066z" transform="translate(-.056 -.055)" style="fill:#3b3b3b"/>
        <path data-name="Path 1610" d="M13.583 21.676a18.113 18.113 0 0 0 8.094-8.094 18.114 18.114 0 0 0 8.094 8.094 18.113 18.113 0 0 0-8.094 8.094 18.113 18.113 0 0 0-8.094-8.094z" transform="translate(3.478 3.479)" style="fill:#3b3b3b"/>
    </g>
</svg>
