<svg xmlns="http://www.w3.org/2000/svg" width="131.815" height="132.189" viewBox="0 0 131.815 132.189">
  <g id="leaves-of-a-plant" transform="translate(-0.046)">
    <path id="Path_3535" data-name="Path 3535" d="M80.56,66.4a47.807,47.807,0,0,0-8.724,11.553c-2.742-9.9-6.2-17.157-9.692-22.47C78.175,1.919.046,0,.046,0S2.327,66.942,43.13,65.4A65.61,65.61,0,0,0,41.381,52.14c-.636-2.771-1.392-5.413-2.173-7.852a102.2,102.2,0,0,0-5.554-13.83c2.974,4,5.608,7.81,7.935,11.4A160.3,160.3,0,0,1,56,68.811c5.014,10.772,9.517,28.49,9.517,57.445a5.93,5.93,0,1,0,11.86,0A231.075,231.075,0,0,0,76.1,101.073c1.89-9.09,4.744-15.541,7.7-20.111A127.677,127.677,0,0,1,94.136,64.449c4.291-5.758,9.584-11.624,15.57-15.811,0,0-12.276,13.589-13.069,26.891,33.907,1.77,35.224-51.575,35.224-51.575S69.809,26.072,80.56,66.4Z" transform="translate(0 0)" fill="#01e193"/>
  </g>
</svg>
