<svg xmlns="http://www.w3.org/2000/svg" width="105" height="93" viewBox="0 0 105 93">
  <g id="Icon_3-01" data-name="Icon 3-01" transform="translate(-176.683 -216.599)">
    <path id="Path_1826" data-name="Path 1826" d="M653.243,216.6c1.024-.014,1.9,1.236,1.327,2-1.9,2.5-1.817,5.478-2.034,8.353a60.651,60.651,0,0,0,1.039,14.161,82.167,82.167,0,0,1,1.067,19.365,43.228,43.228,0,0,1-5.914,18.776,70.635,70.635,0,0,1-23.828,24.4,32.022,32.022,0,0,1-4.6,2.315c-1.414.589-2.048.244-2.452-1.208-1.226-4.5-2.337-9.029-3.159-13.629a99.252,99.252,0,0,1-1.644-22.155,61.353,61.353,0,0,1,6.851-26.41,51.717,51.717,0,0,1,22.573-21.925,47.624,47.624,0,0,1,10.053-3.867A6.407,6.407,0,0,1,653.243,216.6ZM618.38,295.485a2.393,2.393,0,0,0,.317-1.035c.274-2.041.635-4.083,1.082-6.1a94.535,94.535,0,0,1,16.66-36.028,12.769,12.769,0,0,1,1.284-1.5,1.106,1.106,0,0,1,1.644-.072,1.348,1.348,0,0,1,.188,2.185,74.971,74.971,0,0,0-5.034,7.145,91.108,91.108,0,0,0-11.8,28.02,81.533,81.533,0,0,0-1.9,13.715c-.014.23-.13.532.072.661.245.172.462-.129.707-.2.072-.029.13-.072.188-.1a57.8,57.8,0,0,0,12.549-9.431,64.553,64.553,0,0,0,12.03-15.038,42.949,42.949,0,0,0,4.89-13.212,59.477,59.477,0,0,0,.087-18.445c-.534-4.026-1.212-8.037-1.543-12.077A46.669,46.669,0,0,1,650.4,221c.029-.173.216-.359.043-.532-.2-.2-.4.014-.577.072a50.491,50.491,0,0,0-29.353,27.316A60.441,60.441,0,0,0,615.9,269.2,89.525,89.525,0,0,0,617,287.52C617.4,290.136,617.89,292.739,618.38,295.485Z" transform="translate(-373.146)" fill="#01e193"/>
    <path id="Path_1827" data-name="Path 1827" d="M231.295,639.211a69.619,69.619,0,0,1-24.074-3.837,48.744,48.744,0,0,1-27.968-25.141c-.865-1.76-1.63-3.548-2.337-5.366-.563-1.442-.115-2.164,1.428-2.438a67.177,67.177,0,0,1,16.833-.808,61.286,61.286,0,0,1,22.112,5.654,51.794,51.794,0,0,1,21.982,19.862,63.659,63.659,0,0,1,4.457,8.582c.635,1.471.216,2.207-1.37,2.481A68.808,68.808,0,0,1,231.295,639.211Zm6.823-8.5c-.216-.361-.447-.707-.649-1.053A48.528,48.528,0,0,0,211.721,608a63.872,63.872,0,0,0-25.011-3.606c-1.933.087-3.851.274-5.77.5-.923.115-.909.115-.577.938.519,1.284,1.1,2.553,1.731,3.794a45.767,45.767,0,0,0,14.914,17.439c8.251,5.7,17.554,8.294,27.434,9.087a73.626,73.626,0,0,0,14.482-.274c.159-.014.375.043.433-.159s-.159-.26-.288-.361a67.194,67.194,0,0,0-13.861-8.957,105.119,105.119,0,0,0-25.7-8.611c-.981-.2-1.442-.837-1.255-1.688a1.447,1.447,0,0,1,1.846-1.082,99.474,99.474,0,0,1,10.212,2.51c9.765,2.971,19.054,6.967,27.333,13.083C237.757,630.672,237.872,630.817,238.117,630.716Z" transform="translate(0 -329.612)" fill="#01e193"/>
  </g>
</svg>
