<svg xmlns="http://www.w3.org/2000/svg" width="108.674" height="132.189" viewBox="0 0 108.674 132.189">
  <path id="shield_5_" data-name="shield (5)" d="M63.935,2.864a20.377,20.377,0,0,0-11.2,0l-33.96,9.7A20.376,20.376,0,0,0,4,32.159v36.5a61.128,61.128,0,0,0,25.6,49.743l16.895,12.068a20.375,20.375,0,0,0,23.687,0l16.895-12.068a61.128,61.128,0,0,0,25.6-49.743v-36.5A20.376,20.376,0,0,0,97.9,12.567ZM83.358,44.126a6.791,6.791,0,0,1,.31,9.6L58.2,80.894a6.791,6.791,0,0,1-9.224.638L33.692,69.183A6.792,6.792,0,0,1,42.23,58.617L52.6,67,73.758,44.436A6.791,6.791,0,0,1,83.358,44.126Z" transform="translate(-4 -2.08)" fill="#01e193" fill-rule="evenodd"/>
</svg>
