<svg xmlns="http://www.w3.org/2000/svg" width="108.94" height="109" viewBox="0 0 108.94 109">
  <path id="transaction" d="M106.19,53.75a52.47,52.47,0,1,1-104.94,0,3.661,3.661,0,1,1,7.321,0A45.489,45.489,0,1,0,22.429,21.372H33.806a3.663,3.663,0,0,1,0,7.326H14.282a3.662,3.662,0,0,1-3.661-3.663V5.5a3.661,3.661,0,1,1,7.321,0v10A52.344,52.344,0,0,1,106.19,53.75ZM53.72,23.227a3.662,3.662,0,0,0-3.661,3.663v3.692a12.626,12.626,0,0,0-3.632,24.6L58.7,59.271a5.313,5.313,0,0,1-1.678,10.352H51.675A7.035,7.035,0,0,1,44.993,64.8a3.663,3.663,0,0,0-6.949,2.318,14.336,14.336,0,0,0,12.016,9.7v3.791a3.661,3.661,0,1,0,7.321,0V76.92a12.626,12.626,0,0,0,3.632-24.6L48.744,48.23a5.313,5.313,0,0,1,1.678-10.352h5.343A7.035,7.035,0,0,1,62.448,42.7,3.663,3.663,0,0,0,69.4,40.382a14.336,14.336,0,0,0-12.016-9.7V26.89a3.662,3.662,0,0,0-3.661-3.663Z" transform="translate(0.75 0.75)" fill="#01e193" stroke="#fff" stroke-width="4"/>
</svg>
