<svg xmlns="http://www.w3.org/2000/svg" width="719.908" height="419.251" viewBox="0 0 719.908 419.251">
  <g id="Go_Green_And_Reduce_Your_Carbon_Footprint" data-name="Go Green And Reduce Your Carbon Footprint" transform="translate(-60.4 -300)">
    <g id="Group_1180" data-name="Group 1180" transform="translate(630.693 300)">
      <g id="Group_1171" data-name="Group 1171">
        <g id="Group_1168" data-name="Group 1168" transform="translate(0 11.577)">
          <path id="Path_2881" data-name="Path 2881" d="M826.023,438.2a74.529,74.529,0,0,1-23-25.951,70.138,70.138,0,0,1-6.371-16.549,75.177,75.177,0,0,1-2.253-18.181,74.4,74.4,0,0,1,2.486-19.036,77.237,77.237,0,0,1,6.993-17.249A74.552,74.552,0,0,1,828.9,314.9l1.632,2.564a70.908,70.908,0,0,0-33.1,60.059,69.539,69.539,0,0,0,2.175,17.482,71.289,71.289,0,0,0,6.138,15.85A72.4,72.4,0,0,0,827.81,435.8Z" transform="translate(-794.4 -314.9)" fill="#e2e2e2"/>
        </g>
        <g id="Group_1169" data-name="Group 1169" transform="translate(44.287 80.727)">
          <path id="Path_2882" data-name="Path 2882" d="M881.08,471.341a73.4,73.4,0,0,1-29.68-6.216l1.243-2.8A71.084,71.084,0,0,0,951.784,403.9l3.03.311a74.3,74.3,0,0,1-73.734,67.13Z" transform="translate(-851.4 -403.9)" fill="#e2e2e2"/>
        </g>
        <g id="Group_1170" data-name="Group 1170" transform="translate(45.142)">
          <path id="Path_2883" data-name="Path 2883" d="M951.874,365.887a71.049,71.049,0,0,0-98.208-57.262l-1.165-2.8a74.04,74.04,0,0,1,102.326,59.749Z" transform="translate(-852.5 -300)" fill="#e2e2e2"/>
        </g>
        <path id="Path_2884" data-name="Path 2884" d="M848.669,479.862a.476.476,0,0,1,.311-.777l3.185-.544L855.35,478a.489.489,0,0,1,.544.622l-1.088,3.03-1.088,3.03a.484.484,0,0,1-.777.155l-2.02-2.486Z" transform="translate(-806.479 -339.697)" fill="#e2e2e2"/>
        <path id="Path_2885" data-name="Path 2885" d="M836.586,313.2a.494.494,0,0,1,.466-.7l3.186.078,3.186.078a.437.437,0,0,1,.389.7l-1.632,2.719-1.632,2.719a.507.507,0,0,1-.855,0L838.14,316Z" transform="translate(-803.798 -302.788)" fill="#e2e2e2"/>
        <path id="Path_2886" data-name="Path 2886" d="M977.573,384.81a.437.437,0,0,1,.389-.7l3.186-.155,3.186-.155a.494.494,0,0,1,.466.7l-1.476,2.8-1.476,2.8a.507.507,0,0,1-.855,0l-1.709-2.719Z" transform="translate(-835.233 -318.69)" fill="#e2e2e2"/>
      </g>
      <g id="Group_1175" data-name="Group 1175" transform="translate(13.908 12.227)" opacity="0.8">
        <g id="Group_1172" data-name="Group 1172" transform="translate(9.479 93.362)">
          <path id="Path_2887" data-name="Path 2887" d="M875.858,465.813A60.682,60.682,0,0,1,824.5,437.532l2.564-1.632a57.834,57.834,0,0,0,75.987,20.123,58.458,58.458,0,0,0,20.279-17.948l2.486,1.709a60.86,60.86,0,0,1-49.959,26.028Z" transform="translate(-824.5 -435.9)" fill="#e2e2e2"/>
        </g>
        <g id="Group_1173" data-name="Group 1173" transform="translate(66.275 1.836)">
          <path id="Path_2888" data-name="Path 2888" d="M947.87,403.022l-2.8-1.243A57.771,57.771,0,0,0,897.6,321.13l.311-3.03a60.808,60.808,0,0,1,55.009,60.526A58.194,58.194,0,0,1,947.87,403.022Z" transform="translate(-897.6 -318.1)" fill="#e2e2e2"/>
        </g>
        <g id="Group_1174" data-name="Group 1174" transform="translate(0 1.991)">
          <path id="Path_2889" data-name="Path 2889" d="M817.117,402.445a60.106,60.106,0,0,1-4.817-23.7A60.835,60.835,0,0,1,866.066,318.3l.311,3.03A57.877,57.877,0,0,0,819.759,401.2Z" transform="translate(-812.3 -318.3)" fill="#e2e2e2"/>
        </g>
        <path id="Path_2890" data-name="Path 2890" d="M823.3,432.562a.437.437,0,0,1,.7-.389l2.8,1.554,2.8,1.554a.507.507,0,0,1,0,.855l-2.8,1.632L824,439.4a.486.486,0,0,1-.7-.388v-6.449Z" transform="translate(-814.753 -341.686)" fill="#e2e2e2"/>
        <path id="Path_2891" data-name="Path 2891" d="M878.4,316.252a.478.478,0,0,1,.7-.466l2.875,1.4,2.875,1.4a.509.509,0,0,1,.078.855l-2.642,1.787-2.642,1.787a.5.5,0,0,1-.777-.388l-.233-3.186Z" transform="translate(-827.043 -315.737)" fill="#e2e2e2"/>
        <path id="Path_2892" data-name="Path 2892" d="M956.6,423.262a.437.437,0,0,1,.7-.388l2.8,1.554,2.8,1.554a.507.507,0,0,1,0,.855l-2.719,1.632-2.719,1.632a.458.458,0,0,1-.7-.389v-3.186Z" transform="translate(-844.484 -339.612)" fill="#e2e2e2"/>
      </g>
      <g id="Group_1179" data-name="Group 1179" transform="translate(26.165 26.483)" opacity="0.6">
        <g id="Group_1176" data-name="Group 1176" transform="translate(0 24.331)">
          <path id="Path_2893" data-name="Path 2893" d="M870.595,437.813a48.674,48.674,0,0,1-21.289-8,47.886,47.886,0,0,1-15.617-17.559,48.476,48.476,0,0,1-5.594-23.931,49.636,49.636,0,0,1,6.449-22.921l2.564,1.476a45.681,45.681,0,0,0-.855,43.976,45.49,45.49,0,0,0,34.653,24.008Z" transform="translate(-828.076 -365.4)" fill="#e2e2e2"/>
        </g>
        <g id="Group_1177" data-name="Group 1177" transform="translate(51.842 30.158)">
          <path id="Path_2894" data-name="Path 2894" d="M895.033,439.719l-.233-2.952a45.552,45.552,0,0,0,38.926-62.7l2.8-1.165a48.489,48.489,0,0,1-22.3,61.38A49.426,49.426,0,0,1,895.033,439.719Z" transform="translate(-894.8 -372.9)" fill="#e2e2e2"/>
        </g>
        <g id="Group_1178" data-name="Group 1178" transform="translate(10.974)">
          <path id="Path_2895" data-name="Path 2895" d="M917.41,356.939a45.653,45.653,0,0,0-72.879-3.186l-2.331-1.865a49.275,49.275,0,0,1,14.918-12.2,48.57,48.57,0,0,1,62.7,15.539Z" transform="translate(-842.2 -334.085)" fill="#e2e2e2"/>
        </g>
        <path id="Path_2896" data-name="Path 2896" d="M894.545,453.286a.374.374,0,0,1,.544.311v4.973a.349.349,0,0,1-.544.311l-2.1-1.243-2.1-1.243a.364.364,0,0,1,0-.622l2.176-1.165Z" transform="translate(-841.926 -360.659)" fill="#e2e2e2"/>
        <path id="Path_2897" data-name="Path 2897" d="M839.246,361.586a.374.374,0,0,1,.544.311v4.973a.349.349,0,0,1-.544.311l-2.1-1.243-2.1-1.243a.364.364,0,0,1,0-.622l2.176-1.165Z" transform="translate(-829.592 -340.207)" fill="#e2e2e2"/>
        <path id="Path_2898" data-name="Path 2898" d="M941.9,360.386a.374.374,0,0,1,.544.311l-.078,2.486-.078,2.486a.349.349,0,0,1-.544.311l-2.1-1.243-2.1-1.243a.364.364,0,0,1,0-.622l2.175-1.165Z" transform="translate(-852.453 -339.94)" fill="#e2e2e2"/>
      </g>
    </g>
    <g id="Group_1228" data-name="Group 1228" transform="translate(60.4 329.835)">
      <g id="Group_1181" data-name="Group 1181" transform="translate(364.863 99.296)">
        <path id="Path_2899" data-name="Path 2899" d="M835.581,475.524V741.091H530V466.2Z" transform="translate(-530 -466.2)" fill="#007cff"/>
        <path id="Path_2900" data-name="Path 2900" d="M835.581,475.524V741.091H530V466.2Z" transform="translate(-530 -466.2)" fill="#b6f2d8"/>
      </g>
      <path id="Path_2901" data-name="Path 2901" d="M238.644,347.4,68.1,451.2V728.735H429.7V446.075Z" transform="translate(-62.117 -340.407)" fill="#007cff"/>
      <path id="Path_2902" data-name="Path 2902" d="M238.644,347.4,68.1,451.2V728.735H429.7V446.075Z" transform="translate(-62.117 -340.407)" fill="#e1fff3" stroke="#024846" stroke-miterlimit="10" stroke-width="1"/>
      <path id="Path_2903" data-name="Path 2903" d="M133.513,754.615V534.5H366.447V756.324H741.022v15.228H60.4V754.381Z" transform="translate(-60.4 -382.137)" fill="#023735"/>
      <g id="Group_1182" data-name="Group 1182" transform="translate(387.628 213.821)">
        <rect id="Rectangle_370" data-name="Rectangle 370" width="61.924" height="166.038" fill="#01e193"/>
        <rect id="Rectangle_371" data-name="Rectangle 371" width="157.569" height="53.999" transform="translate(57.942 4.161) rotate(90)" fill="#e1fff3" stroke="#024846" stroke-miterlimit="10" stroke-width="1"/>
      </g>
      <g id="Group_1183" data-name="Group 1183" transform="translate(482.185 213.51)">
        <rect id="Rectangle_372" data-name="Rectangle 372" width="61.924" height="166.038" fill="#01e193"/>
        <rect id="Rectangle_373" data-name="Rectangle 373" width="157.569" height="53.999" transform="translate(57.942 4.181) rotate(90)" fill="#e1fff3" stroke="#024846" stroke-miterlimit="10" stroke-width="1"/>
      </g>
      <g id="Group_1184" data-name="Group 1184" transform="translate(569.05 213.51)">
        <rect id="Rectangle_374" data-name="Rectangle 374" width="61.924" height="166.038" fill="#01e193"/>
        <rect id="Rectangle_375" data-name="Rectangle 375" width="157.569" height="53.999" transform="translate(57.97 4.231) rotate(90)" fill="#e1fff3" stroke="#024846" stroke-miterlimit="10" stroke-width="1"/>
      </g>
      <path id="Path_2904" data-name="Path 2904" d="M60.4,452.847V440.183L238.481,339.1l248.707-.7,248.629,99.3v9.324H425.263L238.481,351.065Z" transform="translate(-60.4 -338.4)" fill="#01e193"/>
      <rect id="Rectangle_376" data-name="Rectangle 376" width="310.553" height="9.324" transform="translate(364.863 99.296)" fill="#01e193"/>
      <path id="Path_2905" data-name="Path 2905" d="M538.307,338.4l-248.707.7,186.783,98.6H786.936Z" transform="translate(-111.519 -338.4)" fill="#b6f2d8"/>
      <g id="Group_1186" data-name="Group 1186" transform="translate(364.572 98.985)">
        <g id="Group_1185" data-name="Group 1185">
          <path id="Path_2906" data-name="Path 2906" d="M529.916,466.422H840.547a.311.311,0,0,0,0-.622H529.916a.311.311,0,0,0,0,.622Z" transform="translate(-529.625 -465.8)" fill="#1a2e35"/>
        </g>
      </g>
      <g id="Group_1187" data-name="Group 1187" transform="translate(384.132 156.17)">
        <rect id="Rectangle_377" data-name="Rectangle 377" width="55.942" height="25.718" transform="translate(146.07)" fill="#fff" opacity="0.4"/>
        <rect id="Rectangle_378" data-name="Rectangle 378" width="55.942" height="25.718" fill="#fff" opacity="0.4"/>
        <path id="Path_2907" data-name="Path 2907" d="M559.9,565.118s7.459-16.083,17.637-11.732,14.063,9.091,19.113,3.652c5.128-5.439,3.263-17.637,3.263-17.637h7.07s-3.963,19.269-12.121,23.309c-5.439,2.719-12.82-9.867-19.191-6.06s-8.236,8.469-8.236,8.469H559.9Z" transform="translate(-555.938 -539.4)" fill="#fff" opacity="0.4"/>
        <path id="Path_2908" data-name="Path 2908" d="M756.3,565.118s6.837-16.083,16.161-11.732,12.82,9.091,17.482,3.652,3.03-17.637,3.03-17.637h6.449s-3.574,19.269-11.033,23.309c-4.973,2.719-11.732-9.867-17.559-6.06s-7.459,8.469-7.459,8.469H756.3Z" transform="translate(-599.741 -539.4)" fill="#fff" opacity="0.4"/>
        <path id="Path_2909" data-name="Path 2909" d="M554.8,565.118V539.4h56.019v5.9l-50.581-.544v20.357Z" transform="translate(-554.8 -539.4)" fill="#e1fff3" opacity="0.3"/>
        <rect id="Rectangle_379" data-name="Rectangle 379" width="55.942" height="25.718" transform="translate(73.035)" fill="#fff" opacity="0.4"/>
        <path id="Path_2910" data-name="Path 2910" d="M648.8,565.118V539.4h55.942v5.9l-50.581-.544v20.357Z" transform="translate(-575.765 -539.4)" fill="#e1fff3" opacity="0.3"/>
        <path id="Path_2911" data-name="Path 2911" d="M742.8,565.118V539.4h55.942v5.9l-50.58-.544v20.357Z" transform="translate(-596.73 -539.4)" fill="#e1fff3" opacity="0.3"/>
        <rect id="Rectangle_380" data-name="Rectangle 380" width="55.942" height="25.718" transform="translate(211.102)" fill="#fff" opacity="0.4"/>
        <path id="Path_2912" data-name="Path 2912" d="M826.5,565.118V539.4h55.942v5.9l-50.581-.544v20.357Z" transform="translate(-615.398 -539.4)" fill="#e1fff3" opacity="0.3"/>
      </g>
      <g id="Group_1221" data-name="Group 1221" transform="translate(84.068 161.065)">
        <rect id="Rectangle_381" data-name="Rectangle 381" width="207.061" height="228.35" transform="translate(0)" fill="#b7edd6"/>
        <g id="Group_1208" data-name="Group 1208" transform="translate(41.412 32.866)">
          <g id="Group_1192" data-name="Group 1192" transform="translate(50.289 60.526)">
            <rect id="Rectangle_382" data-name="Rectangle 382" width="67.441" height="84.068" transform="translate(0.291)" fill="#01ce80"/>
            <rect id="Rectangle_383" data-name="Rectangle 383" width="8.78" height="84.534" transform="translate(0.291)" opacity="0.3"/>
            <rect id="Rectangle_384" data-name="Rectangle 384" width="6.138" height="13.597" transform="translate(35.022 25.251)" fill="#fff"/>
            <g id="Group_1189" data-name="Group 1189" transform="translate(0 24.863)">
              <g id="Group_1188" data-name="Group 1188">
                <path id="Path_2913" data-name="Path 2913" d="M286.916,698.522h67.441a.311.311,0,0,0,0-.622H286.916c-.388.078-.388.622,0,.622Z" transform="translate(-286.625 -697.9)" fill="#1a2e35"/>
              </g>
            </g>
            <g id="Group_1191" data-name="Group 1191" transform="translate(0 54.543)">
              <g id="Group_1190" data-name="Group 1190">
                <path id="Path_2914" data-name="Path 2914" d="M286.916,736.722h67.829a.311.311,0,0,0,0-.622H286.916c-.388.078-.388.622,0,.622Z" transform="translate(-286.625 -736.1)" fill="#1a2e35"/>
              </g>
            </g>
            <rect id="Rectangle_385" data-name="Rectangle 385" width="6.138" height="13.597" transform="translate(35.022)" fill="#fff"/>
            <rect id="Rectangle_386" data-name="Rectangle 386" width="13.675" height="5.983" transform="translate(47.919 57.651)" fill="#fff"/>
          </g>
          <g id="Group_1193" data-name="Group 1193" transform="translate(3.652 156.792)">
            <path id="Path_2915" data-name="Path 2915" d="M226.6,789.8v21.988l10.023-10.722H379.818L388.675,810V789.8Zm35.274,7.07H246.723v-2.409h15.151Zm27.116,0H273.84v-2.409H288.99Zm27.116,0H300.956v-2.409h15.151Zm27.116,0H328.072v-2.409h15.151Zm26.495,0H354.566v-2.409h15.151Z" transform="translate(-226.6 -789.8)" fill="#1a2e35"/>
            <path id="Path_2916" data-name="Path 2916" d="M226.6,789.8v21.988l10.023-10.722H379.818L388.675,810V789.8Zm35.274,7.07H246.723v-2.409h15.151Zm27.116,0H273.84v-2.409H288.99Zm27.116,0H300.956v-2.409h15.151Zm27.116,0H328.072v-2.409h15.151Zm26.495,0H354.566v-2.409h15.151Z" transform="translate(-226.6 -789.8)" fill="#023735"/>
          </g>
          <g id="Group_1194" data-name="Group 1194" transform="translate(3.652 23.464)">
            <path id="Path_2917" data-name="Path 2917" d="M226.6,618.2v21.988l10.023-10.722H379.818l8.857,8.935V618.2Zm35.274,7.148H246.723V622.94h15.151Zm27.116,0H273.84V622.94H288.99Zm27.116,0H300.956V622.94h15.151Zm27.116,0H328.072V622.94h15.151Zm26.495,0H354.566V622.94h15.151Z" transform="translate(-226.6 -618.2)" fill="#1a2e35"/>
            <path id="Path_2918" data-name="Path 2918" d="M226.6,618.2v21.988l10.023-10.722H379.818l8.857,8.935V618.2Zm35.274,7.148H246.723V622.94h15.151Zm27.116,0H273.84V622.94H288.99Zm27.116,0H300.956V622.94h15.151Zm27.116,0H328.072V622.94h15.151Zm26.495,0H354.566V622.94h15.151Z" transform="translate(-226.6 -618.2)" fill="#023735"/>
          </g>
          <g id="Group_1195" data-name="Group 1195" transform="translate(7.303 144.749)">
            <rect id="Rectangle_387" data-name="Rectangle 387" width="9.401" height="11.888" fill="#73c9a2"/>
            <rect id="Rectangle_388" data-name="Rectangle 388" width="9.401" height="11.888" transform="translate(43.277)" fill="#73c9a2"/>
            <rect id="Rectangle_389" data-name="Rectangle 389" width="36.673" height="5.361" transform="translate(8.547)" fill="#73c9a2"/>
          </g>
          <g id="Group_1196" data-name="Group 1196" transform="translate(59.205 144.749)">
            <rect id="Rectangle_390" data-name="Rectangle 390" width="9.401" height="11.888" fill="#73c9a2"/>
            <rect id="Rectangle_391" data-name="Rectangle 391" width="9.401" height="11.888" transform="translate(43.199)" fill="#73c9a2"/>
            <rect id="Rectangle_392" data-name="Rectangle 392" width="36.673" height="5.361" transform="translate(8.547)" fill="#73c9a2"/>
          </g>
          <g id="Group_1197" data-name="Group 1197" transform="translate(112.349 144.749)">
            <rect id="Rectangle_393" data-name="Rectangle 393" width="9.401" height="11.888" fill="#73c9a2"/>
            <rect id="Rectangle_394" data-name="Rectangle 394" width="9.401" height="11.888" transform="translate(43.199)" fill="#73c9a2"/>
            <rect id="Rectangle_395" data-name="Rectangle 395" width="36.673" height="5.361" transform="translate(8.469)" fill="#73c9a2"/>
          </g>
          <rect id="Rectangle_396" data-name="Rectangle 396" width="48.25" height="41.024" transform="translate(7.925 103.725)" fill="#007cff"/>
          <rect id="Rectangle_397" data-name="Rectangle 397" width="48.25" height="41.024" transform="translate(7.925 103.725)" fill="#01ce80"/>
          <g id="Group_1199" data-name="Group 1199" transform="translate(7.634 125.48)">
            <g id="Group_1198" data-name="Group 1198">
              <path id="Path_2919" data-name="Path 2919" d="M232.016,750.122h47.706a.311.311,0,0,0,0-.622H232.016c-.388.078-.388.622,0,.622Z" transform="translate(-231.725 -749.5)" fill="#1a2e35"/>
            </g>
          </g>
          <rect id="Rectangle_398" data-name="Rectangle 398" width="6.138" height="8.547" transform="translate(44.365 106.522)" fill="#fff"/>
          <rect id="Rectangle_399" data-name="Rectangle 399" width="6.138" height="8.547" transform="translate(20.745 128.277)" fill="#fff"/>
          <g id="Group_1200" data-name="Group 1200" transform="translate(118.021 111.65)">
            <rect id="Rectangle_400" data-name="Rectangle 400" width="45.53" height="33.254" fill="#01ce80"/>
            <rect id="Rectangle_401" data-name="Rectangle 401" width="9.013" height="33.254" opacity="0.3"/>
            <rect id="Rectangle_402" data-name="Rectangle 402" width="8.78" height="11.111" transform="translate(15.073 4.118)" fill="#fff"/>
          </g>
          <g id="Group_1201" data-name="Group 1201" transform="translate(118.021 78.24)">
            <rect id="Rectangle_403" data-name="Rectangle 403" width="45.53" height="33.254" fill="#007cff"/>
            <rect id="Rectangle_404" data-name="Rectangle 404" width="45.53" height="33.254" fill="#01ce80"/>
            <rect id="Rectangle_405" data-name="Rectangle 405" width="9.013" height="33.254" opacity="0.3"/>
            <rect id="Rectangle_406" data-name="Rectangle 406" width="8.78" height="11.111" transform="translate(15.073 4.118)" fill="#fff"/>
          </g>
          <g id="Group_1204" data-name="Group 1204" transform="translate(7.867 70.471)">
            <rect id="Rectangle_407" data-name="Rectangle 407" width="45.53" height="33.487" transform="translate(2.622)" fill="#01ce80"/>
            <rect id="Rectangle_408" data-name="Rectangle 408" width="9.013" height="33.487" transform="translate(2.622)" opacity="0.3"/>
            <rect id="Rectangle_409" data-name="Rectangle 409" width="8.78" height="11.188" transform="translate(17.695 4.118)" fill="#fff"/>
            <g id="Group_1203" data-name="Group 1203" transform="translate(0 33.099)">
              <g id="Group_1202" data-name="Group 1202">
                <path id="Path_2920" data-name="Path 2920" d="M232.316,721.922h47.861a.311.311,0,0,0,0-.622H232.316a.311.311,0,0,0,0,.622Z" transform="translate(-232.025 -721.3)" fill="#1a2e35"/>
              </g>
            </g>
          </g>
          <g id="Group_1205" data-name="Group 1205">
            <rect id="Rectangle_410" data-name="Rectangle 410" width="7.303" height="195.174" fill="#1a2e35"/>
            <rect id="Rectangle_411" data-name="Rectangle 411" width="7.303" height="195.174" fill="#023735"/>
          </g>
          <g id="Group_1207" data-name="Group 1207" transform="translate(118.818 111.184)">
            <g id="Group_1206" data-name="Group 1206">
              <path id="Path_2921" data-name="Path 2921" d="M419.093,731.1H375.116a.311.311,0,0,0,0,.622h43.976a.311.311,0,0,0,0-.622Z" transform="translate(-374.825 -731.1)" fill="#1a2e35"/>
            </g>
          </g>
        </g>
        <rect id="Rectangle_412" data-name="Rectangle 412" width="207.061" height="32.943" transform="translate(0)" fill="#e1fff3" stroke="#024846" stroke-miterlimit="10" stroke-width="1"/>
        <rect id="Rectangle_413" data-name="Rectangle 413" width="7.925" height="227.263" transform="translate(0)" opacity="0.3"/>
        <g id="Group_1210" data-name="Group 1210" transform="translate(0.233 28.67)">
          <g id="Group_1209" data-name="Group 1209">
            <path id="Path_2922" data-name="Path 2922" d="M169.133,583.222H374.1a.311.311,0,0,0,0-.622H169.133c-.311,0-.311.622,0,.622Z" transform="translate(-168.9 -582.6)" fill="#1a2e35"/>
          </g>
        </g>
        <g id="Group_1212" data-name="Group 1212" transform="translate(0.233 23.387)">
          <g id="Group_1211" data-name="Group 1211">
            <path id="Path_2923" data-name="Path 2923" d="M169.133,576.422H374.1a.311.311,0,0,0,0-.622H169.133c-.311.078-.311.622,0,.622Z" transform="translate(-168.9 -575.8)" fill="#1a2e35"/>
          </g>
        </g>
        <g id="Group_1214" data-name="Group 1214" transform="translate(0.233 18.181)">
          <g id="Group_1213" data-name="Group 1213">
            <path id="Path_2924" data-name="Path 2924" d="M169.133,569.722H374.1a.311.311,0,0,0,0-.622H169.133c-.311,0-.311.622,0,.622Z" transform="translate(-168.9 -569.1)" fill="#1a2e35"/>
          </g>
        </g>
        <g id="Group_1216" data-name="Group 1216" transform="translate(0.233 12.898)">
          <g id="Group_1215" data-name="Group 1215">
            <path id="Path_2925" data-name="Path 2925" d="M169.133,562.922H374.1a.311.311,0,0,0,0-.622H169.133c-.311.078-.311.622,0,.622Z" transform="translate(-168.9 -562.3)" fill="#1a2e35"/>
          </g>
        </g>
        <g id="Group_1218" data-name="Group 1218" transform="translate(0.233 7.614)">
          <g id="Group_1217" data-name="Group 1217">
            <path id="Path_2926" data-name="Path 2926" d="M169.133,556.122H374.1a.311.311,0,0,0,0-.622H169.133c-.311.078-.311.622,0,.622Z" transform="translate(-168.9 -555.5)" fill="#1a2e35"/>
          </g>
        </g>
        <g id="Group_1220" data-name="Group 1220" transform="translate(0.233 2.409)">
          <g id="Group_1219" data-name="Group 1219">
            <path id="Path_2927" data-name="Path 2927" d="M169.133,549.422H374.1a.311.311,0,0,0,0-.622H169.133c-.311,0-.311.622,0,.622Z" transform="translate(-168.9 -548.8)" fill="#1a2e35"/>
          </g>
        </g>
      </g>
      <g id="Group_1226" data-name="Group 1226" transform="translate(66.741 111.728)">
        <g id="Group_1222" data-name="Group 1222">
          <rect id="Rectangle_414" data-name="Rectangle 414" width="52.678" height="23.62" fill="#b6f2d8"/>
          <path id="Path_2928" data-name="Path 2928" d="M146.3,505.9h6.371V487.639h46.307V482.2H146.3Z" transform="translate(-146.3 -482.2)" fill="#01e193"/>
        </g>
        <g id="Group_1223" data-name="Group 1223" transform="translate(63.012)">
          <rect id="Rectangle_415" data-name="Rectangle 415" width="52.678" height="23.62" fill="#b6f2d8"/>
          <path id="Path_2929" data-name="Path 2929" d="M227.4,505.9h6.371V487.639h46.307V482.2H227.4Z" transform="translate(-227.4 -482.2)" fill="#01e193"/>
        </g>
        <g id="Group_1224" data-name="Group 1224" transform="translate(126.024)">
          <rect id="Rectangle_416" data-name="Rectangle 416" width="52.678" height="23.62" fill="#b6f2d8"/>
          <path id="Path_2930" data-name="Path 2930" d="M308.5,505.9h6.371V487.639h46.307V482.2H308.5Z" transform="translate(-308.5 -482.2)" fill="#01e193"/>
        </g>
        <g id="Group_1225" data-name="Group 1225" transform="translate(189.114)">
          <rect id="Rectangle_417" data-name="Rectangle 417" width="52.678" height="23.62" fill="#b6f2d8"/>
          <path id="Path_2931" data-name="Path 2931" d="M389.7,505.9h6.371V487.639h46.307V482.2H389.7Z" transform="translate(-389.7 -482.2)" fill="#01e193"/>
        </g>
      </g>
      <g id="Group_1227" data-name="Group 1227" transform="translate(42.189 284.214)">
        <rect id="Rectangle_418" data-name="Rectangle 418" width="20.9" height="35.585" fill="#01e193"/>
        <path id="Path_2932" data-name="Path 2932" d="M131.025,716.763a3.963,3.963,0,1,1-3.963-3.963A3.979,3.979,0,0,1,131.025,716.763Z" transform="translate(-116.573 -706.118)" fill="#023735"/>
        <path id="Path_2933" data-name="Path 2933" d="M131.025,733.763a3.963,3.963,0,1,1-3.963-3.963A3.979,3.979,0,0,1,131.025,733.763Z" transform="translate(-116.573 -709.91)" fill="#e1fff3"/>
      </g>
    </g>
    <g id="Group_1229" data-name="Group 1229" transform="translate(680.74 353.26)">
      <text id="CO" transform="translate(0 24)" fill="#01e193" font-size="27" font-family="GTEestiDisplayTrial-Bd, GT Eesti Display Trial Bd"><tspan x="0" y="0">CO</tspan></text>
      <text id="_2" data-name="2" transform="translate(42.287 33.609)" fill="#01e193" font-size="14" font-family="GTEestiDisplayTrial-Bd, GT Eesti Display Trial Bd"><tspan x="0" y="0">2</tspan></text>
    </g>
  </g>
</svg>
