<svg xmlns="http://www.w3.org/2000/svg" width="597.842" height="543.554" viewBox="0 0 597.842 543.554">
  <g id="Group_2538" data-name="Group 2538" transform="translate(-950.71 -2890.225)">
    <g id="Group_2536" data-name="Group 2536" transform="translate(1414.254 2890.225)">
      <g id="Group_799" data-name="Group 799" transform="translate(-0.001)">
        <g id="Group_798" data-name="Group 798">
          <g id="Group_797" data-name="Group 797">
            <g id="Group_796" data-name="Group 796">
              <g id="Group_795" data-name="Group 795">
                <g id="Group_794" data-name="Group 794">
                  <g id="Group_793" data-name="Group 793">
                    <g id="Group_792" data-name="Group 792">
                      <g id="Group_787" data-name="Group 787" transform="translate(0.479 0.709)">
                        <g id="Group_786" data-name="Group 786">
                          <g id="Group_785" data-name="Group 785">
                            <path id="Path_2236" data-name="Path 2236" d="M942.057,496.824l10.749-13.791a66.9,66.9,0,0,0,35.29-19.572c23.425-24.744,24.135-63.887,1.825-89.543a66.635,66.635,0,0,0-98.771-1.927c-23.121,24.439-24.135,62.974-2.434,88.732a66.086,66.086,0,0,0,40.259,22.817h0Z" transform="translate(-873.1 -351.035)" fill="#fff"/>
                          </g>
                        </g>
                      </g>
                      <g id="Group_791" data-name="Group 791">
                        <g id="Group_790" data-name="Group 790">
                          <g id="Group_789" data-name="Group 789">
                            <g id="Group_788" data-name="Group 788">
                              <path id="Path_2237" data-name="Path 2237" d="M942.064,496.834a4.517,4.517,0,0,1-.812-.811l-2.535-2.535c-2.332-2.332-5.679-5.577-9.938-9.837a.308.308,0,0,1,0-.406.354.354,0,0,1,.2-.1h0v.507a66.691,66.691,0,0,1-29.713-12.575,71.176,71.176,0,0,1-14.806-15.313,66.692,66.692,0,0,1-9.938-22.107,68.381,68.381,0,0,1,9.532-53.746,68.9,68.9,0,0,1,22.614-20.89A65.732,65.732,0,0,1,937.8,350.4a69.236,69.236,0,0,1,16.529,1.521c2.637.71,5.273,1.42,7.91,2.231L966,355.674l1.927.71,1.825.913a68.682,68.682,0,0,1,23.932,19.977,64.816,64.816,0,0,1,11.865,26.67,69.025,69.025,0,0,1,.1,26.975,66.236,66.236,0,0,1-9.127,22.614c-1.115,1.521-2.231,3.144-3.245,4.665a47.732,47.732,0,0,1-3.549,4.158,54.39,54.39,0,0,1-7.5,7.1,65.473,65.473,0,0,1-29.1,13.589l.1-.1c-3.549,4.36-6.287,7.808-8.214,10.242-.913,1.115-1.623,1.927-2.13,2.637a12.545,12.545,0,0,0-.811,1.014s.2-.3.71-1.014a32.2,32.2,0,0,0,2.028-2.738c1.825-2.434,4.462-5.882,7.808-10.242l.1-.1a66.787,66.787,0,0,0,28.7-13.792,53.417,53.417,0,0,0,7.3-7.1c1.115-1.318,2.332-2.637,3.448-4.158,1.014-1.521,2.13-3.042,3.245-4.563a65.064,65.064,0,0,0,8.823-22.31,68.918,68.918,0,0,0-.1-26.569,64.712,64.712,0,0,0-11.763-26.163,68.4,68.4,0,0,0-23.526-19.572l-1.724-.913-1.825-.71-3.752-1.521c-2.535-.913-5.172-1.521-7.707-2.231a72.166,72.166,0,0,0-16.225-1.521,65.5,65.5,0,0,0-30.524,8.417,66.4,66.4,0,0,0-22.208,20.484,64.434,64.434,0,0,0-10.445,26.467,65.621,65.621,0,0,0,10.648,48.169,69.53,69.53,0,0,0,14.5,15.211,66.483,66.483,0,0,0,29.307,12.676c.1,0,.2.2.2.3a.218.218,0,0,1-.2.2h0l.2-.406c4.158,4.361,7.4,7.707,9.634,9.938,1.115,1.116,1.927,2.028,2.535,2.637C941.76,496.428,942.064,496.834,942.064,496.834Z" transform="translate(-872.628 -350.336)" fill="#1a2e35"/>
                            </g>
                          </g>
                        </g>
                      </g>
                    </g>
                  </g>
                </g>
              </g>
            </g>
          </g>
        </g>
      </g>
      <g id="Group_812" data-name="Group 812" transform="translate(34.754 49.248)">
        <g id="Group_804" data-name="Group 804">
          <g id="Group_801" data-name="Group 801">
            <g id="Group_800" data-name="Group 800">
              <path id="Path_2238" data-name="Path 2238" d="M937.12,414.72l-30.22-12.98.811-2.028,29.408,12.575L966.426,398.9l1.014,2.028Z" transform="translate(-906.9 -398.9)" fill="#fff"/>
            </g>
          </g>
          <g id="Group_803" data-name="Group 803" transform="translate(29.104 14.603)">
            <g id="Group_802" data-name="Group 802">
              <rect id="Rectangle_320" data-name="Rectangle 320" width="2.231" height="35.493" fill="#fff"/>
            </g>
          </g>
        </g>
        <g id="Group_811" data-name="Group 811" transform="translate(53.746 32.958)">
          <g id="Group_810" data-name="Group 810">
            <g id="Group_809" data-name="Group 809">
              <g id="Group_808" data-name="Group 808">
                <g id="Group_807" data-name="Group 807">
                  <g id="Group_806" data-name="Group 806">
                    <g id="Group_805" data-name="Group 805">
                      <path id="Path_2239" data-name="Path 2239" d="M959.9,436.065l1.521-1.724,3.245,2.637,4.868-5.577,1.623,1.521-6.49,7.2Z" transform="translate(-959.9 -431.4)" fill="#fff"/>
                    </g>
                  </g>
                </g>
              </g>
            </g>
          </g>
        </g>
      </g>
    </g>
    <g id="Group_2535" data-name="Group 2535" transform="translate(-13689 -10068.443)">
      <rect id="Rectangle_838" data-name="Rectangle 838" width="5.167" height="39.842" transform="translate(14687.081 13462.381)" fill="#01e193"/>
      <path id="Path_3516" data-name="Path 3516" d="M507.065,1340.43a444.156,444.156,0,1,0-.006.007" transform="translate(14184.9 12022.042)" fill="#2fb470" fill-rule="evenodd"/>
      <path id="Path_3517" data-name="Path 3517" d="M1592.368,591.687h66.385V964.226h-66.385ZM1535.79,512.32h37.53v80.3h-37.53Z" transform="translate(13511.65 12537.8)" fill="#01e193" fill-rule="evenodd" opacity="0.7"/>
      <rect id="Rectangle_839" data-name="Rectangle 839" width="66.37" height="340.833" transform="translate(14871.192 13161.194)" fill="#01e193" opacity="0.7"/>
      <path id="Path_3518" data-name="Path 3518" d="M759.975,737.76,831.1,762.986v340.833H687.31V762.986Z" transform="translate(14040.096 12398.208)" fill="#01e193" fill-rule="evenodd"/>
      <rect id="Rectangle_840" data-name="Rectangle 840" width="17.954" height="15.932" transform="translate(14747.374 13221.586)" fill="#fff"/>
      <rect id="Rectangle_841" data-name="Rectangle 841" width="17.954" height="15.932" transform="translate(14747.374 13336.729)" fill="#fff"/>
      <rect id="Rectangle_842" data-name="Rectangle 842" width="17.581" height="15.932" transform="translate(14776.271 13221.586)" fill="#fff"/>
      <rect id="Rectangle_843" data-name="Rectangle 843" width="17.581" height="15.932" transform="translate(14776.271 13336.729)" fill="#fff"/>
      <rect id="Rectangle_844" data-name="Rectangle 844" width="17.954" height="15.932" transform="translate(14747.374 13278.063)" fill="#fff"/>
      <rect id="Rectangle_845" data-name="Rectangle 845" width="17.581" height="15.932" transform="translate(14776.271 13278.063)" fill="#fff"/>
      <rect id="Rectangle_846" data-name="Rectangle 846" width="14.273" height="15.932" transform="translate(14882.92 13221.586)" fill="#fff"/>
      <rect id="Rectangle_847" data-name="Rectangle 847" width="14.273" height="15.932" transform="translate(14882.92 13278.063)" fill="#fff"/>
      <path id="Path_3519" data-name="Path 3519" d="M1342.828,554.232l56.585.256V927.027H1225.98V475.121l61.289-21.22,55.56,21.22Z" transform="translate(13704.604 12575)" fill="#01e193" fill-rule="evenodd"/>
      <rect id="Rectangle_848" data-name="Rectangle 848" width="58.381" height="75.026" transform="translate(14979.767 13401.163)" fill="#033735"/>
      <rect id="Rectangle_849" data-name="Rectangle 849" width="79.696" height="15.932" transform="translate(14952.386 13163.013)" fill="#fff"/>
      <rect id="Rectangle_850" data-name="Rectangle 850" width="25.592" height="15.932" transform="translate(15049.847 13163.013)" fill="#fff"/>
      <rect id="Rectangle_851" data-name="Rectangle 851" width="79.696" height="15.932" transform="translate(14952.386 13219.488)" fill="#fff"/>
      <rect id="Rectangle_852" data-name="Rectangle 852" width="25.592" height="15.932" transform="translate(15049.847 13219.488)" fill="#fff"/>
      <rect id="Rectangle_853" data-name="Rectangle 853" width="79.696" height="15.932" transform="translate(14952.386 13278.156)" fill="#fff"/>
      <rect id="Rectangle_854" data-name="Rectangle 854" width="25.592" height="15.932" transform="translate(15049.847 13278.156)" fill="#fff"/>
      <rect id="Rectangle_855" data-name="Rectangle 855" width="34.641" height="15.932" transform="translate(15122.92 13163.013)" fill="#fff"/>
      <rect id="Rectangle_856" data-name="Rectangle 856" width="34.641" height="15.932" transform="translate(15122.92 13219.488)" fill="#fff"/>
      <rect id="Rectangle_857" data-name="Rectangle 857" width="34.641" height="15.932" transform="translate(15122.92 13278.156)" fill="#fff"/>
      <rect id="Rectangle_858" data-name="Rectangle 858" width="34.641" height="15.932" transform="translate(15122.92 13393.3)" fill="#fff"/>
      <rect id="Rectangle_859" data-name="Rectangle 859" width="34.641" height="15.932" transform="translate(15122.92 13334.632)" fill="#fff"/>
      <rect id="Rectangle_860" data-name="Rectangle 860" width="14.273" height="15.932" transform="translate(14911.465 13221.586)" fill="#fff"/>
      <rect id="Rectangle_861" data-name="Rectangle 861" width="14.273" height="15.932" transform="translate(14911.465 13278.063)" fill="#fff"/>
      <path id="Path_3520" data-name="Path 3520" d="M755.7,1081.12v-2.757H736.23v18.69h1.509V1081.12Zm0-56.48v-2.754H736.23v16.5h1.509V1024.64Zm0-56.476V965.41H736.23v16.5h1.509V968.164Zm29.1,112.956v-2.757H765.334v18.69h1.509V1081.12Zm0-112.956V965.41H765.334v16.5h1.509V968.164Zm0,56.476v-2.754H765.334v16.5h1.509V1024.64Z" transform="translate(14009.628 12255.609)" fill="#033735" fill-rule="evenodd"/>
      <path id="Path_3521" data-name="Path 3521" d="M1358.923,804.907V802.15H1276.47v18.69h2.757V804.907Z" transform="translate(13673.158 12358.104)" fill="#033735" fill-rule="evenodd"/>
      <path id="Path_3522" data-name="Path 3522" d="M1563.209,804.907V802.15H1534.86v18.69h2.757V804.907Z" transform="translate(13512.229 12358.104)" fill="#033735" fill-rule="evenodd"/>
      <path id="Path_3523" data-name="Path 3523" d="M1358.923,954.637V951.88H1276.47v18.69h2.757V954.637Z" transform="translate(13673.158 12264.851)" fill="#033735" fill-rule="evenodd"/>
      <path id="Path_3524" data-name="Path 3524" d="M1358.923,1110.177v-2.757H1276.47v18.69h2.757v-15.932Z" transform="translate(13673.158 12167.979)" fill="#033735" fill-rule="evenodd"/>
      <path id="Path_3525" data-name="Path 3525" d="M1563.209,954.637V951.88H1534.86v18.69h2.757V954.637Z" transform="translate(13512.229 12264.851)" fill="#033735" fill-rule="evenodd"/>
      <path id="Path_3526" data-name="Path 3526" d="M1563.209,1110.177v-2.757H1534.86v18.69h2.757v-15.932Z" transform="translate(13512.229 12167.979)" fill="#033735" fill-rule="evenodd"/>
      <rect id="Rectangle_862" data-name="Rectangle 862" width="227.896" height="8.8" transform="translate(14851.191 13476.186)" fill="#15fcac"/>
      <rect id="Rectangle_863" data-name="Rectangle 863" width="252.831" height="8.8" transform="translate(14838.721 13484.707)" fill="#14cf8e" opacity="0.8"/>
      <rect id="Rectangle_864" data-name="Rectangle 864" width="277.767" height="8.8" transform="translate(14826.255 13493.227)" fill="#009f68" opacity="0.6"/>
      <rect id="Rectangle_866" data-name="Rectangle 866" width="60.576" height="38.507" transform="translate(15043.446 13328.657)" fill="#01e193"/>
      <rect id="Rectangle_869" data-name="Rectangle 869" width="79.696" height="15.932" transform="translate(14952.386 13106.536)" fill="#fff"/>
      <rect id="Rectangle_870" data-name="Rectangle 870" width="79.696" height="15.932" transform="translate(14952.386 13163.013)" fill="#fff"/>
      <path id="Path_3529" data-name="Path 3529" d="M1358.923,655.177V652.42H1276.47V671.11h2.757V655.177Z" transform="translate(13673.158 12451.358)" fill="#033735" fill-rule="evenodd"/>
      <rect id="Rectangle_873" data-name="Rectangle 873" width="35.376" height="69.689" transform="translate(14755.317 13432.338)" fill="#033735"/>
      <rect id="Rectangle_874" data-name="Rectangle 874" width="35.376" height="69.689" transform="translate(14808.188 13432.338)" fill="#033735"/>
      <path id="Path_3530" data-name="Path 3530" d="M879.96,737.76h55.906l74.607,25.226H951.082Z" transform="translate(13920.11 12398.208)" fill="#04c280" fill-rule="evenodd"/>
      <path id="Path_3531" data-name="Path 3531" d="M1388.47,453.9h43.2l49.9,21.22H1444.03Z" transform="translate(13603.403 12575)" fill="#04c280" fill-rule="evenodd"/>
      <rect id="Rectangle_878" data-name="Rectangle 878" width="17.954" height="15.932" transform="translate(14804.91 13221.586)" fill="#fff"/>
      <rect id="Rectangle_879" data-name="Rectangle 879" width="17.954" height="15.932" transform="translate(14804.91 13336.729)" fill="#fff"/>
      <rect id="Rectangle_880" data-name="Rectangle 880" width="17.581" height="15.932" transform="translate(14833.806 13221.586)" fill="#fff"/>
      <rect id="Rectangle_881" data-name="Rectangle 881" width="17.581" height="15.932" transform="translate(14833.806 13336.729)" fill="#fff"/>
      <rect id="Rectangle_882" data-name="Rectangle 882" width="17.954" height="15.932" transform="translate(14804.91 13278.063)" fill="#fff"/>
      <rect id="Rectangle_883" data-name="Rectangle 883" width="17.581" height="15.932" transform="translate(14833.806 13278.063)" fill="#fff"/>
      <path id="Path_3534" data-name="Path 3534" d="M908.244,1081.12v-2.757H888.77v18.69h1.509V1081.12Zm0-56.48v-2.754H888.77v16.5h1.509V1024.64Zm0-56.476V965.41H888.77v16.5h1.509V968.164Zm29.1,112.956v-2.757H917.87v18.69h1.509V1081.12Zm0-112.956V965.41H917.87v16.5h1.509V968.164Zm0,56.476v-2.754H917.87v16.5h1.509V1024.64Z" transform="translate(13914.623 12255.609)" fill="#033735" fill-rule="evenodd"/>
    </g>
    <g id="Layer_x0020_1" transform="translate(1463.25 2915.517)">
      <g id="_446433184" transform="translate(0 0)">
        <path id="_446434528" d="M11.6,2.115H1.262a.942.942,0,0,1,0-1.883H11.6A.942.942,0,0,1,11.6,2.115Z" transform="translate(-0.035 10.698)" fill="#033735" fill-rule="evenodd"/>
        <path id="_446434720" d="M8.6,2.261H1.327a.942.942,0,0,1,0-1.883H8.6a.942.942,0,0,1,0,1.883Z" transform="translate(2.97 17.392)" fill="#033735" fill-rule="evenodd"/>
        <path id="_446434480" d="M11.6,2.406H1.262a.942.942,0,0,1,0-1.883H11.6A.942.942,0,0,1,11.6,2.406Z" transform="translate(-0.035 24.087)" fill="#033735" fill-rule="evenodd"/>
        <path id="_446433664" d="M8.6,2.551H1.327a.942.942,0,0,1,0-1.883H8.6a.942.942,0,0,1,0,1.883Z" transform="translate(2.97 30.782)" fill="#033735" fill-rule="evenodd"/>
        <path id="_446433880" d="M11.6,2.7H1.262a.942.942,0,0,1,0-1.883H11.6A.942.942,0,0,1,11.6,2.7Z" transform="translate(-0.035 37.476)" fill="#033735" fill-rule="evenodd"/>
        <path id="_446433808" d="M19.45,78.82a19.127,19.127,0,0,1-8.515-36.252V8.548a8.515,8.515,0,0,1,17.031,0V42.567A19.127,19.127,0,0,1,19.45,78.82Z" transform="translate(-0.326 1.522)" fill="#033735" fill-rule="evenodd"/>
        <path id="_446434048" d="M16.992,73.85a16.615,16.615,0,0,0,7.4-31.493L23,41.664V6.09a6,6,0,0,0-12.008,0V41.664L9.6,42.357a16.615,16.615,0,0,0,7.4,31.493Z" transform="translate(2.132 3.981)" fill="#f9f9f9" fill-rule="evenodd"/>
        <path id="_446433928" d="M1.6,4.883C-.421,4.883.9.133,4.469.133a.942.942,0,0,1,0,1.883A1.95,1.95,0,0,0,2.544,3.941a.941.941,0,0,1-.941.941Z" transform="translate(14.655 6.129)" fill="#01e193" fill-rule="evenodd"/>
        <path id="_446434240" d="M9.98,46.656A9.45,9.45,0,0,1,6.07,28.6V1.463A.942.942,0,0,1,7.012.521H12.95a.942.942,0,0,1,.941.941V28.6A9.45,9.45,0,0,1,9.98,46.656Z" transform="translate(9.144 24.01)" fill="#01e193" fill-rule="evenodd"/>
        <g id="Group_2537" data-name="Group 2537" transform="translate(29.934 25.919)">
          <path id="_446433736" d="M2.093,20.268a.942.942,0,0,1-.941-.941V1.481a.942.942,0,0,1,1.883,0V19.326a.942.942,0,0,1-.941.942Z" transform="translate(7.783 -0.527)" fill="#01e193" fill-rule="evenodd"/>
          <path id="_446433952" d="M5.722,6.143a.943.943,0,0,1-.666-.276l-3.7-3.7A.942.942,0,0,1,2.691.838l3.03,3.031L8.753.838a.942.942,0,0,1,1.332,1.331l-3.7,3.7a.941.941,0,0,1-.666.277Z" transform="translate(4.154 -0.551)" fill="#01e193" fill-rule="evenodd"/>
          <path id="_446433304" d="M9.419,6.431c-.723,0-2.769-2.379-3.7-3.307L2.691,6.155A.942.942,0,0,1,1.359,4.823l3.7-3.7a.942.942,0,0,1,1.332,0l3.7,3.7a.943.943,0,0,1-.665,1.608Z" transform="translate(4.154 13.31)" fill="#01e193" fill-rule="evenodd"/>
          <path id="_446433136" d="M19.737,2.623H1.891a.942.942,0,0,1,0-1.883H19.737A.942.942,0,0,1,19.737,2.623Z" transform="translate(-0.938 8.194)" fill="#01e193" fill-rule="evenodd"/>
          <path id="_446432728" d="M5.9,9.95a.941.941,0,0,1-.666-.276l-3.7-3.7a.94.94,0,0,1,0-1.331l3.7-3.7A.942.942,0,0,1,6.566,2.28L3.535,5.311,6.566,8.342A.943.943,0,0,1,5.9,9.95Z" transform="translate(12.898 4.565)" fill="#01e193" fill-rule="evenodd"/>
          <path id="_446433400" d="M1.915,9.949a.943.943,0,0,1-.666-1.607L4.28,5.311,1.248,2.28A.942.942,0,0,1,2.581.949l3.7,3.7a.94.94,0,0,1,0,1.331l-3.7,3.7a.94.94,0,0,1-.666.276Z" transform="translate(-0.961 4.565)" fill="#01e193" fill-rule="evenodd"/>
        </g>
        <path id="_446432896" d="M8.189,14.419A7.132,7.132,0,1,1,12.8,1.849a.941.941,0,0,1-1.218,1.435,5.249,5.249,0,1,0,0,8.005A.942.942,0,0,1,12.8,12.725a7.136,7.136,0,0,1-4.615,1.694Z" transform="translate(33.391 7.092)" fill="#033735" fill-rule="evenodd"/>
        <path id="_446433352" d="M4.567,7.257C-.209,7.257-.209,0,4.567,0S9.342,7.257,4.567,7.257Zm0-5.373a1.745,1.745,0,0,0,0,3.49A1.745,1.745,0,0,0,4.567,1.883Z" transform="translate(30.048 0)" fill="#033735" fill-rule="evenodd"/>
        <path id="_446433016" d="M5.284,10.509A4.652,4.652,0,1,1,9.935,5.858a4.656,4.656,0,0,1-4.651,4.651Z" transform="translate(13.84 55.563)" fill="#e0ece8" fill-rule="evenodd"/>
      </g>
    </g>
  </g>
</svg>
