<svg xmlns="http://www.w3.org/2000/svg" width="831" height="317.602" viewBox="0 0 831 317.602">
  <g id="Drastically_Cut_Your_Energy_Costs" data-name="Drastically Cut Your Energy Costs" transform="translate(-42 -350.121)">
    <g id="Group_593" data-name="Group 593" transform="translate(53.681 443.787)">
      <g id="Group_592" data-name="Group 592">
        <path id="Path_2185" data-name="Path 2185" d="M459.819,462.6,56,519.5V685.869H863.639V519.5Z" transform="translate(-56 -462.6)" fill="#e1fff3" stroke="#024846" stroke-miterlimit="10" stroke-width="1"/>
      </g>
    </g>
    <g id="Group_594" data-name="Group 594" transform="translate(53.681 623.086)">
      <rect id="Rectangle_242" data-name="Rectangle 242" width="807.639" height="43.97" fill="#b6f2d8"/>
    </g>
    <g id="Group_595" data-name="Group 595" transform="translate(53.681 443.787)">
      <path id="Path_2186" data-name="Path 2186" d="M56,538.525l407.908-58.57L863.639,532.6V519.5L463.157,462.6,56,519.5Z" transform="translate(-56 -462.6)" fill="#baf4dc"/>
    </g>
    <g id="Group_597" data-name="Group 597" transform="translate(42 436.278)" opacity="0.4">
      <g id="Group_596" data-name="Group 596">
        <path id="Path_2187" data-name="Path 2187" d="M460.253,453.6,42,512.17l.417,9.512,417.836-55.567,412.663,55.567L873,511.253Z" transform="translate(-42 -453.6)" fill="#01ce80"/>
      </g>
    </g>
    <g id="Group_598" data-name="Group 598" transform="translate(177.914 551.917)">
      <rect id="Rectangle_243" data-name="Rectangle 243" width="108.297" height="115.139" transform="translate(0 0)" fill="#1a2e35"/>
    </g>
    <g id="Group_599" data-name="Group 599" transform="translate(618.944 551.917)">
      <rect id="Rectangle_244" data-name="Rectangle 244" width="108.297" height="115.139" transform="translate(0 0)" fill="#1a2e35"/>
    </g>
    <g id="Group_600" data-name="Group 600" transform="translate(177.914 551.917)">
      <rect id="Rectangle_245" data-name="Rectangle 245" width="108.297" height="17.104" transform="translate(0 0)" fill="#01ce80"/>
    </g>
    <g id="Group_601" data-name="Group 601" transform="translate(177.914 551.917)" opacity="0.3">
      <path id="Path_2188" data-name="Path 2188" d="M212.993,707.339V600.126H313.28V592.2H204.9V707.339Z" transform="translate(-204.9 -592.2)"/>
    </g>
    <g id="Group_602" data-name="Group 602" transform="translate(618.944 551.917)" opacity="0.3">
      <path id="Path_2189" data-name="Path 2189" d="M741.51,707.339V600.126H841.8V592.2H733.5V707.339Z" transform="translate(-733.5 -592.2)"/>
    </g>
    <g id="Group_643" data-name="Group 643" transform="translate(398.429 551.917)">
      <g id="Group_603" data-name="Group 603" transform="translate(0 0)">
        <rect id="Rectangle_246" data-name="Rectangle 246" width="108.297" height="115.139" fill="#01ce80"/>
      </g>
      <g id="Group_607" data-name="Group 607" transform="translate(14.1 81.098)">
        <g id="Group_604" data-name="Group 604">
          <rect id="Rectangle_247" data-name="Rectangle 247" width="20.942" height="12.515" fill="#1a2e35"/>
        </g>
        <g id="Group_605" data-name="Group 605" transform="translate(31.371)">
          <rect id="Rectangle_248" data-name="Rectangle 248" width="20.942" height="12.515" fill="#1a2e35"/>
        </g>
        <g id="Group_606" data-name="Group 606" transform="translate(62.659)">
          <rect id="Rectangle_249" data-name="Rectangle 249" width="20.942" height="12.515" fill="#1a2e35"/>
        </g>
      </g>
      <g id="Group_608" data-name="Group 608" transform="translate(0 0)" opacity="0.3">
        <path id="Path_2190" data-name="Path 2190" d="M477.293,707.339V600.126H577.5V592.2H469.2V707.339Z" transform="translate(-469.2 -592.2)"/>
      </g>
      <g id="Group_610" data-name="Group 610" transform="translate(0.167 6.508)">
        <g id="Group_609" data-name="Group 609">
          <path id="Path_2191" data-name="Path 2191" d="M577.53,600.334c0,.167-24.2.334-54.065.334s-54.065-.167-54.065-.334S493.6,600,523.465,600,577.53,600.083,577.53,600.334Z" transform="translate(-469.4 -600)" fill="#1a2e35"/>
        </g>
      </g>
      <g id="Group_612" data-name="Group 612" transform="translate(0.167 13.099)">
        <g id="Group_611" data-name="Group 611">
          <path id="Path_2192" data-name="Path 2192" d="M577.53,608.234c0,.167-24.2.334-54.065.334s-54.065-.167-54.065-.334,24.2-.334,54.065-.334S577.53,608.067,577.53,608.234Z" transform="translate(-469.4 -607.9)" fill="#1a2e35"/>
        </g>
      </g>
      <g id="Group_614" data-name="Group 614" transform="translate(0.167 19.69)">
        <g id="Group_613" data-name="Group 613">
          <path id="Path_2193" data-name="Path 2193" d="M577.53,616.134c0,.167-24.2.334-54.065.334s-54.065-.167-54.065-.334,24.2-.334,54.065-.334S577.53,615.967,577.53,616.134Z" transform="translate(-469.4 -615.8)" fill="#1a2e35"/>
        </g>
      </g>
      <g id="Group_616" data-name="Group 616" transform="translate(0.167 26.282)">
        <g id="Group_615" data-name="Group 615">
          <path id="Path_2194" data-name="Path 2194" d="M577.53,624.034c0,.167-24.2.334-54.065.334s-54.065-.167-54.065-.334,24.2-.334,54.065-.334C553.334,623.783,577.53,623.867,577.53,624.034Z" transform="translate(-469.4 -623.7)" fill="#1a2e35"/>
        </g>
      </g>
      <g id="Group_618" data-name="Group 618" transform="translate(0.167 32.956)">
        <g id="Group_617" data-name="Group 617">
          <path id="Path_2195" data-name="Path 2195" d="M577.53,632.034c0,.167-24.2.334-54.065.334s-54.065-.167-54.065-.334,24.2-.334,54.065-.334S577.53,631.867,577.53,632.034Z" transform="translate(-469.4 -631.7)" fill="#1a2e35"/>
        </g>
      </g>
      <g id="Group_620" data-name="Group 620" transform="translate(0.167 39.548)">
        <g id="Group_619" data-name="Group 619">
          <path id="Path_2196" data-name="Path 2196" d="M577.53,639.934c0,.167-24.2.334-54.065.334s-54.065-.167-54.065-.334,24.2-.334,54.065-.334S577.53,639.767,577.53,639.934Z" transform="translate(-469.4 -639.6)" fill="#1a2e35"/>
        </g>
      </g>
      <g id="Group_622" data-name="Group 622" transform="translate(0.167 46.139)">
        <g id="Group_621" data-name="Group 621">
          <path id="Path_2197" data-name="Path 2197" d="M577.53,647.834c0,.167-24.2.334-54.065.334S469.4,648,469.4,647.834s24.2-.334,54.065-.334S577.53,647.667,577.53,647.834Z" transform="translate(-469.4 -647.5)" fill="#1a2e35"/>
        </g>
      </g>
      <g id="Group_624" data-name="Group 624" transform="translate(0.167 52.814)">
        <g id="Group_623" data-name="Group 623">
          <path id="Path_2198" data-name="Path 2198" d="M577.53,655.834c0,.167-24.2.334-54.065.334S469.4,656,469.4,655.834s24.2-.334,54.065-.334S577.53,655.583,577.53,655.834Z" transform="translate(-469.4 -655.5)" fill="#1a2e35"/>
        </g>
      </g>
      <g id="Group_626" data-name="Group 626" transform="translate(0.167 59.405)">
        <g id="Group_625" data-name="Group 625">
          <path id="Path_2199" data-name="Path 2199" d="M577.53,663.734c0,.167-24.2.334-54.065.334s-54.065-.167-54.065-.334,24.2-.334,54.065-.334S577.53,663.567,577.53,663.734Z" transform="translate(-469.4 -663.4)" fill="#1a2e35"/>
        </g>
      </g>
      <g id="Group_628" data-name="Group 628" transform="translate(0.167 65.996)">
        <g id="Group_627" data-name="Group 627">
          <path id="Path_2200" data-name="Path 2200" d="M577.53,671.634c0,.167-24.2.334-54.065.334s-54.065-.167-54.065-.334,24.2-.334,54.065-.334S577.53,671.467,577.53,671.634Z" transform="translate(-469.4 -671.3)" fill="#1a2e35"/>
        </g>
      </g>
      <g id="Group_630" data-name="Group 630" transform="translate(0.167 72.587)">
        <g id="Group_629" data-name="Group 629">
          <path id="Path_2201" data-name="Path 2201" d="M577.53,679.534c0,.167-24.2.334-54.065.334s-54.065-.167-54.065-.334,24.2-.334,54.065-.334C553.334,679.283,577.53,679.367,577.53,679.534Z" transform="translate(-469.4 -679.2)" fill="#1a2e35"/>
        </g>
      </g>
      <g id="Group_632" data-name="Group 632" transform="translate(0.167 79.262)">
        <g id="Group_631" data-name="Group 631">
          <path id="Path_2202" data-name="Path 2202" d="M577.53,687.534c0,.167-24.2.334-54.065.334s-54.065-.167-54.065-.334,24.2-.334,54.065-.334S577.53,687.367,577.53,687.534Z" transform="translate(-469.4 -687.2)" fill="#1a2e35"/>
        </g>
      </g>
      <g id="Group_634" data-name="Group 634" transform="translate(0.167 85.603)">
        <g id="Group_633" data-name="Group 633">
          <path id="Path_2203" data-name="Path 2203" d="M577.53,695.134c0,.167-24.2.334-54.065.334s-54.065-.167-54.065-.334,24.2-.334,54.065-.334S577.53,694.967,577.53,695.134Z" transform="translate(-469.4 -694.8)" fill="#1a2e35"/>
        </g>
      </g>
      <g id="Group_636" data-name="Group 636" transform="translate(0.167 91.944)">
        <g id="Group_635" data-name="Group 635">
          <path id="Path_2204" data-name="Path 2204" d="M577.53,702.734c0,.167-24.2.334-54.065.334s-54.065-.167-54.065-.334,24.2-.334,54.065-.334S577.53,702.567,577.53,702.734Z" transform="translate(-469.4 -702.4)" fill="#1a2e35"/>
        </g>
      </g>
      <g id="Group_638" data-name="Group 638" transform="translate(0.167 98.285)">
        <g id="Group_637" data-name="Group 637">
          <path id="Path_2205" data-name="Path 2205" d="M577.53,710.334c0,.167-24.2.334-54.065.334s-54.065-.167-54.065-.334S493.6,710,523.465,710,577.53,710.167,577.53,710.334Z" transform="translate(-469.4 -710)" fill="#1a2e35"/>
        </g>
      </g>
      <g id="Group_640" data-name="Group 640" transform="translate(0.167 104.626)">
        <g id="Group_639" data-name="Group 639">
          <path id="Path_2206" data-name="Path 2206" d="M577.53,717.934c0,.167-24.2.334-54.065.334s-54.065-.167-54.065-.334,24.2-.334,54.065-.334S577.53,717.683,577.53,717.934Z" transform="translate(-469.4 -717.6)" fill="#1a2e35"/>
        </g>
      </g>
      <g id="Group_642" data-name="Group 642" transform="translate(0.167 110.967)">
        <g id="Group_641" data-name="Group 641">
          <path id="Path_2207" data-name="Path 2207" d="M577.53,725.534c0,.167-24.2.334-54.065.334s-54.065-.167-54.065-.334,24.2-.334,54.065-.334S577.53,725.283,577.53,725.534Z" transform="translate(-469.4 -725.2)" fill="#1a2e35"/>
        </g>
      </g>
    </g>
    <g id="Group_645" data-name="Group 645" transform="translate(178.08 563.014)">
      <g id="Group_644" data-name="Group 644">
        <path id="Path_2208" data-name="Path 2208" d="M313.23,605.834c0,.167-24.2.334-54.065.334S205.1,606,205.1,605.834s24.2-.334,54.065-.334C288.951,605.5,313.23,605.667,313.23,605.834Z" transform="translate(-205.1 -605.5)" fill="#1a2e35"/>
      </g>
    </g>
    <g id="Group_647" data-name="Group 647" transform="translate(178.08 556.256)">
      <g id="Group_646" data-name="Group 646">
        <path id="Path_2209" data-name="Path 2209" d="M313.23,597.734c0,.167-24.2.334-54.065.334s-54.065-.167-54.065-.334,24.2-.334,54.065-.334C288.951,597.4,313.23,597.567,313.23,597.734Z" transform="translate(-205.1 -597.4)" fill="#1a2e35"/>
      </g>
    </g>
    <g id="Group_740" data-name="Group 740" transform="translate(187.425 614.159)">
      <g id="Group_717" data-name="Group 717" transform="translate(0.667)">
        <g id="Group_655" data-name="Group 655" transform="translate(37.795 15.769)">
          <g id="Group_648" data-name="Group 648">
            <rect id="Rectangle_250" data-name="Rectangle 250" width="37.045" height="15.936" fill="#01ce80"/>
          </g>
          <g id="Group_649" data-name="Group 649" transform="translate(13.6 2.002)">
            <rect id="Rectangle_251" data-name="Rectangle 251" width="5.507" height="3.671" fill="#fff"/>
          </g>
          <g id="Group_650" data-name="Group 650" opacity="0.3">
            <rect id="Rectangle_252" data-name="Rectangle 252" width="22.193" height="15.936"/>
          </g>
          <g id="Group_652" data-name="Group 652" transform="translate(21.86)">
            <g id="Group_651" data-name="Group 651">
              <path id="Path_2210" data-name="Path 2210" d="M288.934,701.219c-.167,0-.334-3.5-.334-7.759,0-4.339.167-7.759.334-7.759s.334,3.5.334,7.759S289.1,701.219,288.934,701.219Z" transform="translate(-288.6 -685.7)" fill="#1a2e35"/>
            </g>
          </g>
          <g id="Group_653" data-name="Group 653" transform="translate(29.202)">
            <rect id="Rectangle_253" data-name="Rectangle 253" width="3.004" height="3.671" fill="#fff"/>
          </g>
          <g id="Group_654" data-name="Group 654" transform="translate(29.202 12.348)">
            <rect id="Rectangle_254" data-name="Rectangle 254" width="3.004" height="3.671" fill="#fff"/>
          </g>
        </g>
        <g id="Group_663" data-name="Group 663" transform="translate(0.584)">
          <g id="Group_656" data-name="Group 656">
            <rect id="Rectangle_255" data-name="Rectangle 255" width="37.045" height="15.936" fill="#01ce80"/>
          </g>
          <g id="Group_657" data-name="Group 657" transform="translate(13.683 2.002)">
            <rect id="Rectangle_256" data-name="Rectangle 256" width="5.507" height="3.671" fill="#fff"/>
          </g>
          <g id="Group_658" data-name="Group 658" opacity="0.3">
            <rect id="Rectangle_257" data-name="Rectangle 257" width="22.193" height="15.936"/>
          </g>
          <g id="Group_660" data-name="Group 660" transform="translate(21.86 0)">
            <g id="Group_659" data-name="Group 659">
              <path id="Path_2211" data-name="Path 2211" d="M244.334,682.319c-.167,0-.334-3.5-.334-7.759,0-4.339.167-7.759.334-7.759s.334,3.5.334,7.759S244.584,682.319,244.334,682.319Z" transform="translate(-244 -666.8)" fill="#1a2e35"/>
            </g>
          </g>
          <g id="Group_661" data-name="Group 661" transform="translate(29.202)">
            <rect id="Rectangle_258" data-name="Rectangle 258" width="3.004" height="3.671" fill="#fff"/>
          </g>
          <g id="Group_662" data-name="Group 662" transform="translate(29.202 12.348)">
            <rect id="Rectangle_259" data-name="Rectangle 259" width="3.004" height="3.671" fill="#fff"/>
          </g>
        </g>
        <g id="Group_671" data-name="Group 671" transform="translate(0.083 15.602)">
          <g id="Group_664" data-name="Group 664" transform="translate(0 0.083)">
            <rect id="Rectangle_260" data-name="Rectangle 260" width="37.045" height="15.936" fill="#01ce80"/>
          </g>
          <g id="Group_665" data-name="Group 665" transform="translate(13.683 2.086)">
            <rect id="Rectangle_261" data-name="Rectangle 261" width="5.507" height="3.671" fill="#fff"/>
          </g>
          <g id="Group_666" data-name="Group 666" transform="translate(0 0.083)" opacity="0.3">
            <rect id="Rectangle_262" data-name="Rectangle 262" width="22.193" height="15.936"/>
          </g>
          <g id="Group_668" data-name="Group 668" transform="translate(21.86)">
            <g id="Group_667" data-name="Group 667">
              <path id="Path_2212" data-name="Path 2212" d="M243.734,701.019c-.167,0-.334-3.5-.334-7.759,0-4.339.167-7.759.334-7.759s.334,3.5.334,7.759S243.984,701.019,243.734,701.019Z" transform="translate(-243.4 -685.5)" fill="#1a2e35"/>
            </g>
          </g>
          <g id="Group_669" data-name="Group 669" transform="translate(29.202 0.083)">
            <rect id="Rectangle_263" data-name="Rectangle 263" width="3.004" height="3.671" fill="#fff"/>
          </g>
          <g id="Group_670" data-name="Group 670" transform="translate(29.202 12.432)">
            <rect id="Rectangle_264" data-name="Rectangle 264" width="3.004" height="3.671" fill="#fff"/>
          </g>
        </g>
        <g id="Group_679" data-name="Group 679" transform="translate(22.694 15.769)">
          <g id="Group_672" data-name="Group 672">
            <rect id="Rectangle_265" data-name="Rectangle 265" width="37.045" height="15.936" fill="#01ce80"/>
          </g>
          <g id="Group_673" data-name="Group 673" transform="translate(13.683 2.002)">
            <rect id="Rectangle_266" data-name="Rectangle 266" width="5.507" height="3.671" fill="#fff"/>
          </g>
          <g id="Group_674" data-name="Group 674" opacity="0.3">
            <rect id="Rectangle_267" data-name="Rectangle 267" width="22.193" height="15.936"/>
          </g>
          <g id="Group_676" data-name="Group 676" transform="translate(21.943)">
            <g id="Group_675" data-name="Group 675">
              <path id="Path_2213" data-name="Path 2213" d="M270.934,701.219c-.167,0-.334-3.5-.334-7.759,0-4.339.167-7.759.334-7.759s.334,3.5.334,7.759A62.886,62.886,0,0,1,270.934,701.219Z" transform="translate(-270.6 -685.7)" fill="#1a2e35"/>
            </g>
          </g>
          <g id="Group_677" data-name="Group 677" transform="translate(29.202)">
            <rect id="Rectangle_268" data-name="Rectangle 268" width="3.004" height="3.671" fill="#fff"/>
          </g>
          <g id="Group_678" data-name="Group 678" transform="translate(29.202 12.348)">
            <rect id="Rectangle_269" data-name="Rectangle 269" width="3.004" height="3.671" fill="#fff"/>
          </g>
        </g>
        <g id="Group_687" data-name="Group 687" transform="translate(0 31.621)">
          <g id="Group_680" data-name="Group 680" transform="translate(0 0.083)">
            <rect id="Rectangle_270" data-name="Rectangle 270" width="37.045" height="15.936" fill="#01ce80"/>
          </g>
          <g id="Group_681" data-name="Group 681" transform="translate(13.683 2.086)">
            <rect id="Rectangle_271" data-name="Rectangle 271" width="5.507" height="3.671" fill="#fff"/>
          </g>
          <g id="Group_682" data-name="Group 682" transform="translate(0 0.083)" opacity="0.3">
            <rect id="Rectangle_272" data-name="Rectangle 272" width="22.193" height="15.936"/>
          </g>
          <g id="Group_684" data-name="Group 684" transform="translate(21.943)">
            <g id="Group_683" data-name="Group 683">
              <path id="Path_2214" data-name="Path 2214" d="M243.734,720.219c-.167,0-.334-3.5-.334-7.759,0-4.339.167-7.759.334-7.759s.334,3.5.334,7.759S243.9,720.219,243.734,720.219Z" transform="translate(-243.4 -704.7)" fill="#1a2e35"/>
            </g>
          </g>
          <g id="Group_685" data-name="Group 685" transform="translate(29.285 0.083)">
            <rect id="Rectangle_273" data-name="Rectangle 273" width="3.004" height="3.671" fill="#fff"/>
          </g>
          <g id="Group_686" data-name="Group 686" transform="translate(29.285 12.432)">
            <rect id="Rectangle_274" data-name="Rectangle 274" width="3.004" height="3.588" fill="#fff"/>
          </g>
        </g>
        <g id="Group_695" data-name="Group 695" transform="translate(22.611 31.705)">
          <g id="Group_688" data-name="Group 688" transform="translate(0 0.083)">
            <rect id="Rectangle_275" data-name="Rectangle 275" width="37.045" height="15.936" fill="#01ce80"/>
          </g>
          <g id="Group_689" data-name="Group 689" transform="translate(13.683 2.086)">
            <rect id="Rectangle_276" data-name="Rectangle 276" width="5.507" height="3.671" fill="#fff"/>
          </g>
          <g id="Group_690" data-name="Group 690" transform="translate(0 0.083)" opacity="0.3">
            <rect id="Rectangle_277" data-name="Rectangle 277" width="22.193" height="15.936"/>
          </g>
          <g id="Group_692" data-name="Group 692" transform="translate(21.943)">
            <g id="Group_691" data-name="Group 691">
              <path id="Path_2215" data-name="Path 2215" d="M270.834,720.319c-.167,0-.334-3.5-.334-7.759,0-4.339.167-7.759.334-7.759s.334,3.5.334,7.759A62.9,62.9,0,0,1,270.834,720.319Z" transform="translate(-270.5 -704.8)" fill="#1a2e35"/>
            </g>
          </g>
          <g id="Group_693" data-name="Group 693" transform="translate(29.202 0.083)">
            <rect id="Rectangle_278" data-name="Rectangle 278" width="3.004" height="3.671" fill="#fff"/>
          </g>
          <g id="Group_694" data-name="Group 694" transform="translate(29.202 12.432)">
            <rect id="Rectangle_279" data-name="Rectangle 279" width="3.004" height="3.588" fill="#fff"/>
          </g>
        </g>
        <g id="Group_703" data-name="Group 703" transform="translate(45.388 31.705)">
          <g id="Group_696" data-name="Group 696" transform="translate(0 0.083)">
            <rect id="Rectangle_280" data-name="Rectangle 280" width="37.045" height="15.936" fill="#01ce80"/>
          </g>
          <g id="Group_697" data-name="Group 697" transform="translate(13.683 2.086)">
            <rect id="Rectangle_281" data-name="Rectangle 281" width="5.507" height="3.671" fill="#fff"/>
          </g>
          <g id="Group_698" data-name="Group 698" transform="translate(0 0.083)" opacity="0.3">
            <rect id="Rectangle_282" data-name="Rectangle 282" width="22.193" height="15.936"/>
          </g>
          <g id="Group_700" data-name="Group 700" transform="translate(21.86)">
            <g id="Group_699" data-name="Group 699">
              <path id="Path_2216" data-name="Path 2216" d="M298.034,720.319c-.167,0-.334-3.5-.334-7.759,0-4.339.167-7.759.334-7.759s.334,3.5.334,7.759S298.2,720.319,298.034,720.319Z" transform="translate(-297.7 -704.8)" fill="#1a2e35"/>
            </g>
          </g>
          <g id="Group_701" data-name="Group 701" transform="translate(29.202 0.083)">
            <rect id="Rectangle_283" data-name="Rectangle 283" width="3.004" height="3.671" fill="#fff"/>
          </g>
          <g id="Group_702" data-name="Group 702" transform="translate(29.202 12.432)">
            <rect id="Rectangle_284" data-name="Rectangle 284" width="3.004" height="3.504" fill="#fff"/>
          </g>
        </g>
        <g id="Group_711" data-name="Group 711" transform="translate(37.629)">
          <g id="Group_704" data-name="Group 704">
            <rect id="Rectangle_285" data-name="Rectangle 285" width="37.045" height="15.936" fill="#01ce80"/>
          </g>
          <g id="Group_705" data-name="Group 705" transform="translate(13.6 2.002)">
            <rect id="Rectangle_286" data-name="Rectangle 286" width="5.507" height="3.671" fill="#fff"/>
          </g>
          <g id="Group_706" data-name="Group 706" opacity="0.3">
            <rect id="Rectangle_287" data-name="Rectangle 287" width="22.193" height="15.936"/>
          </g>
          <g id="Group_708" data-name="Group 708" transform="translate(21.86 0)">
            <g id="Group_707" data-name="Group 707">
              <path id="Path_2217" data-name="Path 2217" d="M288.734,682.319c-.167,0-.334-3.5-.334-7.759,0-4.339.167-7.759.334-7.759s.334,3.5.334,7.759S288.9,682.319,288.734,682.319Z" transform="translate(-288.4 -666.8)" fill="#1a2e35"/>
            </g>
          </g>
          <g id="Group_709" data-name="Group 709" transform="translate(29.202)">
            <rect id="Rectangle_288" data-name="Rectangle 288" width="3.004" height="3.671" fill="#fff"/>
          </g>
          <g id="Group_710" data-name="Group 710" transform="translate(29.202 12.348)">
            <rect id="Rectangle_289" data-name="Rectangle 289" width="3.004" height="3.671" fill="#fff"/>
          </g>
        </g>
        <g id="Group_713" data-name="Group 713" transform="translate(0.417 31.371)">
          <g id="Group_712" data-name="Group 712">
            <path id="Path_2218" data-name="Path 2218" d="M299.2,704.734c0,.167-18.272.334-40.8.334s-40.8-.167-40.8-.334,18.272-.334,40.8-.334S299.2,704.567,299.2,704.734Z" transform="translate(-217.6 -704.4)" fill="#1a2e35"/>
          </g>
        </g>
        <g id="Group_715" data-name="Group 715" transform="translate(0.334 15.185)">
          <g id="Group_714" data-name="Group 714">
            <path id="Path_2219" data-name="Path 2219" d="M292.423,685.334c0,.167-16.77.334-37.462.334s-37.462-.167-37.462-.334S234.27,685,254.962,685,292.423,685.167,292.423,685.334Z" transform="translate(-217.5 -685)" fill="#1a2e35"/>
          </g>
        </g>
        <g id="Group_716" data-name="Group 716" transform="translate(37.545)" opacity="0.3">
          <rect id="Rectangle_290" data-name="Rectangle 290" width="2.336" height="15.435"/>
        </g>
      </g>
      <g id="Group_728" data-name="Group 728" transform="translate(0 47.557)">
        <g id="Group_718" data-name="Group 718">
          <rect id="Rectangle_291" data-name="Rectangle 291" width="47.724" height="2.753" fill="#0a9b60"/>
        </g>
        <g id="Group_721" data-name="Group 721" transform="translate(0.083 2.753)">
          <g id="Group_719" data-name="Group 719">
            <rect id="Rectangle_292" data-name="Rectangle 292" width="4.255" height="3.254" fill="#0a9b60"/>
          </g>
          <g id="Group_720" data-name="Group 720" opacity="0.3">
            <rect id="Rectangle_293" data-name="Rectangle 293" width="4.255" height="0.751"/>
          </g>
        </g>
        <g id="Group_724" data-name="Group 724" transform="translate(21.693 2.753)">
          <g id="Group_722" data-name="Group 722">
            <rect id="Rectangle_294" data-name="Rectangle 294" width="4.255" height="3.254" fill="#0a9b60"/>
          </g>
          <g id="Group_723" data-name="Group 723" opacity="0.3">
            <rect id="Rectangle_295" data-name="Rectangle 295" width="4.255" height="0.751"/>
          </g>
        </g>
        <g id="Group_727" data-name="Group 727" transform="translate(43.469 2.753)">
          <g id="Group_725" data-name="Group 725">
            <rect id="Rectangle_296" data-name="Rectangle 296" width="4.255" height="3.254" fill="#0a9b60"/>
          </g>
          <g id="Group_726" data-name="Group 726" opacity="0.3">
            <rect id="Rectangle_297" data-name="Rectangle 297" width="4.255" height="0.751"/>
          </g>
        </g>
      </g>
      <g id="Group_739" data-name="Group 739" transform="translate(48.225 47.557)">
        <g id="Group_729" data-name="Group 729">
          <rect id="Rectangle_298" data-name="Rectangle 298" width="47.724" height="2.753" fill="#0a9b60"/>
        </g>
        <g id="Group_732" data-name="Group 732" transform="translate(0 2.753)">
          <g id="Group_730" data-name="Group 730">
            <rect id="Rectangle_299" data-name="Rectangle 299" width="4.255" height="3.254" fill="#0a9b60"/>
          </g>
          <g id="Group_731" data-name="Group 731" opacity="0.3">
            <rect id="Rectangle_300" data-name="Rectangle 300" width="4.255" height="0.751"/>
          </g>
        </g>
        <g id="Group_735" data-name="Group 735" transform="translate(21.693 2.753)">
          <g id="Group_733" data-name="Group 733">
            <rect id="Rectangle_301" data-name="Rectangle 301" width="4.255" height="3.254" fill="#0a9b60"/>
          </g>
          <g id="Group_734" data-name="Group 734" opacity="0.3">
            <rect id="Rectangle_302" data-name="Rectangle 302" width="4.255" height="0.751"/>
          </g>
        </g>
        <g id="Group_738" data-name="Group 738" transform="translate(43.386 2.753)">
          <g id="Group_736" data-name="Group 736">
            <rect id="Rectangle_303" data-name="Rectangle 303" width="4.255" height="3.254" fill="#0a9b60"/>
          </g>
          <g id="Group_737" data-name="Group 737" opacity="0.3">
            <rect id="Rectangle_304" data-name="Rectangle 304" width="4.255" height="0.751"/>
          </g>
        </g>
      </g>
    </g>
    <g id="Group_741" data-name="Group 741" transform="translate(294.804 607.734)">
      <rect id="Rectangle_305" data-name="Rectangle 305" width="13.099" height="23.779" fill="#375a64"/>
    </g>
    <g id="Group_742" data-name="Group 742" transform="translate(520.242 607.734)">
      <rect id="Rectangle_306" data-name="Rectangle 306" width="13.099" height="23.779" fill="#375a64"/>
    </g>
    <g id="Group_743" data-name="Group 743" transform="translate(734.917 607.734)">
      <rect id="Rectangle_307" data-name="Rectangle 307" width="13.099" height="23.779" fill="#375a64"/>
    </g>
    <g id="Group_746" data-name="Group 746" transform="translate(96.899 596.805)">
      <g id="Group_744" data-name="Group 744">
        <rect id="Rectangle_308" data-name="Rectangle 308" width="37.295" height="70.168" fill="#01ce80"/>
      </g>
      <g id="Group_745" data-name="Group 745" opacity="0.3">
        <path id="Path_2220" data-name="Path 2220" d="M111.388,716.251V649.5h33.791V646H107.8v70.251Z" transform="translate(-107.8 -646)"/>
      </g>
    </g>
    <g id="Group_749" data-name="Group 749" transform="translate(797.409 596.805)">
      <g id="Group_747" data-name="Group 747">
        <rect id="Rectangle_309" data-name="Rectangle 309" width="37.295" height="70.168" fill="#01ce80"/>
      </g>
      <g id="Group_748" data-name="Group 748" opacity="0.3">
        <path id="Path_2221" data-name="Path 2221" d="M950.988,716.251V649.5h33.707V646H947.4v70.251Z" transform="translate(-947.4 -646)"/>
      </g>
    </g>
    <g id="Group_751" data-name="Group 751" transform="translate(53.097 504.527)">
      <g id="Group_750" data-name="Group 750">
        <path id="Path_2222" data-name="Path 2222" d="M55.634,697.929c-.167,0-.334-36.377-.334-81.265s.167-81.265.334-81.265.334,36.377.334,81.265S55.8,697.929,55.634,697.929Z" transform="translate(-55.3 -535.4)" fill="#1a2e35"/>
      </g>
    </g>
    <g id="Group_754" data-name="Group 754" transform="translate(163.48 640.274)">
      <g id="Group_752" data-name="Group 752" transform="translate(132.66)">
        <path id="Path_2223" data-name="Path 2223" d="M351.689,725.383H346.6v-25.7a1.584,1.584,0,0,1,1.585-1.585h1.836a1.584,1.584,0,0,1,1.585,1.585v25.7Z" transform="translate(-346.6 -698.1)" fill="#375a64"/>
      </g>
      <g id="Group_753" data-name="Group 753">
        <path id="Path_2224" data-name="Path 2224" d="M192.689,725.383H187.6v-25.7a1.584,1.584,0,0,1,1.585-1.585h1.836a1.584,1.584,0,0,1,1.585,1.585v25.7Z" transform="translate(-187.6 -698.1)" fill="#375a64"/>
      </g>
    </g>
    <g id="Group_756" data-name="Group 756" transform="translate(383.995 640.274)">
      <g id="Group_755" data-name="Group 755">
        <path id="Path_2225" data-name="Path 2225" d="M456.989,725.383H451.9v-25.7a1.584,1.584,0,0,1,1.585-1.585h1.836a1.584,1.584,0,0,1,1.585,1.585v25.7Z" transform="translate(-451.9 -698.1)" fill="#375a64"/>
      </g>
    </g>
    <g id="Group_759" data-name="Group 759" transform="translate(604.51 640.274)">
      <g id="Group_757" data-name="Group 757" transform="translate(132.66)">
        <path id="Path_2226" data-name="Path 2226" d="M880.289,725.383H875.2v-25.7a1.584,1.584,0,0,1,1.585-1.585h1.836a1.584,1.584,0,0,1,1.585,1.585v25.7Z" transform="translate(-875.2 -698.1)" fill="#375a64"/>
      </g>
      <g id="Group_758" data-name="Group 758">
        <path id="Path_2227" data-name="Path 2227" d="M721.289,725.383H716.2v-25.7a1.584,1.584,0,0,1,1.585-1.585h1.836a1.584,1.584,0,0,1,1.585,1.585v25.7Z" transform="translate(-716.2 -698.1)" fill="#375a64"/>
      </g>
    </g>
    <g id="Group_763" data-name="Group 763" transform="translate(436.391 518.377)">
      <g id="Group_760" data-name="Group 760" transform="translate(0 0)">
        <rect id="Rectangle_310" data-name="Rectangle 310" width="37.712" height="19.523" fill="#375a64"/>
      </g>
      <g id="Group_761" data-name="Group 761" transform="translate(0 0)" opacity="0.2">
        <path id="Path_2228" data-name="Path 2228" d="M536.143,552c-.584,0-21.443,19.523-21.443,19.523h7.926L544.986,552Z" transform="translate(-514.7 -552)" fill="#fff"/>
      </g>
      <g id="Group_762" data-name="Group 762" transform="translate(13.099 0)" opacity="0.2">
        <path id="Path_2229" data-name="Path 2229" d="M530.4,571.523S552.009,552,552.343,552h2.67v2.253l-20.858,17.271Z" transform="translate(-530.4 -552)" fill="#fff"/>
      </g>
    </g>
    <g id="Group_765" data-name="Group 765" transform="translate(328.845 518.377)">
      <g id="Group_764" data-name="Group 764" transform="translate(0 0)">
        <rect id="Rectangle_311" data-name="Rectangle 311" width="37.712" height="19.523" fill="#375a64"/>
      </g>
    </g>
    <g id="Group_768" data-name="Group 768" transform="translate(217.545 518.377)">
      <g id="Group_766" data-name="Group 766" transform="translate(0 0)">
        <rect id="Rectangle_312" data-name="Rectangle 312" width="37.712" height="19.523" fill="#375a64"/>
      </g>
      <g id="Group_767" data-name="Group 767" transform="translate(0 0)" opacity="0.2">
        <path id="Path_2230" data-name="Path 2230" d="M273.842,552c-.584,0-21.442,19.523-21.442,19.523h7.926L282.686,552Z" transform="translate(-252.4 -552)" fill="#fff"/>
      </g>
    </g>
    <g id="Group_772" data-name="Group 772" transform="translate(99.903 518.377)">
      <g id="Group_769" data-name="Group 769" transform="translate(0 0)">
        <rect id="Rectangle_313" data-name="Rectangle 313" width="37.712" height="19.523" fill="#375a64"/>
      </g>
      <g id="Group_770" data-name="Group 770" transform="translate(0 0)" opacity="0.2">
        <path id="Path_2231" data-name="Path 2231" d="M132.842,552c-.584,0-21.442,19.523-21.442,19.523h7.926L141.686,552Z" transform="translate(-111.4 -552)" fill="#fff"/>
      </g>
      <g id="Group_771" data-name="Group 771" transform="translate(13.183 0)" opacity="0.2">
        <path id="Path_2232" data-name="Path 2232" d="M127.2,571.523S148.809,552,149.143,552h2.67v2.253l-20.858,17.271Z" transform="translate(-127.2 -552)" fill="#fff"/>
      </g>
    </g>
    <g id="Group_774" data-name="Group 774" transform="translate(557.704 518.377)">
      <g id="Group_773" data-name="Group 773" transform="translate(0 0)">
        <rect id="Rectangle_314" data-name="Rectangle 314" width="37.712" height="19.523" fill="#375a64"/>
      </g>
    </g>
    <g id="Group_777" data-name="Group 777" transform="translate(673.176 518.377)">
      <g id="Group_775" data-name="Group 775" transform="translate(0 0)">
        <rect id="Rectangle_315" data-name="Rectangle 315" width="37.712" height="19.523" fill="#375a64"/>
      </g>
      <g id="Group_776" data-name="Group 776" transform="translate(0 0)" opacity="0.2">
        <path id="Path_2233" data-name="Path 2233" d="M819.942,552c-.584,0-21.442,19.523-21.442,19.523h7.926L828.786,552Z" transform="translate(-798.5 -552)" fill="#fff"/>
      </g>
    </g>
    <g id="Group_781" data-name="Group 781" transform="translate(785.812 518.377)">
      <g id="Group_778" data-name="Group 778" transform="translate(0 0)">
        <rect id="Rectangle_316" data-name="Rectangle 316" width="37.712" height="19.523" fill="#375a64"/>
      </g>
      <g id="Group_779" data-name="Group 779" transform="translate(0 0)" opacity="0.2">
        <path id="Path_2234" data-name="Path 2234" d="M954.942,552c-.584,0-21.442,19.523-21.442,19.523h7.926L963.786,552Z" transform="translate(-933.5 -552)" fill="#fff"/>
      </g>
      <g id="Group_780" data-name="Group 780" transform="translate(13.099 0)" opacity="0.2">
        <path id="Path_2235" data-name="Path 2235" d="M949.2,571.523S970.809,552,971.143,552h2.67v2.253l-20.858,17.271Z" transform="translate(-949.2 -552)" fill="#fff"/>
      </g>
    </g>
    <g id="Group_782" data-name="Group 782" transform="translate(294.804 590.464)" opacity="0.3">
      <rect id="Rectangle_317" data-name="Rectangle 317" width="12.432" height="12.432"/>
    </g>
    <g id="Group_783" data-name="Group 783" transform="translate(520.659 590.464)" opacity="0.3">
      <rect id="Rectangle_318" data-name="Rectangle 318" width="12.432" height="12.432"/>
    </g>
    <g id="Group_784" data-name="Group 784" transform="translate(735.251 590.464)" opacity="0.3">
      <rect id="Rectangle_319" data-name="Rectangle 319" width="12.432" height="12.432"/>
    </g>
    <g id="Group_813" data-name="Group 813" transform="translate(735.024 350.121)">
      <g id="Group_799" data-name="Group 799">
        <g id="Group_798" data-name="Group 798">
          <g id="Group_797" data-name="Group 797">
            <g id="Group_796" data-name="Group 796">
              <g id="Group_795" data-name="Group 795">
                <g id="Group_794" data-name="Group 794">
                  <g id="Group_793" data-name="Group 793">
                    <g id="Group_792" data-name="Group 792">
                      <g id="Group_787" data-name="Group 787" transform="translate(0.394 0.583)">
                        <g id="Group_786" data-name="Group 786">
                          <g id="Group_785" data-name="Group 785">
                            <path id="Path_2236" data-name="Path 2236" d="M929.835,470.984l8.844-11.347a54.822,54.822,0,1,0-52.73-18.355,54.373,54.373,0,0,0,33.123,18.773h0Z" transform="translate(-873.1 -351.035)" fill="#fff"/>
                          </g>
                        </g>
                      </g>
                      <g id="Group_791" data-name="Group 791">
                        <g id="Group_790" data-name="Group 790">
                          <g id="Group_789" data-name="Group 789">
                            <g id="Group_788" data-name="Group 788">
                              <path id="Path_2237" data-name="Path 2237" d="M929.757,470.868a3.718,3.718,0,0,1-.668-.667L927,468.114c-1.919-1.919-4.672-4.589-8.176-8.093a.254.254,0,0,1,0-.334.291.291,0,0,1,.167-.083h0v.417a54.871,54.871,0,0,1-24.446-10.346,58.559,58.559,0,0,1-12.181-12.6,54.87,54.87,0,0,1-8.176-18.189,56.26,56.26,0,0,1,7.843-44.22,56.69,56.69,0,0,1,18.606-17.187,54.081,54.081,0,0,1,25.614-7.092,56.964,56.964,0,0,1,13.6,1.252c2.169.584,4.339,1.168,6.508,1.836l3.087,1.251,1.585.584,1.5.751a56.507,56.507,0,0,1,19.69,16.436,53.328,53.328,0,0,1,9.762,21.943,56.79,56.79,0,0,1,.083,22.193,54.5,54.5,0,0,1-7.509,18.606c-.918,1.252-1.836,2.586-2.67,3.838a39.27,39.27,0,0,1-2.92,3.421,44.745,44.745,0,0,1-6.174,5.84,53.868,53.868,0,0,1-23.946,11.18l.083-.083c-2.92,3.588-5.173,6.424-6.758,8.427-.751.918-1.335,1.585-1.752,2.169a10.347,10.347,0,0,0-.667.834s.167-.25.584-.834a26.478,26.478,0,0,0,1.669-2.253c1.5-2,3.671-4.839,6.424-8.427l.083-.083a54.95,54.95,0,0,0,23.612-11.347,43.951,43.951,0,0,0,6.007-5.84c.918-1.085,1.919-2.169,2.837-3.421.834-1.251,1.752-2.5,2.67-3.755a53.533,53.533,0,0,0,7.259-18.355,56.7,56.7,0,0,0-.083-21.86,53.241,53.241,0,0,0-9.678-21.526,56.274,56.274,0,0,0-19.357-16.1l-1.418-.751-1.5-.584-3.087-1.251c-2.086-.751-4.255-1.251-6.341-1.836a59.378,59.378,0,0,0-13.349-1.251,53.894,53.894,0,0,0-25.114,6.925A54.628,54.628,0,0,0,882.7,375.169a53.015,53.015,0,0,0-8.594,21.776,53.99,53.99,0,0,0,8.761,39.631A57.2,57.2,0,0,0,894.8,449.091a54.7,54.7,0,0,0,24.112,10.429c.083,0,.167.167.167.25a.179.179,0,0,1-.167.167h0l.167-.334c3.421,3.588,6.091,6.341,7.926,8.177.918.918,1.585,1.669,2.086,2.169C929.506,470.534,929.757,470.868,929.757,470.868Z" transform="translate(-872.628 -350.336)" fill="#1a2e35"/>
                            </g>
                          </g>
                        </g>
                      </g>
                    </g>
                  </g>
                </g>
              </g>
            </g>
          </g>
        </g>
      </g>
      <g id="Group_812" data-name="Group 812" transform="translate(28.595 40.519)">
        <g id="Group_804" data-name="Group 804">
          <g id="Group_801" data-name="Group 801">
            <g id="Group_800" data-name="Group 800">
              <path id="Path_2238" data-name="Path 2238" d="M931.763,411.916,906.9,401.236l.668-1.669,24.2,10.346L955.876,398.9l.834,1.669Z" transform="translate(-906.9 -398.9)" fill="#fff"/>
            </g>
          </g>
          <g id="Group_803" data-name="Group 803" transform="translate(23.945 12.014)">
            <g id="Group_802" data-name="Group 802">
              <rect id="Rectangle_320" data-name="Rectangle 320" width="1.836" height="29.202" fill="#fff"/>
            </g>
          </g>
        </g>
        <g id="Group_811" data-name="Group 811" transform="translate(44.22 27.116)">
          <g id="Group_810" data-name="Group 810">
            <g id="Group_809" data-name="Group 809">
              <g id="Group_808" data-name="Group 808">
                <g id="Group_807" data-name="Group 807">
                  <g id="Group_806" data-name="Group 806">
                    <g id="Group_805" data-name="Group 805">
                      <path id="Path_2239" data-name="Path 2239" d="M959.9,435.238l1.252-1.418,2.67,2.169,4-4.589,1.335,1.251-5.34,5.924Z" transform="translate(-959.9 -431.4)" fill="#fff"/>
                    </g>
                  </g>
                </g>
              </g>
            </g>
          </g>
        </g>
      </g>
    </g>
    <g id="Group_821" data-name="Group 821" transform="translate(770.21 366.861)">
      <g id="Group_818" data-name="Group 818" transform="translate(0 5.59)">
        <path id="Path_2244" data-name="Path 2244" d="M950.51,445.015H918.972a4.131,4.131,0,0,1-4.172-4.172V381.272a4.131,4.131,0,0,1,4.172-4.172H950.51a4.131,4.131,0,0,1,4.172,4.172v59.572A4.184,4.184,0,0,1,950.51,445.015Zm-31.538-67.331a3.561,3.561,0,0,0-3.588,3.588v59.572a3.561,3.561,0,0,0,3.588,3.588H950.51a3.561,3.561,0,0,0,3.588-3.588V381.272a3.561,3.561,0,0,0-3.588-3.588Z" transform="translate(-914.8 -377.1)" fill="#1a2e35"/>
      </g>
      <g id="Group_819" data-name="Group 819" transform="translate(10.596)">
        <path id="Path_2245" data-name="Path 2245" d="M943.519,370.4H930.086a2.6,2.6,0,0,0-2.586,2.586v3.254h18.606v-3.254A2.547,2.547,0,0,0,943.519,370.4Z" transform="translate(-927.5 -370.4)" fill="#1a2e35"/>
      </g>
      <g id="Group_820" data-name="Group 820" transform="translate(2.503 13.349)">
        <path id="Path_2246" data-name="Path 2246" d="M948.754,443.886H921.721a3.917,3.917,0,0,1-3.921-3.921V386.4h34.959v53.564A4.044,4.044,0,0,1,948.754,443.886Z" transform="translate(-917.8 -386.4)" fill="#01ce80"/>
      </g>
    </g>
    <g id="Group_817" data-name="Group 817" transform="translate(781.678 397.1)">
      <path id="Path_2242" data-name="Path 2242" d="M797.587,453.807V447.8l-8.594,8.594L780.4,447.8v6.007l8.594,8.594Z" transform="translate(-780.4 -447.8)" fill="#e0ece8" opacity="0.25"/>
      <path id="Path_2243" data-name="Path 2243" d="M797.587,465.907V459.9l-8.594,8.594L780.4,459.9v6.007l8.594,8.594Z" transform="translate(-780.4 -449.804)" fill="#e0ece8"/>
    </g>
  </g>
</svg>
