<?xml version="1.0" standalone="no"?>
<!DOCTYPE svg PUBLIC "-//W3C//DTD SVG 1.1//EN" "http://www.w3.org/Graphics/SVG/1.1/DTD/svg11.dtd" >
<svg>
<metadata>
Created by FontForge 20120731 at Fri May 10 16:10:48 2024
 By fw_worker
Copyright (c) 2023 by Olivia Wood &#38; Alexander Ru:tten, under exclusive license to TypeMates. All rights reserved.
</metadata>
<defs>
<font id="EasyGroteskDemo-Regular" horiz-adv-x="627" >
  <font-face 
    font-family="Easy Grotesk Demo"
    font-weight="400"
    font-stretch="normal"
    units-per-em="1000"
    panose-1="0 0 0 0 0 0 0 0 0 0"
    ascent="800"
    descent="-200"
    x-height="515"
    cap-height="700"
    bbox="-32 -210 985 741"
    underline-thickness="35"
    underline-position="-109"
    unicode-range="U+0020-03C0"
  />
<missing-glyph horiz-adv-x="742" 
d="M92 0v700h232l24 -301l7 -153h19l8 153l24 301h238v-700h-154v382h-19l-9 -114l-38 -268h-125l-36 268l-8 114h-21v-382h-142zM92 -181v140h85q26 0 36 -15.5t10 -54.5t-10 -54.5t-36 -15.5h-85zM133 -117h45v12h-45v-12zM234 -181v140h111v-42h-58v-13h49v-32h-49v-13
h58v-40h-111zM354 -181v140h63l6 -60v-33h6v33l8 60h61v-140h-41v75h-7v-23l-9 -52h-31l-8 52v23h-9v-75h-39zM578 -186q-42 0 -56 15.5t-14 59.5q0 43 14.5 58t55.5 15q42 0 57 -15t15 -58q0 -44 -15 -59.5t-57 -15.5zM572 -149h12v75h-12v-75z" />
    <glyph glyph-name=".notdef" horiz-adv-x="742" 
d="M92 0v700h232l24 -301l7 -153h19l8 153l24 301h238v-700h-154v382h-19l-9 -114l-38 -268h-125l-36 268l-8 114h-21v-382h-142zM92 -181v140h85q26 0 36 -15.5t10 -54.5t-10 -54.5t-36 -15.5h-85zM133 -117h45v12h-45v-12zM234 -181v140h111v-42h-58v-13h49v-32h-49v-13
h58v-40h-111zM354 -181v140h63l6 -60v-33h6v33l8 60h61v-140h-41v75h-7v-23l-9 -52h-31l-8 52v23h-9v-75h-39zM578 -186q-42 0 -56 15.5t-14 59.5q0 43 14.5 58t55.5 15q42 0 57 -15t15 -58q0 -44 -15 -59.5t-57 -15.5zM572 -149h12v75h-12v-75z" />
    <glyph glyph-name=".null" horiz-adv-x="0" 
 />
    <glyph glyph-name="nonmarkingreturn" horiz-adv-x="333" 
 />
    <glyph glyph-name="space" unicode=" " horiz-adv-x="237" 
 />
    <glyph glyph-name="space" unicode="&#xa0;" horiz-adv-x="237" 
 />
    <glyph glyph-name="exclam" unicode="!" horiz-adv-x="268" 
d="M99 188l-5 512h80l-5 -512h-70zM134 -11q-25 0 -42 16.5t-17 40.5q0 23 17 39.5t42 16.5q24 0 41.5 -16.5t17.5 -39.5q0 -24 -17.5 -40.5t-41.5 -16.5z" />
    <glyph glyph-name="ampersand" unicode="&#x26;" horiz-adv-x="668" 
d="M270 -11q-99 0 -154.5 46t-55.5 118q0 59 35.5 97t101.5 76l4 2q-56 53 -85 101t-29 102q0 77 57 128.5t152 51.5q88 0 146.5 -45.5t58.5 -124.5q0 -60 -37 -105t-110 -86l-50 -28l170 -163q51 82 54 204h70q-5 -145 -79 -248l121 -115h-97l-68 65q-84 -76 -205 -76z
M134 159q0 -47 37 -79.5t105 -32.5q92 0 156 59l-189 182l-3 -2q-53 -30 -79.5 -58.5t-26.5 -68.5zM159 533q0 -40 25.5 -79.5t76.5 -90.5l53 31q113 66 113 144q0 52 -38 83.5t-96 31.5q-63 0 -98.5 -34t-35.5 -86z" />
    <glyph glyph-name="comma" unicode="," horiz-adv-x="266" 
d="M64 -91q38 4 61.5 30.5t21.5 56.5q-8 -7 -25 -7q-26 0 -43.5 17.5t-17.5 44.5q0 26 19.5 45t47.5 19q31 0 53 -26t22 -72q0 -64 -35.5 -105t-100.5 -51z" />
    <glyph glyph-name="hyphen" unicode="-" horiz-adv-x="403" 
d="M49 238v64h305v-64h-305z" />
    <glyph glyph-name="period" unicode="." horiz-adv-x="261" 
d="M131 -11q-28 0 -47.5 18.5t-19.5 44.5t19.5 45t47.5 19t47 -19t19 -45t-19 -44.5t-47 -18.5z" />
    <glyph glyph-name="zero" unicode="0" horiz-adv-x="664" 
d="M332 -11q-127 0 -206 100.5t-79 260.5t79 260.5t206 100.5t206 -100.5t79 -260.5t-79 -260.5t-206 -100.5zM332 57q94 0 151 81t57 212t-57 212t-151 81q-93 0 -150 -81.5t-57 -211.5t57 -211.5t150 -81.5z" />
    <glyph glyph-name="one" unicode="1" horiz-adv-x="379" 
d="M210 588q-19 -35 -64 -56t-94 -21h-23v71h19q129 0 175 118h64v-700h-77v588z" />
    <glyph glyph-name="two" unicode="2" horiz-adv-x="579" 
d="M69 53q109 76 169 122t115.5 101t78 104t22.5 104q0 69 -45 115.5t-122 46.5q-103 0 -145 -67t-12 -152l-72 -21q-23 52 -15.5 106t34 98.5t83 72.5t131.5 28q111 0 175.5 -63.5t64.5 -161.5q0 -114 -82.5 -206t-264.5 -214h336v-66h-451v53z" />
    <glyph glyph-name="three" unicode="3" horiz-adv-x="575" 
d="M292 -11q-97 0 -160 58.5t-68 150.5l73 10q8 -70 48.5 -112.5t107.5 -42.5q68 0 108 35t40 93q0 56 -41.5 91t-111.5 35h-58v63h59q75 0 120 38.5t45 104.5q0 63 -44.5 98.5t-117.5 35.5q-74 0 -122 -46t-55 -122l-75 7q6 98 77 161.5t176 63.5q108 0 172 -54t64 -138
q0 -72 -45.5 -121t-110.5 -58q62 -10 102.5 -53t40.5 -108q0 -80 -61.5 -135t-162.5 -55z" />
    <glyph glyph-name="four" unicode="4" horiz-adv-x="605" 
d="M397 0v156h-373v64l360 480h87v-480h116v-64h-116v-156h-74zM102 220h295v345q2 41 7 61l-4 2q-7 -23 -30 -51z" />
    <glyph glyph-name="five" unicode="5" horiz-adv-x="584" 
d="M293 -11q-95 0 -161.5 55t-80.5 143l72 15q13 -68 58 -108.5t114 -40.5q72 0 118.5 47t46.5 119q0 73 -44.5 121t-117.5 48q-55 0 -96.5 -25.5t-64.5 -63.5l-68 18l37 383h421v-66h-358l-27 -259q27 34 72.5 56t99.5 22q99 0 161.5 -65.5t62.5 -167.5q0 -99 -69.5 -165
t-175.5 -66z" />
    <glyph glyph-name="six" unicode="6" horiz-adv-x="590" 
d="M305 -11q-112 0 -186 85.5t-74 247.5q0 183 77.5 286t206.5 103q102 0 164 -53t81 -141l-74 -20q-37 150 -173 150q-99 0 -156 -95t-51 -254q22 56 74.5 91.5t118.5 35.5q92 0 156.5 -63.5t64.5 -154.5t-66.5 -154.5t-162.5 -63.5zM304 50q65 0 111 45.5t46 110.5
t-46 111t-111 46q-67 0 -114 -46t-47 -111q0 -64 46.5 -110t114.5 -46z" />
    <glyph glyph-name="seven" unicode="7" horiz-adv-x="535" 
d="M149 0q0 86 14 168t45 166.5t88.5 162t136.5 137.5h-405v66h491v-56q-159 -130 -223.5 -286.5t-62.5 -357.5h-84z" />
    <glyph glyph-name="eight" unicode="8" horiz-adv-x="590" 
d="M295 -11q-100 0 -164 54t-64 134q0 59 38.5 103.5t103.5 59.5q-70 14 -113.5 62.5t-43.5 112.5q0 82 67.5 139t175.5 57t175.5 -57t67.5 -139q0 -63 -43 -111.5t-113 -63.5q65 -14 102.5 -59t37.5 -104q0 -80 -64 -134t-163 -54zM295 50q66 0 110 37t44 92q0 56 -44 94
t-110 38t-110 -38t-44 -94q0 -55 44 -92t110 -37zM295 375q75 0 122 39.5t47 99.5t-45.5 98t-123.5 38t-123.5 -38t-45.5 -98t47 -99.5t122 -39.5z" />
    <glyph glyph-name="nine" unicode="9" horiz-adv-x="592" 
d="M271 -11q-92 0 -153 53t-80 131l75 19q17 -64 57.5 -101.5t103.5 -37.5q97 0 153.5 88t43.5 248q-25 -63 -77 -98t-122 -35q-99 0 -165 65t-66 162t70.5 162.5t170.5 65.5q115 0 190 -94.5t75 -276.5q0 -160 -75 -255.5t-201 -95.5zM281 318q72 0 119.5 47t47.5 117
q0 68 -49 117t-118 49q-71 0 -119 -47t-48 -118t47.5 -118t119.5 -47z" />
    <glyph glyph-name="question" unicode="?" horiz-adv-x="563" 
d="M240 187q-7 96 66 154l62 48q75 59 75 131q0 55 -43 91.5t-115 36.5q-96 0 -138 -66t-14 -147l-72 -24q-18 39 -18.5 81t16 81t46 70t76.5 49.5t104 18.5q109 0 172.5 -54t63.5 -137q0 -54 -23.5 -94t-71.5 -77l-66 -51q-52 -39 -52 -111h-68zM271 -11q-24 0 -41.5 16.5
t-17.5 39.5q0 24 17.5 40.5t41.5 16.5t41 -16.5t17 -40.5q0 -23 -17 -39.5t-41 -16.5z" />
    <glyph glyph-name="A" unicode="A" horiz-adv-x="690" 
d="M12 0l285 700h97l284 -700h-80l-69 173h-368l-69 -173h-80zM187 237h316l-136 339q-18 50 -20 60h-4q-2 -10 -20 -60z" />
    <glyph glyph-name="B" unicode="B" horiz-adv-x="697" 
d="M92 0v700h329q97 0 154 -51t57 -136q0 -60 -36.5 -104t-104.5 -61q64 -15 97.5 -58.5t33.5 -105.5q0 -84 -57 -134t-154 -50h-319zM406 63q66 0 102.5 34.5t36.5 93.5q0 58 -36.5 92.5t-102.5 34.5h-237v-255h237zM169 379h246q65 0 102.5 36t37.5 93t-37.5 93t-102.5 36
h-246v-258z" />
    <glyph glyph-name="C" unicode="C" horiz-adv-x="750" 
d="M390 -11q-146 0 -246 99.5t-100 261.5t100 261.5t246 99.5q126 0 211 -69t109 -183l-77 -16q-20 92 -84.5 145.5t-158.5 53.5q-108 0 -187.5 -78t-79.5 -214t79.5 -214t187.5 -78q94 0 158.5 53.5t84.5 145.5l77 -16q-24 -114 -109 -183t-211 -69z" />
    <glyph glyph-name="D" unicode="D" horiz-adv-x="741" 
d="M92 0v700h251q162 0 258.5 -95.5t96.5 -254.5t-96.5 -254.5t-258.5 -95.5h-251zM337 66q130 0 205.5 77t75.5 207t-75.5 207t-205.5 77h-167v-568h167z" />
    <glyph glyph-name="E" unicode="E" horiz-adv-x="615" 
d="M92 0v700h483v-66h-405v-253h349v-66h-349v-249h399v-66h-477z" />
    <glyph glyph-name="F" unicode="F" horiz-adv-x="596" 
d="M92 0v700h474v-66h-396v-258h360v-66h-360v-310h-78z" />
    <glyph glyph-name="G" unicode="G" horiz-adv-x="750" 
d="M383 -11q-149 0 -244 102t-95 259t97 259t250 102q131 0 213 -65t108 -164l-77 -24q-21 82 -84 133.5t-160 51.5q-118 0 -193 -82.5t-75 -210.5t73.5 -210.5t186.5 -82.5q101 0 163.5 61t65.5 152h-265v65h339l1 -29q5 -138 -80 -227.5t-224 -89.5z" />
    <glyph glyph-name="H" unicode="H" horiz-adv-x="733" 
d="M563 0v311h-393v-311h-78v700h78v-324h393v324h78v-700h-78z" />
    <glyph glyph-name="I" unicode="I" horiz-adv-x="262" 
d="M92 0v700h78v-700h-78z" />
    <glyph glyph-name="J" unicode="J" horiz-adv-x="533" 
d="M231 -11q-94 0 -155 62.5t-65 167.5l74 10q5 -82 45 -127.5t103 -45.5q65 0 103 43.5t38 131.5v469h78v-469q0 -115 -60.5 -178.5t-160.5 -63.5z" />
    <glyph glyph-name="K" unicode="K" horiz-adv-x="655" 
d="M92 0v700h77v-362l378 362h94l-280 -269l233 -431h-84l-206 379l-135 -129v-250h-77z" />
    <glyph glyph-name="L" unicode="L" horiz-adv-x="544" 
d="M92 0v700h78v-634h341v-66h-419z" />
    <glyph glyph-name="M" unicode="M" horiz-adv-x="900" 
d="M92 0v700h102l256 -617l257 617h101v-700h-72v592l-249 -592h-74l-249 592v-592h-72z" />
    <glyph glyph-name="N" unicode="N" horiz-adv-x="765" 
d="M92 0v700h83l424 -587v587h74v-700h-82l-371 513q-42 60 -56 88h-4q6 -56 6 -113v-488h-74z" />
    <glyph glyph-name="O" unicode="O" horiz-adv-x="788" 
d="M394 -11q-150 0 -250 104t-100 257t100 257t250 104t250 -104t100 -257t-100 -257t-250 -104zM394 58q114 0 192.5 83t78.5 209t-78.5 209t-192.5 83t-192.5 -83t-78.5 -209t78.5 -209t192.5 -83z" />
    <glyph glyph-name="P" unicode="P" horiz-adv-x="632" 
d="M92 0v700h284q98 0 162 -62t64 -158t-64 -157.5t-162 -61.5h-206v-261h-78zM368 327q72 0 114 42t42 111q0 68 -42.5 111t-113.5 43h-199v-307h199z" />
    <glyph glyph-name="Q" unicode="Q" horiz-adv-x="788" 
d="M689 -95l-113 134q-81 -50 -182 -50q-150 0 -250 104t-100 257t100 257t250 104t250 -104t100 -257q0 -165 -113 -270l110 -131zM394 58q75 0 135 37l-142 169l51 44l144 -171q83 83 83 213q0 126 -78.5 209t-192.5 83t-192.5 -83t-78.5 -209t78.5 -209t192.5 -83z" />
    <glyph glyph-name="R" unicode="R" horiz-adv-x="665" 
d="M92 0v700h287q111 0 176 -60.5t65 -159.5q0 -84 -52.5 -138t-141.5 -66q80 -16 105 -110l32 -122q8 -33 17 -44h-82q-11 8 -21 45l-32 123q-25 94 -126 94h-149v-262h-78zM364 326q82 0 129.5 43.5t47.5 112.5q0 68 -47 111t-127 43h-197v-310h194z" />
    <glyph glyph-name="S" unicode="S" horiz-adv-x="630" 
d="M319 -11q-112 0 -179 66.5t-76 165.5l77 17q10 -84 56 -133.5t125 -49.5q71 0 112 32.5t41 88.5q0 95 -122 123l-113 27q-77 18 -123 67t-46 120q0 88 67 143t180 55q120 0 186.5 -67.5t78.5 -164.5l-77 -17q-11 80 -59.5 131.5t-133.5 51.5q-75 0 -119 -35t-44 -92
q0 -92 118 -122l111 -27q175 -43 175 -187q0 -89 -64.5 -141t-170.5 -52z" />
    <glyph glyph-name="T" unicode="T" horiz-adv-x="592" 
d="M257 0v634h-230v66h538v-66h-230v-634h-78z" />
    <glyph glyph-name="U" unicode="U" horiz-adv-x="720" 
d="M360 -11q-129 0 -204 78.5t-75 214.5v418h78v-421q0 -101 53.5 -161.5t147.5 -60.5t147.5 60.5t53.5 161.5v421h78v-418q0 -136 -75 -214.5t-204 -78.5z" />
    <glyph glyph-name="V" unicode="V" horiz-adv-x="674" 
d="M293 0l-279 700h83l218 -556q17 -40 20 -60h4q3 20 20 60l218 556h84l-279 -700h-89z" />
    <glyph glyph-name="W" unicode="W" horiz-adv-x="1003" 
d="M243 0l-224 700h82l176 -564q9 -27 12 -48h2q4 25 10 48l157 564h89l158 -564q9 -31 11 -48h2q3 21 12 48l174 564h81l-225 -700h-89l-169 603l-170 -603h-89z" />
    <glyph glyph-name="X" unicode="X" horiz-adv-x="657" 
d="M546 0l-219 290l-218 -290h-90l263 350l-264 350h91l220 -291l218 291h91l-264 -351l264 -349h-92z" />
    <glyph glyph-name="Y" unicode="Y" horiz-adv-x="656" 
d="M289 0v212l-276 488h87l213 -382q14 -28 15 -37h2q2 14 15 37l212 382h87l-277 -488v-212h-78z" />
    <glyph glyph-name="Z" unicode="Z" horiz-adv-x="594" 
d="M55 0v55l410 579h-425v66h522v-55l-409 -579h400v-66h-498z" />
    <glyph glyph-name="a" unicode="a" horiz-adv-x="535" 
d="M217 -11q-65 0 -106.5 36.5t-41.5 95.5q0 152 314 205v6q0 59 -36 95.5t-100 36.5q-57 0 -96.5 -34.5t-57.5 -87.5l-67 16q18 71 78 119.5t145 48.5q95 0 151.5 -52.5t56.5 -148.5v-214q0 -70 7 -111h-71q-6 36 -6 98h-3q-18 -45 -64 -77t-103 -32zM143 128
q0 -36 25 -58.5t67 -22.5q62 0 105 48t43 120v55q-240 -48 -240 -142z" />
    <glyph glyph-name="b" unicode="b" 
d="M347 -11q-61 0 -112 33t-73 82h-3v-104h-76v730h76v-319h3q22 49 73 82t112 33q104 0 172.5 -76.5t68.5 -192.5t-68.5 -192t-172.5 -76zM336 54q77 0 126.5 58t49.5 145t-49.5 145.5t-126.5 58.5q-78 0 -128 -58t-50 -146q0 -87 50 -145t128 -58z" />
    <glyph glyph-name="c" unicode="c" horiz-adv-x="563" 
d="M294 -11q-108 0 -181 75t-73 193t73 193.5t181 75.5q86 0 148.5 -45t89.5 -120l-72 -19q-48 119 -166 119q-76 0 -127 -57.5t-51 -146.5q0 -88 51 -145.5t127 -57.5q118 0 166 119l72 -19q-27 -75 -89.5 -120t-148.5 -45z" />
    <glyph glyph-name="d" unicode="d" 
d="M280 -11q-104 0 -172 76t-68 192t68 192.5t172 76.5q62 0 112.5 -33.5t72.5 -82.5h3v320h76v-730h-76v104h-3q-21 -49 -72 -82t-113 -33zM291 54q78 0 128 58t50 145q0 88 -50 146t-128 58q-77 0 -126 -58.5t-49 -145.5t49 -145t126 -58z" />
    <glyph glyph-name="e" unicode="e" horiz-adv-x="564" 
d="M286 -12q-110 0 -178 74.5t-68 195.5q0 118 72 193t177 75q104 0 170.5 -70.5t66.5 -180.5v-35h-412q4 -87 53 -137.5t120 -50.5q91 0 145 56l50 -44q-72 -76 -196 -76zM116 300h335q-1 70 -48 118t-114 48q-64 0 -113 -43.5t-60 -122.5z" />
    <glyph glyph-name="f" unicode="f" horiz-adv-x="367" 
d="M118 576q0 76 42.5 120.5t112.5 44.5q60 0 99 -36l-32 -53q-28 25 -67 25q-36 0 -58 -25.5t-22 -73.5v-63h137v-60h-137v-455h-75v455h-97v60h97v61z" />
    <glyph glyph-name="g" unicode="g" horiz-adv-x="571" 
d="M290 -210q-95 0 -152 35t-57 97q0 58 54 96q-83 19 -83 95q0 64 68 96q-56 53 -56 130q0 84 63 135.5t159 51.5q56 0 105 -19q14 37 47.5 61t77.5 24q10 0 30 -2v-60q-12 2 -33 2q-57 0 -79 -50q72 -51 72 -143q0 -84 -63 -136t-159 -52q-71 0 -124 29q-39 -20 -39 -56
q0 -50 67 -50h161q80 0 120.5 -35t40.5 -94q0 -70 -60.5 -112.5t-159.5 -42.5zM284 209q66 0 107 36t41 94t-40 94.5t-106 36.5t-107 -36.5t-41 -94.5t40 -94t106 -36zM151 -68q0 -39 38.5 -63t105.5 -24q68 0 107 24.5t39 66.5q0 76 -99 76h-143q-48 -26 -48 -80z" />
    <glyph glyph-name="h" unicode="h" horiz-adv-x="597" 
d="M83 0v730h76v-314h3q22 52 66 81t103 29q86 0 137 -55.5t51 -147.5v-323h-75v312q0 65 -36.5 107t-98.5 42q-63 0 -106.5 -45.5t-43.5 -115.5v-300h-76z" />
    <glyph glyph-name="i" unicode="i" horiz-adv-x="236" 
d="M80 0v515h76v-515h-76zM117 613q-25 0 -42.5 16.5t-17.5 41.5t17.5 41.5t42.5 16.5q26 0 43.5 -16.5t17.5 -41.5t-17.5 -41.5t-43.5 -16.5z" />
    <glyph glyph-name="j" unicode="j" horiz-adv-x="246" 
d="M19 -200q-27 0 -51 6l5 62q20 -5 40 -5q40 0 59 26t19 84v542h75v-534q0 -181 -147 -181zM126 613q-25 0 -42.5 16.5t-17.5 41.5t17.5 41.5t42.5 16.5q26 0 43.5 -16.5t17.5 -41.5t-17.5 -41.5t-43.5 -16.5z" />
    <glyph glyph-name="k" unicode="k" horiz-adv-x="543" 
d="M83 0v730h76v-505l286 290h86l-202 -204l165 -311h-79l-138 263l-118 -114v-149h-76z" />
    <glyph glyph-name="l" unicode="l" horiz-adv-x="242" 
d="M83 0v730h76v-730h-76z" />
    <glyph glyph-name="m" unicode="m" horiz-adv-x="911" 
d="M80 0v515h72v-93h3q18 47 60.5 75.5t98.5 28.5q125 0 169 -110h3q19 48 63 79t102 31q85 0 133.5 -52.5t48.5 -149.5v-324h-74v320q0 68 -34.5 104.5t-92.5 36.5t-98 -41.5t-40 -103.5v-316h-74v320q0 68 -35 104.5t-93 36.5t-98 -41.5t-40 -103.5v-316h-74z" />
    <glyph glyph-name="n" unicode="n" horiz-adv-x="594" 
d="M80 0v515h72v-102h4q22 54 67 83.5t105 29.5q86 0 137 -55.5t51 -147.5v-323h-75v313q0 65 -36.5 106.5t-98.5 41.5q-63 0 -106.5 -45t-43.5 -115v-301h-76z" />
    <glyph glyph-name="o" unicode="o" horiz-adv-x="590" 
d="M295 -11q-109 0 -182 76t-73 192t73 192.5t182 76.5t182 -76.5t73 -192.5t-73 -192t-182 -76zM295 54q76 0 127.5 57.5t51.5 145.5q0 89 -51.5 146.5t-127.5 57.5q-77 0 -128 -57.5t-51 -146.5q0 -88 51.5 -145.5t127.5 -57.5z" />
    <glyph glyph-name="p" unicode="p" 
d="M83 -200v715h76v-104h3q22 49 73 82t112 33q104 0 172.5 -76.5t68.5 -192.5t-68.5 -192t-172.5 -76q-61 0 -112 33t-73 82h-3v-304h-76zM336 54q77 0 126.5 58t49.5 145t-49.5 145.5t-126.5 58.5q-78 0 -128 -58t-50 -146q0 -87 50 -145t128 -58z" />
    <glyph glyph-name="q" unicode="q" 
d="M468 -200v304h-3q-22 -49 -72.5 -82t-112.5 -33q-104 0 -172 76t-68 192t68 192.5t172 76.5q62 0 112.5 -33.5t72.5 -82.5h3v105h76v-715h-76zM291 54q78 0 128 58t50 145q0 88 -50 146t-128 58q-77 0 -126 -58.5t-49 -145.5t49 -145t126 -58z" />
    <glyph glyph-name="r" unicode="r" horiz-adv-x="353" 
d="M80 0v515h70v-117h3q15 57 56 91t94 34q12 0 28 -4l-12 -75q-18 4 -31 4q-59 0 -95.5 -48.5t-36.5 -117.5v-282h-76z" />
    <glyph glyph-name="s" unicode="s" horiz-adv-x="508" 
d="M256 -11q-87 0 -139 44.5t-58 115.5l70 16q6 -56 38.5 -87t89.5 -31q53 0 82 22t29 61q0 34 -21.5 54t-70.5 32l-71 17q-75 19 -110.5 53t-35.5 88q0 70 53.5 111t142.5 41q93 0 149 -49t65 -121l-69 -21q-10 61 -47.5 96.5t-97.5 35.5q-55 0 -88.5 -23.5t-33.5 -65.5
q0 -64 95 -87l72 -18q73 -18 107.5 -50.5t34.5 -86.5q0 -64 -51.5 -105.5t-134.5 -41.5z" />
    <glyph glyph-name="t" unicode="t" horiz-adv-x="388" 
d="M265 -11q-70 0 -109 41t-39 117v308h-96v60h96v140h76v-140h167v-60h-167v-303q0 -99 91 -99q33 0 65 11l11 -59q-40 -16 -95 -16z" />
    <glyph glyph-name="u" unicode="u" horiz-adv-x="594" 
d="M266 -11q-86 0 -137 55.5t-51 147.5v323h75v-313q0 -65 36.5 -106.5t98.5 -41.5q63 0 106.5 45t43.5 115v301h76v-515h-72v102h-3q-23 -54 -68 -83.5t-105 -29.5z" />
    <glyph glyph-name="v" unicode="v" horiz-adv-x="535" 
d="M224 0l-210 515h80l175 -443l175 443h77l-210 -515h-87z" />
    <glyph glyph-name="w" unicode="w" horiz-adv-x="832" 
d="M191 0l-176 515h77l143 -446l139 446h84l137 -446l145 446h77l-178 -515h-85l-139 439l-139 -439h-85z" />
    <glyph glyph-name="x" unicode="x" horiz-adv-x="530" 
d="M417 0l-154 197l-152 -197h-84l195 249l-208 266h86l167 -213l166 213h84l-209 -265l196 -250h-87z" />
    <glyph glyph-name="y" unicode="y" horiz-adv-x="535" 
d="M107 -197q-45 0 -86 26l19 61q35 -22 69 -22q68 0 110 99l13 31l-216 517h81l155 -385q13 -30 16 -48h3q3 18 16 48l155 385h78l-225 -547q-68 -165 -188 -165z" />
    <glyph glyph-name="z" unicode="z" horiz-adv-x="471" 
d="M47 0v50l300 405h-313v60h403v-50l-301 -405h294l1 -60h-384z" />
    <glyph glyph-name="uni00B5" unicode="&#xb5;" horiz-adv-x="600" 
d="M83 -192v707h76v-313q0 -65 36.5 -106.5t98.5 -41.5q63 0 106.5 45.5t43.5 114.5v301h75v-515h-72v102h-3q-23 -53 -68 -83t-105 -30q-78 0 -127 51l17 -232h-78z" />
    <glyph glyph-name="pi" unicode="&#x3c0;" horiz-adv-x="668" 
d="M481 170q0 -66 21.5 -92.5t69.5 -26.5q22 0 57 13l11 -59q-33 -15 -81 -15q-75 0 -114 41t-39 136v288h-193v-455h-74v455h-115v60h597v-60h-140v-285z" />
    </font>
</defs>
</svg>
