<?xml version="1.0" standalone="no"?>
<!DOCTYPE svg PUBLIC "-//W3C//DTD SVG 1.1//EN" "http://www.w3.org/Graphics/SVG/1.1/DTD/svg11.dtd" >
<svg>
<metadata>
Created by FontForge 20120731 at Fri May 10 16:11:34 2024
 By fw_worker
Copyright \(c\) 2023 by Olivia Wood &#38; Alexander R_tten, under exclusive license to TypeMates. All rights reserved.
</metadata>
<defs>
<font id="EasyGroteskDemo-Medium" horiz-adv-x="635" >
  <font-face 
    font-family="Easy Grotesk Demo Medium"
    font-weight="500"
    font-stretch="normal"
    units-per-em="1000"
    panose-1="0 0 0 0 0 0 0 0 0 0"
    ascent="800"
    descent="-200"
    x-height="519"
    cap-height="700"
    bbox="-29 -212 999 743"
    underline-thickness="41"
    underline-position="-114"
    unicode-range="U+0020-03C0"
  />
<missing-glyph horiz-adv-x="729" 
d="M85 0v700h232l24 -301l7 -153h19l8 153l24 301h238v-700h-154v382h-19l-9 -114l-38 -268h-125l-36 268l-8 114h-21v-382h-142zM85 -181v140h85c35 0 46 -19 46 -70s-11 -70 -46 -70h-85zM126 -117h45v12h-45v-12zM227 -181v140h111v-42h-58v-13h49v-32h-49v-13h58v-40
h-111zM347 -181v140h63l6 -60v-33h6v33l8 60h61v-140h-41v75h-7v-23l-9 -52h-31l-8 52v23h-9v-75h-39zM571 -186c-56 0 -70 17 -70 75c0 57 15 73 70 73s72 -15 72 -73s-16 -75 -72 -75zM565 -149h12v75h-12v-75z" />
    <glyph glyph-name=".notdef" horiz-adv-x="729" 
d="M85 0v700h232l24 -301l7 -153h19l8 153l24 301h238v-700h-154v382h-19l-9 -114l-38 -268h-125l-36 268l-8 114h-21v-382h-142zM85 -181v140h85c35 0 46 -19 46 -70s-11 -70 -46 -70h-85zM126 -117h45v12h-45v-12zM227 -181v140h111v-42h-58v-13h49v-32h-49v-13h58v-40
h-111zM347 -181v140h63l6 -60v-33h6v33l8 60h61v-140h-41v75h-7v-23l-9 -52h-31l-8 52v23h-9v-75h-39zM571 -186c-56 0 -70 17 -70 75c0 57 15 73 70 73s72 -15 72 -73s-16 -75 -72 -75zM565 -149h12v75h-12v-75z" />
    <glyph glyph-name="space" unicode=" " horiz-adv-x="234" 
 />
    <glyph glyph-name="space" unicode="&#xa0;" horiz-adv-x="234" 
 />
    <glyph glyph-name="A" unicode="A" horiz-adv-x="709" 
d="M12 0l273 700h139l273 -700h-113l-62 162h-336l-61 -162h-113zM218 248h272l-111 293c-9 23 -18 50 -23 72h-4c-3 -22 -14 -49 -23 -72z" />
    <glyph glyph-name="B" unicode="B" horiz-adv-x="695" 
d="M85 0v700h334c134 0 219 -75 219 -187c0 -83 -56 -144 -148 -164c86 -19 138 -80 138 -165c0 -110 -85 -184 -219 -184h-324zM398 85c77 0 121 46 121 112c0 65 -43 111 -121 111h-205v-223h205zM193 390h214c75 0 122 48 122 113s-47 112 -122 112h-214v-225z" />
    <glyph glyph-name="C" unicode="C" horiz-adv-x="756" 
d="M392 -13c-197 0 -352 145 -352 363s155 363 352 363c177 0 298 -108 329 -255l-110 -23c-24 109 -105 181 -218 181c-125 0 -241 -95 -241 -266s116 -266 241 -266c113 0 194 72 218 181l110 -23c-31 -147 -152 -255 -329 -255z" />
    <glyph glyph-name="D" unicode="D" horiz-adv-x="746" 
d="M85 0v700h261c219 0 360 -139 360 -350s-141 -350 -360 -350h-261zM340 90c157 0 254 102 254 260s-97 260 -254 260h-146v-520h146z" />
    <glyph glyph-name="E" unicode="E" horiz-adv-x="619" 
d="M85 0v700h493v-90h-383v-218h328v-90h-328v-212h379v-90h-489z" />
    <glyph glyph-name="F" unicode="F" horiz-adv-x="593" 
d="M85 0v700h482v-91h-372v-226h336v-91h-336v-292h-110z" />
    <glyph glyph-name="G" unicode="G" horiz-adv-x="756" 
d="M386 -13c-200 0 -346 150 -346 363s149 363 354 363c188 0 296 -110 327 -232l-110 -33c-23 95 -98 169 -217 169c-141 0 -242 -109 -242 -267s100 -267 234 -267c121 0 197 75 205 176h-234v89h338l2 -33c7 -191 -119 -328 -311 -328z" />
    <glyph glyph-name="H" unicode="H" horiz-adv-x="740" 
d="M544 0v298h-349v-298h-110v700h110v-312h349v312h110v-700h-110z" />
    <glyph glyph-name="I" unicode="I" horiz-adv-x="281" 
d="M85 0v700h110v-700h-110z" />
    <glyph glyph-name="J" unicode="J" horiz-adv-x="550" 
d="M242 -13c-132 0 -225 92 -232 229l104 15c7 -94 56 -151 129 -151c72 0 122 47 122 154v466h110v-465c0 -158 -93 -248 -233 -248z" />
    <glyph glyph-name="K" unicode="K" horiz-adv-x="673" 
d="M85 0v700h108v-340l336 340h131l-266 -267l227 -433h-118l-187 358l-123 -124v-234h-108z" />
    <glyph glyph-name="L" unicode="L" horiz-adv-x="552" 
d="M85 0v700h110v-609h325v-91h-435z" />
    <glyph glyph-name="M" unicode="M" horiz-adv-x="906" 
d="M85 0v700h141l227 -579l227 579h141v-700h-100v552l-219 -552h-98l-219 552v-552h-100z" />
    <glyph glyph-name="N" unicode="N" horiz-adv-x="767" 
d="M85 0v700h111l382 -536v536h103v-700h-110l-327 459c-23 33 -45 65 -58 93h-4c3 -30 6 -76 6 -118v-434h-103z" />
    <glyph glyph-name="O" unicode="O" horiz-adv-x="791" 
d="M396 -13c-205 0 -356 156 -356 363s151 363 356 363c204 0 356 -156 356 -363s-152 -363 -356 -363zM396 84c138 0 243 111 243 266s-105 266 -243 266s-244 -111 -244 -266s106 -266 244 -266z" />
    <glyph glyph-name="P" unicode="P" horiz-adv-x="640" 
d="M85 0v700h290c139 0 238 -96 238 -225c0 -130 -99 -226 -238 -226h-181v-249h-109zM365 340c83 0 138 53 138 135c0 79 -55 135 -138 135h-172v-270h172z" />
    <glyph glyph-name="Q" unicode="Q" horiz-adv-x="791" 
d="M678 -102l-110 131c-51 -27 -109 -42 -172 -42c-205 0 -356 156 -356 363s151 363 356 363c204 0 356 -156 356 -363c0 -107 -41 -201 -108 -266l106 -126zM396 84c38 0 73 8 105 24l-128 151l73 60l129 -153c40 46 64 110 64 184c0 155 -105 266 -243 266
s-244 -111 -244 -266s106 -266 244 -266z" />
    <glyph glyph-name="R" unicode="R" horiz-adv-x="676" 
d="M85 0v700h299c152 0 250 -89 250 -225c0 -119 -79 -188 -191 -207c45 -7 89 -40 107 -107l29 -115c5 -21 11 -35 19 -46h-116c-9 6 -17 18 -24 47l-31 119c-15 56 -58 83 -113 83h-120v-249h-109zM367 337c96 0 155 59 155 138s-59 137 -152 137h-176v-275h173z" />
    <glyph glyph-name="S" unicode="S" horiz-adv-x="640" 
d="M322 -13c-157 0 -250 102 -263 225l110 25c12 -93 64 -158 158 -158c81 0 130 39 130 102c0 51 -29 87 -104 104l-108 25c-107 24 -178 95 -178 195c0 121 102 208 258 208c174 0 258 -113 275 -226l-109 -27c-14 91 -68 161 -172 161c-87 0 -140 -44 -140 -108
c0 -49 32 -87 100 -104l107 -26c121 -30 183 -91 183 -191c0 -126 -101 -205 -247 -205z" />
    <glyph glyph-name="T" unicode="T" horiz-adv-x="604" 
d="M247 0v609h-222v91h553v-91h-221v-609h-110z" />
    <glyph glyph-name="U" unicode="U" horiz-adv-x="728" 
d="M364 -13c-175 0 -289 111 -289 298v415h110v-420c0 -120 68 -198 180 -198c111 0 178 78 178 198v420h110v-415c0 -187 -113 -298 -289 -298z" />
    <glyph glyph-name="V" unicode="V" horiz-adv-x="696" 
d="M284 0l-271 700h119l192 -516c9 -23 17 -50 22 -72h4c3 22 13 49 22 72l192 516h119l-270 -700h-129z" />
    <glyph glyph-name="W" unicode="W" horiz-adv-x="1016" 
d="M234 0l-216 700h116l166 -570l147 570h126l149 -570l164 570h113l-216 -700h-127l-147 566l-148 -566h-127z" />
    <glyph glyph-name="X" unicode="X" horiz-adv-x="679" 
d="M533 0l-195 266l-194 -266h-125l256 351l-256 349h125l196 -266l194 266h125l-257 -350l258 -350h-127z" />
    <glyph glyph-name="Y" unicode="Y" horiz-adv-x="669" 
d="M280 0v211l-269 489h124l180 -343c9 -17 16 -35 19 -48h4c1 13 8 31 17 48l179 343h123l-268 -489v-211h-109z" />
    <glyph glyph-name="Z" unicode="Z" horiz-adv-x="602" 
d="M57 0v78l378 531h-397v91h532v-77l-377 -532h370v-91h-506z" />
    <glyph glyph-name="a" unicode="a" horiz-adv-x="557" 
d="M224 -11c-86 0 -151 52 -151 135c0 117 135 180 310 212c-2 65 -43 110 -119 110c-74 0 -121 -50 -139 -109l-96 20c23 95 110 175 236 175c132 0 222 -70 222 -207v-205c0 -37 1 -82 8 -120h-99c-5 27 -7 56 -7 92h-3c-24 -56 -85 -103 -162 -103zM177 136
c0 -42 29 -70 77 -70c71 0 129 60 129 147v46c-127 -26 -206 -62 -206 -123z" />
    <glyph glyph-name="b" unicode="b" 
d="M359 -13c-78 0 -144 47 -173 104h-3v-91h-108v730h108v-301h3c29 57 95 103 173 103c138 0 241 -112 241 -272s-103 -273 -241 -273zM338 78c91 0 154 78 154 182s-63 181 -154 181c-92 0 -158 -76 -158 -181c0 -106 66 -182 158 -182z" />
    <glyph glyph-name="c" unicode="c" horiz-adv-x="573" 
d="M297 -13c-147 0 -261 113 -261 273c0 159 114 272 261 272c125 0 215 -72 248 -174l-103 -24c-22 62 -68 107 -144 107c-88 0 -154 -77 -154 -181c0 -105 66 -182 154 -182c76 0 122 45 144 107l103 -24c-33 -101 -123 -174 -248 -174z" />
    <glyph glyph-name="d" unicode="d" 
d="M277 -13c-139 0 -241 113 -241 273s102 272 241 272c77 0 144 -46 172 -103h4v301h107v-730h-107v90h-4c-27 -57 -94 -103 -172 -103zM298 78c91 0 158 76 158 182c0 105 -67 181 -158 181c-92 0 -154 -77 -154 -181s62 -182 154 -182z" />
    <glyph glyph-name="e" unicode="e" horiz-adv-x="578" 
d="M293 -13c-151 0 -257 110 -257 273c0 161 114 272 259 272c148 0 248 -108 248 -261v-39h-403c10 -101 74 -157 155 -157c65 0 107 26 131 53l73 -56c-36 -43 -102 -85 -206 -85zM144 314h293c-4 74 -62 136 -142 136c-70 0 -133 -45 -151 -136z" />
    <glyph glyph-name="f" unicode="f" horiz-adv-x="386" 
d="M114 560c0 110 69 183 173 183c41 0 79 -14 104 -35l-40 -77c-14 13 -35 22 -61 22c-41 0 -70 -29 -70 -85v-49h131v-83h-131v-436h-106v436h-95v83h95v41z" />
    <glyph glyph-name="g" unicode="g" horiz-adv-x="584" 
d="M295 -212c-133 0 -217 48 -217 128c0 43 25 74 57 92c-55 14 -87 47 -87 101c0 48 32 81 72 101c-38 32 -61 77 -61 132c0 116 102 190 233 190c38 0 74 -6 105 -18c20 48 66 89 130 89c11 0 23 -1 36 -3v-82c-14 3 -25 4 -39 4c-30 0 -56 -14 -71 -39
c44 -33 70 -81 70 -141c0 -116 -101 -189 -232 -189c-42 0 -81 8 -115 22c-19 -10 -32 -23 -32 -47c0 -34 29 -42 57 -42h158c120 0 170 -59 170 -135c0 -97 -93 -163 -234 -163zM291 230c76 0 129 45 129 112c0 68 -52 115 -128 115s-130 -47 -130 -115
c0 -67 53 -112 129 -112zM175 -66c0 -44 48 -73 127 -73c84 0 131 30 131 77c0 43 -30 63 -86 63h-132c-25 -13 -40 -37 -40 -67z" />
    <glyph glyph-name="h" unicode="h" horiz-adv-x="610" 
d="M75 0v730h108v-306h3c27 67 85 108 164 108c119 0 190 -85 190 -206v-326h-107v307c0 76 -43 134 -119 134c-75 0 -131 -60 -131 -143v-298h-108z" />
    <glyph glyph-name="i" unicode="i" horiz-adv-x="254" 
d="M73 0v519h107v-519h-107zM127 602c-42 0 -74 30 -74 69s32 70 74 70c40 0 74 -31 74 -70s-34 -69 -74 -69z" />
    <glyph glyph-name="j" unicode="j" horiz-adv-x="268" 
d="M27 -201c-18 0 -38 2 -56 7l4 85c12 -2 24 -4 41 -4c49 0 72 28 72 97v535h107v-525c0 -127 -59 -195 -168 -195zM138 602c-42 0 -74 30 -74 69s32 70 74 70c40 0 74 -31 74 -70s-34 -69 -74 -69z" />
    <glyph glyph-name="k" unicode="k" horiz-adv-x="569" 
d="M75 0v730h108v-483l257 272h117l-199 -205l165 -314h-109l-127 246l-104 -104v-142h-108z" />
    <glyph glyph-name="l" unicode="l" horiz-adv-x="258" 
d="M75 0v730h108v-730h-108z" />
    <glyph glyph-name="m" unicode="m" horiz-adv-x="914" 
d="M73 0v519h100v-92h3c24 62 81 105 158 105c87 0 136 -41 162 -109h3c24 62 84 109 163 109c112 0 182 -75 182 -207v-325h-105v317c0 80 -44 124 -110 124s-118 -53 -118 -128v-313h-104v317c0 80 -45 124 -111 124c-67 0 -118 -53 -118 -128v-313h-105z" />
    <glyph glyph-name="n" unicode="n" horiz-adv-x="608" 
d="M73 0v519h103v-98h3c29 70 88 111 168 111c120 0 191 -85 191 -206v-326h-107v308c0 77 -45 133 -120 133s-131 -58 -131 -142v-299h-107z" />
    <glyph glyph-name="o" unicode="o" horiz-adv-x="598" 
d="M299 -13c-150 0 -263 115 -263 273c0 157 113 272 263 272s264 -115 264 -272c0 -158 -114 -273 -264 -273zM299 78c88 0 156 74 156 182c0 107 -68 181 -156 181s-155 -74 -155 -181c0 -108 67 -182 155 -182z" />
    <glyph glyph-name="p" unicode="p" 
d="M75 -200v719h108v-90h3c29 57 95 103 173 103c138 0 241 -112 241 -272s-103 -273 -241 -273c-78 0 -144 47 -173 104h-3v-291h-108zM338 78c91 0 154 78 154 182s-63 181 -154 181c-92 0 -158 -76 -158 -181c0 -106 66 -182 158 -182z" />
    <glyph glyph-name="q" unicode="q" 
d="M453 -200v290h-4c-28 -57 -94 -103 -172 -103c-139 0 -241 113 -241 273s102 272 241 272c77 0 144 -46 172 -103h4v90h107v-719h-107zM298 78c91 0 158 76 158 182c0 105 -67 181 -158 181c-92 0 -154 -77 -154 -181s62 -182 154 -182z" />
    <glyph glyph-name="r" unicode="r" horiz-adv-x="377" 
d="M73 0v519h99v-126h4c20 83 78 134 148 134c11 0 25 -2 34 -5l-17 -107c-9 3 -23 5 -35 5c-78 0 -126 -67 -126 -160v-260h-107z" />
    <glyph glyph-name="s" unicode="s" horiz-adv-x="521" 
d="M262 -13c-127 0 -200 72 -208 155l99 25c5 -62 44 -101 111 -101c61 0 93 26 93 69c0 38 -23 59 -78 72l-74 17c-100 24 -153 71 -153 148c0 99 84 160 211 160c136 0 213 -82 225 -164l-97 -31c-12 70 -57 116 -128 116c-64 0 -105 -29 -105 -76c0 -35 26 -60 81 -74
l75 -18c95 -22 148 -63 148 -141c0 -90 -79 -157 -200 -157z" />
    <glyph glyph-name="t" unicode="t" horiz-adv-x="401" 
d="M273 -13c-97 0 -162 61 -162 169v280h-92v83h92v140h107v-140h156v-83h-156v-270c0 -62 30 -89 83 -89c19 0 39 3 60 11l13 -85c-26 -10 -59 -16 -101 -16z" />
    <glyph glyph-name="u" unicode="u" horiz-adv-x="608" 
d="M261 -13c-119 0 -191 85 -191 206v326h107v-308c0 -77 46 -133 120 -133c75 0 131 58 131 142v299h107v-519h-102v98h-4c-28 -70 -88 -111 -168 -111z" />
    <glyph glyph-name="v" unicode="v" horiz-adv-x="560" 
d="M219 0l-206 519h113l138 -368c6 -18 14 -38 17 -60h4c3 22 11 42 17 60l137 368h108l-206 -519h-122z" />
    <glyph glyph-name="w" unicode="w" horiz-adv-x="842" 
d="M183 0l-169 519h105l125 -421l121 421h112l120 -421l126 421h105l-170 -519h-114l-100 337c-8 26 -19 58 -21 83h-4c-2 -25 -13 -57 -21 -83l-101 -337h-114z" />
    <glyph glyph-name="x" unicode="x" horiz-adv-x="560" 
d="M416 0l-138 178l-136 -178h-118l196 252l-207 267h121l148 -191l148 191h117l-207 -266l197 -253h-121z" />
    <glyph glyph-name="y" unicode="y" horiz-adv-x="559" 
d="M115 -200c-32 0 -61 9 -89 25l21 87c20 -11 44 -20 70 -20c40 0 72 21 98 80l12 27l-213 520h114l133 -345c7 -18 14 -38 18 -59h4c3 21 11 41 18 59l133 345h111l-219 -541c-47 -119 -116 -178 -211 -178z" />
    <glyph glyph-name="z" unicode="z" horiz-adv-x="488" 
d="M51 0v71l277 365h-294v83h419v-71l-277 -365h270l2 -83h-397z" />
    <glyph glyph-name="pi" unicode="&#x3c0;" horiz-adv-x="682" 
d="M504 179c0 -77 27 -104 81 -104c19 0 36 4 55 11l15 -80c-26 -11 -58 -17 -94 -17c-102 0 -161 52 -161 182v265h-167v-436h-105v436h-105v83h610v-83h-129v-257z" />
    <glyph glyph-name="zero" unicode="0" horiz-adv-x="668" 
d="M334 -13c-179 0 -291 151 -291 363s112 363 291 363s291 -151 291 -363s-112 -363 -291 -363zM334 82c117 0 182 110 182 268s-65 268 -182 268s-182 -110 -182 -268s65 -268 182 -268z" />
    <glyph glyph-name="one" unicode="1" horiz-adv-x="399" 
d="M206 554c-26 -44 -94 -71 -159 -71h-19v102h18c87 0 147 29 179 115h89v-700h-108v554z" />
    <glyph glyph-name="two" unicode="2" horiz-adv-x="587" 
d="M66 74c251 173 368 268 368 405c0 80 -51 143 -144 143c-124 0 -171 -99 -137 -193l-102 -32c-56 158 42 316 244 316c157 0 248 -97 248 -229c0 -158 -123 -264 -322 -394h307v-90h-462v74z" />
    <glyph glyph-name="three" unicode="3" horiz-adv-x="586" 
d="M296 -13c-138 0 -231 93 -239 214l103 13c8 -79 54 -139 136 -139c80 0 128 43 128 110c0 66 -52 110 -138 110h-55v85h58c92 0 151 50 151 127c0 74 -57 118 -143 118c-90 0 -149 -61 -157 -150l-105 10c10 132 118 228 263 228c149 0 246 -81 246 -197
c0 -99 -75 -164 -155 -176c77 -14 139 -68 139 -158c0 -108 -89 -195 -232 -195z" />
    <glyph glyph-name="four" unicode="4" horiz-adv-x="618" 
d="M388 0v149h-362v91l339 460h125v-465h108v-86h-108v-149h-102zM126 235h262v298c1 23 4 50 9 69l-7 3c-4 -20 -18 -41 -32 -58z" />
    <glyph glyph-name="five" unicode="5" horiz-adv-x="592" 
d="M296 -13c-130 0 -228 80 -247 196l103 18c15 -73 67 -126 147 -126c83 0 142 60 142 143c0 84 -55 146 -139 146c-70 0 -116 -38 -140 -78l-97 25l35 389h435v-90h-346l-23 -232c32 41 92 73 164 73c128 0 220 -93 220 -231c0 -131 -109 -233 -254 -233z" />
    <glyph glyph-name="six" unicode="6" horiz-adv-x="603" 
d="M312 -13c-147 0 -270 111 -270 339c0 246 121 387 292 387c148 0 229 -85 253 -193l-105 -28c-20 83 -69 132 -152 132c-115 0 -189 -121 -183 -302c32 64 98 107 179 107c126 0 223 -96 223 -219c0 -125 -103 -223 -237 -223zM310 70c77 0 139 61 139 138
s-62 138 -139 138c-79 0 -142 -61 -142 -138c0 -76 61 -138 142 -138z" />
    <glyph glyph-name="seven" unicode="7" horiz-adv-x="541" 
d="M138 0c-3 220 70 460 272 610h-384v90h499v-78c-206 -171 -278 -370 -270 -622h-117z" />
    <glyph glyph-name="eight" unicode="8" horiz-adv-x="598" 
d="M299 -13c-139 0 -236 83 -236 193c0 79 52 141 137 160c-92 18 -152 89 -152 172c0 112 101 201 251 201s252 -89 252 -201c0 -83 -60 -153 -152 -172c85 -19 136 -81 136 -160c0 -110 -97 -193 -236 -193zM299 69c78 0 135 49 135 115s-57 117 -135 117
c-77 0 -135 -51 -135 -117s58 -115 135 -115zM299 388c89 0 148 53 148 123s-57 120 -148 120s-148 -50 -148 -120s59 -123 148 -123z" />
    <glyph glyph-name="nine" unicode="9" horiz-adv-x="604" 
d="M279 -13c-135 0 -218 86 -243 182l106 28c18 -70 64 -121 141 -121c106 0 186 94 172 285c-33 -69 -100 -108 -184 -108c-131 0 -231 96 -231 229c0 130 110 231 249 231c152 0 272 -124 272 -373c0 -216 -109 -353 -282 -353zM288 336c84 0 147 62 147 144
s-66 147 -147 147c-83 0 -147 -61 -147 -147c0 -83 63 -144 147 -144z" />
    <glyph glyph-name="period" unicode="." horiz-adv-x="280" 
d="M140 -13c-44 0 -79 35 -79 76c0 42 35 77 79 77s80 -35 80 -77c0 -41 -36 -76 -80 -76z" />
    <glyph glyph-name="comma" unicode="," horiz-adv-x="281" 
d="M61 -89c53 4 92 42 91 82c-7 -4 -15 -6 -25 -6c-40 0 -72 32 -72 75c0 41 36 76 81 76s88 -39 88 -111c0 -96 -56 -163 -161 -177z" />
    <glyph glyph-name="exclam" unicode="!" horiz-adv-x="286" 
d="M96 200l-10 500h113l-10 -500h-93zM143 -13c-40 0 -72 30 -72 69c0 38 32 68 72 68c39 0 71 -30 71 -68c0 -39 -32 -69 -71 -69z" />
    <glyph glyph-name="question" unicode="?" horiz-adv-x="570" 
d="M232 196c-7 69 13 121 63 161l60 45c41 32 66 66 66 115c0 62 -49 109 -133 109c-113 0 -162 -94 -128 -186l-102 -34c-61 151 43 307 230 307c151 0 243 -82 243 -194c0 -77 -34 -124 -91 -167l-65 -50c-36 -28 -50 -64 -51 -106h-92zM276 -13c-40 0 -71 31 -71 69
s31 67 71 67s72 -29 72 -67s-32 -69 -72 -69z" />
    <glyph glyph-name="hyphen" unicode="-" horiz-adv-x="432" 
d="M48 226v88h335v-88h-335z" />
    <glyph glyph-name="ampersand" unicode="&#x26;" horiz-adv-x="690" 
d="M275 -13c-139 0 -221 73 -221 173c0 87 63 134 134 173c-58 57 -103 117 -103 193c0 104 85 187 219 187c122 0 212 -69 212 -176c0 -89 -61 -147 -150 -194l-36 -19l149 -143c30 51 46 114 49 181h96c-6 -85 -34 -171 -83 -239l128 -123h-132l-59 56
c-53 -43 -121 -69 -203 -69zM155 168c0 -54 41 -103 130 -103c54 0 99 17 135 46l-175 168c-53 -30 -90 -62 -90 -111zM183 528c0 -52 34 -96 89 -149l38 21c66 36 107 78 107 134c0 61 -50 102 -117 102c-75 0 -117 -47 -117 -108z" />
    <glyph glyph-name="uni00B5" unicode="&#xb5;" horiz-adv-x="613" 
d="M75 -195v714h108v-308c0 -77 45 -133 119 -133c75 0 131 58 131 142v299h107v-519h-102v98h-4c-28 -70 -90 -111 -169 -111c-40 0 -74 12 -101 32l20 -214h-109z" />
    </font>
</defs>
</svg>
