<svg xmlns="http://www.w3.org/2000/svg" width="349.8" height="52.236" viewBox="0 0 349.8 52.236">
    <defs>
        <clipPath id="ls9igtia5a">
            <path data-name="Path 30" d="M443.61 510.774h-46.829a.952.952 0 0 1-.947-.947l-9.134-28.409 9.134 2.26v-8.767a.952.952 0 0 1 .947-.947h6.14l-3.574-9.164 44.294 9.164a.952.952 0 0 1 .947.947V509.8a1.027 1.027 0 0 1-.978.974z" transform="translate(-386.7 -464.8)"/>
        </clipPath>
    </defs>
    <g data-name="Greentech Logo-01">
        <g data-name="Group 7">
            <g data-name="Group 6">
                <path data-name="Path 16" d="M658.26 501.705v5.743a29.785 29.785 0 0 1-11.639-2.658c3.971 1.955 7.667 4.979 7.667 9.561 0 7.545-5.987 11.914-15.518 11.914-4.857.153-7.179.611-7.179 2.535 0 1.161.916 1.863 2.658 1.863h9.409c7.667 0 12.188 2.2 12.188 9.1v2.688h-7.484v-1.344c0-3.544-2.444-4.735-6.323-4.735h-8.951c-6.934 0-9.073-2.352-9.073-5.468 0-3.941 3.727-5.285 8.737-5.315-5.957-1.527-9.653-5.5-9.653-11.578 0-7.667 6.048-12.616 15.64-12.616a18.257 18.257 0 0 1 3.91.4zm-11.242 12.341c0-4.277-3.268-6.873-8.248-6.873-5.01 0-8.4 2.535-8.4 6.873s3.33 6.843 8.4 6.843c4.95 0 8.249-2.505 8.249-6.842zM644.88 504c-.336-.153-.611-.305-.886-.428v.092c.306.088.581.21.886.336z" transform="translate(-550.886 -490.22)" fill="#033735"/>
                <path data-name="Path 17" d="M772.051 501.3v6.843a11.831 11.831 0 0 0-10.967 6.812V530.6H753.6v-28.628h7.484v8.584c1.1-3.513 4.246-9.256 10.967-9.256z" transform="translate(-641.521 -490.151)" fill="#033735"/>
                <path data-name="Path 18" d="M858.8 521.134c-.978 5.926-6.415 10.2-16.129 10.2-10.967 0-18.573-5.437-18.573-14.907 0-9.378 7.27-15.029 18.359-15.029 11.181 0 16.954 5.254 16.465 16.129h-27.277c.55 4.735 4.368 8.126 10.844 8.126 4.765 0 8.156-1.833 9.073-4.521zm-26.79-7.729h19.52c-.428-3.879-3.818-6.323-9.439-6.323-5.528 0-9.102 2.718-10.079 6.323z" transform="translate(-690.485 -490.22)" fill="#033735"/>
                <path data-name="Path 19" d="M986.6 521.134c-.977 5.926-6.415 10.2-16.129 10.2-10.967 0-18.573-5.437-18.573-14.907 0-9.378 7.27-15.029 18.359-15.029 11.18 0 16.954 5.254 16.465 16.129h-27.277c.55 4.735 4.368 8.126 10.844 8.126 4.766 0 8.156-1.833 9.073-4.521zm-26.79-7.729h19.52c-.428-3.879-3.818-6.323-9.439-6.323-5.528 0-9.102 2.718-10.079 6.323z" transform="translate(-779.246 -490.22)" fill="#033735"/>
                <path data-name="Path 20" d="M1116.813 513.022V530.5h-7.484v-16.16c0-4.857-2.23-7.087-7.515-7.087-5.193 0-9.378 2.994-10.631 6.232v16.984h-7.483v-28.628h7.484v8.248c1.527-4.613 6.14-8.889 13.288-8.889 7.028.03 12.341 3.727 12.341 11.822z" transform="translate(-870.784 -490.081)" fill="#033735"/>
                <path data-name="Path 21" d="M1229.608 491.333h-7.362v22.941h-7.484v-22.941h-7.362v-5.682h7.362V477.8h7.484v7.851h7.362z" transform="translate(-956.697 -473.829)" fill="#033735"/>
                <path data-name="Path 22" d="M1324.7 521.134c-.977 5.926-6.415 10.2-16.129 10.2-10.966 0-18.573-5.437-18.573-14.907 0-9.378 7.27-15.029 18.359-15.029 11.181 0 16.954 5.254 16.465 16.129h-27.279c.55 4.735 4.368 8.126 10.844 8.126 4.766 0 8.156-1.833 9.073-4.521zm-26.79-7.729h19.52c-.428-3.879-3.818-6.323-9.439-6.323-5.497 0-9.071 2.718-10.079 6.323z" transform="translate(-1014.064 -490.22)" fill="#033735"/>
                <path data-name="Path 23" d="M1424 465.8h7.484v40.139H1424zm32.93 40.139-9.5.031-15.793-16.07 13.777-12.586h10.233l-14.388 12.616z" transform="translate(-1107.131 -465.495)" fill="#033735"/>
            </g>
        </g>
        <g data-name="Group 10">
            <path data-name="Path 24" d="M464.376 531.61h-46.829a.952.952 0 0 1-.947-.947v-34.916a.952.952 0 0 1 .947-.947h46.829a.952.952 0 0 1 .947.947v34.885a.978.978 0 0 1-.947.978z" transform="translate(-407.466 -485.636)" fill="#01e193"/>
            <g data-name="Group 9">
                <g data-name="Group 8" style="clip-path:url(#ls9igtia5a)">
                    <path data-name="Path 25" d="M429.142 556.542a3.042 3.042 0 0 1-4.307 0l-22.666-22.666a3.042 3.042 0 0 1 0-4.307 3.042 3.042 0 0 1 4.307 0l22.666 22.666a3.042 3.042 0 0 1 0 4.307z" transform="translate(-396.823 -509.163)" fill="#033735"/>
                    <path data-name="Path 26" d="M524.611 516.611a3.042 3.042 0 0 1-4.307 0l-12.036-12.036a3.042 3.042 0 0 1 0-4.307 3.042 3.042 0 0 1 4.307 0l12.036 12.032a3.042 3.042 0 0 1 0 4.311z" transform="translate(-470.512 -488.813)" fill="#033735"/>
                    <path data-name="Path 27" d="M484.226 566.526a3.042 3.042 0 0 1-4.307 0l-8.95-8.95a3.042 3.042 0 0 1 0-4.307 3.042 3.042 0 0 1 4.307 0l8.95 8.95a3.042 3.042 0 0 1 0 4.307z" transform="translate(-444.606 -525.623)" fill="#033735"/>
                    <path data-name="Path 28" d="M453.176 535.376a3.042 3.042 0 0 1-4.307 0 3.042 3.042 0 0 1 0-4.307 3.042 3.042 0 0 1 4.307 0 3.042 3.042 0 0 1 0 4.307z" transform="translate(-429.257 -510.205)" fill="#033735"/>
                    <path data-name="Path 29" d="M486.96 524.06a3.042 3.042 0 0 1-4.307 0l-40.384-40.384a3.042 3.042 0 0 1 0-4.307 3.042 3.042 0 0 1 4.307 0l40.384 40.384a3.042 3.042 0 0 1 0 4.307z" transform="translate(-424.673 -474.298)" fill="#033735"/>
                </g>
            </g>
        </g>
    </g>
</svg>
