<svg version="1.1" id="Layer_1" xmlns="http://www.w3.org/2000/svg" xmlns:xlink="http://www.w3.org/1999/xlink" x="0px" y="0px"
	 viewBox="0 0 461.3 72.8" style="enable-background:new 0 0 461.3 72.8;" xml:space="preserve" width="350" height="53">
	<style type="text/css">
		.st0{fill:#033735;}
		.st1{fill:#01CE80;}
		.st2{fill:none;}
		.st3{clip-path:url(#SVGID_00000152976037559413707690000004929455485903579822_);}
	</style>
	<g>
		<g>
			<g>
				<path class="st0" d="M142.5,17.8V25c-5.2,0.1-10.7-1.7-14.6-3.3c5,2.4,9.7,6.3,9.7,12c0,9.5-7.5,15-19.5,15c-6.1,0.2-9,0.8-9,3.2
					c0,1.5,1.1,2.3,3.4,2.3l11.8,0c9.7,0,15.3,2.8,15.3,11.4V69h-9.4v-1.7c0-4.4-3.1-6-8-6h-11.3c-8.7,0-11.4-2.9-11.4-6.9
					c0-5,4.7-6.6,11-6.7c-7.5-1.9-12.1-6.9-12.1-14.6c0-9.7,7.6-15.9,19.7-15.9c1.7,0,3.3,0.2,4.9,0.5L142.5,17.8z M128.4,33.3
					c0-5.4-4.1-8.7-10.4-8.7c-6.3,0-10.5,3.2-10.5,8.7c0,5.5,4.2,8.6,10.5,8.6C124.2,41.9,128.4,38.8,128.4,33.3z M125.7,20.7
					c-0.4-0.2-0.8-0.4-1.1-0.5l0,0.1C124.9,20.4,125.3,20.6,125.7,20.7z"/>
				<path class="st0" d="M171.6,17.4V26c-8.7,0-12.6,6-13.8,8.6v19.6h-9.4v-36h9.4V29C159.2,24.6,163.1,17.4,171.6,17.4z"/>
				<path class="st0" d="M219.1,42.2c-1.2,7.4-8.1,12.8-20.3,12.8c-13.8,0-23.3-6.8-23.3-18.7c0-11.8,9.2-18.9,23.1-18.9
					c14.1,0,21.3,6.6,20.7,20.3H185c0.7,5.9,5.5,10.2,13.6,10.2c6,0,10.2-2.3,11.4-5.7H219.1z M185.4,32.5h24.5
					c-0.6-4.9-4.8-7.9-11.9-7.9C191.2,24.6,186.7,28,185.4,32.5z"/>
				<path class="st0" d="M268.2,42.2c-1.2,7.4-8.1,12.8-20.3,12.8c-13.8,0-23.3-6.8-23.3-18.7c0-11.8,9.2-18.9,23.1-18.9
					c14.1,0,21.3,6.6,20.7,20.3H234c0.7,5.9,5.5,10.2,13.6,10.2c6,0,10.2-2.3,11.4-5.7H268.2z M234.5,32.5H259
					c-0.6-4.9-4.8-7.9-11.9-7.9C240.2,24.6,235.7,28,234.5,32.5z"/>
				<path class="st0" d="M316.8,32.2v22h-9.4V33.9c0-6.1-2.8-8.9-9.4-8.9c-6.5,0-11.8,3.8-13.4,7.8v21.4h-9.4v-36h9.4v10.4
					c1.9-5.8,7.7-11.2,16.7-11.2C310.1,17.4,316.8,22,316.8,32.2z"/>
				<path class="st0" d="M350.6,25.4h-9.3v28.8h-9.4V25.4h-9.3v-7.1h9.3V8.4h9.4v9.9h9.3V25.4z"/>
				<path class="st0" d="M398,42.2c-1.2,7.4-8.1,12.8-20.3,12.8c-13.8,0-23.3-6.8-23.3-18.7c0-11.8,9.2-18.9,23.1-18.9
					c14.1,0,21.3,6.6,20.7,20.3h-34.3c0.7,5.9,5.5,10.2,13.6,10.2c6,0,10.2-2.3,11.4-5.7H398z M364.3,32.5h24.5
					c-0.6-4.9-4.8-7.9-11.9-7.9C370.1,24.6,365.6,28,364.3,32.5z"/>
				<path class="st0" d="M405.8,3.8h9.4v50.4h-9.4V3.8z M447.2,54.2l-12,0l-19.8-20.2l17.3-15.8h12.9l-18.1,15.9L447.2,54.2z"/>
			</g>
		</g>
		<path class="st1" d="M77.1,61.2h-55c-1.7,0-3.1-1.4-3.1-3.1V18c0-1.7,1.4-3.1,3.1-3.1h55c1.7,0,3.1,1.4,3.1,3.1v40
			C80.2,59.8,78.8,61.2,77.1,61.2z"/>
		<path class="st2" d="M79,61.2H20.2c-0.7,0-1.2-0.5-1.2-1.2L7.5,24.2L19,27.1v-11c0-0.7,0.5-1.2,1.2-1.2h7.7L23.4,3.4L79,14.9
			c0.7,0,1.2,0.5,1.2,1.2V60C80.2,60.6,79.7,61.2,79,61.2z"/>
		<g>
			<defs>
				<path id="SVGID_1_" d="M77.1,61.2h-55c-1.7,0-3.1-1.4-3.1-3.1V18c0-1.7,1.4-3.1,3.1-3.1h55c1.7,0,3.1,1.4,3.1,3.1v40
					C80.2,59.8,78.8,61.2,77.1,61.2z"/>
			</defs>
			<clipPath id="SVGID_00000083778528642594033470000016669018251944675208_">
				<use xlink:href="#SVGID_1_"  style="overflow:visible;"/>
			</clipPath>
			<g style="clip-path:url(#SVGID_00000083778528642594033470000016669018251944675208_);">
				<path class="st0" d="M48.1,62.9L48.1,62.9c-1.5,1.5-3.9,1.5-5.4,0L14.3,34.5c-1.5-1.5-1.5-3.9,0-5.4l0,0c1.5-1.5,3.9-1.5,5.4,0
					l28.5,28.5C49.6,59,49.6,61.4,48.1,62.9z"/>
				<path class="st0" d="M75.5,38.3L75.5,38.3c-1.5,1.5-3.9,1.5-5.4,0L55,23.2c-1.5-1.5-1.5-3.9,0-5.4l0,0c1.5-1.5,3.9-1.5,5.4,0
					l15.1,15.1C77,34.4,77,36.8,75.5,38.3z"/>
				<path class="st0" d="M57.3,54.8L57.3,54.8c-1.5,1.5-3.9,1.5-5.4,0L40.7,43.6c-1.5-1.5-1.5-3.9,0-5.4l0,0c1.5-1.5,3.9-1.5,5.4,0
					l11.2,11.2C58.8,50.9,58.8,53.3,57.3,54.8z"/>
				<path class="st0" d="M37.6,35L37.6,35c-1.5,1.5-3.9,1.5-5.4,0l0,0c-1.5-1.5-1.5-3.9,0-5.4l0,0c1.5-1.5,3.9-1.5,5.4,0l0,0
					C39.1,31.1,39.1,33.6,37.6,35z"/>
				<path class="st0" d="M87.4,64.3l-3.3,3.3c-0.6,0.6-1.5,0.6-2.1,0L28,13.5c-0.6-0.6-0.6-1.5,0-2.1l3.3-3.3c0.6-0.6,1.5-0.6,2.1,0
					l54.1,54.1C88,62.8,88,63.7,87.4,64.3z"/>
			</g>
		</g>
	</g>
</svg>
