<svg data-name="Group 10" xmlns="http://www.w3.org/2000/svg" width="46.737" height="37.118" viewBox="0 0 46.737 37.118">
    <defs>
        <clipPath id="hwp7brinaa">
            <path data-name="Path 30" d="M432.648 501.918h-37.809a.768.768 0 0 1-.765-.765l-7.374-22.936 7.374 1.825v-7.078a.768.768 0 0 1 .765-.765h4.961l-2.886-7.4 35.762 7.4a.768.768 0 0 1 .765.765v28.166a.829.829 0 0 1-.793.788z" transform="translate(-386.7 -464.8)"/>
        </clipPath>
    </defs>
    <path data-name="Path 24" d="M455.173 524.519h-37.808a.768.768 0 0 1-.765-.765v-28.19a.768.768 0 0 1 .765-.765h37.809a.768.768 0 0 1 .765.765v28.166a.79.79 0 0 1-.766.789z" transform="translate(-409.226 -487.401)" style="fill:#01e193"/>
    <g data-name="Group 9">
        <g data-name="Group 8" style="clip-path:url(#hwp7brinaa)">
            <path data-name="Path 25" d="M423.774 551.174a2.456 2.456 0 0 1-3.478 0l-18.3-18.3a2.456 2.456 0 0 1 0-3.477 2.456 2.456 0 0 1 3.478 0l18.3 18.3a2.456 2.456 0 0 1 0 3.477z" transform="translate(-397.68 -512.921)" style="fill:#033735"/>
            <path data-name="Path 26" d="M521.291 513.291a2.456 2.456 0 0 1-3.478 0l-9.717-9.717a2.456 2.456 0 0 1 0-3.478 2.456 2.456 0 0 1 3.478 0l9.717 9.717a2.456 2.456 0 0 1 0 3.478z" transform="translate(-477.613 -490.848)" style="fill:#033735"/>
            <path data-name="Path 27" d="M481.5 563.8a2.456 2.456 0 0 1-3.478 0l-7.226-7.226a2.456 2.456 0 0 1 0-3.477 2.456 2.456 0 0 1 3.478 0l7.226 7.226a2.456 2.456 0 0 1 0 3.477z" transform="translate(-449.512 -530.776)" style="fill:#033735"/>
            <path data-name="Path 28" d="M452.174 534.374a2.456 2.456 0 0 1-3.478 0 2.456 2.456 0 0 1 0-3.478 2.456 2.456 0 0 1 3.478 0 2.456 2.456 0 0 1 0 3.478z" transform="translate(-432.863 -514.051)" style="fill:#033735"/>
            <path data-name="Path 29" d="M478.179 515.279a2.456 2.456 0 0 1-3.478 0l-32.6-32.6a2.456 2.456 0 0 1 0-3.478 2.456 2.456 0 0 1 3.478 0l32.6 32.6a2.456 2.456 0 0 1 0 3.478z" transform="translate(-427.89 -475.102)" style="fill:#033735"/>
        </g>
    </g>
</svg>
