<svg xmlns="http://www.w3.org/2000/svg" width="940" height="138.439" viewBox="0 0 940 138.439">
    <defs>
        <clipPath id="8f91v5shna">
            <path data-name="Path 30" d="M543.888 591.782H414.543a2.629 2.629 0 0 1-2.616-2.615L386.7 510.7l25.228 6.244v-24.216a2.629 2.629 0 0 1 2.616-2.616H431.5l-9.869-25.312 122.341 25.312a2.629 2.629 0 0 1 2.615 2.616v96.354a2.837 2.837 0 0 1-2.699 2.7z" transform="translate(-386.7 -464.8)"/>
        </clipPath>
    </defs>
    <g data-name="Group 313">
        <g data-name="Group 89">
            <g data-name="Group 6">
                <path data-name="Path 16" d="M716.832 502.214v15.31c-11.075.244-22.8-3.583-31.026-7.085 10.586 5.212 20.44 13.274 20.44 25.489 0 20.115-15.961 31.76-41.369 31.76-12.948.407-19.137 1.629-19.137 6.759 0 3.095 2.443 4.968 7.085 4.968h25.082c20.44 0 32.493 5.863 32.493 24.267v7.166h-19.953v-3.583c0-9.446-6.515-12.622-16.857-12.622h-23.861c-18.486 0-24.186-6.271-24.186-14.577 0-10.505 9.935-14.088 23.29-14.17-15.88-4.072-25.734-14.658-25.734-30.864 0-20.44 16.124-33.633 41.695-33.633a48.672 48.672 0 0 1 10.424 1.059zm-29.968 32.9c0-11.4-8.713-18.323-21.987-18.323-13.355 0-22.395 6.759-22.395 18.323s8.876 18.242 22.395 18.242c13.192-.001 21.987-6.678 21.987-18.242zm-5.7-26.792c-.9-.407-1.629-.814-2.362-1.14v.244c.814.244 1.547.574 2.361.896z" transform="translate(-423.1 -472.409)" style="fill:#01e193"/>
                <path data-name="Path 17" d="M802.787 501.3v18.242c-18.486 0-26.629 12.785-29.235 18.16V579.4H753.6v-76.3h19.951v22.883c2.932-9.373 11.32-24.683 29.236-24.683z" transform="translate(-447.327 -472.391)" style="fill:#01e193"/>
                <path data-name="Path 18" d="M916.61 554.007c-2.606 15.8-17.1 27.2-43 27.2-29.235 0-49.512-14.5-49.512-39.74 0-25 19.382-40.066 48.942-40.066 29.805 0 45.2 14.007 43.894 43h-72.719c1.466 12.623 11.645 21.662 28.909 21.662 12.7 0 21.743-4.886 24.186-12.053zm-71.419-20.6h52.037c-1.14-10.342-10.179-16.857-25.163-16.857-14.74-.003-24.265 7.245-26.874 16.85z" transform="translate(-460.416 -472.409)" style="fill:#01e193"/>
                <path data-name="Path 19" d="M1044.41 554.007c-2.606 15.8-17.1 27.2-43 27.2-29.235 0-49.513-14.5-49.513-39.74 0-25 19.381-40.066 48.942-40.066 29.805 0 45.2 14.007 43.893 43h-72.718c1.466 12.623 11.645 21.662 28.909 21.662 12.7 0 21.743-4.886 24.186-12.053zm-71.419-20.6h52.037c-1.14-10.342-10.18-16.857-25.164-16.857-14.739-.003-24.264 7.245-26.873 16.85z" transform="translate(-484.142 -472.409)" style="fill:#01e193"/>
                <path data-name="Path 20" d="M1171.975 532.715V579.3h-19.951v-43.083c0-12.948-5.945-18.893-20.033-18.893-13.844 0-25 7.981-28.34 16.613v45.278H1083.7v-76.3h19.952V524.9c4.072-12.3 16.368-23.7 35.424-23.7 18.73.081 32.899 9.935 32.899 31.515z" transform="translate(-508.61 -472.372)" style="fill:#01e193"/>
                <path data-name="Path 21" d="M1266.6 513.876h-19.626v61.158h-19.952v-61.158H1207.4v-15.147h19.626V477.8h19.952v20.929h19.622z" transform="translate(-531.575 -468.028)" style="fill:#01e193"/>
                <path data-name="Path 22" d="M1382.51 554.007c-2.606 15.8-17.1 27.2-43 27.2-29.235 0-49.512-14.5-49.512-39.74 0-25 19.381-40.066 48.942-40.066 29.806 0 45.2 14.007 43.894 43h-72.722c1.466 12.623 11.646 21.662 28.909 21.662 12.7 0 21.743-4.886 24.186-12.053zm-71.419-20.6h52.037c-1.14-10.342-10.18-16.857-25.164-16.857-14.657-.003-24.185 7.245-26.872 16.85z" transform="translate(-546.91 -472.409)" style="fill:#01e193"/>
                <path data-name="Path 23" d="M1424 465.8h19.951v107.006H1424zm87.787 107.006-25.326.082-42.1-42.835 36.728-33.551h27.28l-38.356 33.633z" transform="translate(-571.787 -465.8)" style="fill:#01e193"/>
            </g>
        </g>
        <g data-name="Group 312">
            <path data-name="Path 24" d="M548.56 596.47H419.216a2.629 2.629 0 0 1-2.616-2.615v-96.439a2.629 2.629 0 0 1 2.616-2.616H548.56a2.629 2.629 0 0 1 2.615 2.616v96.354a2.7 2.7 0 0 1-2.615 2.7z" transform="translate(-391.372 -463.759)" style="fill:#01e193"/>
            <g data-name="Group 9">
                <g data-name="Group 8" style="clip-path:url(#8f91v5shna)" transform="translate(0 5.729)">
                    <path data-name="Path 25" d="M478.245 605.645a8.4 8.4 0 0 1-11.9 0l-62.6-62.605a8.4 8.4 0 0 1 0-11.9 8.4 8.4 0 0 1 11.9 0l62.6 62.6a8.4 8.4 0 0 1 0 11.905z" transform="translate(-388.978 -474.781)" style="fill:#033735"/>
                    <path data-name="Path 26" d="M554.983 546.983a8.4 8.4 0 0 1-11.9 0l-33.24-33.243a8.4 8.4 0 0 1 0-11.9 8.4 8.4 0 0 1 11.9 0l33.243 33.243a8.4 8.4 0 0 1-.003 11.9z" transform="translate(-405.557 -470.203)" style="fill:#033735"/>
                    <path data-name="Path 27" d="M509.161 591.461a8.4 8.4 0 0 1-11.9 0l-24.718-24.721a8.4 8.4 0 0 1 0-11.9 8.4 8.4 0 0 1 11.9 0l24.721 24.721a8.4 8.4 0 0 1-.003 11.9z" transform="translate(-399.729 -478.485)" style="fill:#033735"/>
                    <path data-name="Path 28" d="M462.34 544.54a8.4 8.4 0 0 1-11.9 0 8.4 8.4 0 0 1 0-11.9 8.4 8.4 0 0 1 11.9 0 8.4 8.4 0 0 1 0 11.9z" transform="translate(-396.275 -475.016)" style="fill:#033735"/>
                    <path data-name="Path 29" d="M567.281 604.381a8.4 8.4 0 0 1-11.9 0L443.843 492.84a8.4 8.4 0 0 1 0-11.9 8.4 8.4 0 0 1 11.9 0l111.538 111.545a8.4 8.4 0 0 1 0 11.896z" transform="translate(-395.244 -466.937)" style="fill:#033735"/>
                </g>
            </g>
        </g>
    </g>
</svg>
