<svg xmlns="http://www.w3.org/2000/svg" width="67.23" height="108.234" viewBox="0 0 67.23 108.234">
    <path data-name="Path 32" d="M122.156 107.667 163.9 35.783a2.261 2.261 0 0 0-2.26-3.377l-27.77 3.774 6.635-34.834A1.131 1.131 0 0 0 138.5.453L97.449 54.635a2.262 2.262 0 0 0 2.039 3.615l30.612-3.222-10.037 51.857a1.131 1.131 0 0 0 2.093.782z" transform="translate(-96.985)" style="fill:#01e193"/>
    <path data-name="Path 33" d="M110.286 50.809a.936.936 0 0 1-.868-1.429l30.69-49.1a1.114 1.114 0 0 0-1.611.19L97.449 54.649a2.262 2.262 0 0 0 2.039 3.615l30.612-3.223-10.032 51.859a1.1 1.1 0 0 0 .888 1.309l17.2-54.423a3.769 3.769 0 0 0-3.895-4.893z" transform="translate(-96.985 -.013)" style="fill:#06db91"/>
</svg>
