<svg xmlns="http://www.w3.org/2000/svg" width="97.025" height="33.972" viewBox="0 0 97.025 33.972">
  <g id="Group_586" data-name="Group 586" transform="translate(-1116 -5519.736)">
    <g id="gallon" transform="translate(1116 5519.736)">
      <g id="Group_579" data-name="Group 579" transform="translate(0 0)">
        <path id="Path_2177" data-name="Path 2177" d="M75.929,8.739,69.958,2.767A9.5,9.5,0,0,0,63.29,0,12.964,12.964,0,0,0,50.351,12.939V30.986a2.982,2.982,0,0,0,2.986,2.986H73.242a2.982,2.982,0,0,0,2.986-2.986V9.435a.933.933,0,0,0-.3-.7ZM64.942,7.166,59.607,14.63a2.911,2.911,0,0,1-5.275-1.692A8.971,8.971,0,0,1,63.29,3.981a2.025,2.025,0,0,1,1.652,3.185Z" transform="translate(-50.351 0)" fill="#01e193"/>
      </g>
      <path id="Path_2178" data-name="Path 2178" d="M367.394,6.638l.706-.71a1,1,0,0,0,0-1.405L363.877.3a1,1,0,0,0-1.405,0L361.761,1Z" transform="translate(-341.098 -0.011)" fill="#01e193"/>
    </g>
    <g id="gallon-2" data-name="gallon" transform="translate(1150.515 5519.736)">
      <g id="Group_579-2" data-name="Group 579" transform="translate(0 0)">
        <path id="Path_2177-2" data-name="Path 2177" d="M75.929,8.739,69.958,2.767A9.5,9.5,0,0,0,63.29,0,12.964,12.964,0,0,0,50.351,12.939V30.986a2.982,2.982,0,0,0,2.986,2.986H73.242a2.982,2.982,0,0,0,2.986-2.986V9.435a.933.933,0,0,0-.3-.7ZM64.942,7.166,59.607,14.63a2.911,2.911,0,0,1-5.275-1.692A8.971,8.971,0,0,1,63.29,3.981a2.025,2.025,0,0,1,1.652,3.185Z" transform="translate(-50.351 0)" fill="#01e193"/>
      </g>
      <path id="Path_2178-2" data-name="Path 2178" d="M367.394,6.638l.706-.71a1,1,0,0,0,0-1.405L363.877.3a1,1,0,0,0-1.405,0L361.761,1Z" transform="translate(-341.098 -0.011)" fill="#01e193"/>
    </g>
    <g id="gallon-3" data-name="gallon" transform="translate(1185.734 5519.736)">
      <g id="Group_579-3" data-name="Group 579" transform="translate(0 0)">
        <path id="Path_2177-3" data-name="Path 2177" d="M75.929,8.739,69.958,2.767A9.5,9.5,0,0,0,63.29,0,12.964,12.964,0,0,0,50.351,12.939V30.986a2.982,2.982,0,0,0,2.986,2.986H73.242a2.982,2.982,0,0,0,2.986-2.986V9.435a.933.933,0,0,0-.3-.7ZM64.942,7.166,59.607,14.63a2.911,2.911,0,0,1-5.275-1.692A8.971,8.971,0,0,1,63.29,3.981a2.025,2.025,0,0,1,1.652,3.185Z" transform="translate(-50.351 0)" fill="#01e193"/>
      </g>
      <path id="Path_2178-3" data-name="Path 2178" d="M367.394,6.638l.706-.71a1,1,0,0,0,0-1.405L363.877.3a1,1,0,0,0-1.405,0L361.761,1Z" transform="translate(-341.098 -0.011)" fill="#01e193"/>
    </g>
  </g>
</svg>
