<svg xmlns="http://www.w3.org/2000/svg" width="131.54" height="162.875" viewBox="0 0 131.54 162.875">
  <g id="Galon" transform="translate(-80.46 -5390.833)">
    <g id="gallon" transform="translate(80.46 5519.736)">
      <g id="Group_579" data-name="Group 579" transform="translate(0 0)">
        <path id="Path_2177" data-name="Path 2177" d="M75.929,8.739,69.958,2.767A9.5,9.5,0,0,0,63.29,0,12.964,12.964,0,0,0,50.351,12.939V30.986a2.982,2.982,0,0,0,2.986,2.986H73.242a2.982,2.982,0,0,0,2.986-2.986V9.435a.933.933,0,0,0-.3-.7ZM64.942,7.166,59.607,14.63a2.911,2.911,0,0,1-5.275-1.692A8.971,8.971,0,0,1,63.29,3.981a2.025,2.025,0,0,1,1.652,3.185Z" transform="translate(-50.351 0)" fill="#01e193"/>
      </g>
      <path id="Path_2178" data-name="Path 2178" d="M367.394,6.638l.706-.71a1,1,0,0,0,0-1.405L363.877.3a1,1,0,0,0-1.405,0L361.761,1Z" transform="translate(-341.098 -0.011)" fill="#01e193"/>
    </g>
    <g id="gallon-2" data-name="gallon" transform="translate(80.46 5476.768)">
      <g id="Group_579-2" data-name="Group 579" transform="translate(0 0)">
        <path id="Path_2177-2" data-name="Path 2177" d="M75.929,8.739,69.958,2.767A9.5,9.5,0,0,0,63.29,0,12.964,12.964,0,0,0,50.351,12.939V30.986a2.982,2.982,0,0,0,2.986,2.986H73.242a2.982,2.982,0,0,0,2.986-2.986V9.435a.933.933,0,0,0-.3-.7ZM64.942,7.166,59.607,14.63a2.911,2.911,0,0,1-5.275-1.692A8.971,8.971,0,0,1,63.29,3.981a2.025,2.025,0,0,1,1.652,3.185Z" transform="translate(-50.351 0)" fill="#01e193"/>
      </g>
      <path id="Path_2178-2" data-name="Path 2178" d="M367.394,6.638l.706-.71a1,1,0,0,0,0-1.405L363.877.3a1,1,0,0,0-1.405,0L361.761,1Z" transform="translate(-341.098 -0.011)" fill="#01e193"/>
    </g>
    <g id="gallon-3" data-name="gallon" transform="translate(80.46 5433.801)">
      <g id="Group_579-3" data-name="Group 579" transform="translate(0 0)">
        <path id="Path_2177-3" data-name="Path 2177" d="M75.929,8.739,69.958,2.767A9.5,9.5,0,0,0,63.29,0,12.964,12.964,0,0,0,50.351,12.939V30.986a2.982,2.982,0,0,0,2.986,2.986H73.242a2.982,2.982,0,0,0,2.986-2.986V9.435a.933.933,0,0,0-.3-.7ZM64.942,7.166,59.607,14.63a2.911,2.911,0,0,1-5.275-1.692A8.971,8.971,0,0,1,63.29,3.981a2.025,2.025,0,0,1,1.652,3.185Z" transform="translate(-50.351 0)" fill="#01e193"/>
      </g>
      <path id="Path_2178-3" data-name="Path 2178" d="M367.394,6.638l.706-.71a1,1,0,0,0,0-1.405L363.877.3a1,1,0,0,0-1.405,0L361.761,1Z" transform="translate(-341.098 -0.011)" fill="#01e193"/>
    </g>
    <g id="gallon-4" data-name="gallon" transform="translate(80.46 5390.833)">
      <g id="Group_579-4" data-name="Group 579" transform="translate(0 0)">
        <path id="Path_2177-4" data-name="Path 2177" d="M75.929,8.739,69.958,2.767A9.5,9.5,0,0,0,63.29,0,12.964,12.964,0,0,0,50.351,12.939V30.986a2.982,2.982,0,0,0,2.986,2.986H73.242a2.982,2.982,0,0,0,2.986-2.986V9.435a.933.933,0,0,0-.3-.7ZM64.942,7.166,59.607,14.63a2.911,2.911,0,0,1-5.275-1.692A8.971,8.971,0,0,1,63.29,3.981a2.025,2.025,0,0,1,1.652,3.185Z" transform="translate(-50.351 0)" fill="#01e193"/>
      </g>
      <path id="Path_2178-4" data-name="Path 2178" d="M367.394,6.638l.706-.71a1,1,0,0,0,0-1.405L363.877.3a1,1,0,0,0-1.405,0L361.761,1Z" transform="translate(-341.098 -0.011)" fill="#01e193"/>
    </g>
    <g id="gallon-5" data-name="gallon" transform="translate(114.975 5519.736)">
      <g id="Group_579-5" data-name="Group 579" transform="translate(0 0)">
        <path id="Path_2177-5" data-name="Path 2177" d="M75.929,8.739,69.958,2.767A9.5,9.5,0,0,0,63.29,0,12.964,12.964,0,0,0,50.351,12.939V30.986a2.982,2.982,0,0,0,2.986,2.986H73.242a2.982,2.982,0,0,0,2.986-2.986V9.435a.933.933,0,0,0-.3-.7ZM64.942,7.166,59.607,14.63a2.911,2.911,0,0,1-5.275-1.692A8.971,8.971,0,0,1,63.29,3.981a2.025,2.025,0,0,1,1.652,3.185Z" transform="translate(-50.351 0)" fill="#01e193"/>
      </g>
      <path id="Path_2178-5" data-name="Path 2178" d="M367.394,6.638l.706-.71a1,1,0,0,0,0-1.405L363.877.3a1,1,0,0,0-1.405,0L361.761,1Z" transform="translate(-341.098 -0.011)" fill="#01e193"/>
    </g>
    <g id="gallon-6" data-name="gallon" transform="translate(114.975 5476.768)">
      <g id="Group_579-6" data-name="Group 579" transform="translate(0 0)">
        <path id="Path_2177-6" data-name="Path 2177" d="M75.929,8.739,69.958,2.767A9.5,9.5,0,0,0,63.29,0,12.964,12.964,0,0,0,50.351,12.939V30.986a2.982,2.982,0,0,0,2.986,2.986H73.242a2.982,2.982,0,0,0,2.986-2.986V9.435a.933.933,0,0,0-.3-.7ZM64.942,7.166,59.607,14.63a2.911,2.911,0,0,1-5.275-1.692A8.971,8.971,0,0,1,63.29,3.981a2.025,2.025,0,0,1,1.652,3.185Z" transform="translate(-50.351 0)" fill="#01e193"/>
      </g>
      <path id="Path_2178-6" data-name="Path 2178" d="M367.394,6.638l.706-.71a1,1,0,0,0,0-1.405L363.877.3a1,1,0,0,0-1.405,0L361.761,1Z" transform="translate(-341.098 -0.011)" fill="#01e193"/>
    </g>
    <g id="gallon-7" data-name="gallon" transform="translate(114.975 5433.801)">
      <g id="Group_579-7" data-name="Group 579" transform="translate(0 0)">
        <path id="Path_2177-7" data-name="Path 2177" d="M75.929,8.739,69.958,2.767A9.5,9.5,0,0,0,63.29,0,12.964,12.964,0,0,0,50.351,12.939V30.986a2.982,2.982,0,0,0,2.986,2.986H73.242a2.982,2.982,0,0,0,2.986-2.986V9.435a.933.933,0,0,0-.3-.7ZM64.942,7.166,59.607,14.63a2.911,2.911,0,0,1-5.275-1.692A8.971,8.971,0,0,1,63.29,3.981a2.025,2.025,0,0,1,1.652,3.185Z" transform="translate(-50.351 0)" fill="#01e193"/>
      </g>
      <path id="Path_2178-7" data-name="Path 2178" d="M367.394,6.638l.706-.71a1,1,0,0,0,0-1.405L363.877.3a1,1,0,0,0-1.405,0L361.761,1Z" transform="translate(-341.098 -0.011)" fill="#01e193"/>
    </g>
    <g id="gallon-8" data-name="gallon" transform="translate(114.975 5390.833)">
      <g id="Group_579-8" data-name="Group 579" transform="translate(0 0)">
        <path id="Path_2177-8" data-name="Path 2177" d="M75.929,8.739,69.958,2.767A9.5,9.5,0,0,0,63.29,0,12.964,12.964,0,0,0,50.351,12.939V30.986a2.982,2.982,0,0,0,2.986,2.986H73.242a2.982,2.982,0,0,0,2.986-2.986V9.435a.933.933,0,0,0-.3-.7ZM64.942,7.166,59.607,14.63a2.911,2.911,0,0,1-5.275-1.692A8.971,8.971,0,0,1,63.29,3.981a2.025,2.025,0,0,1,1.652,3.185Z" transform="translate(-50.351 0)" fill="#01e193"/>
      </g>
      <path id="Path_2178-8" data-name="Path 2178" d="M367.394,6.638l.706-.71a1,1,0,0,0,0-1.405L363.877.3a1,1,0,0,0-1.405,0L361.761,1Z" transform="translate(-341.098 -0.011)" fill="#01e193"/>
    </g>
    <g id="gallon-9" data-name="gallon" transform="translate(150.195 5519.736)">
      <g id="Group_579-9" data-name="Group 579" transform="translate(0 0)">
        <path id="Path_2177-9" data-name="Path 2177" d="M75.929,8.739,69.958,2.767A9.5,9.5,0,0,0,63.29,0,12.964,12.964,0,0,0,50.351,12.939V30.986a2.982,2.982,0,0,0,2.986,2.986H73.242a2.982,2.982,0,0,0,2.986-2.986V9.435a.933.933,0,0,0-.3-.7ZM64.942,7.166,59.607,14.63a2.911,2.911,0,0,1-5.275-1.692A8.971,8.971,0,0,1,63.29,3.981a2.025,2.025,0,0,1,1.652,3.185Z" transform="translate(-50.351 0)" fill="#01e193"/>
      </g>
      <path id="Path_2178-9" data-name="Path 2178" d="M367.394,6.638l.706-.71a1,1,0,0,0,0-1.405L363.877.3a1,1,0,0,0-1.405,0L361.761,1Z" transform="translate(-341.098 -0.011)" fill="#01e193"/>
    </g>
    <g id="gallon-10" data-name="gallon" transform="translate(150.195 5476.768)">
      <g id="Group_579-10" data-name="Group 579" transform="translate(0 0)">
        <path id="Path_2177-10" data-name="Path 2177" d="M75.929,8.739,69.958,2.767A9.5,9.5,0,0,0,63.29,0,12.964,12.964,0,0,0,50.351,12.939V30.986a2.982,2.982,0,0,0,2.986,2.986H73.242a2.982,2.982,0,0,0,2.986-2.986V9.435a.933.933,0,0,0-.3-.7ZM64.942,7.166,59.607,14.63a2.911,2.911,0,0,1-5.275-1.692A8.971,8.971,0,0,1,63.29,3.981a2.025,2.025,0,0,1,1.652,3.185Z" transform="translate(-50.351 0)" fill="#01e193"/>
      </g>
      <path id="Path_2178-10" data-name="Path 2178" d="M367.394,6.638l.706-.71a1,1,0,0,0,0-1.405L363.877.3a1,1,0,0,0-1.405,0L361.761,1Z" transform="translate(-341.098 -0.011)" fill="#01e193"/>
    </g>
    <g id="gallon-11" data-name="gallon" transform="translate(150.195 5433.801)">
      <g id="Group_579-11" data-name="Group 579" transform="translate(0 0)">
        <path id="Path_2177-11" data-name="Path 2177" d="M75.929,8.739,69.958,2.767A9.5,9.5,0,0,0,63.29,0,12.964,12.964,0,0,0,50.351,12.939V30.986a2.982,2.982,0,0,0,2.986,2.986H73.242a2.982,2.982,0,0,0,2.986-2.986V9.435a.933.933,0,0,0-.3-.7ZM64.942,7.166,59.607,14.63a2.911,2.911,0,0,1-5.275-1.692A8.971,8.971,0,0,1,63.29,3.981a2.025,2.025,0,0,1,1.652,3.185Z" transform="translate(-50.351 0)" fill="#01e193"/>
      </g>
      <path id="Path_2178-11" data-name="Path 2178" d="M367.394,6.638l.706-.71a1,1,0,0,0,0-1.405L363.877.3a1,1,0,0,0-1.405,0L361.761,1Z" transform="translate(-341.098 -0.011)" fill="#01e193"/>
    </g>
    <g id="gallon-12" data-name="gallon" transform="translate(150.195 5390.833)">
      <g id="Group_579-12" data-name="Group 579" transform="translate(0 0)">
        <path id="Path_2177-12" data-name="Path 2177" d="M75.929,8.739,69.958,2.767A9.5,9.5,0,0,0,63.29,0,12.964,12.964,0,0,0,50.351,12.939V30.986a2.982,2.982,0,0,0,2.986,2.986H73.242a2.982,2.982,0,0,0,2.986-2.986V9.435a.933.933,0,0,0-.3-.7ZM64.942,7.166,59.607,14.63a2.911,2.911,0,0,1-5.275-1.692A8.971,8.971,0,0,1,63.29,3.981a2.025,2.025,0,0,1,1.652,3.185Z" transform="translate(-50.351 0)" fill="#01e193"/>
      </g>
      <path id="Path_2178-12" data-name="Path 2178" d="M367.394,6.638l.706-.71a1,1,0,0,0,0-1.405L363.877.3a1,1,0,0,0-1.405,0L361.761,1Z" transform="translate(-341.098 -0.011)" fill="#01e193"/>
    </g>
    <g id="gallon-13" data-name="gallon" transform="translate(184.71 5519.736)">
      <g id="Group_579-13" data-name="Group 579" transform="translate(0 0)">
        <path id="Path_2177-13" data-name="Path 2177" d="M75.929,8.739,69.958,2.767A9.5,9.5,0,0,0,63.29,0,12.964,12.964,0,0,0,50.351,12.939V30.986a2.982,2.982,0,0,0,2.986,2.986H73.242a2.982,2.982,0,0,0,2.986-2.986V9.435a.933.933,0,0,0-.3-.7ZM64.942,7.166,59.607,14.63a2.911,2.911,0,0,1-5.275-1.692A8.971,8.971,0,0,1,63.29,3.981a2.025,2.025,0,0,1,1.652,3.185Z" transform="translate(-50.351 0)" fill="#01e193"/>
      </g>
      <path id="Path_2178-13" data-name="Path 2178" d="M367.394,6.638l.706-.71a1,1,0,0,0,0-1.405L363.877.3a1,1,0,0,0-1.405,0L361.761,1Z" transform="translate(-341.098 -0.011)" fill="#01e193"/>
    </g>
    <g id="gallon-14" data-name="gallon" transform="translate(184.71 5476.768)">
      <g id="Group_579-14" data-name="Group 579" transform="translate(0 0)">
        <path id="Path_2177-14" data-name="Path 2177" d="M75.929,8.739,69.958,2.767A9.5,9.5,0,0,0,63.29,0,12.964,12.964,0,0,0,50.351,12.939V30.986a2.982,2.982,0,0,0,2.986,2.986H73.242a2.982,2.982,0,0,0,2.986-2.986V9.435a.933.933,0,0,0-.3-.7ZM64.942,7.166,59.607,14.63a2.911,2.911,0,0,1-5.275-1.692A8.971,8.971,0,0,1,63.29,3.981a2.025,2.025,0,0,1,1.652,3.185Z" transform="translate(-50.351 0)" fill="#01e193"/>
      </g>
      <path id="Path_2178-14" data-name="Path 2178" d="M367.394,6.638l.706-.71a1,1,0,0,0,0-1.405L363.877.3a1,1,0,0,0-1.405,0L361.761,1Z" transform="translate(-341.098 -0.011)" fill="#01e193"/>
    </g>
    <g id="gallon-15" data-name="gallon" transform="translate(184.71 5433.801)">
      <g id="Group_579-15" data-name="Group 579" transform="translate(0 0)">
        <path id="Path_2177-15" data-name="Path 2177" d="M75.929,8.739,69.958,2.767A9.5,9.5,0,0,0,63.29,0,12.964,12.964,0,0,0,50.351,12.939V30.986a2.982,2.982,0,0,0,2.986,2.986H73.242a2.982,2.982,0,0,0,2.986-2.986V9.435a.933.933,0,0,0-.3-.7ZM64.942,7.166,59.607,14.63a2.911,2.911,0,0,1-5.275-1.692A8.971,8.971,0,0,1,63.29,3.981a2.025,2.025,0,0,1,1.652,3.185Z" transform="translate(-50.351 0)" fill="#01e193"/>
      </g>
      <path id="Path_2178-15" data-name="Path 2178" d="M367.394,6.638l.706-.71a1,1,0,0,0,0-1.405L363.877.3a1,1,0,0,0-1.405,0L361.761,1Z" transform="translate(-341.098 -0.011)" fill="#01e193"/>
    </g>
    <g id="gallon-16" data-name="gallon" transform="translate(184.71 5390.833)">
      <g id="Group_579-16" data-name="Group 579" transform="translate(0 0)">
        <path id="Path_2177-16" data-name="Path 2177" d="M75.929,8.739,69.958,2.767A9.5,9.5,0,0,0,63.29,0,12.964,12.964,0,0,0,50.351,12.939V30.986a2.982,2.982,0,0,0,2.986,2.986H73.242a2.982,2.982,0,0,0,2.986-2.986V9.435a.933.933,0,0,0-.3-.7ZM64.942,7.166,59.607,14.63a2.911,2.911,0,0,1-5.275-1.692A8.971,8.971,0,0,1,63.29,3.981a2.025,2.025,0,0,1,1.652,3.185Z" transform="translate(-50.351 0)" fill="#01e193"/>
      </g>
      <path id="Path_2178-16" data-name="Path 2178" d="M367.394,6.638l.706-.71a1,1,0,0,0,0-1.405L363.877.3a1,1,0,0,0-1.405,0L361.761,1Z" transform="translate(-341.098 -0.011)" fill="#01e193"/>
    </g>
  </g>
</svg>
