<svg xmlns="http://www.w3.org/2000/svg" width="502.582" height="525.642" viewBox="0 0 502.582 525.642">
  <g id="Substantial_Energy_Savings" data-name="Substantial Energy Savings" transform="translate(-161.232 -1913.758)">
    <g id="fridge" transform="translate(161.232 1914.258)">
      <path id="Path_2862" data-name="Path 2862" d="M90.976,466.8H411.605a250.764,250.764,0,0,0,90.976-193.507C502.581,134.5,390.075,22,251.288,22S0,134.5,0,273.289A250.763,250.763,0,0,0,90.975,466.8Zm0,0" transform="translate(0.001 0.565)" fill="#033735"/>
      <path id="Path_2863" data-name="Path 2863" d="M409.945,287.288V12.961A13,13,0,0,0,396.988,0H101.07A13,13,0,0,0,88.113,12.961V287.288Zm0,0" transform="translate(2.261 0)" fill="#e0ece8"/>
      <path id="Path_2864" data-name="Path 2864" d="M88.113,459.662a251.256,251.256,0,0,0,321.832,0V280.1H88.114Zm0,0" transform="translate(2.262 7.19)" fill="#e0ece8"/>
      <path id="Path_2865" data-name="Path 2865" d="M192.014,0H101.07A13,13,0,0,0,88.113,12.961V287.287h90.944V12.961A13,13,0,0,1,192.014,0Zm0,0" transform="translate(2.262 0)" fill="#fff" stroke="#e3e3e3" stroke-width="1"/>
      <path id="Path_2866" data-name="Path 2866" d="M179.057,280.1H88.113V459.662a250.712,250.712,0,0,0,90.944,48.4Zm0,0" transform="translate(2.262 7.19)" fill="#fff" stroke="#e2e2e2" stroke-width="1"/>
      <path id="Path_2870" data-name="Path 2870" d="M410.148,288.4H88.317a8.1,8.1,0,1,1,0-16.2H410.148a8.1,8.1,0,0,1,0,16.2Zm0,0" transform="translate(2.06 6.987)" fill="#01e193"/>
      <path id="Path_2871" data-name="Path 2871" d="M170.814,280.3a8.1,8.1,0,0,1,8.1-8.1h-90.6a8.1,8.1,0,1,0,0,16.2h90.6A8.1,8.1,0,0,1,170.814,280.3Zm0,0" transform="translate(2.06 6.987)" fill="#0ac483"/>
      <path id="Path_2872" data-name="Path 2872" d="M149.414,283.913V146.053a14.58,14.58,0,1,0-29.159,0v137.86Zm0,0" transform="translate(3.087 3.375)" fill="#01e193"/>
      <path id="Path_2873" data-name="Path 2873" d="M120.254,280.1V417.962a14.58,14.58,0,1,0,29.159,0V280.1Zm0,0" transform="translate(3.087 7.19)" fill="#13d290"/>
      <path id="Path_2874" data-name="Path 2874" d="M134.834,354.779a14.578,14.578,0,0,1-14.58-14.58v76.22a14.58,14.58,0,1,0,29.159,0V340.2A14.578,14.578,0,0,1,134.834,354.779Zm0,0" transform="translate(3.087 8.733)" fill="#0ac483"/>
    </g>
    <g id="energy_1_" data-name="energy (1)" transform="translate(424.739 1959.313)">
      <path id="Path_2879" data-name="Path 2879" d="M111.112,17.892A89.009,89.009,0,0,1,68.145,2.431a9.7,9.7,0,0,0-10.842,0,89.009,89.009,0,0,1-42.968,15.46A9.587,9.587,0,0,0,5.5,27.329V70.5c0,33.531,25.1,48.791,53.007,62.645a9.571,9.571,0,0,0,8.433,0c33.531-16.665,53.007-32.326,53.007-62.645V27.128c0-4.618-3.815-8.634-8.835-9.236ZM65.534,130.532a7.337,7.337,0,0,1-5.823,0C32.807,117.28,8.512,102.623,8.512,70.7V27.529A6.4,6.4,0,0,1,14.535,21.1,93.554,93.554,0,0,0,59.109,5.042a6.329,6.329,0,0,1,7.429,0A90.782,90.782,0,0,0,111.112,21.1a6.684,6.684,0,0,1,6.024,6.425V70.7C116.935,99.41,98.061,114.469,65.534,130.532Z" transform="translate(-5.5 -0.775)" fill="#01e193"/>
      <path id="Path_2880" data-name="Path 2880" d="M54.963,9.1A102.841,102.841,0,0,1,13.2,24.36V62.308c0,21.885,14.055,33.33,41.763,47.184C86.486,93.63,96.726,81.784,96.726,62.308V24.36A102.841,102.841,0,0,1,54.963,9.1ZM66.207,53.273a2.05,2.05,0,0,1,1.606,3.413L47.936,83.39a2.084,2.084,0,0,1-3.614-2.008L51.55,64.316H43.719A2.167,2.167,0,0,1,41.711,61.5l8.031-23.492a2.418,2.418,0,0,1,2.008-1.405H66.207a2.147,2.147,0,0,1,1.807,3.213L59.983,53.473h6.224Z" transform="translate(2.26 7.615)" fill="#01e193"/>
    </g>
    <circle id="Ellipse_68" data-name="Ellipse 68" cx="7.139" cy="7.139" r="7.139" transform="translate(492.24 2162.425)" fill="#01e193"/>
    <circle id="Ellipse_69" data-name="Ellipse 69" cx="7.139" cy="7.139" r="7.139" transform="translate(508.421 2162.425)" fill="#01e193"/>
    <circle id="Ellipse_70" data-name="Ellipse 70" cx="7.139" cy="7.139" r="7.139" transform="translate(525.554 2162.425)" fill="#01e193"/>
  </g>
</svg>
