<svg xmlns="http://www.w3.org/2000/svg" xmlns:xlink="http://www.w3.org/1999/xlink" width="532" height="604.658" viewBox="0 0 532 604.658">
  <defs>
    <clipPath id="clip-path">
      <circle id="Ellipse_80" data-name="Ellipse 80" cx="266" cy="266" r="266" transform="translate(0 0.429)" fill="#033735"/>
    </clipPath>
    <clipPath id="clip-path-2">
      <rect id="Rectangle_367" data-name="Rectangle 367" width="58.378" height="33.598"/>
    </clipPath>
  </defs>
  <g id="Superior_Thermal_Regulation" data-name="Superior Thermal Regulation" transform="translate(-1145 -2893.407)">
    <ellipse id="Ellipse_81" data-name="Ellipse 81" cx="232.5" cy="198" rx="232.5" ry="198" transform="translate(1179 3102.065)" fill="#033735"/>
    <g id="Group_2534" data-name="Group 2534" transform="translate(1511.224 2893.407)">
      <g id="Group_1157" data-name="Group 1157" transform="translate(0 72.127)">
        <path id="Path_2844" data-name="Path 2844" d="M800.79,257.6H789l16.778,16.778L789,291.042h11.79l16.664-16.664Z" transform="translate(-789 -257.6)" fill="#01ce80" opacity="0.25"/>
        <path id="Path_2845" data-name="Path 2845" d="M818.076,257.6H806.4l16.778,16.778L806.4,291.042h11.676l16.778-16.664Z" transform="translate(-786.675 -257.6)" fill="#01ce80"/>
      </g>
      <g id="Group_1166" data-name="Group 1166" transform="translate(95.452 21.908)">
        <g id="Group_1165" data-name="Group 1165">
          <path id="Path_2856" data-name="Path 2856" d="M890.545,310.452V215.681a2.325,2.325,0,0,0-2.381-2.381h0a2.324,2.324,0,0,0-2.38,2.381v94.885a15.312,15.312,0,1,0,18.025,15.077A15.682,15.682,0,0,0,890.545,310.452Z" transform="translate(-873.2 -213.3)" fill="#01e193"/>
        </g>
      </g>
      <path id="Path_2857" data-name="Path 2857" d="M875.14,238.331v66.091a27.245,27.245,0,0,0-11.223,29.928c3.061,11.336,13.944,19.158,25.507,19.5,11.79.34,22.219-7.709,25.96-18.592,3.968-11.563-1.133-24.26-11-30.835V219.739c0-3.741.34-7.822-.34-11.563-2.154-11.336-19.159-12.923-25.847-5.215-3.514,4.081-3.061,9.182-3.061,14.057Zm4.081,67.111V218.832c0-4.194-.68-9.182,1.7-12.923,2.834-4.194,10.656-4.648,14.851-2.494,3.174,1.587,4.421,4.988,4.421,8.389v93.525a1.684,1.684,0,0,0,.68,1.474c.113.113.227.227.34.227a23.13,23.13,0,0,1,4.195,36.163c-10.2,10.089-27.321,7.369-34.916-4.308a22.578,22.578,0,0,1,3.514-28.681C875.48,309.069,879.221,307.6,879.221,305.442Z" transform="translate(-779.121 -193.41)" fill="#1a2e35"/>
      <path id="Path_2858" data-name="Path 2858" d="M903.5,231.1h9.069a1.7,1.7,0,0,0,0-3.4H903.5A1.7,1.7,0,1,0,903.5,231.1Z" transform="translate(-773.926 -189.468)" fill="#1a2e35"/>
      <path id="Path_2859" data-name="Path 2859" d="M903.5,248.9h9.069a1.7,1.7,0,0,0,0-3.4H903.5A1.7,1.7,0,1,0,903.5,248.9Z" transform="translate(-773.926 -187.089)" fill="#1a2e35"/>
      <path id="Path_2860" data-name="Path 2860" d="M903.5,268.4h9.069a1.7,1.7,0,0,0,0-3.4H903.5A1.7,1.7,0,1,0,903.5,268.4Z" transform="translate(-773.926 -184.483)" fill="#1a2e35"/>
      <path id="Path_2861" data-name="Path 2861" d="M826.84,217.81c3.174-.68,6.348-1.474,9.522-2.154.113,0,.34-.113.454-.113,4.081,2.607,8.162,5.1,12.243,7.709-4.081,2.607-8.162,5.328-12.13,7.935-.113,0-.113,0-.227-.113-3.174-.68-6.348-1.36-9.523-1.927-2.041-.453-2.947,2.721-.907,3.174,2.267.453,4.535.907,6.688,1.36-1.7,1.134-3.4,2.267-5.215,3.4s-.113,3.968,1.7,2.834,3.628-2.381,5.441-3.514c-.453,2.154-.907,4.308-1.36,6.575-.454,2.041,2.721,2.947,3.174.907.68-3.174,1.247-6.235,1.927-9.409v-.567c3.854-2.494,7.709-5.1,11.563-7.6V239.8c-.113,0-.113.113-.227.227l-6.915,6.915c-1.474,1.474.793,3.854,2.267,2.267l4.761-4.761v6.235a1.644,1.644,0,0,0,3.288,0v-6.348l4.761,4.761c1.474,1.474,3.854-.794,2.267-2.267l-6.8-6.8c-.113-.113-.227-.227-.34-.227V226.085l11.9,7.482v.34c.68,3.174,1.474,6.348,2.154,9.522.453,2.041,3.628,1.134,3.174-.907-.454-2.154-1.02-4.308-1.474-6.575,1.814,1.134,3.514,2.267,5.328,3.4s3.4-1.7,1.7-2.834c-1.814-1.134-3.514-2.267-5.328-3.4,2.267-.567,4.421-1.02,6.688-1.587,2.041-.453,1.134-3.628-.907-3.174-3.061.68-6.235,1.474-9.3,2.154-.113,0-.227.113-.34.113l-11.9-7.482,11.9-7.822h.113c3.174.68,6.235,1.247,9.409,1.927,2.041.453,2.948-2.721.907-3.174l-6.462-1.36c1.587-1.02,3.061-2.041,4.648-3.061,1.814-1.134.113-3.968-1.7-2.834-1.7,1.134-3.288,2.154-4.988,3.288l1.36-6.8c.454-2.041-2.721-2.947-3.174-.907-.68,3.174-1.36,6.348-1.927,9.522v.567c-3.854,2.494-7.709,5.1-11.563,7.6V205.793c.113,0,.113-.113.227-.113l6.8-6.8c1.474-1.474-.794-3.854-2.267-2.267l-4.648,4.648V195.59a1.644,1.644,0,0,0-3.288,0v5.895l-4.988-4.988c-1.474-1.474-3.854.794-2.267,2.267l6.915,6.915.34.34v14.057l-11.9-7.482v-.34c-.68-3.061-1.474-6.235-2.154-9.3-.453-2.041-3.628-1.134-3.174.907.454,2.154,1.02,4.194,1.474,6.348-1.587-1.02-3.174-2.041-4.875-3.061-1.814-1.134-3.4,1.7-1.7,2.834,1.7,1.02,3.288,2.041,4.988,3.061-2.267.567-4.648,1.02-6.915,1.587C823.892,215.089,824.8,218.263,826.84,217.81Z" transform="translate(-784.216 -193.975)" fill="#01ce80" opacity="0.25"/>
    </g>
    <g id="Mask_Group_3" data-name="Mask Group 3" transform="translate(1145 2965.636)" clip-path="url(#clip-path)">
      <g id="Group_1164" data-name="Group 1164" transform="translate(110.555 63.595)">
        <path id="Path_2846" data-name="Path 2846" d="M724.179,189.162V832.555a25.652,25.652,0,0,1-21.781,25.4,29.01,29.01,0,0,1-3.968.265H438.462A25.686,25.686,0,0,1,412.8,832.555V189.162A25.686,25.686,0,0,1,438.462,163.5H698.429a25.751,25.751,0,0,1,6.437.794c.882.265,1.676.529,2.469.794a27.927,27.927,0,0,1,3.351,1.5A25.6,25.6,0,0,1,724.179,189.162Z" transform="translate(-412.712 -163.5)" fill="#e1fff3" stroke="#024846" stroke-miterlimit="10" stroke-width="1"/>
        <rect id="Rectangle_364" data-name="Rectangle 364" width="311.379" height="29.189" transform="translate(0.088 665.616)" fill="#01ce80"/>
        <g id="Group_1161" data-name="Group 1161" transform="translate(29.365 136.333)">
          <path id="Path_2847" data-name="Path 2847" d="M551.116,374.714H448.557A2.559,2.559,0,0,1,446,372.157v-51.5a2.559,2.559,0,0,1,2.557-2.557H551.116a2.559,2.559,0,0,1,2.557,2.557v51.412A2.526,2.526,0,0,1,551.116,374.714Z" transform="translate(-446 -318.1)" fill="#1a2e35"/>
          <rect id="Rectangle_365" data-name="Rectangle 365" width="62.258" height="37.919" transform="translate(8.818 8.201)" fill="#2a3647"/>
          <rect id="Rectangle_366" data-name="Rectangle 366" width="58.378" height="33.598" transform="translate(10.759 10.406)" fill="#60e2ad"/>
          <ellipse id="Ellipse_66" data-name="Ellipse 66" cx="5.908" cy="5.379" rx="5.908" ry="5.379" transform="translate(86.685 9.965)" fill="#e1fff3" stroke="#024846" stroke-miterlimit="10" stroke-width="1"/>
          <ellipse id="Ellipse_67" data-name="Ellipse 67" cx="5.908" cy="5.379" rx="5.908" ry="5.379" transform="translate(86.685 27.514)" fill="#e1fff3" stroke="#024846" stroke-miterlimit="10" stroke-width="1"/>
          <g id="Group_1160" data-name="Group 1160" transform="translate(10.759 10.406)">
            <g id="Group_1158" data-name="Group 1158" clip-path="url(#clip-path-2)">
              <path id="Path_2848" data-name="Path 2848" d="M468.437,378.19l-7.937-2.469L484.486,310.2l7.937,2.381Z" transform="translate(-458.472 -327.572)" fill="#fff" opacity="0.3"/>
            </g>
            <g id="Group_1159" data-name="Group 1159" clip-path="url(#clip-path-2)">
              <path id="Path_2849" data-name="Path 2849" d="M482.468,382.456l-3.968-1.235L502.574,315.7l3.968,1.235Z" transform="translate(-460.599 -328.222)" fill="#fff" opacity="0.3"/>
            </g>
          </g>
        </g>
        <g id="Group_1162" data-name="Group 1162" transform="translate(29.365 245.241)">
          <path id="Path_2850" data-name="Path 2850" d="M463.332,596.37H450.81a2.936,2.936,0,0,1-2.91-2.91V445.31a2.936,2.936,0,0,1,2.91-2.91h12.522a2.936,2.936,0,0,1,2.91,2.91V593.46A2.936,2.936,0,0,1,463.332,596.37Z" transform="translate(-446.224 -441.694)" fill="#10ace6" opacity="0.24"/>
          <path id="Path_2851" data-name="Path 2851" d="M459.58,595.57H448.557A2.559,2.559,0,0,1,446,593.013V444.157a2.559,2.559,0,0,1,2.557-2.557H459.58a2.559,2.559,0,0,1,2.557,2.557V593.013A2.559,2.559,0,0,1,459.58,595.57Z" transform="translate(-446 -441.6)" fill="#dee0e1"/>
        </g>
        <g id="Group_1163" data-name="Group 1163" transform="translate(29.365 534.662)">
          <path id="Path_2852" data-name="Path 2852" d="M463.332,869.331H450.81a2.936,2.936,0,0,1-2.91-2.91V773.21a2.936,2.936,0,0,1,2.91-2.91h12.522a2.936,2.936,0,0,1,2.91,2.91v93.211A2.936,2.936,0,0,1,463.332,869.331Z" transform="translate(-446.224 -769.859)" fill="#10ace6" opacity="0.24"/>
          <path id="Path_2853" data-name="Path 2853" d="M459.58,868.743H448.557A2.559,2.559,0,0,1,446,866.186V772.357a2.559,2.559,0,0,1,2.557-2.557H459.58a2.559,2.559,0,0,1,2.557,2.557v93.917A2.542,2.542,0,0,1,459.58,868.743Z" transform="translate(-446 -769.8)" fill="#dee0e1"/>
        </g>
        <path id="Path_2854" data-name="Path 2854" d="M746.522,189.162V832.555a25.652,25.652,0,0,1-21.781,25.4,29.011,29.011,0,0,1-3.968.265H601.9c17.2-33.157,64.11-133.511,73.634-375.578,6-154.235-39.948-262.613-72.576-319.139H720.773a25.749,25.749,0,0,1,6.438.794c.882.265,1.675.529,2.469.794a27.916,27.916,0,0,1,3.351,1.5A25.6,25.6,0,0,1,746.522,189.162Z" transform="translate(-435.055 -163.5)" fill="#01ce80" opacity="0.24"/>
        <path id="Path_2855" data-name="Path 2855" d="M432.806,239.074c-.794,48.766,0,589.777,0,589.777H412.7V189.162A25.686,25.686,0,0,1,438.362,163.5h13.4C444.535,178.4,433.335,206.446,432.806,239.074Z" transform="translate(-412.7 -163.5)" fill="#01ce80" opacity="0.24"/>
        <rect id="Rectangle_369" data-name="Rectangle 369" width="311.379" height="14.374" transform="translate(0.088 481.399)" fill="#01ce80"/>
      </g>
    </g>
  </g>
</svg>
